<?xml version="1.0" encoding="UTF-8"?>
<!DOCTYPE svg PUBLIC "-//W3C//DTD SVG 1.1//EN" "http://www.w3.org/Graphics/SVG/1.1/DTD/svg11.dtd">
<!-- Creator: CorelDRAW -->
<svg xmlns="http://www.w3.org/2000/svg" xml:space="preserve" width="888px" height="598px" version="1.1" style="shape-rendering:geometricPrecision; text-rendering:geometricPrecision; image-rendering:optimizeQuality; fill-rule:evenodd; clip-rule:evenodd"
viewBox="0 0 888 598.5"
 xmlns:xlink="http://www.w3.org/1999/xlink"
 xmlns:xodm="http://www.corel.com/coreldraw/odm/2003">
 <defs>
  <style type="text/css">
   <![CDATA[
    .str0 {stroke:#252323;stroke-width:0.9;stroke-miterlimit:22.9256}
    .fil0 {fill:#FEFEFE}
    .fil1 {fill:#252323}
   ]]>
  </style>
 </defs>
 <g id="Capa_x0020_1">
  <metadata id="CorelCorpID_0Corel-Layer"/>
  <path class="fil0 str0" d="M237.06 75.39c-18.03,-5.97 -32.8,-15.79 -38.89,-29.84l-0.01 -0.02 0 -0.02 -0.01 -0.02 -0.01 -0.02 -0.02 -0.04 -0.3 -0.72 -0.01 -0.03 0 -0.01 -0.02 -0.03 -0.01 -0.03 -0.3 -0.77 0 -0.01c-1.16,-3.1 -1.91,-6.41 -2.18,-9.91 2.82,-1.17 5.55,-2.37 8.15,-3.62 20.34,5.09 46.87,5.09 67.22,0 2.6,1.25 5.33,2.45 8.15,3.62 -0.08,0.92 -0.18,1.83 -0.32,2.73l-0.01 0.09 -0.02 0.1c-0.14,0.88 -0.31,1.75 -0.51,2.6l0 0.04 -0.01 0.01c-0.14,0.59 -0.29,1.17 -0.45,1.74l-0.01 0.02 0 0 -0.01 0.03 -0.25 0.84 -0.01 0.02c-0.09,0.28 -0.18,0.56 -0.28,0.84l-0.01 0.04c-0.19,0.55 -0.4,1.1 -0.61,1.64l-0.01 0.02 -0.03 0.06 -0.32 0.77 -0.03 0.08c-6.1,14.03 -20.86,23.84 -38.87,29.8zm0 -8.33c16.67,-6.99 28.09,-14.04 32.3,-29.42 -22.07,4.98 -42.53,4.98 -64.6,0 4.21,15.38 15.63,22.43 32.3,29.42z"/>
  <g>
   <path class="fil0" d="M598.78 30.42l0.06 0.01c0.3,0.08 0.6,0.15 0.9,0.22 12.54,2.84 24.2,3.74 36.04,3.66 11.43,-0.07 23.03,-1.03 35.21,-3.96l7.25 4.61c-17.61,5.99 -43.13,7.94 -61.6,5.51 -4.05,-0.53 -21.84,-3.64 -23.94,-5.57l6.08 -4.48z"/>
   <path id="_1" class="fil1" d="M598.78 30.42l0.06 0.01 0.9 0.21c6.27,1.43 12.32,2.37 18.28,2.94 5.96,0.57 11.84,0.77 17.76,0.73 5.71,-0.04 11.47,-0.3 17.33,-0.91 5.85,-0.61 11.79,-1.59 17.88,-3.05l0.01 0 7.24 4.61 0 0 0 0c-8.63,2.94 -19.16,4.9 -29.83,5.86 -4.64,0.41 -9.3,0.63 -13.85,0.66 15,-0.1 31.3,-2.31 43.68,-6.52l-7.25 -4.61c-12.18,2.93 -23.78,3.89 -35.21,3.96 -11.84,0.08 -23.5,-0.82 -36.04,-3.66 -0.3,-0.07 -0.6,-0.14 -0.9,-0.22l-0.06 -0.01 -6.08 4.48c2.1,1.93 19.89,5.04 23.94,5.57 3.18,0.42 6.55,0.71 10.06,0.87 -3.51,-0.16 -6.89,-0.45 -10.06,-0.86 -2.49,-0.33 -10.21,-1.64 -16.25,-3.05 -3.77,-0.87 -6.89,-1.79 -7.7,-2.52l0 -0.01 0 0 6.09 -4.48 0 0zm35.78 11.06c-0.33,0.01 -0.65,0.01 -0.98,0.01 0.33,0 0.65,0 0.98,-0.01zm-1.01 0.01c-0.32,0 -0.63,0 -0.95,0 0.32,0 0.63,0 0.95,0zm-1 0c-0.31,-0.01 -0.62,-0.01 -0.93,-0.01 0.31,0 0.62,0 0.93,0.01zm-1 -0.01c-0.3,-0.01 -0.61,-0.01 -0.92,-0.02 0.31,0.01 0.62,0.01 0.92,0.02zm-0.99 -0.02c-0.3,0 -0.6,-0.01 -0.91,-0.02 0.31,0.01 0.61,0.02 0.91,0.02zm-0.97 -0.02c-0.31,-0.01 -0.62,-0.02 -0.92,-0.03 0.3,0.01 0.61,0.02 0.92,0.03zm-0.97 -0.03c-0.31,-0.01 -0.62,-0.02 -0.93,-0.03 0.31,0.01 0.62,0.02 0.93,0.03zm-0.96 -0.03c-0.32,-0.01 -0.63,-0.03 -0.94,-0.04 0.31,0.01 0.62,0.03 0.94,0.04z"/>
  </g>
 </g>
</svg>
