<?xml version="1.0" encoding="UTF-8"?>
<!DOCTYPE svg PUBLIC "-//W3C//DTD SVG 1.1//EN" "http://www.w3.org/Graphics/SVG/1.1/DTD/svg11.dtd">
<!-- Creator: CorelDRAW -->
<svg xmlns="http://www.w3.org/2000/svg" xml:space="preserve" width="888px" height="598px" version="1.1" style="shape-rendering:geometricPrecision; text-rendering:geometricPrecision; image-rendering:optimizeQuality; fill-rule:evenodd; clip-rule:evenodd"
viewBox="0 0 888 598.5"
 xmlns:xlink="http://www.w3.org/1999/xlink"
 xmlns:xodm="http://www.corel.com/coreldraw/odm/2003">
 <defs>
  <style type="text/css">
   <![CDATA[
    .str0 {stroke:#ED3237;stroke-width:0.9;stroke-miterlimit:22.9256}
    .str1 {stroke:#252323;stroke-width:0.9;stroke-miterlimit:22.9256}
    .fil0 {fill:#FEFEFE}
   ]]>
  </style>
 </defs>
 <g id="Capa_x0020_1">
  <metadata id="CorelCorpID_0Corel-Layer"/>
  <rect class="fil0 str0" x="0.43" y="1.21" width="887.1" height="597.6"/>
  <path class="fil0 str1" d="M147.73 338.22c1.23,-16.33 4.53,-33.1 9.26,-55.93 7.65,-36.98 7.18,-102.21 -5.01,-144.16 -0.38,-1.17 -0.67,-2.2 -1.41,-4.79 1.6,-7.63 2.9,-14.95 3.82,-21.85l0 -0.02c4.23,-23.9 11.41,-49.28 44.01,-65.4 -0.29,-0.64 -0.56,-1.29 -0.81,-1.95 -1.18,-3.08 -1.96,-6.33 -2.24,-9.61l-0.1 0.06 -0.3 0.2 0.6 -0.41 41.47 0.03 41.48 -0.03 0.54 0.37 -0.26 -0.17c0,-0.01 -0.01,-0.01 -0.02,-0.01 -0.39,4.13 -1.44,7.97 -3.06,11.54 32.55,16.13 39.73,41.49 43.96,65.38l0 0.02c0.92,6.9 2.22,14.22 3.82,21.85 -0.75,2.59 -1.03,3.62 -1.41,4.79 -12.2,41.95 -12.66,107.18 -5.01,144.16 4.73,22.83 8.03,39.6 9.26,55.93 -10.23,7.54 -49.76,11.31 -89.3,11.31 -39.53,0 -79.06,-3.77 -89.29,-11.31zm46.55 -303.02l0.49 -0.31 -0.26 0.17 -0.23 0.14z"/>
  <path class="fil0 str1" d="M546.17 338.2c1.23,-16.33 4.53,-33.1 9.26,-55.93 7.66,-36.98 7.19,-102.21 -5.01,-144.16 -0.38,-1.17 -0.66,-2.2 -1.41,-4.79l0.07 -0.32 0.07 -0.32 0.06 -0.33c1.5,-7.22 2.72,-14.15 3.6,-20.7l0 -0.04c4.36,-24.73 11.84,-51.06 47.3,-67.11 0.33,-0.15 6.02,-2.45 10.97,-4.92 -6.67,-1.18 -16.43,-3.18 -18.28,-4.59l0.82 -0.62 41.85 0 41.85 0 0.72 0.62c-1.85,1.41 -11.61,3.41 -18.28,4.59 4.96,2.47 10.64,4.77 10.97,4.92 35.46,16.05 42.94,42.38 47.3,67.11 0.17,0.98 0.34,1.96 0.5,2.93 0.48,3.26 1.04,6.61 1.67,10.04 0.5,2.98 1.03,5.9 1.63,8.74l0.06 0.12c-0.72,2.5 -1,3.52 -1.37,4.67 -12.2,41.95 -12.67,107.18 -5.01,144.16 4.73,22.83 8.02,39.6 9.25,55.93 -10.23,7.54 -49.76,11.31 -89.29,11.31 -39.54,0 -79.07,-3.77 -89.3,-11.31z"/>
 </g>
</svg>
