<?xml version="1.0" encoding="UTF-8"?>
<!DOCTYPE svg PUBLIC "-//W3C//DTD SVG 1.1//EN" "http://www.w3.org/Graphics/SVG/1.1/DTD/svg11.dtd">
<!-- Creator: CorelDRAW -->
<svg xmlns="http://www.w3.org/2000/svg" xml:space="preserve" width="888px" height="598px" version="1.1" style="shape-rendering:geometricPrecision; text-rendering:geometricPrecision; image-rendering:optimizeQuality; fill-rule:evenodd; clip-rule:evenodd"
viewBox="0 0 888 598.5"
 xmlns:xlink="http://www.w3.org/1999/xlink"
 xmlns:xodm="http://www.corel.com/coreldraw/odm/2003">
 <defs>
  <style type="text/css">
   <![CDATA[
    .str0 {stroke:#ED3237;stroke-width:0.9;stroke-miterlimit:22.9256}
    .str1 {stroke:#252323;stroke-width:0.9;stroke-miterlimit:22.9256}
    .fil1 {fill:none}
    .fil0 {fill:#FEFEFE}
   ]]>
  </style>
 </defs>
 <g id="Capa_x0020_1">
  <metadata id="CorelCorpID_0Corel-Layer"/>
  <rect class="fil0 str0" x="0.43" y="1.21" width="887.1" height="597.6"/>
  <path class="fil1 str1" d="M275.7 46.09c32.55,16.13 39.73,41.49 43.96,65.38 1.33,7.55 2.37,14.95 3.82,21.87 1.01,2.04 3.45,7.91 3.86,8.22 0.05,0.01 0.14,0.02 0.25,0.02 0,-0.01 -0.01,-0.03 -0.01,-0.04 0.96,-0.07 2.28,-0.36 4.28,-0.91 0.01,0 0.02,0 0.03,-0.01 5.05,-1.41 13.51,-4.28 21.75,-7.79 8.92,-3.82 17.81,-8.47 21.5,-12.8 0.3,-0.35 0.56,-0.7 0.79,-1.05 0.04,-0.06 0.08,-0.13 0.12,-0.19 -11.78,-17.23 -25.3,-54.86 -39.68,-63.07 -12.58,-6.43 -42.6,-10.92 -57.59,-21.16 0,-0.01 -0.01,-0.01 -0.02,-0.01 -0.39,4.13 -1.44,7.97 -3.06,11.54z"/>
  <path class="fil1 str1" d="M154.39 111.47c4.23,-23.9 11.41,-49.28 44.01,-65.4 -0.29,-0.64 -0.56,-1.29 -0.81,-1.95 -1.18,-3.08 -1.96,-6.33 -2.24,-9.61l-0.1 0.06c-0.24,0.16 -0.49,0.33 -0.74,0.49 -15.22,9.89 -44.46,14.34 -56.83,20.66l-0.01 0c-14.37,8.21 -27.9,45.84 -39.68,63.07 0.04,0.06 0.08,0.13 0.12,0.19 5.86,8.9 36.14,19.63 44.04,21.64 2.02,0.56 3.35,0.85 4.32,0.92 0.08,0.01 0.16,0.01 0.24,0.02 0.41,-0.31 2.85,-6.18 3.85,-8.22 1.46,-6.92 2.5,-14.32 3.83,-21.87z"/>
  <path class="fil1 str1" d="M552.81 111.61c4.36,-24.73 11.84,-51.06 47.3,-67.11 0.33,-0.15 6.02,-2.45 10.97,-4.92 -6.67,-1.18 -16.43,-3.18 -18.28,-4.59 -1.84,1.33 -4.3,2.61 -7.17,3.86 -15.86,7.35 -38.83,11.4 -49.51,16.85 -14.37,8.21 -27.89,45.84 -39.67,63.07 5.54,8.94 36.2,19.8 44.15,21.83 2.19,0.61 3.58,0.89 4.56,0.93 0.41,-0.3 2.85,-6.17 3.85,-8.21 1.45,-6.87 2.48,-14.22 3.8,-21.71z"/>
  <path class="fil1 str1" d="M718.03 111.61c-4.36,-24.73 -11.84,-51.06 -47.3,-67.11 -0.33,-0.15 -6.01,-2.45 -10.97,-4.92 6.67,-1.18 16.43,-3.18 18.28,-4.59 1.84,1.33 4.3,2.61 7.17,3.86 15.86,7.35 38.83,11.4 49.51,16.85 14.37,8.21 27.9,45.84 39.68,63.07 -5.55,8.94 -36.21,19.8 -44.16,21.83 -2.19,0.61 -3.57,0.89 -4.56,0.93 -0.41,-0.3 -2.85,-6.17 -3.85,-8.21 -1.44,-6.87 -2.48,-14.22 -3.8,-21.71z"/>
 </g>
</svg>
