<?xml version="1.0" encoding="UTF-8"?>
<!DOCTYPE svg PUBLIC "-//W3C//DTD SVG 1.1//EN" "http://www.w3.org/Graphics/SVG/1.1/DTD/svg11.dtd">
<!-- Creator: CorelDRAW -->
<svg xmlns="http://www.w3.org/2000/svg" xml:space="preserve" width="888px" height="598px" version="1.1" style="shape-rendering:geometricPrecision; text-rendering:geometricPrecision; image-rendering:optimizeQuality; fill-rule:evenodd; clip-rule:evenodd"
viewBox="0 0 888 598.5"
 xmlns:xlink="http://www.w3.org/1999/xlink"
 xmlns:xodm="http://www.corel.com/coreldraw/odm/2003">
 <defs>
  <style type="text/css">
   <![CDATA[
    .str1 {stroke:#373435;stroke-width:0.9;stroke-miterlimit:22.9256}
    .str2 {stroke:#ED3237;stroke-width:0.9;stroke-miterlimit:22.9256}
    .str0 {stroke:#ED3237;stroke-width:0.9;stroke-miterlimit:22.9256}
    .fil1 {fill:none}
    .fil0 {fill:#FEFEFE}
   ]]>
  </style>
 </defs>
 <g id="Capa_x0020_1">
  <metadata id="CorelCorpID_0Corel-Layer"/>
  <rect class="fil0 str0" x="0.43" y="1.21" width="887.1" height="597.6"/>
  <path class="fil1 str1" d="M596.85 46.07l0 -0.02c1.06,-0.53 2.14,-1.04 3.26,-1.55 0.33,-0.15 6.02,-2.45 10.97,-4.92 -5.8,-1.02 -13.93,-2.67 -17.17,-4.01 -0.04,-0.35 -0.08,-0.71 -0.11,-1.06l-0.09 0.06c-0.25,0.16 -0.5,0.33 -0.75,0.49 -15.15,9.85 -44.22,14.3 -56.68,20.58l-0.19 -0.04c-1.04,0.6 -2.15,1.46 -3.32,2.56 -3.81,3.35 -7.57,8.54 -11.23,14.6 -24.8,38.8 -45.06,91.91 -63.08,132.59l27.24 15.6c21.67,-27.07 48.16,-56.81 63.32,-87.61 7.87,-37.5 7.04,-67.1 47.83,-87.27z"/>
  <g id="_2041420790256">
   <path class="fil1 str1" d="M154.39 111.47c4.23,-23.9 11.41,-49.28 44.01,-65.4 -0.29,-0.64 -0.56,-1.29 -0.81,-1.95 -1.18,-3.08 -1.96,-6.33 -2.24,-9.61l-0.1 0.06c-0.24,0.16 -0.49,0.33 -0.74,0.49 -15.16,9.85 -44.22,14.3 -56.68,20.58l-0.2 -0.04c-1.03,0.6 -2.14,1.46 -3.31,2.56 -3.82,3.35 -7.57,8.54 -11.24,14.6 -24.79,38.8 -45.06,91.91 -63.07,132.59l27.24 15.6c21.67,-27.07 48.16,-56.81 63.31,-87.61 1.46,-6.92 2.5,-14.32 3.83,-21.87z"/>
   <path class="fil1 str1" d="M319.66 111.47c-4.23,-23.9 -11.41,-49.28 -44.01,-65.4 0.29,-0.64 0.56,-1.29 0.81,-1.95 1.18,-3.08 1.95,-6.33 2.24,-9.61l0.09 0.06c0.25,0.16 0.5,0.33 0.75,0.49 15.15,9.85 44.22,14.3 56.68,20.58l0.19 -0.04c1.04,0.6 2.15,1.46 3.32,2.56 3.81,3.35 7.57,8.54 11.23,14.6 24.8,38.8 45.06,91.91 63.08,132.59l-27.24 15.6c-21.67,-27.07 -48.17,-56.81 -63.32,-87.61 -1.45,-6.92 -2.49,-14.32 -3.82,-21.87z"/>
   <path class="fil1 str2" d="M718.41 111.27c-4.23,-23.9 -11.42,-49.28 -44.01,-65.4l0 -0.02c-1.06,-0.53 -2.15,-1.04 -3.26,-1.55 -0.33,-0.15 -6.02,-2.46 -10.97,-4.92 5.8,-1.03 13.93,-2.67 17.17,-4.01 0.04,-0.35 0.08,-0.71 0.11,-1.07l0.09 0.07c0.25,0.16 0.5,0.33 0.75,0.49 15.15,9.85 44.21,14.3 56.67,20.58l0.2 -0.04c1.04,0.6 2.15,1.46 3.32,2.56 3.81,3.35 7.56,8.54 11.23,14.6 24.8,38.8 45.06,91.91 63.08,132.59l-27.24 15.6c-21.67,-27.07 -48.17,-56.81 -63.32,-87.61 -1.45,-6.92 -2.49,-14.32 -3.82,-21.87z"/>
  </g>
 </g>
</svg>
