<?xml version="1.0" encoding="UTF-8"?>
<!DOCTYPE svg PUBLIC "-//W3C//DTD SVG 1.1//EN" "http://www.w3.org/Graphics/SVG/1.1/DTD/svg11.dtd">
<!-- Creator: CorelDRAW -->
<svg xmlns="http://www.w3.org/2000/svg" xml:space="preserve" width="888px" height="598px" version="1.1" style="shape-rendering:geometricPrecision; text-rendering:geometricPrecision; image-rendering:optimizeQuality; fill-rule:evenodd; clip-rule:evenodd"
viewBox="0 0 888 598.5"
 xmlns:xlink="http://www.w3.org/1999/xlink"
 xmlns:xodm="http://www.corel.com/coreldraw/odm/2003">
 <defs>
  <style type="text/css">
   <![CDATA[
    .str1 {stroke:#373435;stroke-width:0.9;stroke-miterlimit:22.9256}
    .str0 {stroke:#ED3237;stroke-width:0.9;stroke-miterlimit:22.9256}
    .fil1 {fill:none}
    .fil0 {fill:#FEFEFE}
   ]]>
  </style>
 </defs>
 <g id="Capa_x0020_1">
  <metadata id="CorelCorpID_0Corel-Layer"/>
  <rect class="fil0 str0" x="0.43" y="1.21" width="887.1" height="597.6"/>
  <g id="_2608267973744">
   <g>
    <path class="fil1 str1" d="M414.87 314.84c0.9,-4.75 -1.25,-6.87 -5.54,-6.86 3.03,-1.49 11.16,-3.56 16.62,-3.93 1.02,-0.06 5,-0.37 5.11,1.27 0.05,0.78 -1.33,2.15 -5.12,3.38 -3.75,1.2 -7.37,2.21 -8.11,5.94l-0.05 0.29 -2.96 0.2 0.05 -0.29zm13.08 4.63l1.33 -0.09 0.15 -0.9 0.18 -1.08 0.16 -0.9 0.03 -0.21c0.13,-0.77 -0.31,-1.37 -0.99,-1.33l-1.47 0.1 -1.33 0.09 -0.16 0.9 -0.18 1.08 -0.15 0.9 -0.27 1.62 1.33 -0.09 0.6 -3.6 1.04 -0.07c0.19,-0.01 0.31,0.17 0.27,0.38l-0.54 3.2zm-19.15 -4.06l1.4 -0.09 1.57 -0.11c0.93,-0.06 1.56,0.66 1.41,1.6 -0.16,0.94 -1.06,1.76 -1.99,1.82l-1.56 0.1 -0.34 1.98 -1.4 0.09 0.33 -1.98 0.19 -1.09 0.22 -1.32 0.17 -1zm15.92 3.38l0.18 -1.07 0.16 -0.9 0.03 -0.22c0.13,-0.77 -0.31,-1.37 -0.99,-1.32l-2.18 0.14 -0.15 0.9 1.74 -0.11c0.19,-0.01 0.31,0.16 0.27,0.37l-0.05 0.33 -1.17 0.07c-0.78,0.06 -1.54,0.74 -1.67,1.54 -0.13,0.79 0.4,1.39 1.19,1.34l1.16 -0.08 1.33 -0.09 0.15 -0.9zm-7.94 0.53l0.18 -1.08 0.16 -0.89 0.03 -0.22c0.13,-0.77 -0.31,-1.37 -0.99,-1.32l-2.14 0.14 -0.15 0.9 1.7 -0.11c0.19,-0.02 0.31,0.16 0.27,0.37l-0.05 0.32 -1.17 0.08c-0.78,0.05 -1.54,0.74 -1.67,1.53 -0.13,0.79 0.4,1.4 1.19,1.35l1.16 -0.08 1.33 -0.09 0.15 -0.9zm15.93 -3.72l-0.61 3.59 -1.33 0.09 0.28 -1.62 0.15 -0.9 0.18 -1.08 0 0 -1.12 0.08 0.15 -0.9 1.12 -0.08 0.67 -0.04 0.66 -0.04 1.12 -0.08 -0.15 0.9 -1.12 0.08zm-13.38 0l-1.32 0.08 -0.15 0.9 -0.18 1.08 -0.15 0.9 -0.04 0.21c-0.13,0.78 0.32,1.37 1,1.33l1.98 -0.14 0.15 -0.9 -1.56 0.11c-0.18,0.01 -0.3,-0.17 -0.27,-0.38l0.54 -3.19z"/>
   </g>
  </g>
  <g id="_2608267973696">
   <g>
    <path class="fil1 str1" d="M458.7 343.57c1.35,-4.63 -0.6,-6.95 -4.86,-7.35 3.15,-1.2 11.44,-2.49 16.91,-2.33 1.03,0.03 5.02,0.1 4.97,1.74 -0.02,0.79 -1.52,2.02 -5.42,2.88 -3.84,0.84 -7.54,1.5 -8.63,5.15l-0.08 0.28 -2.96 -0.08 0.07 -0.29zm12.59 5.85l1.33 0.04 0.23 -0.88 0.29 -1.05 0.23 -0.89 0.06 -0.2c0.2,-0.76 -0.19,-1.4 -0.86,-1.42l-1.48 -0.04 -1.33 -0.04 -0.24 0.88 -0.28 1.06 -0.24 0.88 -0.42 1.58 1.33 0.04 0.94 -3.52 1.05 0.03c0.18,0.01 0.28,0.2 0.23,0.4l-0.84 3.13zm-18.69 -5.85l1.41 0.04 1.57 0.04c0.93,0.03 1.5,0.8 1.25,1.72 -0.25,0.92 -1.22,1.66 -2.15,1.63l-1.57 -0.04 -0.52 1.93 -1.4 -0.04 0.52 -1.94 0.29 -1.07 0.34 -1.29 0.26 -0.98zm15.54 4.87l0.28 -1.05 0.24 -0.88 0.05 -0.21c0.2,-0.76 -0.18,-1.39 -0.86,-1.41l-2.18 -0.06 -0.24 0.88 1.75 0.05c0.18,0 0.28,0.19 0.23,0.4l-0.09 0.31 -1.17 -0.03c-0.78,-0.02 -1.6,0.59 -1.8,1.37 -0.21,0.77 0.26,1.42 1.05,1.44l1.17 0.04 1.33 0.04 0.24 -0.89zm-7.96 -0.22l0.28 -1.06 0.24 -0.88 0.06 -0.2c0.2,-0.76 -0.19,-1.4 -0.87,-1.42l-2.14 -0.06 -0.24 0.88 1.71 0.05c0.19,0.01 0.29,0.2 0.23,0.4l-0.08 0.32 -1.17 -0.04c-0.79,-0.02 -1.6,0.6 -1.81,1.37 -0.21,0.77 0.27,1.43 1.06,1.45l1.16 0.03 1.33 0.04 0.24 -0.88zm16.21 -2.2l-0.95 3.52 -1.33 -0.04 0.43 -1.58 0.23 -0.89 0.28 -1.05 0 0 -1.11 -0.03 0.23 -0.88 1.12 0.03 0.67 0.02 0.66 0.02 1.12 0.03 -0.23 0.88 -1.12 -0.03zm-13.32 -1.27l-1.32 -0.04 -0.24 0.89 -0.28 1.05 -0.23 0.88 -0.06 0.21c-0.2,0.76 0.19,1.39 0.86,1.41l1.99 0.06 0.23 -0.88 -1.56 -0.05c-0.18,0 -0.28,-0.19 -0.23,-0.4l0.84 -3.13z"/>
   </g>
  </g>
 </g>
</svg>
