<?xml version="1.0" encoding="UTF-8"?>
<!DOCTYPE svg PUBLIC "-//W3C//DTD SVG 1.1//EN" "http://www.w3.org/Graphics/SVG/1.1/DTD/svg11.dtd">
<!-- Creator: CorelDRAW -->
<svg xmlns="http://www.w3.org/2000/svg" xml:space="preserve" width="888px" height="598px" version="1.1" style="shape-rendering:geometricPrecision; text-rendering:geometricPrecision; image-rendering:optimizeQuality; fill-rule:evenodd; clip-rule:evenodd"
viewBox="0 0 888 598.5"
 xmlns:xlink="http://www.w3.org/1999/xlink"
 xmlns:xodm="http://www.corel.com/coreldraw/odm/2003">
 <defs>
  <style type="text/css">
   <![CDATA[
    .str1 {stroke:#373435;stroke-width:0.9;stroke-miterlimit:22.9256}
    .str0 {stroke:#ED3237;stroke-width:0.9;stroke-miterlimit:22.9256}
    .fil0 {fill:#FEFEFE}
    .fil1 {fill:#252323}
   ]]>
  </style>
 </defs>
 <g id="Capa_x0020_1">
  <metadata id="CorelCorpID_0Corel-Layer"/>
  <rect class="fil0 str0" x="0.43" y="1.21" width="887.1" height="597.6"/>
  <path class="fil1 str1" d="M416.52 310.26c0.8,-4.05 4.91,-5.2 8.73,-5.3 2.67,-0.07 3.76,1.61 0.94,2.8 -2.65,1.11 -6.55,1.83 -7.71,-0.15l-1.19 5.98c-0.03,0.18 -0.37,0.36 -0.79,0.39 -0.41,0.03 -0.69,-0.11 -0.66,-0.29l0.68 -3.43zm-6.48 5.99l-0.26 1.58 1.01 -0.06c0.43,-0.03 0.84,-0.41 0.91,-0.84 0.08,-0.44 -0.21,-0.77 -0.65,-0.74l-1.01 0.06zm13.54 1.55l-0.19 1.08 -0.82 0.05c-0.29,0.02 -0.49,-0.2 -0.44,-0.5 0.05,-0.29 0.33,-0.55 0.62,-0.57l0.83 -0.06zm-7.95 0.53l-0.18 1.08 -0.82 0.05c-0.29,0.02 -0.49,-0.2 -0.44,-0.5 0.04,-0.29 0.33,-0.55 0.62,-0.57l0.82 -0.06z"/>
  <path class="fil1 str1" d="M460.78 339.17c1.18,-3.95 5.38,-4.71 9.19,-4.44 2.67,0.18 3.6,1.95 0.67,2.87 -2.75,0.86 -6.7,1.2 -7.66,-0.87l-1.75 5.83c-0.05,0.18 -0.41,0.33 -0.82,0.31 -0.42,-0.01 -0.69,-0.17 -0.63,-0.35l1 -3.35zm-7.02 5.36l-0.41 1.55 1.01 0.02c0.43,0.02 0.88,-0.32 0.99,-0.75 0.12,-0.42 -0.14,-0.78 -0.58,-0.79l-1.01 -0.03zm13.33 2.82l-0.29 1.06 -0.82 -0.03c-0.3,-0.01 -0.47,-0.25 -0.4,-0.54 0.08,-0.29 0.39,-0.52 0.68,-0.51l0.83 0.02zm-7.96 -0.22l-0.28 1.05 -0.83 -0.02c-0.29,-0.01 -0.47,-0.26 -0.39,-0.54 0.08,-0.3 0.38,-0.53 0.67,-0.52l0.83 0.03z"/>
 </g>
</svg>
