<?xml version="1.0" encoding="UTF-8"?>
<!DOCTYPE svg PUBLIC "-//W3C//DTD SVG 1.1//EN" "http://www.w3.org/Graphics/SVG/1.1/DTD/svg11.dtd">
<!-- Creator: CorelDRAW -->
<svg xmlns="http://www.w3.org/2000/svg" xml:space="preserve" width="888px" height="598px" version="1.1" style="shape-rendering:geometricPrecision; text-rendering:geometricPrecision; image-rendering:optimizeQuality; fill-rule:evenodd; clip-rule:evenodd"
viewBox="0 0 888 598.5"
 xmlns:xlink="http://www.w3.org/1999/xlink"
 xmlns:xodm="http://www.corel.com/coreldraw/odm/2003">
 <defs>
  <style type="text/css">
   <![CDATA[
    .str0 {stroke:#373435;stroke-width:0.9;stroke-miterlimit:22.9256}
    .fil0 {fill:#FEFEFE}
   ]]>
  </style>
 </defs>
 <g id="Capa_x0020_1">
  <metadata id="CorelCorpID_0Corel-Layer"/>
  <g id="_1790606571120">
   <path class="fil0 str0" d="M154.3 341.39c1.33,-16.16 5.16,-36.86 9.77,-59.1 7.66,-36.98 7.19,-102.21 -5.01,-144.16 -0.33,-1.01 -4.12,-11.08 -6.4,-15.57 -0.62,3.52 -1.32,7.11 -2.09,10.78 0.74,2.59 1.03,3.62 1.41,4.79 12.19,41.95 12.66,107.18 5.01,144.16 -4.73,22.83 -8.03,39.6 -9.26,55.93 1.55,1.14 3.77,2.2 6.57,3.17z"/>
   <path class="fil0 str0" d="M319.75 341.39c-1.33,-16.16 -5.17,-36.86 -9.77,-59.1 -7.66,-36.98 -7.19,-102.21 5,-144.16 0.33,-1.01 4.12,-11.08 6.41,-15.57 0.62,3.52 1.32,7.11 2.09,10.78 -0.75,2.59 -1.03,3.62 -1.41,4.79 -12.2,41.95 -12.66,107.18 -5.01,144.16 4.73,22.83 8.03,39.6 9.26,55.93 -1.55,1.14 -3.78,2.2 -6.57,3.17z"/>
  </g>
  <g id="_1787772468944">
   <path class="fil0 str0" d="M718.19 341.37c-1.33,-16.16 -5.16,-36.86 -9.77,-59.1 -7.66,-36.98 -7.19,-102.21 5.01,-144.16 0.33,-1.01 4.12,-11.08 6.4,-15.56 0.62,3.51 1.32,7.1 2.09,10.77 -0.74,2.59 -1.03,3.62 -1.4,4.79 -12.2,41.95 -12.67,107.18 -5.01,144.16 4.73,22.83 8.02,39.6 9.25,55.93 -1.55,1.14 -3.77,2.2 -6.57,3.17z"/>
   <path class="fil0 str0" d="M552.74 341.37c1.33,-16.16 5.17,-36.86 9.78,-59.1 7.65,-36.98 7.18,-102.21 -5.01,-144.16 -0.33,-1.01 -4.12,-11.08 -6.41,-15.56 -0.62,3.51 -1.32,7.1 -2.09,10.77 0.75,2.59 1.03,3.62 1.41,4.79 12.2,41.95 12.67,107.18 5.01,144.16 -4.73,22.83 -8.03,39.6 -9.26,55.93 1.55,1.14 3.78,2.2 6.57,3.17z"/>
  </g>
 </g>
</svg>
