<?xml version="1.0" encoding="UTF-8"?>
<!DOCTYPE svg PUBLIC "-//W3C//DTD SVG 1.1//EN" "http://www.w3.org/Graphics/SVG/1.1/DTD/svg11.dtd">
<!-- Creator: CorelDRAW -->
<svg xmlns="http://www.w3.org/2000/svg" xml:space="preserve" width="888px" height="598px" version="1.1" style="shape-rendering:geometricPrecision; text-rendering:geometricPrecision; image-rendering:optimizeQuality; fill-rule:evenodd; clip-rule:evenodd"
viewBox="0 0 888 598.5"
 xmlns:xlink="http://www.w3.org/1999/xlink"
 xmlns:xodm="http://www.corel.com/coreldraw/odm/2003">
 <defs>
  <style type="text/css">
   <![CDATA[
    .str1 {stroke:#373435;stroke-width:0.9;stroke-miterlimit:22.9256}
    .str0 {stroke:#ED3237;stroke-width:0.9;stroke-miterlimit:22.9256}
    .fil0 {fill:#FEFEFE}
    .fil1 {fill:#252323}
   ]]>
  </style>
 </defs>
 <g id="Capa_x0020_1">
  <metadata id="CorelCorpID_0Corel-Layer"/>
  <rect class="fil0 str0" x="0.43" y="1.21" width="887.1" height="597.6"/>
 </g>
 <g id="Capa_x0020_1_11">
  <metadata id="CorelCorpID_1Corel-Layer"/>
  <path class="fil1 str1" d="M416.52 356.77c0.8,-4.04 4.91,-5.2 8.74,-5.3 2.67,-0.06 3.76,1.61 0.93,2.8 -2.65,1.11 -6.55,1.83 -7.71,-0.14l-1.18 5.97c-0.04,0.19 -0.38,0.36 -0.79,0.39 -0.42,0.03 -0.7,-0.11 -0.67,-0.29l0.68 -3.43zm-6.47 6l-0.27 1.58 1.01 -0.07c0.43,-0.03 0.85,-0.41 0.92,-0.84 0.07,-0.44 -0.22,-0.77 -0.65,-0.74l-1.01 0.07zm13.53 1.55l-0.18 1.07 -0.83 0.06c-0.29,0.02 -0.49,-0.21 -0.44,-0.5 0.05,-0.3 0.33,-0.56 0.62,-0.58l0.83 -0.05zm-7.94 0.53l-0.18 1.07 -0.83 0.06c-0.29,0.02 -0.49,-0.21 -0.44,-0.51 0.05,-0.29 0.33,-0.55 0.62,-0.57l0.83 -0.05z"/>
  <path class="fil1 str1" d="M460.78 385.69c1.18,-3.96 5.38,-4.72 9.2,-4.45 2.66,0.19 3.59,1.96 0.67,2.87 -2.75,0.86 -6.7,1.2 -7.67,-0.87l-1.74 5.84c-0.06,0.17 -0.41,0.32 -0.83,0.31 -0.42,-0.02 -0.68,-0.18 -0.63,-0.36l1 -3.34zm-7.01 5.35l-0.42 1.55 1.01 0.03c0.43,0.01 0.88,-0.33 1,-0.76 0.11,-0.42 -0.15,-0.78 -0.58,-0.79l-1.01 -0.03zm13.32 2.83l-0.28 1.05 -0.83 -0.02c-0.29,-0.01 -0.47,-0.26 -0.39,-0.55 0.07,-0.29 0.38,-0.52 0.67,-0.51l0.83 0.03zm-7.96 -0.23l-0.28 1.05 -0.82 -0.02c-0.3,-0.01 -0.48,-0.25 -0.4,-0.54 0.08,-0.29 0.38,-0.52 0.68,-0.51l0.82 0.02z"/>
 </g>
</svg>
