<?xml version="1.0" encoding="UTF-8"?>
<!DOCTYPE svg PUBLIC "-//W3C//DTD SVG 1.1//EN" "http://www.w3.org/Graphics/SVG/1.1/DTD/svg11.dtd">
<!-- Creator: CorelDRAW -->
<svg xmlns="http://www.w3.org/2000/svg" xml:space="preserve" width="888px" height="598px" version="1.1" style="shape-rendering:geometricPrecision; text-rendering:geometricPrecision; image-rendering:optimizeQuality; fill-rule:evenodd; clip-rule:evenodd"
viewBox="0 0 888 598.5"
 xmlns:xlink="http://www.w3.org/1999/xlink"
 xmlns:xodm="http://www.corel.com/coreldraw/odm/2003">
 <defs>
  <style type="text/css">
   <![CDATA[
    .str1 {stroke:#373435;stroke-width:0.9;stroke-miterlimit:22.9256}
    .str0 {stroke:#ED3237;stroke-width:0.9;stroke-miterlimit:22.9256}
    .fil1 {fill:none}
    .fil0 {fill:#FEFEFE}
   ]]>
  </style>
 </defs>
 <g id="Capa_x0020_1">
  <metadata id="CorelCorpID_0Corel-Layer"/>
  <rect class="fil0 str0" x="0.43" y="1.21" width="887.1" height="597.6"/>
 </g>
 <g id="Capa_x0020_1_10">
  <metadata id="CorelCorpID_1Corel-Layer"/>
  <path class="fil1 str1" d="M414.88 361.35c0.9,-4.74 -1.26,-6.86 -5.55,-6.86 3.03,-1.49 11.16,-3.56 16.62,-3.92 1.03,-0.07 5.01,-0.38 5.12,1.26 0.05,0.78 -1.33,2.16 -5.13,3.38 -3.74,1.2 -7.37,2.21 -8.11,5.94l-0.05 0.29 -2.95 0.2 0.05 -0.29zm13.08 4.63l1.32 -0.09 0.16 -0.9 0.18 -1.07 0.15 -0.9 0.04 -0.22c0.13,-0.77 -0.32,-1.37 -1,-1.32l-1.47 0.1 -1.33 0.08 -0.15 0.91 -0.18 1.07 -0.16 0.9 -0.27 1.62 1.33 -0.09 0.61 -3.59 1.04 -0.07c0.18,-0.01 0.3,0.16 0.26,0.37l-0.53 3.2zm-19.16 -4.06l1.41 -0.09 1.56 -0.11c0.93,-0.06 1.57,0.66 1.41,1.6 -0.16,0.94 -1.05,1.76 -1.99,1.82l-1.56 0.11 -0.33 1.97 -1.41 0.09 0.34 -1.97 0.18 -1.1 0.22 -1.31 0.17 -1.01zm15.93 3.38l0.18 -1.07 0.15 -0.9 0.04 -0.21c0.13,-0.78 -0.32,-1.37 -1,-1.33l-2.17 0.15 -0.15 0.9 1.74 -0.12c0.18,-0.01 0.3,0.17 0.26,0.38l-0.05 0.32 -1.16 0.08c-0.79,0.05 -1.54,0.74 -1.67,1.53 -0.14,0.79 0.39,1.39 1.18,1.34l1.17 -0.08 1.32 -0.09 0.16 -0.9zm-7.94 0.53l0.18 -1.07 0.15 -0.9 0.04 -0.21c0.13,-0.78 -0.32,-1.37 -1,-1.33l-2.14 0.14 -0.15 0.9 1.71 -0.11c0.18,-0.01 0.3,0.17 0.26,0.38l-0.05 0.32 -1.17 0.08c-0.78,0.05 -1.53,0.74 -1.67,1.53 -0.13,0.79 0.4,1.39 1.19,1.34l1.17 -0.08 1.32 -0.09 0.16 -0.9zm15.92 -3.72l-0.6 3.59 -1.33 0.09 0.27 -1.62 0.15 -0.9 0.18 -1.07 0 0 -1.11 0.07 0.15 -0.9 1.11 -0.07 0.67 -0.05 0.66 -0.04 1.12 -0.08 -0.15 0.9 -1.12 0.08zm-13.37 0l-1.32 0.09 -0.15 0.9 -0.18 1.07 -0.16 0.9 -0.03 0.22c-0.13,0.77 0.31,1.36 0.99,1.32l1.98 -0.13 0.15 -0.9 -1.56 0.1c-0.18,0.01 -0.3,-0.17 -0.26,-0.38l0.54 -3.19z"/>
  <path class="fil1 str1" d="M458.71 390.09c1.34,-4.64 -0.6,-6.95 -4.87,-7.36 3.16,-1.19 11.45,-2.48 16.91,-2.33 1.03,0.03 5.02,0.1 4.98,1.75 -0.03,0.78 -1.53,2.02 -5.43,2.87 -3.84,0.84 -7.54,1.5 -8.63,5.15l-0.08 0.29 -2.96 -0.09 0.08 -0.28zm12.58 5.84l1.33 0.04 0.24 -0.88 0.28 -1.05 0.24 -0.88 0.05 -0.21c0.21,-0.76 -0.18,-1.4 -0.86,-1.41l-1.48 -0.05 -1.33 -0.03 -0.24 0.88 -0.28 1.05 -0.23 0.88 -0.43 1.59 1.33 0.04 0.95 -3.52 1.04 0.02c0.18,0.01 0.28,0.2 0.23,0.4l-0.84 3.13zm-18.68 -5.85l1.4 0.04 1.57 0.04c0.94,0.03 1.5,0.81 1.25,1.73 -0.24,0.92 -1.21,1.65 -2.15,1.62l-1.57 -0.04 -0.51 1.93 -1.41 -0.04 0.52 -1.93 0.29 -1.08 0.34 -1.29 0.27 -0.98zm15.53 4.88l0.28 -1.06 0.24 -0.88 0.05 -0.21c0.21,-0.75 -0.18,-1.39 -0.86,-1.41l-2.18 -0.06 -0.24 0.88 1.75 0.05c0.18,0.01 0.28,0.19 0.23,0.4l-0.08 0.31 -1.17 -0.03c-0.79,-0.02 -1.6,0.59 -1.81,1.37 -0.21,0.77 0.27,1.43 1.05,1.45l1.17 0.03 1.33 0.04 0.24 -0.88zm-7.96 -0.23l0.29 -1.05 0.23 -0.88 0.06 -0.21c0.2,-0.76 -0.19,-1.4 -0.86,-1.41l-2.15 -0.07 -0.23 0.89 1.71 0.04c0.18,0.01 0.28,0.2 0.23,0.4l-0.09 0.32 -1.17 -0.04c-0.78,-0.02 -1.6,0.6 -1.8,1.37 -0.21,0.78 0.26,1.43 1.05,1.45l1.17 0.03 1.33 0.04 0.23 -0.88zm16.21 -2.2l-0.94 3.52 -1.34 -0.04 0.43 -1.58 0.24 -0.88 0.28 -1.06 0 0 -1.12 -0.03 0.24 -0.88 1.11 0.03 0.67 0.02 0.67 0.02 1.12 0.03 -0.24 0.88 -1.12 -0.03zm-13.32 -1.27l-1.31 -0.03 -0.24 0.88 -0.28 1.05 -0.24 0.88 -0.06 0.21c-0.2,0.76 0.19,1.4 0.87,1.41l1.98 0.06 0.24 -0.88 -1.56 -0.04c-0.19,-0.01 -0.29,-0.2 -0.23,-0.4l0.83 -3.14z"/>
 </g>
</svg>
