<?xml version="1.0" encoding="UTF-8"?>
<!DOCTYPE svg PUBLIC "-//W3C//DTD SVG 1.1//EN" "http://www.w3.org/Graphics/SVG/1.1/DTD/svg11.dtd">
<!-- Creator: CorelDRAW -->
<svg xmlns="http://www.w3.org/2000/svg" xml:space="preserve" width="888px" height="598px" version="1.1" style="shape-rendering:geometricPrecision; text-rendering:geometricPrecision; image-rendering:optimizeQuality; fill-rule:evenodd; clip-rule:evenodd"
viewBox="0 0 888 598.5"
 xmlns:xlink="http://www.w3.org/1999/xlink"
 xmlns:xodm="http://www.corel.com/coreldraw/odm/2003">
 <defs>
  <style type="text/css">
   <![CDATA[
    .str1 {stroke:#373435;stroke-width:0.9;stroke-miterlimit:22.9256}
    .str0 {stroke:#252323;stroke-width:0.9;stroke-linecap:round;stroke-linejoin:round;stroke-miterlimit:22.9256}
    .fil1 {fill:none}
    .fil0 {fill:#FFF212}
   ]]>
  </style>
 </defs>
 <g id="Capa_x0020_1">
  <metadata id="CorelCorpID_0Corel-Layer"/>
  <path class="fil0 str0" d="M664.57 30.29c-21.41,5.27 -34.64,5.82 -58.36,-0.08 -3.35,3.02 -3.63,2.48 -8.84,5.37 19.27,9.49 57.2,9.91 76.25,0.22 -5.37,-2.93 -8.06,-3.44 -9.05,-5.51z"/>
  <path class="fil1 str1" d="M253.44 75.37c-18.92,-7.49 -33.56,-21.07 -34.9,-41.47 2.36,-1.16 4.64,-2.37 6.81,-3.62 17,5.1 39.18,5.1 56.18,0 2.17,1.25 4.45,2.46 6.81,3.62 -1.34,20.4 -15.97,33.98 -34.9,41.47zm0 -8.32c13.94,-6.99 23.48,-14.05 27,-29.43 -18.45,4.99 -35.55,4.99 -54,0 3.53,15.38 13.07,22.44 27,29.43z"/>
 </g>
</svg>
