<?xml version="1.0" encoding="UTF-8"?>
<!DOCTYPE svg PUBLIC "-//W3C//DTD SVG 1.1//EN" "http://www.w3.org/Graphics/SVG/1.1/DTD/svg11.dtd">
<!-- Creator: CorelDRAW -->
<svg xmlns="http://www.w3.org/2000/svg" xml:space="preserve" width="888px" height="598px" version="1.1" style="shape-rendering:geometricPrecision; text-rendering:geometricPrecision; image-rendering:optimizeQuality; fill-rule:evenodd; clip-rule:evenodd"
viewBox="0 0 888 598.5"
 xmlns:xlink="http://www.w3.org/1999/xlink"
 xmlns:xodm="http://www.corel.com/coreldraw/odm/2003">
 <defs>
  <style type="text/css">
   <![CDATA[
    .str2 {stroke:#373435;stroke-width:2.36;stroke-miterlimit:22.9256}
    .str1 {stroke:#00A859;stroke-width:2.36;stroke-miterlimit:22.9256}
    .str0 {stroke:#ED3237;stroke-width:0.9;stroke-miterlimit:22.9256}
    .fil0 {fill:#FEFEFE}
    .fil1 {fill:#6B809B}
   ]]>
  </style>
 </defs>
 <g id="Capa_x0020_1">
  <metadata id="CorelCorpID_0Corel-Layer"/>
  <rect class="fil0 str0" x="0.43" y="1.21" width="887.1" height="597.6"/>
  <path class="fil1 str1" d="M81.08 144.28c-4.91,-8.37 -11.54,-22.71 -17.22,-35.19 -1.29,0.73 -2.56,1.45 -3.81,2.15 5.76,12.68 11.71,25.27 16.67,33.67 1.42,-0.21 2.88,-0.42 4.36,-0.63z"/>
  <path class="fil1 str1" d="M425.34 144.28c4.91,-8.37 11.54,-22.71 17.22,-35.19 1.29,0.73 2.56,1.45 3.8,2.15 -5.75,12.68 -11.7,25.27 -16.66,33.67 -1.42,-0.21 -2.88,-0.42 -4.36,-0.63z"/>
  <path class="fil1 str1" d="M807 144.48c4.91,-8.38 11.54,-22.72 17.22,-35.2 1.29,0.74 2.56,1.46 3.8,2.16 -5.75,12.67 -11.7,25.27 -16.66,33.66 -1.42,-0.2 -2.88,-0.41 -4.36,-0.62z"/>
  <path class="fil1 str2" d="M462.74 144.48c-4.91,-8.38 -11.54,-22.72 -17.22,-35.2 -0.44,0.25 -0.87,0.5 -1.31,0.75 0.73,0.41 1.45,0.81 2.15,1.21 -0.78,1.74 -1.57,3.47 -2.37,5.19 5.03,10.93 10.08,21.38 14.39,28.67 1.42,-0.2 2.88,-0.41 4.36,-0.62z"/>
 </g>
</svg>
