<?xml version="1.0" encoding="UTF-8"?>
<!DOCTYPE svg PUBLIC "-//W3C//DTD SVG 1.1//EN" "http://www.w3.org/Graphics/SVG/1.1/DTD/svg11.dtd">
<!-- Creator: CorelDRAW -->
<svg xmlns="http://www.w3.org/2000/svg" xml:space="preserve" width="888px" height="598px" version="1.1" style="shape-rendering:geometricPrecision; text-rendering:geometricPrecision; image-rendering:optimizeQuality; fill-rule:evenodd; clip-rule:evenodd"
viewBox="0 0 888 598.5"
 xmlns:xlink="http://www.w3.org/1999/xlink"
 xmlns:xodm="http://www.corel.com/coreldraw/odm/2003">
 <defs>
  <style type="text/css">
   <![CDATA[
    .str1 {stroke:#373435;stroke-width:0.9;stroke-miterlimit:22.9256}
    .str0 {stroke:#ED3237;stroke-width:0.9;stroke-miterlimit:22.9256}
    .str2 {stroke:#252323;stroke-width:0.9;stroke-miterlimit:22.9256}
    .fil0 {fill:#FEFEFE}
   ]]>
  </style>
 </defs>
 <g id="Capa_x0020_1">
  <metadata id="CorelCorpID_0Corel-Layer"/>
  <rect class="fil0 str0" x="-0.48" y="1.29" width="887.1" height="597.6"/>
  <g id="_1750834852288">
   <path class="fil0 str1" d="M109.21 135.52c-6.55,-12.72 -13.6,-30.12 -18.05,-43.39 -1.65,0.91 -3.27,1.81 -4.86,2.69 2.58,9.51 9.13,26.54 15.12,38.15 1.59,3.24 2.71,5.18 3.69,6.4 0.34,0.07 2.49,-0.16 5.76,-0.58 -0.51,-0.97 -1.06,-2.05 -1.66,-3.27z"/>
   <path class="fil0 str1" d="M395.7 135.51c6.56,-12.71 13.6,-30.12 18.05,-43.38 1.65,0.91 3.27,1.81 4.86,2.69 -2.58,9.51 -9.13,26.54 -15.11,38.15 -1.6,3.24 -2.71,5.18 -3.7,6.4 -0.34,0.07 -2.48,-0.16 -5.76,-0.58 0.51,-0.97 1.06,-2.06 1.66,-3.28z"/>
  </g>
  <g id="_1750834852864">
   <g>
    <path class="fil0 str2" d="M491.35 135.82c-6.56,-12.71 -13.61,-30.12 -18.05,-43.39 -1.65,0.92 -3.27,1.82 -4.86,2.7 2.58,9.51 9.13,26.54 15.11,38.14 1.59,3.25 2.71,5.19 3.7,6.41 0.34,0.07 2.48,-0.16 5.76,-0.58 -0.52,-0.97 -1.07,-2.06 -1.66,-3.28z"/>
    <path class="fil0 str2" d="M777.91 135.82c6.55,-12.71 13.6,-30.12 18.05,-43.39 1.65,0.92 3.27,1.82 4.86,2.7 -2.58,9.51 -9.14,26.54 -15.12,38.14 -1.59,3.25 -2.71,5.19 -3.7,6.41 -0.34,0.07 -2.48,-0.16 -5.75,-0.58 0.51,-0.97 1.06,-2.06 1.66,-3.28z"/>
   </g>
  </g>
 </g>
</svg>
