<?xml version="1.0" encoding="UTF-8"?>
<!DOCTYPE svg PUBLIC "-//W3C//DTD SVG 1.1//EN" "http://www.w3.org/Graphics/SVG/1.1/DTD/svg11.dtd">
<!-- Creator: CorelDRAW -->
<svg xmlns="http://www.w3.org/2000/svg" xml:space="preserve" width="888px" height="598px" version="1.1" style="shape-rendering:geometricPrecision; text-rendering:geometricPrecision; image-rendering:optimizeQuality; fill-rule:evenodd; clip-rule:evenodd"
viewBox="0 0 888 598.5"
 xmlns:xlink="http://www.w3.org/1999/xlink"
 xmlns:xodm="http://www.corel.com/coreldraw/odm/2003">
 <defs>
  <style type="text/css">
   <![CDATA[
    .str2 {stroke:#373435;stroke-width:2.36;stroke-miterlimit:22.9256}
    .str1 {stroke:#373435;stroke-width:0.9;stroke-miterlimit:22.9256}
    .str0 {stroke:#ED3237;stroke-width:0.9;stroke-miterlimit:22.9256}
    .fil0 {fill:#FEFEFE}
    .fil2 {fill:#6B809B}
    .fil1 {fill:#6B809B}
   ]]>
  </style>
 </defs>
 <g id="Capa_x0020_1">
  <metadata id="CorelCorpID_0Corel-Layer"/>
  <rect class="fil0 str0" x="0.43" y="1.21" width="887.1" height="597.6"/>
  <path class="fil1 str1" d="M28.13 161.53l-9.5 -26.87 -5.47 3.44c-2.46,1.22 -1.05,3.22 0.14,6.37l5.04 13.26c1.67,4.46 1.41,6.63 5.03,5.33l4.76 -1.53z"/>
  <path class="fil1 str1" d="M478.45 161.53l9.49 -26.87 5.48 3.44c2.46,1.22 1.05,3.22 -0.14,6.37l-5.05 13.26c-1.66,4.46 -1.41,6.63 -5.02,5.33l-4.76 -1.53z"/>
  <path class="fil1 str1" d="M859.8 161.34l9.49 -26.87 5.48 3.44c2.46,1.22 1.05,3.21 -0.14,6.36l-5.05 13.27c-1.66,4.46 -1.41,6.63 -5.02,5.32l-4.76 -1.52z"/>
  <path class="fil2 str2" d="M394.62 144.57l5.05 13.26c1.66,4.46 1.41,6.63 5.02,5.33l4.71 -1.52 -5.57 -15.76c-3.19,-0.68 -6.36,-1.36 -9.48,-2.01 0.09,0.22 0.18,0.46 0.27,0.7z"/>
 </g>
</svg>
