<?xml version="1.0" encoding="UTF-8"?>
<!DOCTYPE svg PUBLIC "-//W3C//DTD SVG 1.1//EN" "http://www.w3.org/Graphics/SVG/1.1/DTD/svg11.dtd">
<!-- Creator: CorelDRAW -->
<svg xmlns="http://www.w3.org/2000/svg" xml:space="preserve" width="888px" height="598px" version="1.1" style="shape-rendering:geometricPrecision; text-rendering:geometricPrecision; image-rendering:optimizeQuality; fill-rule:evenodd; clip-rule:evenodd"
viewBox="0 0 888 598.5"
 xmlns:xlink="http://www.w3.org/1999/xlink"
 xmlns:xodm="http://www.corel.com/coreldraw/odm/2003">
 <defs>
  <style type="text/css">
   <![CDATA[
    .str1 {stroke:#ED3237;stroke-width:0.9;stroke-miterlimit:22.9256}
    .str0 {stroke:#ED3237;stroke-width:0.9;stroke-miterlimit:22.9256}
    .fil2 {fill:none}
    .fil0 {fill:#FEFEFE}
    .fil1 {fill:#252323}
   ]]>
  </style>
 </defs>
 <g id="Capa_x0020_1">
  <metadata id="CorelCorpID_0Corel-Layer"/>
  <rect class="fil0 str0" x="0.43" y="1.21" width="887.1" height="597.6"/>
  <g>
   <path class="fil0" d="M598.78 38.2l0.06 0.01c0.3,0.07 0.6,0.14 0.9,0.21 12.54,2.85 24.2,3.75 36.04,3.67 11.43,-0.07 23.03,-1.03 35.21,-3.96l7.25 4.61c-17.61,5.99 -43.13,7.94 -61.6,5.51 -4.05,-0.53 -21.84,-3.64 -23.94,-5.57l6.08 -4.48z"/>
   <path id="_1" class="fil1" d="M598.78 38.2l0.06 0.01 0.9 0.21c6.27,1.43 12.32,2.37 18.28,2.94 5.96,0.57 11.84,0.77 17.76,0.73 5.71,-0.04 11.47,-0.3 17.33,-0.91 5.85,-0.61 11.79,-1.59 17.88,-3.05l0.01 0 7.24 4.61 0 0 0 0c-8.63,2.94 -19.16,4.9 -29.83,5.86 -4.64,0.41 -9.3,0.63 -13.85,0.66 15,-0.1 31.3,-2.31 43.68,-6.52l-7.25 -4.61c-12.18,2.93 -23.78,3.89 -35.21,3.96 -11.84,0.08 -23.5,-0.82 -36.04,-3.67 -0.3,-0.07 -0.6,-0.14 -0.9,-0.21l-0.06 -0.01 -6.08 4.48c2.1,1.93 19.89,5.04 23.94,5.57 3.18,0.42 6.55,0.71 10.07,0.87 -3.52,-0.16 -6.9,-0.45 -10.07,-0.87 -2.49,-0.32 -10.21,-1.63 -16.25,-3.04 -3.77,-0.87 -6.89,-1.79 -7.7,-2.53l0 0 0 0 6.09 -4.48 0 0zm35.78 11.06c-0.33,0.01 -0.65,0.01 -0.98,0.01 0.33,0 0.65,0 0.98,-0.01zm-1.01 0.01c-0.32,0 -0.63,0 -0.95,-0.01 0.32,0.01 0.63,0.01 0.95,0.01zm-1 -0.01c-0.31,0 -0.62,0 -0.93,0 0.31,0 0.62,0 0.93,0zm-1 0c-0.3,-0.01 -0.61,-0.01 -0.92,-0.02 0.31,0.01 0.62,0.01 0.92,0.02zm-0.99 -0.02c-0.3,-0.01 -0.6,-0.01 -0.91,-0.02 0.31,0.01 0.61,0.01 0.91,0.02zm-0.97 -0.02c-0.31,-0.01 -0.62,-0.02 -0.92,-0.03 0.3,0.01 0.61,0.02 0.92,0.03zm-0.97 -0.03c-0.31,-0.01 -0.62,-0.02 -0.93,-0.03 0.31,0.01 0.62,0.02 0.93,0.03zm-0.96 -0.03c-0.32,-0.02 -0.63,-0.03 -0.94,-0.04 0.31,0.01 0.62,0.02 0.94,0.04z"/>
  </g>
  <g id="_1787050652448">
   <path class="fil2 str1" d="M204.63 42.31c16.52,4.22 48.33,4.22 64.85,0 -0.06,-2.65 -0.53,-5.56 -1.46,-8.76l1.07 0.79 -1.03 -0.84c-9.85,1.48 -20.44,2.28 -31,2.23 -10.57,0.05 -21.16,-0.75 -31,-2.23l-1.03 0.84 1.07 -0.79c-0.94,3.2 -1.4,6.11 -1.47,8.76z"/>
   <path class="fil2 str1" d="M204.63 42.31c-0.01,0.72 0,1.42 0.04,2.1 16.31,4.22 48.47,4.22 64.78,0 0.04,-0.68 0.05,-1.38 0.03,-2.1 -16.52,4.22 -48.33,4.22 -64.85,0z"/>
   <path class="fil2 str1" d="M269.45 44.41c0.04,-0.68 0.05,-1.38 0.03,-2.1 -0.06,-2.65 -0.53,-5.56 -1.46,-8.76l1.07 0.79 9.99 7.36c4.44,42.73 -88.49,42.73 -84.04,0l9.99 -7.36 1.07 -0.79c-0.94,3.2 -1.4,6.11 -1.47,8.76 -0.01,0.72 0,1.42 0.04,2.1 1.67,28.7 63.11,28.7 64.78,0z"/>
  </g>
 </g>
</svg>
