<?xml version="1.0" encoding="UTF-8"?>
<!DOCTYPE svg PUBLIC "-//W3C//DTD SVG 1.1//EN" "http://www.w3.org/Graphics/SVG/1.1/DTD/svg11.dtd">
<!-- Creator: CorelDRAW -->
<svg xmlns="http://www.w3.org/2000/svg" xml:space="preserve" width="888px" height="598px" version="1.1" style="shape-rendering:geometricPrecision; text-rendering:geometricPrecision; image-rendering:optimizeQuality; fill-rule:evenodd; clip-rule:evenodd"
viewBox="0 0 888 598.5"
 xmlns:xlink="http://www.w3.org/1999/xlink"
 xmlns:xodm="http://www.corel.com/coreldraw/odm/2003">
 <defs>
  <style type="text/css">
   <![CDATA[
    .str0 {stroke:#ED3237;stroke-width:0.9;stroke-miterlimit:22.9256}
    .str1 {stroke:#6B809B;stroke-width:0.9;stroke-miterlimit:22.9256}
    .fil1 {fill:none}
    .fil0 {fill:#FEFEFE}
   ]]>
  </style>
 </defs>
 <g id="Capa_x0020_1">
  <metadata id="CorelCorpID_0Corel-Layer"/>
  <rect class="fil0 str0" x="0.43" y="1.21" width="887.1" height="597.6"/>
  <path class="fil1 str1" d="M240.64 148.96l0 -0.37 -0.24 -0.06 -0.29 -0.07 -0.25 -0.05 -0.05 -0.02c-0.21,-0.05 -0.38,0.06 -0.38,0.25l0 0.41 0 0.36 0.24 0.06 0.29 0.07 0.24 0.06 0.44 0.1 0 -0.36 -0.97 -0.24 0 -0.28c0,-0.05 0.05,-0.08 0.11,-0.07l0.86 0.21zm-1.46 5.17l0 -0.38 0 -0.43c0,-0.26 0.21,-0.42 0.46,-0.36 0.26,0.06 0.47,0.32 0.47,0.58l0 0.43 0.53 0.12 0 0.39 -0.53 -0.13 -0.3 -0.07 -0.36 -0.08 -0.27 -0.07zm0.26 -0.32l0.42 0.1 0 -0.28c0,-0.12 -0.09,-0.24 -0.21,-0.27 -0.12,-0.02 -0.21,0.05 -0.21,0.17l0 0.28zm0.96 -3.98l-0.29 -0.07 -0.25 -0.06 -0.05 -0.01c-0.21,-0.05 -0.38,0.06 -0.38,0.25l0 0.6 0.24 0.05 0 -0.48c0,-0.05 0.05,-0.08 0.11,-0.06l0.08 0.02 0 0.32c0,0.22 0.18,0.43 0.39,0.48 0.22,0.06 0.39,-0.08 0.39,-0.3l0 -0.32 0 -0.36 -0.24 -0.06zm-0.29 0.3l0.29 0.07 0 0.22c0,0.08 -0.07,0.13 -0.15,0.11 -0.08,-0.01 -0.14,-0.1 -0.14,-0.18l0 -0.22zm0.29 1.89l-0.29 -0.07 -0.25 -0.06 -0.05 -0.02c-0.21,-0.05 -0.38,0.07 -0.38,0.25l0 0.59 0.24 0.06 0 -0.47c0,-0.05 0.05,-0.08 0.11,-0.07l0.08 0.02 0 0.32c0,0.22 0.18,0.44 0.39,0.49 0.22,0.05 0.39,-0.08 0.39,-0.3l0 -0.32 0 -0.37 -0.24 -0.05zm-0.29 0.29l0.29 0.07 0 0.23c0,0.08 -0.07,0.13 -0.15,0.11 -0.08,-0.02 -0.14,-0.1 -0.14,-0.18l0 -0.23zm-0.44 -4.73l0.97 0.23 0 0.37 -0.44 -0.1 -0.24 -0.06 -0.29 -0.07 0 0 0 0.31 -0.24 -0.06 0 -0.31 0 -0.18 0 -0.18 0 -0.31 0.24 0.06 0 0.3zm-0.24 3.67l0 0.36 0.24 0.06 0.29 0.07 0.24 0.06 0.06 0.01c0.21,0.05 0.38,-0.06 0.38,-0.25l0 -0.54 -0.24 -0.06 0 0.43c0,0.05 -0.05,0.08 -0.11,0.06l-0.86 -0.2z"/>
 </g>
</svg>
