<?xml version="1.0" encoding="UTF-8"?>
<!DOCTYPE svg PUBLIC "-//W3C//DTD SVG 1.1//EN" "http://www.w3.org/Graphics/SVG/1.1/DTD/svg11.dtd">
<!-- Creator: CorelDRAW -->
<svg xmlns="http://www.w3.org/2000/svg" xml:space="preserve" width="888px" height="598px" version="1.1" style="shape-rendering:geometricPrecision; text-rendering:geometricPrecision; image-rendering:optimizeQuality; fill-rule:evenodd; clip-rule:evenodd"
viewBox="0 0 888 598.5"
 xmlns:xlink="http://www.w3.org/1999/xlink"
 xmlns:xodm="http://www.corel.com/coreldraw/odm/2003">
 <defs>
  <style type="text/css">
   <![CDATA[
    .str1 {stroke:#373435;stroke-width:0.9;stroke-miterlimit:22.9256}
    .str0 {stroke:#ED3237;stroke-width:0.9;stroke-miterlimit:22.9256}
    .fil1 {fill:none}
    .fil0 {fill:#FEFEFE}
   ]]>
  </style>
 </defs>
 <g id="Capa_x0020_1">
  <metadata id="CorelCorpID_0Corel-Layer"/>
  <rect class="fil0 str0" x="0.43" y="1.21" width="887.1" height="597.6"/>
  <g id="_2246254383536">
   <path class="fil1 str1" d="M287.84 528.77c0.95,-6.07 -1.87,-8.67 -7.32,-8.5 3.79,-2.01 14.04,-4.96 20.96,-5.64 1.3,-0.13 6.35,-0.68 6.55,1.4 0.1,0.99 -1.6,2.79 -6.38,4.49 -4.71,1.68 -9.27,3.1 -10.06,7.88l-0.05 0.37 -3.75 0.37 0.05 -0.37zm16.8 5.36l1.69 -0.16 0.15 -1.15 0.19 -1.38 0.16 -1.15 0.04 -0.27c0.13,-0.99 -0.46,-1.73 -1.32,-1.64l-1.87 0.18 -1.68 0.17 -0.16 1.15 -0.19 1.37 -0.15 1.15 -0.29 2.07 1.69 -0.17 0.63 -4.59 1.31 -0.13c0.24,-0.02 0.4,0.2 0.36,0.47l-0.56 4.08zm-24.5 -4.4l1.78 -0.17 1.99 -0.19c1.18,-0.12 2.01,0.77 1.85,1.97 -0.16,1.2 -1.27,2.28 -2.45,2.39l-1.98 0.2 -0.35 2.52 -1.78 0.17 0.35 -2.52 0.19 -1.4 0.23 -1.68 0.17 -1.29zm20.37 3.67l0.19 -1.37 0.16 -1.15 0.03 -0.27c0.14,-0.99 -0.45,-1.73 -1.31,-1.65l-2.76 0.27 -0.16 1.15 2.21 -0.21c0.24,-0.03 0.39,0.19 0.36,0.46l-0.06 0.41 -1.48 0.15c-0.99,0.1 -1.92,1 -2.06,2.01 -0.14,1.01 0.56,1.76 1.56,1.66l1.48 -0.14 1.68 -0.17 0.16 -1.15zm-10.07 0.99l0.19 -1.38 0.16 -1.14 0.04 -0.28c0.13,-0.99 -0.46,-1.72 -1.32,-1.64l-2.71 0.27 -0.16 1.15 2.16 -0.22c0.24,-0.02 0.39,0.2 0.36,0.47l-0.06 0.41 -1.48 0.15c-0.99,0.09 -1.92,1 -2.06,2.01 -0.14,1.01 0.57,1.75 1.56,1.66l1.48 -0.15 1.69 -0.16 0.15 -1.15zm20.09 -5.37l-0.63 4.59 -1.68 0.17 0.28 -2.07 0.16 -1.15 0.19 -1.37 0 0 -1.42 0.14 0.16 -1.15 1.41 -0.14 0.85 -0.08 0.84 -0.09 1.41 -0.14 -0.15 1.15 -1.42 0.14zm-17 0.53l-1.67 0.17 -0.15 1.15 -0.19 1.37 -0.16 1.15 -0.04 0.27c-0.13,0.99 0.46,1.73 1.32,1.65l2.51 -0.25 0.16 -1.15 -1.98 0.2c-0.23,0.02 -0.39,-0.21 -0.35,-0.47l0.55 -4.09z"/>
  </g>
 </g>
</svg>
