<?xml version="1.0" encoding="UTF-8"?>
<!DOCTYPE svg PUBLIC "-//W3C//DTD SVG 1.1//EN" "http://www.w3.org/Graphics/SVG/1.1/DTD/svg11.dtd">
<!-- Creator: CorelDRAW -->
<svg xmlns="http://www.w3.org/2000/svg" xml:space="preserve" width="888px" height="598px" version="1.1" style="shape-rendering:geometricPrecision; text-rendering:geometricPrecision; image-rendering:optimizeQuality; fill-rule:evenodd; clip-rule:evenodd"
viewBox="0 0 888 598.5"
 xmlns:xlink="http://www.w3.org/1999/xlink"
 xmlns:xodm="http://www.corel.com/coreldraw/odm/2003">
 <defs>
  <style type="text/css">
   <![CDATA[
    .str1 {stroke:#373435;stroke-width:0.9;stroke-miterlimit:22.9256}
    .str0 {stroke:#ED3237;stroke-width:0.9;stroke-miterlimit:22.9256}
    .fil1 {fill:none}
    .fil0 {fill:#FEFEFE}
   ]]>
  </style>
 </defs>
 <g id="Capa_x0020_1">
  <metadata id="CorelCorpID_0Corel-Layer"/>
  <rect class="fil0 str0" x="0.43" y="1.21" width="887.1" height="597.6"/>
  <path class="fil1 str1" d="M276.59 539.77c1.55,-5.94 -1.01,-8.81 -6.45,-9.17 3.97,-1.63 14.46,-3.57 21.41,-3.57 1.31,0 6.38,-0.05 6.38,2.04 0,0.99 -1.86,2.62 -6.78,3.85 -4.85,1.21 -9.54,2.18 -10.79,6.85l-0.08 0.37 -3.77 0 0.08 -0.37zm16.2 6.98l1.7 0 0.27 -1.13 0.32 -1.35 0.27 -1.13 0.06 -0.26c0.23,-0.97 -0.29,-1.77 -1.15,-1.77l-1.87 0 -1.7 0 -0.27 1.13 -0.32 1.35 -0.27 1.13 -0.48 2.03 1.69 0 1.08 -4.51 1.32 0c0.24,0 0.37,0.24 0.31,0.5l-0.96 4.01zm-23.95 -6.77l1.79 0 1.99 0c1.19,0 1.94,0.97 1.66,2.15 -0.28,1.18 -1.49,2.14 -2.68,2.14l-1.99 0 -0.59 2.48 -1.79 0 0.59 -2.48 0.33 -1.38 0.39 -1.65 0.3 -1.26zm19.92 5.64l0.32 -1.35 0.27 -1.13 0.06 -0.26c0.23,-0.97 -0.29,-1.77 -1.15,-1.77l-2.77 0 -0.27 1.13 2.22 0c0.24,0 0.37,0.24 0.31,0.5l-0.1 0.4 -1.48 0c-1,0 -2.02,0.81 -2.25,1.81 -0.24,0.99 0.39,1.8 1.39,1.8l1.48 0 1.7 0 0.27 -1.13zm-10.12 0l0.32 -1.35 0.27 -1.13 0.06 -0.26c0.23,-0.97 -0.28,-1.77 -1.14,-1.77l-2.73 0 -0.27 1.13 2.17 0c0.24,0 0.37,0.24 0.31,0.5l-0.1 0.4 -1.48 0c-1,0 -2.01,0.81 -2.25,1.81 -0.23,0.99 0.39,1.8 1.39,1.8l1.49 0 1.69 0 0.27 -1.13zm20.51 -3.38l-1.07 4.51 -1.69 0 0.48 -2.03 0.27 -1.13 0.32 -1.35 0 0 -1.42 0 0.27 -1.13 1.42 0 0.85 0 0.84 0 1.43 0 -0.27 1.13 -1.43 0zm-16.96 -1.13l-1.68 0 -0.27 1.13 -0.32 1.35 -0.27 1.13 -0.06 0.27c-0.23,0.97 0.28,1.76 1.14,1.76l2.53 0 0.27 -1.13 -1.99 0c-0.23,0 -0.37,-0.24 -0.31,-0.5l0.96 -4.01z"/>
 </g>
</svg>
