<?xml version="1.0" encoding="UTF-8"?>
<!DOCTYPE svg PUBLIC "-//W3C//DTD SVG 1.1//EN" "http://www.w3.org/Graphics/SVG/1.1/DTD/svg11.dtd">
<!-- Creator: CorelDRAW -->
<svg xmlns="http://www.w3.org/2000/svg" xml:space="preserve" width="888px" height="598px" version="1.1" style="shape-rendering:geometricPrecision; text-rendering:geometricPrecision; image-rendering:optimizeQuality; fill-rule:evenodd; clip-rule:evenodd"
viewBox="0 0 888 598.5"
 xmlns:xlink="http://www.w3.org/1999/xlink"
 xmlns:xodm="http://www.corel.com/coreldraw/odm/2003">
 <defs>
  <style type="text/css">
   <![CDATA[
    .str0 {stroke:#373435;stroke-width:0.9;stroke-miterlimit:22.9256}
    .fil1 {fill:none}
    .fil0 {fill:#FEFEFE}
   ]]>
  </style>
 </defs>
 <g id="Capa_x0020_1">
  <metadata id="CorelCorpID_0Corel-Layer"/>
  <g id="_1789256105888">
   <path class="fil0 str0" d="M540.6 140.6c-7.9,-2.01 -38.18,-12.74 -44.04,-21.64 -0.65,1.05 -1.3,2.06 -1.95,3.01 5.55,8.93 36.2,19.8 44.16,21.83 2.19,0.6 3.57,0.89 4.56,0.93 0.19,-0.14 0.85,-1.55 1.59,-3.21 -0.97,-0.08 -2.3,-0.36 -4.32,-0.92z"/>
   <g>
    <path class="fil0 str0" d="M142.15 140.62l-0.38 -0.1 -0.42 -0.11 -0.45 -0.13 -0.48 -0.13 -0.51 -0.15 -0.53 -0.16 -0.56 -0.18 -0.59 -0.18 -0.61 -0.19 -0.63 -0.21 -0.66 -0.22 -0.67 -0.22 -0.7 -0.24 -0.71 -0.24 -0.74 -0.25 -0.75 -0.27 -0.76 -0.27 -0.78 -0.28 -0.8 -0.29 -0.8 -0.3 -0.82 -0.3 -0.83 -0.32 -0.83 -0.32 -0.01 0 -0.84 -0.32 -0.85 -0.34 -0.86 -0.34 0 0 -0.86 -0.35 -0.87 -0.35 -0.87 -0.36 0 0 -0.87 -0.37 -0.87 -0.37 -0.87 -0.38 -0.87 -0.38 -0.87 -0.39 -0.86 -0.39 -0.01 0 -0.85 -0.39 -0.86 -0.4 0 0 -0.84 -0.41 -0.84 -0.4 -0.83 -0.41 0 0 -0.82 -0.42 -0.81 -0.41 0 0 -0.8 -0.42 0 0 -0.78 -0.42 0 0 -0.77 -0.43 -0.75 -0.42 0 0 -0.74 -0.43 -0.72 -0.43 -0.7 -0.43 -0.68 -0.43 -0.66 -0.43 0 0 -0.64 -0.43 -0.61 -0.43 0 0 -0.59 -0.44 -0.57 -0.43 -0.54 -0.43c-0.17,-0.14 -0.34,-0.29 -0.51,-0.43l-0.48 -0.43c-0.16,-0.14 -0.31,-0.28 -0.46,-0.43l0 0 -0.42 -0.42c-0.14,-0.15 -0.27,-0.29 -0.4,-0.43 -0.12,-0.14 -0.24,-0.28 -0.36,-0.42 -0.11,-0.14 -0.22,-0.28 -0.32,-0.42 -0.11,-0.14 -0.21,-0.28 -0.3,-0.42 -0.65,1.06 -1.3,2.06 -1.95,3.01 5.55,8.94 36.2,19.8 44.16,21.83 2.19,0.6 3.57,0.89 4.56,0.93 0.19,-0.14 0.85,-1.55 1.59,-3.21 -0.97,-0.07 -2.3,-0.36 -4.32,-0.92z"/>
    <path class="fil0 str0" d="M331.89 140.62c3.7,-0.94 12.28,-3.79 20.98,-7.46l0.07 -0.03 0.31 -0.13 0.39 -0.17 0.17 -0.07 0.25 -0.11 1.49 -0.65 0.18 -0.08 0.41 -0.18 0.28 -0.13 0.14 -0.06 0.41 -0.19 0.31 -0.14 0.11 -0.04 0.41 -0.19 0.34 -0.16 0.07 -0.03 0.41 -0.2 0.38 -0.17 0.03 -0.02 0.4 -0.19 0.41 -0.19 0 -0.01 0.8 -0.39 0.04 -0.01 0.36 -0.18 0.4 -0.2 0.07 -0.03 0.33 -0.17 0.39 -0.19 0.1 -0.06 0.29 -0.14 0.38 -0.2 0.14 -0.07 0.25 -0.13 0.38 -0.21 0.16 -0.08 0.22 -0.12 0.37 -0.2 0.2 -0.1 0.18 -0.1 0.37 -0.21 0.22 -0.12 0.14 -0.08 0.36 -0.2 0.25 -0.14 0.11 -0.07 0.62 -0.36 0 0 0.08 -0.05 0.64 -0.38 0.05 -0.03 0.59 -0.36 0.06 -0.04 0.02 -0.01 0.33 -0.21 0.33 -0.2 0 -0.01 0.09 -0.05 0.54 -0.36 0.03 -0.02 0.05 -0.03 0.53 -0.36 0.06 -0.04 0.07 -0.05c0.35,-0.24 0.7,-0.49 1.04,-0.74l0.1 -0.08 0.17 -0.13c0.33,-0.24 0.64,-0.48 0.93,-0.73l0.01 0 0.47 -0.4 0.07 -0.05 0.45 -0.41 0 0 0.45 -0.42 0.01 -0.01 0.04 -0.04 0.36 -0.37 0.02 -0.01 0.03 -0.03c0.12,-0.13 0.23,-0.25 0.34,-0.38l0.02 -0.02 0.01 -0.01 0.18 -0.2 0.12 -0.15 0.02 -0.02 0.01 -0.01 0.01 -0.02 0.01 -0.01 0.01 -0.01 0.01 -0.01 0.01 -0.02 0.02 -0.02 0.01 -0.01c0.09,-0.11 0.17,-0.22 0.25,-0.33l0.02 -0.02 0 0 0.01 -0.01 0.01 -0.02c0.1,-0.13 0.19,-0.26 0.27,-0.39 0.66,1.06 1.31,2.06 1.96,3.01 -5.55,8.94 -36.21,19.8 -44.16,21.83 -2.19,0.6 -3.57,0.89 -4.56,0.93 -0.19,-0.14 -0.84,-1.53 -1.58,-3.17l-0.01 -0.02 0 -0.02 0.04 0 0 0 0.05 -0.01 0 0 0.05 0 0.04 -0.01 0 0 0.05 0 0 0 0.05 -0.01 0 0 0.05 0 0 0 0.04 -0.01 0.01 0 0.04 0 0.01 0 0.05 -0.01 0 0 0.05 -0.01 0 0 0.05 0 0 0 0.05 -0.01 0 0 0.05 -0.01 0.01 0 0.05 -0.01 0 0 0.05 -0.01 0.01 0 0.05 0 0 0 0.05 -0.01 0.01 0 0.05 -0.01 0 0 0.05 -0.01 0.01 0 0.05 -0.01 0.01 0 0.05 -0.01 0.01 0 0.05 -0.01 0.01 0 0.05 -0.01 0.01 -0.01 0.05 -0.01 0.01 0 0.05 -0.01 0.01 0 0.05 -0.01 0.01 0 0.05 -0.01 0.13 -0.03 0.01 0 0.05 -0.01 0.02 0 0.05 -0.01 0.01 -0.01 0.05 -0.01 0.02 0 0.05 -0.01 0.02 -0.01 0.05 -0.01 0.01 0 0.06 -0.01 0.01 -0.01 0.06 -0.01 0.01 0 0.06 -0.01 0.01 -0.01 0.06 -0.01 0.01 0 0.06 -0.02 0.02 0 0.05 -0.01 0.02 -0.01 0.05 -0.01 0.02 -0.01 0.06 -0.01 0.02 0 0.05 -0.02 0.02 0 0.06 -0.02 0.02 0 0.05 -0.01 0.03 -0.01 0.05 -0.01 0.02 -0.01 0.06 -0.01 0.02 -0.01 0.06 -0.01 0.02 -0.01 0.06 -0.01 0.02 -0.01 0.06 -0.01 0.03 -0.01 0.05 -0.01 0.03 -0.01 0.05 -0.02 0.03 0 0.06 -0.02 0.03 -0.01 0.05 -0.01 0.03 -0.01 0.06 -0.01 0.03 -0.01 0.05 -0.01 0.04 -0.01 0.05 -0.02 0.03 -0.01 0.06 -0.01 0.03 -0.01 0.06 -0.02 0.03 0 0.06 -0.02 0.03 -0.01 0.06 -0.01 0.04 -0.02 0.05 -0.01 0.04 -0.01 0.06 -0.02 0.01 0 0.02 -0.01z"/>
   </g>
   <path class="fil1 str0" d="M730.24 140.6c7.9,-2.01 38.18,-12.74 44.04,-21.64 0.65,1.05 1.3,2.06 1.95,3.01 -5.55,8.93 -36.2,19.8 -44.16,21.83 -2.19,0.6 -3.57,0.89 -4.55,0.93 -0.2,-0.14 -0.86,-1.55 -1.6,-3.21 0.97,-0.08 2.3,-0.36 4.32,-0.92z"/>
  </g>
 </g>
</svg>
