<?xml version="1.0" encoding="UTF-8"?>
<!DOCTYPE svg PUBLIC "-//W3C//DTD SVG 1.1//EN" "http://www.w3.org/Graphics/SVG/1.1/DTD/svg11.dtd">
<!-- Creator: CorelDRAW -->
<svg xmlns="http://www.w3.org/2000/svg" xml:space="preserve" width="888px" height="598px" version="1.1" style="shape-rendering:geometricPrecision; text-rendering:geometricPrecision; image-rendering:optimizeQuality; fill-rule:evenodd; clip-rule:evenodd"
viewBox="0 0 888 598.5"
 xmlns:xlink="http://www.w3.org/1999/xlink"
 xmlns:xodm="http://www.corel.com/coreldraw/odm/2003">
 <defs>
  <style type="text/css">
   <![CDATA[
    .str1 {stroke:#ED3237;stroke-width:2.36;stroke-miterlimit:22.9256}
    .str0 {stroke:#ED3237;stroke-width:0.9;stroke-miterlimit:22.9256}
    .fil0 {fill:#FEFEFE}
    .fil2 {fill:#373435}
    .fil1 {fill:#6B809B}
   ]]>
  </style>
 </defs>
 <g id="Capa_x0020_1">
  <metadata id="CorelCorpID_0Corel-Layer"/>
  <rect class="fil0 str0" x="0.43" y="1.21" width="887.1" height="597.6"/>
  <g id="_2141107130576">
   <path class="fil1 str1" d="M86.62 220.59l-26.2 -15c-0.68,1.57 -1.37,3.12 -2.04,4.65l25.21 14.1c0.99,-1.25 2,-2.5 3.03,-3.75z"/>
   <path class="fil2 str1" d="M387.41 220.59l26.2 -15c0.69,1.57 1.37,3.12 2.05,4.65l-25.21 14.1c-1,-1.25 -2.01,-2.5 -3.04,-3.75z"/>
   <path class="fil1 str1" d="M485.07 220.59l-26.2 -15c-0.68,1.57 -1.36,3.12 -2.04,4.65l25.21 14.1c0.99,-1.25 2.01,-2.5 3.03,-3.75z"/>
   <path class="fil2 str1" d="M785.86 220.59l26.2 -15c0.69,1.57 1.37,3.12 2.05,4.65l-25.21 14.1c-1,-1.25 -2.01,-2.5 -3.04,-3.75z"/>
  </g>
 </g>
</svg>
