<?xml version="1.0" encoding="UTF-8"?>
<!DOCTYPE svg PUBLIC "-//W3C//DTD SVG 1.1//EN" "http://www.w3.org/Graphics/SVG/1.1/DTD/svg11.dtd">
<!-- Creator: CorelDRAW -->
<svg xmlns="http://www.w3.org/2000/svg" xml:space="preserve" width="888px" height="598px" version="1.1" style="shape-rendering:geometricPrecision; text-rendering:geometricPrecision; image-rendering:optimizeQuality; fill-rule:evenodd; clip-rule:evenodd"
viewBox="0 0 888 598.5"
 xmlns:xlink="http://www.w3.org/1999/xlink"
 xmlns:xodm="http://www.corel.com/coreldraw/odm/2003">
 <defs>
  <style type="text/css">
   <![CDATA[
    .str1 {stroke:#373435;stroke-width:0.9;stroke-miterlimit:22.9256}
    .str0 {stroke:#ED3237;stroke-width:0.9;stroke-miterlimit:22.9256}
    .fil0 {fill:#FEFEFE}
    .fil1 {fill:#FEFEFE}
   ]]>
  </style>
 </defs>
 <g id="Capa_x0020_1">
  <metadata id="CorelCorpID_0Corel-Layer"/>
  <rect class="fil0 str0" x="0.43" y="1.21" width="887.1" height="597.6"/>
  <path class="fil1 str1" d="M661.74 204.3l-7.6 8.34 -44.89 0 0 -0.2 0 -14.83 39.16 0 0 -27.26 -31.52 0 -7.64 -8.33 0 -40.71 7.6 -8.34c15.83,0 31.26,0 44.89,0l0 91.33zm-15.06 -32.21l0 23.78 -39.16 0 0 18.51 47.39 0 8.56 -9.4 0 -93.75 -47.39 0 -8.56 9.41 0 42.05 8.6 9.4 30.56 0zm1.73 -16.78l0 -27.3 -25.83 0 0 0.71 0 24.88 0 1.71 23.7 0 2.13 0zm-1.73 -25.57l0 23.84 -22.37 0 0 -23.84 22.37 0z"/>
 </g>
</svg>
