<?xml version="1.0" encoding="UTF-8"?>
<!DOCTYPE svg PUBLIC "-//W3C//DTD SVG 1.1//EN" "http://www.w3.org/Graphics/SVG/1.1/DTD/svg11.dtd">
<!-- Creator: CorelDRAW -->
<svg xmlns="http://www.w3.org/2000/svg" xml:space="preserve" width="888px" height="598px" version="1.1" style="shape-rendering:geometricPrecision; text-rendering:geometricPrecision; image-rendering:optimizeQuality; fill-rule:evenodd; clip-rule:evenodd"
viewBox="0 0 888 598.5"
 xmlns:xlink="http://www.w3.org/1999/xlink"
 xmlns:xodm="http://www.corel.com/coreldraw/odm/2003">
 <defs>
  <style type="text/css">
   <![CDATA[
    .str1 {stroke:#373435;stroke-width:0.9;stroke-miterlimit:22.9256}
    .str0 {stroke:#ED3237;stroke-width:0.9;stroke-miterlimit:22.9256}
    .fil1 {fill:none}
    .fil0 {fill:#FEFEFE}
   ]]>
  </style>
 </defs>
 <g id="Capa_x0020_1">
  <metadata id="CorelCorpID_0Corel-Layer"/>
  <rect class="fil0 str0" x="0.43" y="1.21" width="887.1" height="597.6"/>
  <g id="_1789548038240">
   <g>
    <path class="fil1 str1" d="M344.06 136.49c0.19,-0.07 -0.05,112.84 5.12,207.53 -1.29,0.86 -3.23,1.44 -5.71,1.78 -0.82,-7.13 -7.94,-188.37 -2.83,-219.63l2.9 9.03 0.52 1.29z"/>
    <path class="fil1 str1" d="M162.83 136.49c-0.19,-0.07 0.04,112.84 -5.13,207.53 1.29,0.86 3.23,1.44 5.72,1.78 0.82,-7.13 7.94,-188.37 2.82,-219.63l-2.89 9.03 -0.52 1.29z"/>
   </g>
  </g>
  <g id="_1789548037760">
   <path class="fil1 str1" d="M544.92 136.72c-0.19,-0.08 0.05,112.84 -5.12,207.52 1.29,0.87 3.23,1.45 5.71,1.79 0.82,-7.14 7.95,-188.37 2.83,-219.63l-2.9 9.03 -0.52 1.29z"/>
   <path class="fil1 str1" d="M726.15 136.72c0.19,-0.08 -0.04,112.84 5.13,207.52 -1.29,0.87 -3.23,1.45 -5.72,1.79 -0.82,-7.14 -7.94,-188.37 -2.82,-219.63l2.89 9.03 0.52 1.29z"/>
  </g>
 </g>
</svg>
