<?xml version="1.0" encoding="UTF-8"?>
<!DOCTYPE svg PUBLIC "-//W3C//DTD SVG 1.1//EN" "http://www.w3.org/Graphics/SVG/1.1/DTD/svg11.dtd">
<!-- Creator: CorelDRAW -->
<svg xmlns="http://www.w3.org/2000/svg" xml:space="preserve" width="888px" height="598px" version="1.1" style="shape-rendering:geometricPrecision; text-rendering:geometricPrecision; image-rendering:optimizeQuality; fill-rule:evenodd; clip-rule:evenodd"
viewBox="0 0 888 598.5"
 xmlns:xlink="http://www.w3.org/1999/xlink"
 xmlns:xodm="http://www.corel.com/coreldraw/odm/2003">
 <defs>
  <style type="text/css">
   <![CDATA[
    .str1 {stroke:#373435;stroke-width:0.9;stroke-miterlimit:22.9256}
    .str0 {stroke:#ED3237;stroke-width:0.9;stroke-miterlimit:22.9256}
    .str2 {stroke:#252323;stroke-width:0.9;stroke-miterlimit:22.9256}
    .fil0 {fill:#FEFEFE}
   ]]>
  </style>
 </defs>
 <g id="Capa_x0020_1">
  <metadata id="CorelCorpID_0Corel-Layer"/>
  <rect class="fil0 str0" x="-0.48" y="1.29" width="887.1" height="597.6"/>
  <g id="_1788635906112">
   <path class="fil0 str1" d="M164.51 337.05c1.18,-19.1 2.36,-40.29 3.97,-61.82 3.28,-43.78 4.95,-91.53 1.74,-138.33 -0.12,-1.55 -0.21,-5.82 -1.94,-5.77 -0.92,-0.13 -2.33,-0.16 -4.09,-0.1 -0.34,1.11 -0.7,2.09 -1.1,2.94 0.83,1.2 0.9,4.03 0.99,5.23 3.22,46.8 1.55,94.54 -1.73,138.33 -1.61,21.53 -2.82,42.14 -4.01,61.24 0.21,-0.06 0.41,-0.12 0.62,-0.18l5.55 -1.54z"/>
   <path class="fil0 str1" d="M340.84 337.05c-1.19,-19.1 -2.36,-40.29 -3.98,-61.82 -3.27,-43.78 -4.95,-91.53 -1.73,-138.33 0.12,-1.55 0.21,-5.82 1.93,-5.77 0.93,-0.13 2.33,-0.16 4.1,-0.1 0.33,1.11 0.69,2.09 1.1,2.94 -0.83,1.2 -0.91,4.03 -1,5.23 -3.22,46.8 -1.54,94.54 1.74,138.33 1.61,21.53 2.82,42.14 4,61.24 -0.2,-0.06 -0.41,-0.12 -0.61,-0.18l-5.55 -1.54z"/>
  </g>
  <g id="_1788635905968">
   <g>
    <path class="fil0 str2" d="M546.41 337.36c1.19,-19.1 2.37,-40.29 3.98,-61.82 3.28,-43.79 4.95,-91.53 1.74,-138.33 -0.12,-1.55 -0.21,-5.82 -1.94,-5.77 -0.92,-0.13 -2.33,-0.16 -4.09,-0.1 -0.34,1.11 -0.7,2.09 -1.1,2.94 0.83,1.2 0.9,4.03 0.99,5.23 3.22,46.8 1.54,94.54 -1.73,138.33 -1.61,21.53 -2.82,42.14 -4.01,61.24 0.2,-0.06 0.41,-0.12 0.62,-0.18l5.54 -1.54z"/>
    <path class="fil0 str2" d="M722.75 337.36c-1.19,-19.1 -2.36,-40.29 -3.98,-61.82 -3.27,-43.79 -4.95,-91.53 -1.73,-138.33 0.11,-1.55 0.21,-5.82 1.93,-5.77 0.93,-0.13 2.33,-0.16 4.1,-0.1 0.33,1.11 0.69,2.09 1.1,2.94 -0.83,1.2 -0.91,4.03 -1,5.23 -3.22,46.8 -1.54,94.54 1.74,138.33 1.61,21.53 2.81,42.14 4,61.24 -0.2,-0.06 -0.41,-0.12 -0.62,-0.18l-5.54 -1.54z"/>
   </g>
  </g>
 </g>
</svg>
