<?xml version="1.0" encoding="UTF-8"?>
<!DOCTYPE svg PUBLIC "-//W3C//DTD SVG 1.1//EN" "http://www.w3.org/Graphics/SVG/1.1/DTD/svg11.dtd">
<!-- Creator: CorelDRAW -->
<svg xmlns="http://www.w3.org/2000/svg" xml:space="preserve" width="888px" height="598px" version="1.1" style="shape-rendering:geometricPrecision; text-rendering:geometricPrecision; image-rendering:optimizeQuality; fill-rule:evenodd; clip-rule:evenodd"
viewBox="0 0 888 598.5"
 xmlns:xlink="http://www.w3.org/1999/xlink"
 xmlns:xodm="http://www.corel.com/coreldraw/odm/2003">
 <defs>
  <style type="text/css">
   <![CDATA[
    .str1 {stroke:#373435;stroke-width:0.9;stroke-miterlimit:22.9256}
    .str0 {stroke:#ED3237;stroke-width:0.9;stroke-miterlimit:22.9256}
    .fil1 {fill:none;fill-rule:nonzero}
    .fil0 {fill:#FEFEFE}
   ]]>
  </style>
 </defs>
 <g id="Capa_x0020_1">
  <metadata id="CorelCorpID_0Corel-Layer"/>
  <rect class="fil0 str0" x="0.43" y="1.21" width="887.1" height="597.6"/>
  <path class="fil1 str1" d="M191.55 410.38l-0.06 0.24 0.86 0.23 0.07 -0.23 -0.87 -0.24zm-0.78 2.84l0.87 0.24 -0.48 1.74 -0.87 -0.24 0.48 -1.74zm-1.19 4.34l0.86 0.24 -0.47 1.74 -0.87 -0.24 0.48 -1.74zm-1.2 4.34l0.87 0.24 -0.48 1.74 -0.86 -0.24 0.47 -1.74zm-1.19 4.34l0.87 0.24 -0.48 1.74 -0.87 -0.24 0.48 -1.74zm-1.19 4.34l0.86 0.24 -0.47 1.73 -0.87 -0.24 0.48 -1.73zm-1.2 4.34l0.87 0.24 -0.48 1.73 -0.86 -0.24 0.47 -1.73zm-1.19 4.34l0.87 0.24 -0.48 1.73 -0.87 -0.24 0.48 -1.73zm-1.19 4.33l0.87 0.24 -0.48 1.74 -0.87 -0.24 0.48 -1.74zm-1.19 4.34l0.86 0.24 -0.47 1.74 -0.87 -0.24 0.48 -1.74zm-1.2 4.34l0.87 0.24 -0.48 1.74 -0.86 -0.24 0.47 -1.74zm-0.88 1.62l11.99 -43.62 -3.93 -1.08 -12 43.62 3.94 1.08z"/>
  <path class="fil1 str1" d="M315.09 410.32l0.06 0.24 -0.86 0.24 -0.07 -0.24 0.87 -0.24zm0.78 2.84l-0.87 0.24 0.48 1.74 0.87 -0.24 -0.48 -1.74zm1.19 4.34l-0.86 0.24 0.47 1.74 0.87 -0.24 -0.48 -1.74zm1.2 4.34l-0.87 0.24 0.48 1.74 0.86 -0.24 -0.47 -1.74zm1.19 4.34l-0.87 0.24 0.48 1.74 0.87 -0.24 -0.48 -1.74zm1.19 4.34l-0.87 0.24 0.48 1.73 0.87 -0.23 -0.48 -1.74zm1.19 4.34l-0.86 0.24 0.47 1.73 0.87 -0.24 -0.48 -1.73zm1.2 4.34l-0.87 0.24 0.48 1.73 0.86 -0.24 -0.47 -1.73zm1.19 4.34l-0.87 0.23 0.48 1.74 0.87 -0.24 -0.48 -1.73zm1.19 4.33l-0.86 0.24 0.47 1.74 0.87 -0.24 -0.48 -1.74zm1.2 4.34l-0.87 0.24 0.48 1.74 0.86 -0.24 -0.47 -1.74zm0.88 1.63l-12 -43.63 3.94 -1.08 12 43.62 -3.94 1.09z"/>
 </g>
</svg>
