<?xml version="1.0" encoding="UTF-8"?>
<!DOCTYPE svg PUBLIC "-//W3C//DTD SVG 1.1//EN" "http://www.w3.org/Graphics/SVG/1.1/DTD/svg11.dtd">
<!-- Creator: CorelDRAW -->
<svg xmlns="http://www.w3.org/2000/svg" xml:space="preserve" width="888px" height="598px" version="1.1" style="shape-rendering:geometricPrecision; text-rendering:geometricPrecision; image-rendering:optimizeQuality; fill-rule:evenodd; clip-rule:evenodd"
viewBox="0 0 888 598.5"
 xmlns:xlink="http://www.w3.org/1999/xlink"
 xmlns:xodm="http://www.corel.com/coreldraw/odm/2003">
 <defs>
  <style type="text/css">
   <![CDATA[
    .str1 {stroke:#373435;stroke-width:0.9;stroke-miterlimit:22.9256}
    .str0 {stroke:#ED3237;stroke-width:0.9;stroke-miterlimit:22.9256}
    .fil1 {fill:none}
    .fil0 {fill:#FEFEFE}
   ]]>
  </style>
 </defs>
 <g id="Capa_x0020_1">
  <metadata id="CorelCorpID_0Corel-Layer"/>
  <rect class="fil0 str0" x="0.43" y="1.21" width="887.1" height="597.6"/>
  <path class="fil1 str1" d="M357.32 469.25c-2.6,-14.65 -9.35,-33.69 -10.92,-42.49 -2.71,-15.21 -11.41,-43.04 -17.94,-52.02 -3.31,-4.55 -6.39,-14.72 -8.92,-20.59 -18.8,11.08 -113.55,11.08 -132.36,0 -2.93,6.81 -5.39,15.07 -9.49,20.98 -6.5,9.38 -14.99,36.63 -17.67,51.63 -1.57,8.8 -8.32,27.84 -10.92,42.49 -2.61,14.65 -7.52,42.1 -10.02,53.61 -2.49,11.5 -5.5,34.07 -5.5,34.07 0.57,0.73 5.48,2.66 13.56,4.18 25.95,4.87 60.41,10.07 87.6,11.77 1.73,0.11 2.18,-0.1 2.41,-1.55 3.35,-21.11 9.53,-49.75 16.06,-70.59 5.38,21.29 13.18,49.48 16.38,70.59 0.22,1.45 0.68,1.66 2.41,1.55 27.18,-1.7 61.34,-6.9 87.28,-11.77 8.08,-1.52 12.99,-3.45 13.56,-4.18 0,0 -3.01,-22.57 -5.5,-34.07 -2.5,-11.51 -7.41,-38.96 -10.02,-53.61z"/>
  <path class="fil1 str1" d="M542.09 426.76c-1.57,8.8 -8.32,27.84 -10.92,42.49 -2.6,14.65 -7.52,42.1 -10.01,53.61 -2.5,11.5 -5.51,34.07 -5.51,34.07 0.57,0.73 5.48,2.66 13.57,4.18 25.94,4.87 60.41,10.07 87.59,11.77 1.73,0.11 2.18,-0.1 2.41,-1.55 3.35,-21.11 9.54,-49.75 16.06,-70.59 5.38,21.29 13.19,49.48 16.38,70.59 0.22,1.45 0.68,1.66 2.41,1.55 27.19,-1.7 61.34,-6.9 87.28,-11.77 8.08,-1.52 12.99,-3.45 13.56,-4.18 0,0 -3.01,-22.57 -5.5,-34.07 -2.5,-11.51 -7.41,-38.96 -10.02,-53.61 -2.6,-14.65 -9.35,-33.69 -10.92,-42.49 -2.71,-15.21 -11.41,-43.04 -17.94,-52.02 -3.31,-4.55 -6.38,-14.72 -8.91,-20.59 -18.81,11.08 -113.56,11.08 -132.36,0 -2.94,6.81 -5.4,15.07 -9.5,20.98 -6.5,9.38 -14.99,36.63 -17.67,51.63z"/>
 </g>
</svg>
