<?xml version="1.0" encoding="UTF-8"?>
<!DOCTYPE svg PUBLIC "-//W3C//DTD SVG 1.1//EN" "http://www.w3.org/Graphics/SVG/1.1/DTD/svg11.dtd">
<!-- Creator: CorelDRAW -->
<svg xmlns="http://www.w3.org/2000/svg" xml:space="preserve" width="888px" height="598px" version="1.1" style="shape-rendering:geometricPrecision; text-rendering:geometricPrecision; image-rendering:optimizeQuality; fill-rule:evenodd; clip-rule:evenodd"
viewBox="0 0 888 598.5"
 xmlns:xlink="http://www.w3.org/1999/xlink"
 xmlns:xodm="http://www.corel.com/coreldraw/odm/2003">
 <defs>
  <style type="text/css">
   <![CDATA[
    .str0 {stroke:#ED3237;stroke-width:0.9;stroke-miterlimit:22.9256}
    .fil0 {fill:#FEFEFE}
    .fil1 {fill:#373435;fill-rule:nonzero}
   ]]>
  </style>
 </defs>
 <g id="Capa_x0020_1">
  <metadata id="CorelCorpID_0Corel-Layer"/>
  <rect class="fil0 str0" x="0.43" y="1.21" width="887.1" height="597.6"/>
  <path class="fil1" d="M186.76 356.25c-0.61,1.54 -1.23,3.37 -1.82,4.97l-0.19 0.5c6.57,5.58 16.64,7.89 28.24,10.08 12.13,2.29 26.13,3.08 40.14,3.1l0.02 0c14.02,-0.02 28.01,-0.81 40.14,-3.1 11.61,-2.19 21.99,-4.98 28.55,-10.56l-0.18 -0.5c-0.59,-1.6 -1.31,-3.12 -1.92,-4.65 -3.65,6.01 -14.97,9.22 -27.72,11.13 -12.32,1.85 -25.73,2.54 -38.87,2.61l-0.02 0c-13.14,-0.07 -26.55,-0.76 -38.87,-2.61 -12.75,-1.91 -23.86,-4.96 -27.5,-10.97zm66.39 19.2l-0.02 0c-14.05,-0.02 -28.08,-0.81 -40.24,-3.11 -11.6,-2.19 -21.69,-4.49 -28.34,-10.07 -1.03,2.77 -2.1,5.51 -3.33,8.11 5.3,5.16 14.67,7.72 25.98,10.29 13.34,3.05 29.62,4.42 45.93,4.46l0.02 0c16.31,-0.04 32.59,-1.41 45.93,-4.46 11.31,-2.57 21.19,-5.28 26.49,-10.44 -1.23,-2.6 -2.5,-5.67 -3.52,-8.44 -6.65,5.58 -17.06,8.36 -28.66,10.55 -12.16,2.3 -26.19,3.09 -40.24,3.11zm0 10.23l-0.02 0c-16.35,-0.03 -32.67,-1.41 -46.05,-4.47 -11.31,-2.57 -20.71,-5.15 -26.12,-10.32 -0.62,1.27 -1.24,2.1 -1.97,3.25 11.96,15.02 55.87,16.58 74.14,16.65l0.02 0c18.27,-0.07 62.71,-1.96 74.68,-16.98 -0.73,-1.15 -1.38,-1.79 -2,-3.05 -5.41,5.17 -15.32,7.88 -26.63,10.45 -13.38,3.06 -29.7,4.44 -46.05,4.47zm0 114.19l-0.02 0 -0.43 0.07 -0.07 -108.13c-18.31,-0.16 -62.28,-1.79 -74.36,-16.78l-0.52 -0.33 0.08 -0.11c2.72,-3.92 4.59,-8.99 6.42,-13.94 0.87,-2.36 1.79,-4.17 2.73,-6.35l0 0c0.01,-0.03 0.03,-0.07 0.05,-0.1 0.27,-0.46 0.85,-0.61 1.3,-0.34 9.24,5.44 36.5,7.64 64.8,7.64l0.02 0c28.3,0 56.53,-2.73 65.77,-8.17 0.46,-0.27 0.47,0.05 0.74,0.5 0.02,0.03 0.03,0.07 0.05,0.1l0 0c0.94,2.19 2,4.78 2.87,7.14 1.75,4.73 3.63,9.43 6.16,13.28l-0.99 0.97c-12.07,14.99 -55.79,16.33 -74.1,16.49l-0.07 108 -0.43 0.06zm0 -136.46l-0.02 0c-26.38,0 -52.79,-2.4 -64.21,-7.2 3.64,5.05 13.8,7.36 25.61,9.13 12.24,1.83 25.55,2.52 38.6,2.59l0.02 0c13.05,-0.07 26.36,-0.76 38.6,-2.59 11.81,-1.77 21.97,-4.08 25.61,-9.13 -11.41,4.8 -37.83,7.2 -64.21,7.2z"/>
  <path class="fil1" d="M701.81 356.09c0.61,1.53 1.33,3.05 1.92,4.65l0.18 0.5c-6.56,5.58 -16.94,8.37 -28.55,10.56 -12.13,2.29 -26.12,3.08 -40.14,3.1l-0.02 0c-14.01,-0.02 -28.01,-0.81 -40.14,-3.1 -11.6,-2.19 -21.67,-4.5 -28.23,-10.08l0.18 -0.5c0.59,-1.6 1.21,-3.43 1.82,-4.97 3.65,6.01 14.75,9.06 27.5,10.97 12.32,1.85 25.73,2.54 38.87,2.61l0.02 0c13.14,-0.07 26.56,-0.76 38.88,-2.61 12.74,-1.91 24.06,-5.12 27.71,-11.13zm-66.61 19.36l0.02 0c14.05,-0.02 28.08,-0.81 40.25,-3.11 11.6,-2.19 22,-4.97 28.65,-10.55 1.03,2.77 2.29,5.84 3.53,8.44 -5.31,5.16 -15.19,7.87 -26.5,10.44 -13.34,3.05 -29.62,4.42 -45.93,4.46l-0.02 0c-16.31,-0.04 -32.58,-1.41 -45.93,-4.46 -11.3,-2.57 -20.68,-5.13 -25.98,-10.29 1.24,-2.6 2.3,-5.34 3.33,-8.11 6.65,5.58 16.74,7.88 28.34,10.07 12.17,2.3 26.19,3.09 40.24,3.11zm0 10.23l0.02 0c16.35,-0.03 32.67,-1.41 46.06,-4.47 11.3,-2.57 21.21,-5.28 26.62,-10.45 0.62,1.26 1.27,1.9 2,3.05 -11.96,15.02 -56.41,16.91 -74.68,16.98l-0.02 0c-18.27,-0.07 -62.17,-1.63 -74.14,-16.65 0.73,-1.15 1.35,-1.98 1.97,-3.25 5.41,5.17 14.81,7.75 26.12,10.32 13.38,3.06 29.7,4.44 46.05,4.47zm0 114.19l0.02 0 0.44 -0.06 0.06 -108c18.31,-0.16 62.03,-1.5 74.11,-16.49l0.98 -0.97c-2.53,-3.85 -4.41,-8.55 -6.16,-13.28 -0.87,-2.36 -1.93,-4.95 -2.87,-7.14l0 0c-0.02,-0.03 -0.03,-0.07 -0.05,-0.1 -0.27,-0.45 -0.28,-0.77 -0.73,-0.5 -9.25,5.44 -37.48,8.17 -65.78,8.17l-0.02 0c-28.3,0 -55.55,-2.2 -64.8,-7.64 -0.45,-0.27 -1.03,-0.12 -1.3,0.34 -0.02,0.03 -0.03,0.07 -0.05,0.1l0 0c-0.94,2.18 -1.86,3.99 -2.73,6.35 -1.83,4.95 -3.7,10.02 -6.42,13.94l-0.08 0.11 0.53 0.33c12.07,14.99 56.05,16.62 74.35,16.78l0.07 108.13 0.43 -0.07zm0 -136.46l0.02 0c26.38,0 52.8,-2.4 64.21,-7.2 -3.64,5.05 -13.8,7.36 -25.61,9.13 -12.24,1.83 -25.55,2.52 -38.6,2.59l-0.02 0c-13.04,-0.07 -26.36,-0.76 -38.6,-2.59 -11.81,-1.77 -21.97,-4.08 -25.6,-9.13 11.41,4.8 37.82,7.2 64.2,7.2z"/>
 </g>
</svg>
