<?xml version="1.0" encoding="UTF-8"?>
<!DOCTYPE svg PUBLIC "-//W3C//DTD SVG 1.1//EN" "http://www.w3.org/Graphics/SVG/1.1/DTD/svg11.dtd">
<!-- Creator: CorelDRAW -->
<svg xmlns="http://www.w3.org/2000/svg" xml:space="preserve" width="888px" height="598px" version="1.1" style="shape-rendering:geometricPrecision; text-rendering:geometricPrecision; image-rendering:optimizeQuality; fill-rule:evenodd; clip-rule:evenodd"
viewBox="0 0 888 598.5"
 xmlns:xlink="http://www.w3.org/1999/xlink"
 xmlns:xodm="http://www.corel.com/coreldraw/odm/2003">
 <defs>
  <style type="text/css">
   <![CDATA[
    .str0 {stroke:#373435;stroke-width:2.36;stroke-miterlimit:22.9256}
    .fil0 {fill:#6B809B}
   ]]>
  </style>
 </defs>
 <g id="Capa_x0020_1">
  <metadata id="CorelCorpID_0Corel-Layer"/>
  <g id="_2259396067840">
   <path class="fil0 str0" d="M144.19 560.49l0 0.01c0.93,0.21 1.92,0.41 2.95,0.61 0.77,0.14 1.55,0.29 2.33,0.43 -1.41,-2.16 -2.75,-5.17 -3.99,-8.56 -3.41,-9.31 -6.04,-21.44 -7.07,-26.54 -2.32,12.03 -4.78,30.49 -4.78,30.49 0.49,0.64 4.27,2.17 10.56,3.56z"/>
   <path class="fil0 str0" d="M362.49 560.49l0 0.01c-0.93,0.21 -1.91,0.41 -2.95,0.61 -0.77,0.14 -1.55,0.29 -2.33,0.43 1.41,-2.16 2.75,-5.17 3.99,-8.56 3.41,-9.31 6.04,-21.44 7.08,-26.54 2.31,12.03 4.77,30.49 4.77,30.49 -0.49,0.64 -4.27,2.17 -10.56,3.56z"/>
  </g>
  <g id="_2259396067936">
   <path class="fil0 str0" d="M526.13 560.49l0 0.01c0.93,0.21 1.92,0.41 2.96,0.61 0.76,0.14 1.54,0.29 2.32,0.43 -1.4,-2.16 -2.75,-5.17 -3.98,-8.56 -3.42,-9.31 -6.05,-21.44 -7.08,-26.54 -2.32,12.03 -4.78,30.49 -4.78,30.49 0.5,0.64 4.27,2.17 10.56,3.56z"/>
   <path class="fil0 str0" d="M744.43 560.49l0 0.01c-0.93,0.21 -1.91,0.41 -2.95,0.61 -0.77,0.14 -1.54,0.29 -2.33,0.43 1.41,-2.16 2.75,-5.17 3.99,-8.56 3.41,-9.31 6.05,-21.44 7.08,-26.54 2.31,12.03 4.77,30.49 4.77,30.49 -0.49,0.64 -4.27,2.17 -10.56,3.56z"/>
  </g>
 </g>
</svg>
