<?xml version="1.0" encoding="UTF-8"?>
<!DOCTYPE svg PUBLIC "-//W3C//DTD SVG 1.1//EN" "http://www.w3.org/Graphics/SVG/1.1/DTD/svg11.dtd">
<!-- Creator: CorelDRAW -->
<svg xmlns="http://www.w3.org/2000/svg" xml:space="preserve" width="888px" height="598px" version="1.1" style="shape-rendering:geometricPrecision; text-rendering:geometricPrecision; image-rendering:optimizeQuality; fill-rule:evenodd; clip-rule:evenodd"
viewBox="0 0 888 598.5"
 xmlns:xlink="http://www.w3.org/1999/xlink"
 xmlns:xodm="http://www.corel.com/coreldraw/odm/2003">
 <defs>
  <style type="text/css">
   <![CDATA[
    .str1 {stroke:#373435;stroke-width:0.9;stroke-miterlimit:22.9256}
    .str0 {stroke:#ED3237;stroke-width:0.9;stroke-miterlimit:22.9256}
    .fil0 {fill:#FEFEFE}
    .fil1 {fill:#6B809B}
   ]]>
  </style>
 </defs>
 <g id="Capa_x0020_1">
  <metadata id="CorelCorpID_0Corel-Layer"/>
  <rect class="fil0 str0" x="0.43" y="1.21" width="887.1" height="597.6"/>
  <path class="fil1 str1" d="M186.11 381.16l-0.05 0.07 0.05 -0.07zm-1.43 -0.81l-0.02 0.03 0.02 -0.03zm-33.62 142.51c2.5,-11.51 7.41,-38.96 10.02,-53.61 2.6,-14.65 9.35,-33.69 10.92,-42.49 2.22,-12.48 8.47,-33.43 14.25,-45.53 -0.05,-0.02 -0.09,-0.05 -0.14,-0.07 -0.49,-0.27 -0.97,-0.53 -1.43,-0.81 -2.61,-1.55 -4.79,-3.32 -6.41,-5.32l-0.33 -0.2c-0.06,0.1 -0.13,0.2 -0.2,0.3 -6.5,9.38 -14.99,36.63 -17.67,51.63 -1.57,8.8 -8.32,27.84 -10.92,42.49 -2.61,14.65 -7.52,42.1 -10.02,53.61 -2.49,11.5 -5.5,34.07 -5.5,34.07 0.49,0.64 4.27,2.17 10.56,3.56 1.56,-9.11 4.98,-28.93 6.87,-37.63z"/>
  <path class="fil1 str1" d="M320.27 381.24c5.78,12.09 12.03,33.05 14.25,45.52 1.57,8.8 8.32,27.84 10.92,42.49 2.61,14.65 7.52,42.1 10.02,53.61 1.89,8.7 5.31,28.52 6.86,37.62 6.27,-1.38 10.03,-2.92 10.52,-3.55 0,0 -3.01,-22.57 -5.5,-34.07 -2.5,-11.51 -7.41,-38.96 -10.02,-53.61 -2.6,-14.65 -9.35,-33.69 -10.92,-42.49 -2.71,-15.21 -11.41,-43.04 -17.94,-52.02 -0.02,-0.02 -0.04,-0.05 -0.05,-0.07l-0.66 0.65c-1.83,2.27 -4.39,4.23 -7.48,5.92z"/>
  <path class="fil1 str1" d="M568.18 381.16l-0.05 0.07 0.05 -0.07zm-1.43 -0.81l-0.02 0.03 0.02 -0.03zm-33.62 142.51c2.5,-11.51 7.41,-38.96 10.02,-53.61 2.6,-14.65 9.35,-33.69 10.92,-42.49 2.22,-12.48 8.48,-33.43 14.25,-45.53 -0.04,-0.02 -0.09,-0.05 -0.14,-0.07 -0.49,-0.27 -0.97,-0.53 -1.43,-0.81 -2.61,-1.55 -4.79,-3.32 -6.4,-5.32l-0.33 -0.2c-0.07,0.1 -0.14,0.2 -0.21,0.3 -6.5,9.38 -14.99,36.63 -17.67,51.63 -1.57,8.8 -8.32,27.84 -10.92,42.49 -2.6,14.65 -7.52,42.1 -10.01,53.61 -2.5,11.5 -5.51,34.07 -5.51,34.07 0.5,0.64 4.28,2.17 10.57,3.56 1.55,-9.11 4.97,-28.93 6.86,-37.63z"/>
  <path class="fil1 str1" d="M702.34 381.24c5.78,12.09 12.03,33.05 14.25,45.52 1.57,8.8 8.32,27.84 10.93,42.49 2.6,14.65 7.51,42.1 10.01,53.61 1.89,8.7 5.32,28.52 6.87,37.62 6.26,-1.38 10.02,-2.92 10.51,-3.55 0,0 -3.01,-22.57 -5.5,-34.07 -2.5,-11.51 -7.41,-38.96 -10.02,-53.61 -2.6,-14.65 -9.35,-33.69 -10.92,-42.49 -2.71,-15.21 -11.41,-43.04 -17.94,-52.02 -0.02,-0.02 -0.03,-0.05 -0.05,-0.07l-0.65 0.65c-1.84,2.27 -4.4,4.23 -7.49,5.92z"/>
 </g>
</svg>
