<?xml version="1.0" encoding="UTF-8"?>
<!DOCTYPE svg PUBLIC "-//W3C//DTD SVG 1.1//EN" "http://www.w3.org/Graphics/SVG/1.1/DTD/svg11.dtd">
<!-- Creator: CorelDRAW -->
<svg xmlns="http://www.w3.org/2000/svg" xml:space="preserve" width="888px" height="598px" version="1.1" style="shape-rendering:geometricPrecision; text-rendering:geometricPrecision; image-rendering:optimizeQuality; fill-rule:evenodd; clip-rule:evenodd"
viewBox="0 0 888 598.5"
 xmlns:xlink="http://www.w3.org/1999/xlink"
 xmlns:xodm="http://www.corel.com/coreldraw/odm/2003">
 <defs>
  <style type="text/css">
   <![CDATA[
    .str0 {stroke:#ED3237;stroke-width:0.9;stroke-miterlimit:22.9256}
    .str1 {stroke:#6B809B;stroke-width:0.9;stroke-miterlimit:22.9256}
    .fil0 {fill:#FEFEFE}
    .fil1 {fill:#D2D3D5}
   ]]>
  </style>
 </defs>
 <g id="Capa_x0020_1">
  <metadata id="CorelCorpID_0Corel-Layer"/>
  <rect class="fil0 str0" x="0.43" y="1.21" width="887.1" height="597.6"/>
  <path class="fil1 str1" d="M646.07 186.8l0 -1.07 -0.71 -0.17 -0.85 -0.2 -0.71 -0.17 -0.17 -0.04c-0.61,-0.15 -1.12,0.18 -1.12,0.72l0 1.19 0 1.07 0.72 0.17 0.85 0.2 0.71 0.17 1.28 0.31 0 -1.07 -2.84 -0.68 0 -0.84c0,-0.15 0.15,-0.23 0.31,-0.19l2.53 0.6zm-4.27 15.12l0 -1.13 0 -1.26c0,-0.75 0.61,-1.22 1.35,-1.04 0.75,0.17 1.36,0.93 1.36,1.69l0 1.25 1.56 0.37 0 1.13 -1.56 -0.37 -0.87 -0.21 -1.04 -0.24 -0.8 -0.19zm0.75 -0.95l1.25 0.29 0 -0.81c0,-0.35 -0.29,-0.7 -0.63,-0.78 -0.34,-0.08 -0.62,0.14 -0.62,0.48l0 0.82zm2.81 -11.62l-0.85 -0.2 -0.71 -0.17 -0.17 -0.04c-0.61,-0.15 -1.12,0.18 -1.12,0.72l0 1.75 0.72 0.17 0 -1.4c0,-0.15 0.15,-0.23 0.31,-0.19l0.26 0.06 0 0.93c0,0.64 0.51,1.27 1.13,1.42 0.63,0.15 1.14,-0.24 1.14,-0.88l0 -0.93 0 -1.07 -0.71 -0.17zm-0.85 0.87l0.85 0.2 0 0.66c0,0.24 -0.19,0.39 -0.43,0.33 -0.23,-0.06 -0.42,-0.3 -0.42,-0.53l0 -0.66zm0.85 5.51l-0.85 -0.2 -0.71 -0.17 -0.17 -0.04c-0.61,-0.14 -1.12,0.18 -1.12,0.73l0 1.72 0.72 0.17 0 -1.38c0,-0.14 0.15,-0.23 0.31,-0.19l0.26 0.06 0 0.94c0,0.63 0.51,1.27 1.13,1.42 0.63,0.15 1.14,-0.25 1.14,-0.88l0 -0.94 0 -1.07 -0.71 -0.17zm-0.85 0.87l0.85 0.2 0 0.67c0,0.23 -0.19,0.38 -0.43,0.32 -0.23,-0.05 -0.42,-0.29 -0.42,-0.53l0 -0.66zm-1.28 -13.81l2.84 0.67 0 1.07 -1.28 -0.3 -0.71 -0.17 -0.85 -0.2 0 0 0 0.89 -0.72 -0.17 0 -0.89 0 -0.54 0 -0.53 0 -0.9 0.72 0.17 0 0.9zm-0.72 10.7l0 1.06 0.72 0.17 0.85 0.21 0.71 0.17 0.17 0.04c0.61,0.14 1.11,-0.18 1.11,-0.73l0 -1.59 -0.71 -0.17 0 1.25c0,0.15 -0.15,0.24 -0.32,0.2l-2.53 -0.61z"/>
 </g>
</svg>
