<?xml version="1.0" encoding="UTF-8"?>
<!DOCTYPE svg PUBLIC "-//W3C//DTD SVG 1.1//EN" "http://www.w3.org/Graphics/SVG/1.1/DTD/svg11.dtd">
<!-- Creator: CorelDRAW -->
<svg xmlns="http://www.w3.org/2000/svg" xml:space="preserve" width="888px" height="598px" version="1.1" style="shape-rendering:geometricPrecision; text-rendering:geometricPrecision; image-rendering:optimizeQuality; fill-rule:evenodd; clip-rule:evenodd"
viewBox="0 0 888 598.5"
 xmlns:xlink="http://www.w3.org/1999/xlink"
 xmlns:xodm="http://www.corel.com/coreldraw/odm/2003">
 <defs>
  <style type="text/css">
   <![CDATA[
    .str0 {stroke:#ED3237;stroke-width:0.9;stroke-miterlimit:22.9256}
    .fil0 {fill:#FEFEFE}
    .fil1 {fill:#00A859}
   ]]>
  </style>
 </defs>
 <g id="Capa_x0020_1">
  <metadata id="CorelCorpID_0Corel-Layer"/>
  <rect class="fil0 str0" x="-0.48" y="1.29" width="887.1" height="597.6"/>
  <path class="fil1" d="M654.24 112.97l6.66 0 0 91.33 -7.6 8.34 -44.89 0 0 -0.2 0 -14.83 39.17 0 0 -27.26 -31.53 0 -7.64 -8.33 0 -40.71 7.6 -8.34 38.23 0zm-8.4 59.11l0 23.79 -39.16 0 0 18.51 47.39 0 8.56 -9.4 0 -93.75 -47.38 0 -8.57 9.41 0 42.05 8.6 9.39 30.56 0zm0 -42.34l0 23.84 -22.37 0 0 -23.84 22.37 0zm-24.1 25.57l23.7 0 2.14 0 0 -27.3 -25.84 0 0 0.71 0 24.88 0 1.71z"/>
 </g>
</svg>
