<?xml version="1.0" encoding="UTF-8"?>
<!DOCTYPE svg PUBLIC "-//W3C//DTD SVG 1.1//EN" "http://www.w3.org/Graphics/SVG/1.1/DTD/svg11.dtd">
<!-- Creator: CorelDRAW -->
<svg xmlns="http://www.w3.org/2000/svg" xml:space="preserve" width="888px" height="598px" version="1.1" style="shape-rendering:geometricPrecision; text-rendering:geometricPrecision; image-rendering:optimizeQuality; fill-rule:evenodd; clip-rule:evenodd"
viewBox="0 0 888 598.5"
 xmlns:xlink="http://www.w3.org/1999/xlink"
 xmlns:xodm="http://www.corel.com/coreldraw/odm/2003">
 <defs>
  <style type="text/css">
   <![CDATA[
    .str1 {stroke:#373435;stroke-width:0.9;stroke-miterlimit:22.9256}
    .str0 {stroke:#ED3237;stroke-width:0.9;stroke-miterlimit:22.9256}
    .fil1 {fill:none}
    .fil0 {fill:#FEFEFE}
   ]]>
  </style>
 </defs>
 <g id="Capa_x0020_1">
  <metadata id="CorelCorpID_0Corel-Layer"/>
  <rect class="fil0 str0" x="0.43" y="1.21" width="887.1" height="597.6"/>
  <path class="fil1 str1" d="M155.8 379.65l0.87 17.06c-23.22,58.88 -17.95,77.17 -17.82,138.88 26.54,23.79 59.01,21.17 93.93,7.63l4.24 -30.66 4.25 30.66c34.92,13.54 67.39,16.16 93.92,-7.63 0.13,-61.71 5.4,-80 -17.81,-138.88l0.86 -17.06 -81.22 0 -81.22 0z"/>
  <path class="fil1 str1" d="M554.25 379.65l0.86 17.06c-23.21,58.88 -17.94,77.17 -17.81,138.88 26.53,23.79 59,21.17 93.92,7.63l4.25 -30.66 4.24 30.66c34.93,13.54 67.39,16.16 93.92,-7.63 0.14,-61.71 5.41,-80 -17.81,-138.88l0.87 -17.06 -81.22 0 -81.22 0z"/>
 </g>
</svg>
