<?xml version="1.0" encoding="UTF-8"?>
<!DOCTYPE svg PUBLIC "-//W3C//DTD SVG 1.1//EN" "http://www.w3.org/Graphics/SVG/1.1/DTD/svg11.dtd">
<!-- Creator: CorelDRAW -->
<svg xmlns="http://www.w3.org/2000/svg" xml:space="preserve" width="888px" height="598px" version="1.1" style="shape-rendering:geometricPrecision; text-rendering:geometricPrecision; image-rendering:optimizeQuality; fill-rule:evenodd; clip-rule:evenodd"
viewBox="0 0 888 598.5"
 xmlns:xlink="http://www.w3.org/1999/xlink"
 xmlns:xodm="http://www.corel.com/coreldraw/odm/2003">
 <defs>
  <style type="text/css">
   <![CDATA[
    .str1 {stroke:#373435;stroke-width:0.9;stroke-miterlimit:22.9256}
    .str0 {stroke:#ED3237;stroke-width:0.9;stroke-miterlimit:22.9256}
    .fil0 {fill:#FEFEFE}
    .fil1 {fill:#6B809B}
   ]]>
  </style>
 </defs>
 <g id="Capa_x0020_1">
  <metadata id="CorelCorpID_0Corel-Layer"/>
  <rect class="fil0 str0" x="0.43" y="1.21" width="887.1" height="597.6"/>
  <path class="fil1 str1" d="M146.72 541.77c-0.22,-63.07 -5.28,-83.57 17.16,-142.27 -0.63,-0.28 -1.33,-0.63 -2.07,-1.01l-0.14 0.32 -1.56 -0.7 0.2 -0.44c-0.74,-0.41 -1.49,-0.84 -2.23,-1.28l-0.3 0.62 -1.13 -0.56 0.02 0.26c-23.22,58.88 -17.95,77.17 -17.82,138.88 2.57,2.3 5.2,4.36 7.87,6.18zm9.88 -146.26l0.01 0.04 0.01 -0.03 -0.02 -0.01z"/>
  <path class="fil1 str1" d="M327.29 541.77c0.23,-63.07 5.28,-83.57 -17.15,-142.27 0.63,-0.28 1.33,-0.63 2.06,-1.01l0.14 0.32 1.56 -0.7 -0.19 -0.44c0.74,-0.41 1.49,-0.84 2.22,-1.28l0.3 0.62 1.13 -0.56 -0.01 0.26c23.21,58.88 17.94,77.17 17.81,138.88 -2.57,2.3 -5.19,4.36 -7.87,6.18zm-9.88 -146.26l0 0.04 -0.02 -0.03 0.02 -0.01z"/>
  <g id="_2264961825712">
   <path class="fil1 str1" d="M545.18 541.77c-0.22,-63.07 -5.28,-83.57 17.16,-142.27 -0.63,-0.28 -1.33,-0.63 -2.07,-1.01l-0.14 0.32 -1.56 -0.7 0.2 -0.44c-0.74,-0.41 -1.49,-0.84 -2.23,-1.28l-0.3 0.62 -1.13 -0.56 0.02 0.26c-23.22,58.88 -17.95,77.17 -17.82,138.88 2.57,2.3 5.2,4.36 7.87,6.18zm9.89 -146.26l0 0.04 0.02 -0.03 -0.02 -0.01z"/>
   <path class="fil1 str1" d="M725.75 541.77c0.23,-63.07 5.28,-83.57 -17.15,-142.27 0.63,-0.28 1.33,-0.63 2.06,-1.01l0.14 0.32 1.56 -0.7 -0.19 -0.44c0.74,-0.41 1.49,-0.84 2.22,-1.28l0.3 0.62 1.13 -0.56 -0.01 0.26c23.21,58.88 17.94,77.17 17.81,138.88 -2.57,2.3 -5.19,4.36 -7.87,6.18zm-9.88 -146.26l0 0.04 -0.02 -0.03 0.02 -0.01z"/>
  </g>
 </g>
</svg>
