<?xml version="1.0" encoding="UTF-8"?>
<!DOCTYPE svg PUBLIC "-//W3C//DTD SVG 1.1//EN" "http://www.w3.org/Graphics/SVG/1.1/DTD/svg11.dtd">
<!-- Creator: CorelDRAW -->
<svg xmlns="http://www.w3.org/2000/svg" xml:space="preserve" width="888px" height="598px" version="1.1" style="shape-rendering:geometricPrecision; text-rendering:geometricPrecision; image-rendering:optimizeQuality; fill-rule:evenodd; clip-rule:evenodd"
viewBox="0 0 888 598.5"
 xmlns:xlink="http://www.w3.org/1999/xlink"
 xmlns:xodm="http://www.corel.com/coreldraw/odm/2003">
 <defs>
  <style type="text/css">
   <![CDATA[
    .str0 {stroke:#ED3237;stroke-width:0.9;stroke-miterlimit:22.9256}
    .fil0 {fill:#FEFEFE}
    .fil1 {fill:#373435}
   ]]>
  </style>
 </defs>
 <g id="Capa_x0020_1">
  <metadata id="CorelCorpID_0Corel-Layer"/>
  <rect class="fil0 str0" x="0.43" y="1.21" width="887.1" height="597.6"/>
  <g id="_2280500776192">
   <g>
    <path class="fil1" d="M237.45 495.54c1.18,1.12 9.12,9.52 10.29,34.45 0.12,2.61 0.19,5.23 0.22,7.74 0.03,2.79 0.01,5.44 -0.04,7.83l-0.86 -0.02c0.06,-2.38 0.08,-5.03 0.05,-7.8 -0.03,-2.49 -0.1,-5.09 -0.22,-7.71 -1.04,-22.01 -7.31,-30.87 -9.44,-33.26l0 15.79 -0.86 0 0 -15.79c-2.12,2.4 -8.4,11.25 -9.44,33.26 -0.13,2.81 -0.2,5.48 -0.23,8.03 -0.02,2.54 0,4.97 0.05,7.26l0.01 0.18 -0.85 0.04 -0.01 -0.19c-0.06,-2.3 -0.08,-4.74 -0.05,-7.3 0.03,-2.57 0.1,-5.26 0.23,-8.06 1.18,-24.93 9.11,-33.33 10.29,-34.45l0 -98.14c-57.14,0.07 -80.97,-17.36 -81.04,-17.41l0.5 -0.69c0.07,0.05 23.67,17.32 80.54,17.25l0 -7.02c-9.43,-0.01 -18.34,0.15 -26.72,0.44 -9.17,0.32 -15.59,0.66 -23.55,1.27l-2.2 -0.71c7.94,-0.61 16.51,-1.09 25.72,-1.41 8.38,-0.3 17.3,-0.46 26.75,-0.45l0 -9.02 0.86 0 0 9.02c9.47,-0.01 18.4,0.15 26.8,0.45 9.1,0.32 17.57,0.8 25.43,1.39 0.11,0.01 0.41,0.09 0.52,0.1l-2.58 0.57c-7.97,-0.61 -14.21,-0.89 -23.39,-1.21 -8.4,-0.29 -17.32,-0.45 -26.78,-0.44l0 7.02c56.87,0.07 80.48,-17.2 80.55,-17.25l0.49 0.69c-0.07,0.05 -23.89,17.48 -81.04,17.41l0 98.14zm-0.97 -86.29l-1.7 0.09 0.04 0.85 1.71 -0.09 -0.05 -0.85zm-4.25 0.18l-1.7 0.03 0.01 0.85 1.71 -0.03 -0.02 -0.85zm-4.25 0.04l-1.69 -0.03 -0.03 0.85 1.71 0.03 0.01 -0.85zm-4.25 -0.11l-1.7 -0.08 -0.05 0.86 1.71 0.07 0.04 -0.85zm-4.25 -0.23l-1.7 -0.14 -0.07 0.86 1.71 0.13 0.06 -0.85zm-4.24 -0.37l-1.69 -0.18 -0.1 0.85 1.7 0.18 0.09 -0.85zm-4.23 -0.49l-1.68 -0.22 -0.13 0.84 1.7 0.23 0.11 -0.85zm-4.21 -0.6l-1.68 -0.28 -0.14 0.85 1.69 0.27 0.13 -0.84zm-4.2 -0.72l-1.67 -0.31 -0.16 0.83 1.68 0.32 0.15 -0.84zm-4.17 -0.82l-1.67 -0.36 -0.18 0.83 1.67 0.36 0.18 -0.83zm-4.16 -0.93l-1.65 -0.4 -0.21 0.83 1.67 0.4 0.19 -0.83zm-4.13 -1.02l-1.65 -0.44 -0.22 0.82 1.66 0.44 0.21 -0.82zm-4.11 -1.12l-1.63 -0.48 -0.24 0.82 1.64 0.48 0.23 -0.82zm-4.08 -1.22l-1.62 -0.51 -0.26 0.81 1.63 0.52 0.25 -0.82zm-4.05 -1.3l-1.61 -0.55 -0.28 0.81 1.62 0.54 0.27 -0.8zm-4.02 -1.4l-1.6 -0.58 -0.3 0.8 1.61 0.58 0.29 -0.8zm-3.99 -1.48c-0.48,-0.18 -1.16,-0.41 -1.59,-0.62l-0.32 0.79c0.53,0.22 1.07,0.42 1.6,0.62l0.31 -0.79zm-3.96 -1.58l-1.57 -0.66 -0.33 0.79 1.58 0.66 0.32 -0.79zm-3.91 -1.67l-1.56 -0.7 -0.35 0.78 1.56 0.7 0.35 -0.78zm-3.86 -1.78l-1.52 -0.76 -0.4 0.76 1.54 0.77 0.38 -0.77zm78.32 20.23l-1.7 0.09 0.04 0.85 1.71 -0.09 -0.05 -0.85zm-4.25 0.18l-1.7 0.04 0.01 0.85 1.71 -0.03 -0.02 -0.86zm-4.25 0.04l-1.69 -0.02 -0.03 0.85 1.71 0.02 0.01 -0.85zm-4.25 -0.1l-1.7 -0.08 -0.05 0.85 1.71 0.08 0.04 -0.85zm-4.25 -0.24l-1.7 -0.13 -0.07 0.85 1.71 0.13 0.06 -0.85zm-4.24 -0.36l-1.69 -0.18 -0.1 0.84 1.7 0.18 0.09 -0.84zm-4.23 -0.49l-1.68 -0.23 -0.13 0.85 1.7 0.22 0.11 -0.84zm-4.21 -0.61l-1.68 -0.27 -0.14 0.84 1.69 0.28 0.13 -0.85zm-4.2 -0.71l-1.67 -0.32 -0.16 0.84 1.68 0.32 0.15 -0.84zm-4.17 -0.83l-1.67 -0.35 -0.18 0.83 1.67 0.36 0.18 -0.84zm-4.16 -0.92l-1.65 -0.4 -0.21 0.83 1.67 0.4 0.19 -0.83zm-4.13 -1.03l-1.65 -0.43 -0.22 0.82 1.66 0.44 0.21 -0.83zm-4.11 -1.12l-1.63 -0.47 -0.24 0.81 1.64 0.48 0.23 -0.82zm-4.08 -1.21l-1.62 -0.51 -0.26 0.81 1.63 0.51 0.25 -0.81zm-4.05 -1.31l-1.61 -0.54 -0.28 0.8 1.62 0.55 0.27 -0.81zm-4.02 -1.39l-1.6 -0.59 -0.3 0.8 1.61 0.59 0.29 -0.8zm-3.99 -1.49c-0.48,-0.18 -1.16,-0.4 -1.59,-0.62l-0.32 0.8c0.53,0.21 1.07,0.41 1.6,0.62l0.31 -0.8zm-3.96 -1.57l-1.57 -0.66 -0.33 0.79 1.58 0.66 0.32 -0.79zm-3.91 -1.67l-1.56 -0.7 -0.35 0.78 1.56 0.7 0.35 -0.78zm-3.86 -1.79l-1.52 -0.75 -0.4 0.76 1.54 0.76 0.38 -0.77zm79.35 13.86l1.71 0.09 0.04 -0.85 -1.7 -0.09 -0.05 0.85zm4.28 0.18l1.71 0.03 0.01 -0.85 -1.7 -0.03 -0.02 0.85zm4.28 0.04l1.71 -0.03 -0.01 -0.85 -1.71 0.03 0.01 0.85zm4.28 -0.11l1.71 -0.07 -0.04 -0.86 -1.7 0.08 0.03 0.85zm4.28 -0.23l1.7 -0.13 -0.07 -0.86 -1.7 0.14 0.07 0.85zm4.26 -0.37l1.7 -0.18 -0.1 -0.85 -1.69 0.18 0.09 0.85zm4.25 -0.49l1.7 -0.23 -0.12 -0.84 -1.69 0.22 0.11 0.85zm4.24 -0.61l1.69 -0.27 -0.15 -0.85 -1.68 0.28 0.14 0.84zm4.22 -0.72l1.68 -0.32 -0.17 -0.83 -1.67 0.31 0.16 0.84zm4.19 -0.83l1.68 -0.36 -0.19 -0.83 -1.66 0.36 0.17 0.83zm4.18 -0.93l1.66 -0.4 -0.2 -0.83 -1.66 0.4 0.2 0.83zm4.15 -1.03l1.65 -0.44 -0.22 -0.82 -1.65 0.44 0.22 0.82zm4.13 -1.12l1.64 -0.48 -0.24 -0.82 -1.64 0.48 0.24 0.82zm4.09 -1.22l1.64 -0.52 -0.26 -0.81 -1.63 0.51 0.25 0.82zm4.08 -1.31l1.62 -0.55 -0.28 -0.81 -1.62 0.55 0.28 0.81zm4.04 -1.41l1.6 -0.58 -0.29 -0.8 -1.61 0.58 0.3 0.8zm4.01 -1.49c0.52,-0.2 1.07,-0.4 1.59,-0.62l-0.32 -0.79c-0.43,0.21 -1.11,0.44 -1.58,0.62l0.31 0.79zm3.97 -1.58l1.58 -0.66 -0.34 -0.79 -1.57 0.66 0.33 0.79zm3.93 -1.68l1.56 -0.7 -0.35 -0.78 -1.55 0.7 0.34 0.78zm3.89 -1.79l1.54 -0.77 -0.4 -0.76 -1.51 0.76 0.37 0.77zm-78.75 20.31l1.71 0.09 0.04 -0.85 -1.7 -0.09 -0.05 0.85zm4.28 0.19l1.71 0.03 0.01 -0.85 -1.7 -0.04 -0.02 0.86zm4.28 0.03l1.71 -0.02 -0.01 -0.86 -1.71 0.03 0.01 0.85zm4.28 -0.1l1.71 -0.08 -0.04 -0.85 -1.7 0.08 0.03 0.85zm4.28 -0.24l1.7 -0.13 -0.07 -0.85 -1.7 0.13 0.07 0.85zm4.26 -0.37l1.7 -0.18 -0.1 -0.84 -1.69 0.18 0.09 0.84zm4.25 -0.49l1.7 -0.22 -0.12 -0.85 -1.69 0.23 0.11 0.84zm4.24 -0.6l1.69 -0.28 -0.15 -0.84 -1.68 0.27 0.14 0.85zm4.22 -0.72l1.68 -0.32 -0.17 -0.84 -1.67 0.32 0.16 0.84zm4.19 -0.83l1.68 -0.36 -0.19 -0.83 -1.66 0.35 0.17 0.84zm4.18 -0.93l1.66 -0.4 -0.2 -0.83 -1.66 0.4 0.2 0.83zm4.15 -1.03l1.65 -0.44 -0.22 -0.82 -1.65 0.43 0.22 0.83zm4.13 -1.13l1.64 -0.48 -0.24 -0.81 -1.64 0.47 0.24 0.82zm4.09 -1.22l1.64 -0.51 -0.26 -0.81 -1.63 0.51 0.25 0.81zm4.08 -1.31l1.62 -0.55 -0.28 -0.8 -1.62 0.54 0.28 0.81zm4.04 -1.4l1.6 -0.59 -0.29 -0.8 -1.61 0.59 0.3 0.8zm4.01 -1.49c0.52,-0.21 1.07,-0.41 1.59,-0.62l-0.32 -0.8c-0.43,0.22 -1.11,0.44 -1.58,0.62l0.31 0.8zm3.97 -1.58l1.58 -0.66 -0.34 -0.79 -1.57 0.66 0.33 0.79zm3.93 -1.68l1.56 -0.7 -0.35 -0.78 -1.55 0.7 0.34 0.78zm3.89 -1.8l1.54 -0.76 -0.4 -0.76 -1.51 0.75 0.37 0.77z"/>
   </g>
  </g>
  <g id="_2280500774944">
   <g>
    <path class="fil1" d="M635.89 495.54c1.19,1.12 9.12,9.52 10.3,34.45 0.12,2.61 0.19,5.23 0.22,7.74 0.03,2.79 0.01,5.44 -0.05,7.83l-0.85 -0.02c0.06,-2.38 0.08,-5.03 0.05,-7.8 -0.03,-2.49 -0.1,-5.09 -0.22,-7.71 -1.04,-22.01 -7.32,-30.87 -9.45,-33.26l0 15.79 -0.85 0 0 -15.79c-2.13,2.4 -8.4,11.25 -9.44,33.26 -0.13,2.81 -0.21,5.48 -0.23,8.03 -0.03,2.54 -0.01,4.97 0.05,7.26l0.01 0.18 -0.86 0.04 0 -0.19c-0.06,-2.3 -0.08,-4.74 -0.05,-7.3 0.02,-2.57 0.1,-5.26 0.23,-8.06 1.17,-24.93 9.11,-33.33 10.29,-34.45l0 -98.14c-57.15,0.07 -80.97,-17.36 -81.04,-17.41l0.49 -0.69c0.07,0.05 23.68,17.32 80.55,17.25l0 -7.02c-9.44,-0.01 -18.34,0.15 -26.73,0.44 -9.17,0.32 -15.59,0.66 -23.55,1.27l-2.2 -0.71c7.94,-0.61 16.51,-1.09 25.73,-1.41 8.38,-0.3 17.29,-0.46 26.75,-0.45l0 -9.02 0.85 0 0 9.02c9.48,-0.01 18.41,0.15 26.81,0.45 9.1,0.32 17.57,0.8 25.42,1.39 0.11,0.01 0.41,0.09 0.53,0.1l-2.59 0.57c-7.97,-0.61 -14.21,-0.89 -23.39,-1.21 -8.39,-0.29 -17.32,-0.45 -26.78,-0.44l0 7.02c56.88,0.07 80.48,-17.2 80.55,-17.25l0.49 0.69c-0.06,0.05 -23.89,17.48 -81.04,17.41l0 98.14zm-0.96 -86.29l-1.7 0.09 0.04 0.85 1.71 -0.09 -0.05 -0.85zm-4.25 0.18l-1.7 0.03 0 0.85 1.72 -0.03 -0.02 -0.85zm-4.26 0.04l-1.69 -0.03 -0.03 0.85 1.72 0.03 0 -0.85zm-4.25 -0.11l-1.7 -0.08 -0.04 0.86 1.71 0.07 0.03 -0.85zm-4.24 -0.23l-1.7 -0.14 -0.07 0.86 1.7 0.13 0.07 -0.85zm-4.24 -0.37l-1.69 -0.18 -0.1 0.85 1.7 0.18 0.09 -0.85zm-4.23 -0.49l-1.69 -0.22 -0.12 0.84 1.7 0.23 0.11 -0.85zm-4.21 -0.6l-1.68 -0.28 -0.15 0.85 1.69 0.27 0.14 -0.84zm-4.2 -0.72l-1.67 -0.31 -0.17 0.83 1.68 0.32 0.16 -0.84zm-4.18 -0.82l-1.66 -0.36 -0.19 0.83 1.68 0.36 0.17 -0.83zm-4.15 -0.93l-1.66 -0.4 -0.2 0.83 1.66 0.4 0.2 -0.83zm-4.13 -1.02l-1.65 -0.44 -0.22 0.82 1.65 0.44 0.22 -0.82zm-4.11 -1.12l-1.64 -0.48 -0.24 0.82 1.64 0.48 0.24 -0.82zm-4.08 -1.22l-1.63 -0.51 -0.26 0.81 1.63 0.52 0.26 -0.82zm-4.06 -1.3l-1.61 -0.55 -0.28 0.81 1.62 0.54 0.27 -0.8zm-4.02 -1.4l-1.6 -0.58 -0.29 0.8 1.6 0.58 0.29 -0.8zm-3.99 -1.48c-0.47,-0.18 -1.15,-0.41 -1.58,-0.62l-0.32 0.79c0.52,0.22 1.07,0.42 1.59,0.62l0.31 -0.79zm-3.95 -1.58l-1.57 -0.66 -0.34 0.79 1.58 0.66 0.33 -0.79zm-3.92 -1.67l-1.55 -0.7 -0.35 0.78 1.56 0.7 0.34 -0.78zm-3.86 -1.78l-1.51 -0.76 -0.4 0.76 1.54 0.77 0.37 -0.77zm78.33 20.23l-1.7 0.09 0.04 0.85 1.71 -0.09 -0.05 -0.85zm-4.25 0.18l-1.7 0.04 0 0.85 1.72 -0.03 -0.02 -0.86zm-4.26 0.04l-1.69 -0.02 -0.03 0.85 1.72 0.02 0 -0.85zm-4.25 -0.1l-1.7 -0.08 -0.04 0.85 1.71 0.08 0.03 -0.85zm-4.24 -0.24l-1.7 -0.13 -0.07 0.85 1.7 0.13 0.07 -0.85zm-4.24 -0.36l-1.69 -0.18 -0.1 0.84 1.7 0.18 0.09 -0.84zm-4.23 -0.49l-1.69 -0.23 -0.12 0.85 1.7 0.22 0.11 -0.84zm-4.21 -0.61l-1.68 -0.27 -0.15 0.84 1.69 0.28 0.14 -0.85zm-4.2 -0.71l-1.67 -0.32 -0.17 0.84 1.68 0.32 0.16 -0.84zm-4.18 -0.83l-1.66 -0.35 -0.19 0.83 1.68 0.36 0.17 -0.84zm-4.15 -0.92l-1.66 -0.4 -0.2 0.83 1.66 0.4 0.2 -0.83zm-4.13 -1.03l-1.65 -0.43 -0.22 0.82 1.65 0.44 0.22 -0.83zm-4.11 -1.12l-1.64 -0.47 -0.24 0.81 1.64 0.48 0.24 -0.82zm-4.08 -1.21l-1.63 -0.51 -0.26 0.81 1.63 0.51 0.26 -0.81zm-4.06 -1.31l-1.61 -0.54 -0.28 0.8 1.62 0.55 0.27 -0.81zm-4.02 -1.39l-1.6 -0.59 -0.29 0.8 1.6 0.59 0.29 -0.8zm-3.99 -1.49c-0.47,-0.18 -1.15,-0.4 -1.58,-0.62l-0.32 0.8c0.52,0.21 1.07,0.41 1.59,0.62l0.31 -0.8zm-3.95 -1.57l-1.57 -0.66 -0.34 0.79 1.58 0.66 0.33 -0.79zm-3.92 -1.67l-1.55 -0.7 -0.35 0.78 1.56 0.7 0.34 -0.78zm-3.86 -1.79l-1.51 -0.75 -0.4 0.76 1.54 0.76 0.37 -0.77zm79.36 13.86l1.71 0.09 0.04 -0.85 -1.7 -0.09 -0.05 0.85zm4.28 0.18l1.71 0.03 0.01 -0.85 -1.7 -0.03 -0.02 0.85zm4.28 0.04l1.7 -0.03 -0.01 -0.85 -1.7 0.03 0.01 0.85zm4.28 -0.11l1.71 -0.07 -0.05 -0.86 -1.7 0.08 0.04 0.85zm4.27 -0.23l1.71 -0.13 -0.07 -0.86 -1.7 0.14 0.06 0.85zm4.27 -0.37l1.7 -0.18 -0.1 -0.85 -1.69 0.18 0.09 0.85zm4.25 -0.49l1.7 -0.23 -0.13 -0.84 -1.68 0.22 0.11 0.85zm4.23 -0.61l1.69 -0.27 -0.14 -0.85 -1.68 0.28 0.13 0.84zm4.22 -0.72l1.68 -0.32 -0.16 -0.83 -1.67 0.31 0.15 0.84zm4.2 -0.83l1.67 -0.36 -0.18 -0.83 -1.67 0.36 0.18 0.83zm4.17 -0.93l1.67 -0.4 -0.21 -0.83 -1.65 0.4 0.19 0.83zm4.15 -1.03l1.66 -0.44 -0.23 -0.82 -1.64 0.44 0.21 0.82zm4.13 -1.12l1.64 -0.48 -0.24 -0.82 -1.63 0.48 0.23 0.82zm4.1 -1.22l1.63 -0.52 -0.26 -0.81 -1.62 0.51 0.25 0.82zm4.07 -1.31l1.62 -0.55 -0.28 -0.81 -1.61 0.55 0.27 0.81zm4.04 -1.41l1.61 -0.58 -0.3 -0.8 -1.6 0.58 0.29 0.8zm4.01 -1.49c0.53,-0.2 1.07,-0.4 1.6,-0.62l-0.32 -0.79c-0.43,0.21 -1.11,0.44 -1.59,0.62l0.31 0.79zm3.97 -1.58l1.58 -0.66 -0.33 -0.79 -1.57 0.66 0.32 0.79zm3.94 -1.68l1.56 -0.7 -0.35 -0.78 -1.56 0.7 0.35 0.78zm3.89 -1.79l1.54 -0.77 -0.4 -0.76 -1.52 0.76 0.38 0.77zm-78.75 20.31l1.71 0.09 0.04 -0.85 -1.7 -0.09 -0.05 0.85zm4.28 0.19l1.71 0.03 0.01 -0.85 -1.7 -0.04 -0.02 0.86zm4.28 0.03l1.7 -0.02 -0.01 -0.86 -1.7 0.03 0.01 0.85zm4.28 -0.1l1.71 -0.08 -0.05 -0.85 -1.7 0.08 0.04 0.85zm4.27 -0.24l1.71 -0.13 -0.07 -0.85 -1.7 0.13 0.06 0.85zm4.27 -0.37l1.7 -0.18 -0.1 -0.84 -1.69 0.18 0.09 0.84zm4.25 -0.49l1.7 -0.22 -0.13 -0.85 -1.68 0.23 0.11 0.84zm4.23 -0.6l1.69 -0.28 -0.14 -0.84 -1.68 0.27 0.13 0.85zm4.22 -0.72l1.68 -0.32 -0.16 -0.84 -1.67 0.32 0.15 0.84zm4.2 -0.83l1.67 -0.36 -0.18 -0.83 -1.67 0.35 0.18 0.84zm4.17 -0.93l1.67 -0.4 -0.21 -0.83 -1.65 0.4 0.19 0.83zm4.15 -1.03l1.66 -0.44 -0.23 -0.82 -1.64 0.43 0.21 0.83zm4.13 -1.13l1.64 -0.48 -0.24 -0.81 -1.63 0.47 0.23 0.82zm4.1 -1.22l1.63 -0.51 -0.26 -0.81 -1.62 0.51 0.25 0.81zm4.07 -1.31l1.62 -0.55 -0.28 -0.8 -1.61 0.54 0.27 0.81zm4.04 -1.4l1.61 -0.59 -0.3 -0.8 -1.6 0.59 0.29 0.8zm4.01 -1.49c0.53,-0.21 1.07,-0.41 1.6,-0.62l-0.32 -0.8c-0.43,0.22 -1.11,0.44 -1.59,0.62l0.31 0.8zm3.97 -1.58l1.58 -0.66 -0.33 -0.79 -1.57 0.66 0.32 0.79zm3.94 -1.68l1.56 -0.7 -0.35 -0.78 -1.56 0.7 0.35 0.78zm3.89 -1.8l1.54 -0.76 -0.4 -0.76 -1.52 0.75 0.38 0.77z"/>
   </g>
  </g>
 </g>
</svg>
