<?xml version="1.0" encoding="UTF-8"?>
<!DOCTYPE svg PUBLIC "-//W3C//DTD SVG 1.1//EN" "http://www.w3.org/Graphics/SVG/1.1/DTD/svg11.dtd">
<!-- Creator: CorelDRAW -->
<svg xmlns="http://www.w3.org/2000/svg" xml:space="preserve" width="888px" height="598px" version="1.1" style="shape-rendering:geometricPrecision; text-rendering:geometricPrecision; image-rendering:optimizeQuality; fill-rule:evenodd; clip-rule:evenodd"
viewBox="0 0 888 598.5"
 xmlns:xlink="http://www.w3.org/1999/xlink"
 xmlns:xodm="http://www.corel.com/coreldraw/odm/2003">
 <defs>
  <style type="text/css">
   <![CDATA[
    .str0 {stroke:#ED3237;stroke-width:0.9;stroke-miterlimit:22.9256}
    .fil0 {fill:#FEFEFE}
    .fil1 {fill:#3E4095}
   ]]>
  </style>
 </defs>
 <g id="Capa_x0020_1">
  <metadata id="CorelCorpID_0Corel-Layer"/>
  <rect class="fil0 str0" x="0.43" y="1.21" width="887.1" height="597.6"/>
  <path class="fil1" d="M254.8 157.33l0.37 0 0.06 -0.24 0.07 -0.29 0.06 -0.24 0.01 -0.06c0.05,-0.21 -0.06,-0.38 -0.25,-0.38l-0.4 0 -0.37 0 -0.06 0.24 -0.07 0.29 -0.06 0.25 -0.1 0.43 0.37 0 0.23 -0.97 0.28 0c0.05,0 0.08,0.05 0.07,0.11l-0.21 0.86zm-5.17 -1.46l0.39 0 0.43 0c0.25,0 0.41,0.21 0.35,0.47 -0.06,0.25 -0.32,0.46 -0.57,0.46l-0.43 0 -0.13 0.53 -0.39 0 0.13 -0.53 0.07 -0.3 0.08 -0.36 0.07 -0.27zm0.33 0.26l-0.11 0.43 0.28 0c0.12,0 0.24,-0.1 0.27,-0.22 0.03,-0.12 -0.05,-0.21 -0.17,-0.21l-0.27 0zm3.97 0.96l0.07 -0.29 0.06 -0.24 0.01 -0.06c0.05,-0.21 -0.06,-0.38 -0.25,-0.38l-0.59 0 -0.06 0.24 0.48 0c0.05,0 0.08,0.05 0.06,0.11l-0.02 0.09 -0.32 0c-0.21,0 -0.43,0.17 -0.48,0.38 -0.05,0.22 0.08,0.39 0.3,0.39l0.32 0 0.36 0 0.06 -0.24zm-0.29 -0.29l-0.07 0.29 -0.23 0c-0.08,0 -0.13,-0.07 -0.11,-0.15 0.02,-0.08 0.1,-0.14 0.18,-0.14l0.23 0zm-1.89 0.29l0.07 -0.29 0.05 -0.24 0.02 -0.06c0.05,-0.21 -0.07,-0.38 -0.25,-0.38l-0.59 0 -0.06 0.24 0.47 0c0.05,0 0.08,0.05 0.07,0.11l-0.02 0.09 -0.32 0c-0.22,0 -0.44,0.17 -0.49,0.38 -0.05,0.22 0.09,0.39 0.3,0.39l0.32 0 0.37 0 0.06 -0.24zm-0.3 -0.29l-0.07 0.29 -0.23 0c-0.08,0 -0.13,-0.07 -0.11,-0.15 0.02,-0.08 0.1,-0.14 0.18,-0.14l0.23 0zm4.73 -0.44l-0.23 0.97 -0.37 0 0.1 -0.43 0.06 -0.25 0.07 -0.29 0 0 -0.3 0 0.05 -0.24 0.31 0 0.18 0 0.19 0 0.3 0 -0.05 0.24 -0.31 0zm-3.67 -0.24l-0.36 0 -0.06 0.24 -0.07 0.29 -0.06 0.25 -0.01 0.05c-0.05,0.21 0.06,0.38 0.25,0.38l0.54 0 0.06 -0.24 -0.43 0c-0.05,0 -0.08,-0.05 -0.06,-0.11l0.2 -0.86z"/>
 </g>
</svg>
