<?xml version="1.0" encoding="UTF-8"?>
<!DOCTYPE svg PUBLIC "-//W3C//DTD SVG 1.1//EN" "http://www.w3.org/Graphics/SVG/1.1/DTD/svg11.dtd">
<!-- Creator: CorelDRAW -->
<svg xmlns="http://www.w3.org/2000/svg" xml:space="preserve" width="888px" height="598px" version="1.1" style="shape-rendering:geometricPrecision; text-rendering:geometricPrecision; image-rendering:optimizeQuality; fill-rule:evenodd; clip-rule:evenodd"
viewBox="0 0 888 598.5"
 xmlns:xlink="http://www.w3.org/1999/xlink"
 xmlns:xodm="http://www.corel.com/coreldraw/odm/2003">
 <defs>
  <style type="text/css">
   <![CDATA[
    .str0 {stroke:#ED3237;stroke-width:0.9;stroke-miterlimit:22.9256}
    .fil0 {fill:#FEFEFE}
    .fil1 {fill:#373435}
   ]]>
  </style>
 </defs>
 <g id="Capa_x0020_1">
  <metadata id="CorelCorpID_0Corel-Layer"/>
  <rect class="fil0 str0" x="0.43" y="1.21" width="887.1" height="597.6"/>
  <path class="fil1" d="M161.57 412.06c10.58,8.16 42.49,12.1 74.75,12.02l-0.21 81.58 0.89 0 0.22 -81.58c0.18,0 0.36,0 0.54,0 31.07,-0.2 62.25,-4.12 74.77,-11.58 -0.04,-0.3 -0.07,-0.59 -0.09,-0.88 -0.01,-0.03 -0.01,-0.07 -0.01,-0.1 -12.03,7.52 -43.37,11.46 -74.68,11.66 -0.17,0 -0.35,0 -0.53,0.01l-0.9 0 0 -0.01c-32.58,0.09 -64.73,-3.9 -74.63,-12.16 -0.03,0.2 -0.06,0.41 -0.08,0.6 -0.01,0.15 -0.03,0.29 -0.04,0.44zm138.13 -44.41c-0.53,0 -4.16,1.12 -6.13,1.72l-1.83 0.55c-1.21,0.34 -2.4,0.65 -3.58,0.96 -1.21,0.31 -2.41,0.6 -3.59,0.87 -24,5.55 -45.93,7.63 -70.45,4.51 -7.83,-0.99 -15.95,-2.5 -24.64,-4.51 -1.19,-0.27 -2.38,-0.56 -3.59,-0.87 -1.18,-0.31 -2.37,-0.62 -3.58,-0.96l-4.41 -1.27 -3.26 -0.94c0.22,-0.24 0.43,-0.5 0.61,-0.76l2.9 0.84 4.4 1.27c1.19,0.33 2.38,0.64 3.56,0.95 1.16,0.29 2.34,0.58 3.57,0.87 8.67,2 16.76,3.5 24.55,4.49 24.41,3.11 46.25,1.04 70.14,-4.49 1.23,-0.29 2.41,-0.58 3.57,-0.87 1.18,-0.31 2.36,-0.62 3.56,-0.95l1.81 -0.55c2.02,-0.62 5.24,-1.63 5.91,-1.64l0.48 0.78z"/>
  <path class="fil1" d="M560.01 412.06c10.59,8.16 42.49,12.1 74.75,12.02l-0.21 81.58 0.9 0 0.21 -81.58c0.18,0 0.36,0 0.54,0 31.08,-0.2 62.25,-4.12 74.77,-11.58 -0.03,-0.3 -0.06,-0.59 -0.09,-0.88 0,-0.03 0,-0.07 -0.01,-0.1 -12.02,7.52 -43.37,11.46 -74.67,11.66 -0.18,0 -0.36,0 -0.54,0.01l-0.89 0 0 -0.01c-32.58,0.09 -64.74,-3.9 -74.63,-12.16 -0.03,0.2 -0.06,0.41 -0.09,0.6 -0.01,0.15 -0.02,0.29 -0.04,0.44zm138.14 -44.41c-0.54,0 -4.17,1.12 -6.13,1.72l-1.84 0.55c-1.21,0.34 -2.4,0.65 -3.58,0.96 -1.21,0.31 -2.4,0.6 -3.59,0.87 -23.99,5.55 -45.93,7.63 -70.44,4.51 -7.83,-0.99 -15.96,-2.5 -24.64,-4.51 -1.19,-0.27 -2.39,-0.56 -3.6,-0.87 -1.18,-0.31 -2.37,-0.62 -3.57,-0.96l-4.41 -1.27 -3.26 -0.94c0.21,-0.24 0.43,-0.5 0.6,-0.76l2.91 0.84 4.39 1.27c1.2,0.33 2.38,0.64 3.57,0.95 1.15,0.29 2.33,0.58 3.57,0.87 8.67,2 16.76,3.5 24.55,4.49 24.41,3.11 46.25,1.04 70.13,-4.49 1.23,-0.29 2.42,-0.58 3.57,-0.87 1.19,-0.31 2.37,-0.62 3.56,-0.95l1.82 -0.55c2.02,-0.62 5.24,-1.63 5.9,-1.64l0.49 0.78z"/>
 </g>
</svg>
