<?xml version="1.0" encoding="UTF-8"?>
<!DOCTYPE svg PUBLIC "-//W3C//DTD SVG 1.1//EN" "http://www.w3.org/Graphics/SVG/1.1/DTD/svg11.dtd">
<!-- Creator: CorelDRAW -->
<svg xmlns="http://www.w3.org/2000/svg" xml:space="preserve" width="888px" height="598px" version="1.1" style="shape-rendering:geometricPrecision; text-rendering:geometricPrecision; image-rendering:optimizeQuality; fill-rule:evenodd; clip-rule:evenodd"
viewBox="0 0 888 598.5"
 xmlns:xlink="http://www.w3.org/1999/xlink"
 xmlns:xodm="http://www.corel.com/coreldraw/odm/2003">
 <defs>
  <style type="text/css">
   <![CDATA[
    .str0 {stroke:#ED3237;stroke-width:0.9;stroke-miterlimit:22.9256}
    .fil0 {fill:#FEFEFE}
    .fil1 {fill:#6B809B}
   ]]>
  </style>
 </defs>
 <g id="Capa_x0020_1">
  <metadata id="CorelCorpID_0Corel-Layer"/>
  <rect class="fil0 str0" x="0.43" y="1.21" width="887.1" height="597.6"/>
  <g id="_2263925976720">
   <path class="fil1" d="M303.17 590.99c0.86,-5.56 5.66,-37.67 6.9,-48.26 3.93,-33.54 6.24,-55.87 -0.45,-89.06 -2.01,-9.96 -6.66,-26.08 -8.26,-36.43 4.75,-1.48 8.55,-3.21 11.11,-5.18 1.03,9.97 6.44,28.42 8.65,39.38 6.69,33.2 4.38,55.52 0.45,89.06 -1.36,11.61 -6.99,49.02 -7.04,49.09 -1.3,0.7 -5.58,1.17 -11.36,1.4z"/>
   <g>
    <path class="fil1" d="M171.11 590.99c-0.87,-5.56 -5.66,-37.67 -6.91,-48.26 -3.93,-33.54 -6.23,-55.87 0.46,-89.06 2.01,-9.96 6.65,-26.08 8.26,-36.43 -4.75,-1.48 -8.55,-3.21 -11.11,-5.18 -1.03,9.97 -6.44,28.42 -8.65,39.38 -6.69,33.2 -4.39,55.52 -0.46,89.06 1.37,11.61 6.99,49.02 7.04,49.09 1.3,0.7 5.59,1.17 11.37,1.4z"/>
   </g>
   <g>
    <path class="fil1" d="M569.55 590.99c-0.86,-5.56 -5.66,-37.67 -6.9,-48.26 -3.93,-33.54 -6.24,-55.87 0.45,-89.06 2.01,-9.96 6.66,-26.08 8.27,-36.43 -4.76,-1.48 -8.56,-3.21 -11.12,-5.18 -1.02,9.97 -6.44,28.42 -8.65,39.38 -6.69,33.2 -4.38,55.52 -0.45,89.06 1.36,11.61 6.99,49.02 7.04,49.09 1.3,0.7 5.59,1.17 11.36,1.4z"/>
   </g>
   <path class="fil1" d="M701.61 590.99c0.87,-5.56 5.66,-37.67 6.91,-48.26 3.93,-33.54 6.23,-55.87 -0.46,-89.06 -2.01,-9.96 -6.65,-26.08 -8.26,-36.43 4.75,-1.48 8.55,-3.21 11.11,-5.18 1.03,9.97 6.44,28.42 8.65,39.38 6.69,33.2 4.39,55.52 0.46,89.06 -1.36,11.61 -6.99,49.02 -7.04,49.09 -1.3,0.7 -5.59,1.17 -11.37,1.4z"/>
  </g>
 </g>
</svg>
