<?xml version="1.0" encoding="UTF-8"?>
<!DOCTYPE svg PUBLIC "-//W3C//DTD SVG 1.1//EN" "http://www.w3.org/Graphics/SVG/1.1/DTD/svg11.dtd">
<!-- Creator: CorelDRAW -->
<svg xmlns="http://www.w3.org/2000/svg" xml:space="preserve" width="888px" height="598px" version="1.1" style="shape-rendering:geometricPrecision; text-rendering:geometricPrecision; image-rendering:optimizeQuality; fill-rule:evenodd; clip-rule:evenodd"
viewBox="0 0 888 598.5"
 xmlns:xlink="http://www.w3.org/1999/xlink"
 xmlns:xodm="http://www.corel.com/coreldraw/odm/2003">
 <defs>
  <style type="text/css">
   <![CDATA[
    .str1 {stroke:#373435;stroke-width:0.9;stroke-miterlimit:22.9256}
    .str0 {stroke:#ED3237;stroke-width:0.9;stroke-miterlimit:22.9256}
    .fil1 {fill:none}
    .fil0 {fill:#FEFEFE}
   ]]>
  </style>
 </defs>
 <g id="Capa_x0020_1">
  <metadata id="CorelCorpID_0Corel-Layer"/>
  <rect class="fil0 str0" x="0.43" y="1.21" width="887.1" height="597.6"/>
  <g id="_2263925984352">
   <path class="fil1 str1" d="M233.02 504.69c-2.17,-2.6 -4.34,-5.19 -6.48,-7.8 2.74,5.49 6.04,5.34 5.57,12.04 -0.67,9.58 -1.67,18 -2.89,27.48 -2.38,18.52 -5.23,35.95 -6.92,50.63 -7.7,4.48 -57.75,5.27 -62.8,2.55 -0.05,-0.07 -5.68,-37.48 -7.04,-49.09 -3.93,-33.54 -6.24,-55.86 0.45,-89.06 2.25,-11.13 7.79,-29.96 8.7,-39.82 0.44,-3.43 2.15,-9.33 3.19,-12.58 1.97,-6.15 8.21,-22.34 9.1,-26.44 0.49,-2.31 0.32,-3.83 1.38,-5.68l3.49 -0.5c15.02,-1.79 42.56,-2.14 58.25,-2.13 15.7,-0.01 46.73,0.83 61.75,2.63 1.06,1.85 0.88,3.37 1.38,5.68 0.88,4.1 7.13,20.29 9.1,26.44 1.04,3.25 2.75,9.15 3.19,12.58 0.91,9.86 6.45,28.69 8.69,39.82 6.69,33.2 4.39,55.52 0.46,89.06 -1.37,11.61 -6.99,49.02 -7.04,49.09 -5.05,2.72 -55.11,1.93 -62.81,-2.55 -1.69,-14.68 -4.54,-32.11 -6.92,-50.63 -1.21,-9.48 -2.22,-17.9 -2.88,-27.48 -0.35,-4.9 -0.71,-2.64 3.18,-8.29 0.72,-1.05 1.84,-2.65 2.39,-3.75 -1.02,1.24 -2.06,2.43 -3.15,3.8l-3.33 4 -8.01 0z"/>
  </g>
  <g id="_2263925984256">
   <path class="fil1 str1" d="M631.46 504.69c-2.16,-2.6 -4.33,-5.19 -6.48,-7.8 2.75,5.49 6.04,5.34 5.57,12.04 -0.66,9.58 -1.66,18 -2.88,27.48 -2.38,18.52 -5.23,35.95 -6.92,50.63 -7.7,4.48 -57.75,5.27 -62.81,2.55 -0.05,-0.07 -5.67,-37.48 -7.03,-49.09 -3.94,-33.54 -6.24,-55.86 0.45,-89.06 2.24,-11.13 7.78,-29.96 8.69,-39.82 0.44,-3.43 2.15,-9.33 3.19,-12.58 1.97,-6.15 8.22,-22.34 9.1,-26.44 0.5,-2.31 0.33,-3.83 1.38,-5.68l3.49 -0.5c15.02,-1.79 42.56,-2.14 58.26,-2.13 15.69,-0.01 46.72,0.83 61.74,2.63 1.06,1.85 0.89,3.37 1.38,5.68 0.89,4.1 7.14,20.29 9.1,26.44 1.04,3.25 2.76,9.15 3.19,12.58 0.91,9.86 6.45,28.69 8.7,39.82 6.69,33.2 4.38,55.52 0.45,89.06 -1.36,11.61 -6.99,49.02 -7.04,49.09 -5.05,2.72 -55.1,1.93 -62.8,-2.55 -1.69,-14.68 -4.54,-32.11 -6.92,-50.63 -1.22,-9.48 -2.22,-17.9 -2.89,-27.48 -0.34,-4.9 -0.7,-2.64 3.18,-8.29 0.73,-1.05 1.84,-2.65 2.4,-3.75 -1.03,1.24 -2.07,2.43 -3.16,3.8l-3.33 4 -8.01 0z"/>
  </g>
 </g>
</svg>
