<?xml version="1.0" encoding="UTF-8"?>
<!DOCTYPE svg PUBLIC "-//W3C//DTD SVG 1.1//EN" "http://www.w3.org/Graphics/SVG/1.1/DTD/svg11.dtd">
<!-- Creator: CorelDRAW -->
<svg xmlns="http://www.w3.org/2000/svg" xml:space="preserve" width="888px" height="598px" version="1.1" style="shape-rendering:geometricPrecision; text-rendering:geometricPrecision; image-rendering:optimizeQuality; fill-rule:evenodd; clip-rule:evenodd"
viewBox="0 0 888 598.5"
 xmlns:xlink="http://www.w3.org/1999/xlink"
 xmlns:xodm="http://www.corel.com/coreldraw/odm/2003">
 <defs>
  <style type="text/css">
   <![CDATA[
    .str0 {stroke:#ED3237;stroke-width:0.9;stroke-miterlimit:22.9256}
    .str1 {stroke:#252323;stroke-width:0.9;stroke-miterlimit:22.9256}
    .fil0 {fill:#FEFEFE}
   ]]>
  </style>
 </defs>
 <g id="Capa_x0020_1">
  <metadata id="CorelCorpID_0Corel-Layer"/>
  <rect class="fil0 str0" x="0.2" y="0.79" width="887.1" height="597.6"/>
  <g id="_1987783304720">
   <path class="fil0 str1" d="M147.73 346c1.23,-16.33 4.52,-33.1 9.25,-55.94 7.66,-36.97 7.19,-102.21 -5.01,-144.15 -0.37,-1.17 -0.66,-2.2 -1.4,-4.79 8.69,-41.42 8.42,-73.71 -12.89,-77.62 12.66,-6.47 42.99,-10.98 57.87,-21.36l41.47 0.03 41.48 -0.03c14.88,10.38 45.21,14.89 57.87,21.36 -21.32,3.91 -21.59,36.2 -12.89,77.62 -0.75,2.59 -1.03,3.62 -1.41,4.79 -12.2,41.94 -12.67,107.18 -5.01,144.15 4.73,22.84 8.03,39.61 9.26,55.94 -10.23,7.54 -49.76,11.31 -89.3,11.31 -39.53,0 -79.06,-3.77 -89.29,-11.31z"/>
  </g>
  <path class="fil0 str1" d="M546.17 345.98c1.23,-16.33 4.53,-33.1 9.26,-55.93 7.65,-36.98 7.19,-102.21 -5.01,-144.16 -0.38,-1.17 -0.66,-2.2 -1.41,-4.79 8.7,-41.42 8.42,-73.71 -12.89,-77.62 12.66,-6.47 42.61,-10.95 57.5,-21.33l41.85 0 41.85 0c14.88,10.38 44.83,14.86 57.49,21.33 -21.31,3.91 -21.58,36.2 -12.89,77.62 -0.74,2.59 -1.03,3.62 -1.41,4.79 -12.19,41.95 -12.66,107.18 -5,144.16 4.72,22.83 8.02,39.6 9.25,55.93 -10.23,7.54 -49.76,11.31 -89.29,11.31 -39.54,0 -79.07,-3.77 -89.3,-11.31z"/>
 </g>
</svg>
