<?xml version="1.0" encoding="UTF-8"?>
<!DOCTYPE svg PUBLIC "-//W3C//DTD SVG 1.1//EN" "http://www.w3.org/Graphics/SVG/1.1/DTD/svg11.dtd">
<!-- Creator: CorelDRAW -->
<svg xmlns="http://www.w3.org/2000/svg" xml:space="preserve" width="888px" height="598px" version="1.1" style="shape-rendering:geometricPrecision; text-rendering:geometricPrecision; image-rendering:optimizeQuality; fill-rule:evenodd; clip-rule:evenodd"
viewBox="0 0 888 598.5"
 xmlns:xlink="http://www.w3.org/1999/xlink"
 xmlns:xodm="http://www.corel.com/coreldraw/odm/2003">
 <defs>
  <style type="text/css">
   <![CDATA[
    .str0 {stroke:#ED3237;stroke-width:0.9;stroke-miterlimit:22.9256}
    .str1 {stroke:#252323;stroke-width:0.9;stroke-miterlimit:22.9256}
    .fil0 {fill:#FEFEFE}
    .fil2 {fill:#EC268F}
    .fil1 {fill:#ED3237}
   ]]>
  </style>
 </defs>
 <g id="Capa_x0020_1">
  <metadata id="CorelCorpID_0Corel-Layer"/>
  <rect class="fil0 str0" x="0.2" y="0.79" width="887.1" height="597.6"/>
  <path class="fil1 str1" d="M336.37 63.5c-17.38,3.18 -20.77,25.25 -16.71,55.75 1.33,7.55 2.37,14.95 3.82,21.87 1.01,2.04 3.45,7.91 3.86,8.21 0.05,0.02 0.14,0.03 0.25,0.03 0,-0.02 -0.01,-0.03 -0.01,-0.04 0.29,-0.02 0.63,-0.07 1,-0.13 0.85,-0.15 1.92,-0.4 3.31,-0.79 0.35,-0.08 0.73,-0.19 1.16,-0.31 6.35,-1.85 15.55,-5.34 20.46,-7.42 0.04,-0.02 0.09,-0.04 0.13,-0.06 5.28,-2.26 10.56,-4.82 14.75,-7.43 3.39,-2.11 6.15,-4.3 7.54,-6.42 0.04,-0.07 0.08,-0.13 0.12,-0.19 -11.78,-17.23 -25.31,-54.86 -39.68,-63.07z"/>
  <path class="fil1 str1" d="M496.81 126.76c5.85,8.9 36.14,19.63 44.04,21.64 2.02,0.56 3.35,0.84 4.31,0.92 0.09,0.01 0.17,0.01 0.24,0.01 0.4,-0.28 2.63,-5.63 3.71,-7.9 -0.03,-0.11 -0.06,-0.22 -0.1,-0.33 0.77,-3.67 1.47,-7.26 2.09,-10.77 6.37,-36.01 4.46,-63.09 -14.77,-66.81 -14.35,8.24 -27.87,45.84 -39.64,63.05 0.04,0.06 0.08,0.12 0.12,0.19z"/>
  <path class="fil1 str1" d="M734.74 63.49c-17.89,3.34 -20.9,26.76 -16.21,58.79 0.58,3.45 1.12,6.86 1.68,10.18 0.53,2.83 1.1,5.71 1.71,8.64 -0.01,0.04 -0.02,0.08 -0.03,0.12 1.03,2.14 3.39,7.8 3.79,8.09 0.08,0 0.16,0 0.24,-0.01 0.97,-0.08 2.3,-0.36 4.32,-0.92 7.9,-2.02 38.18,-12.74 44.04,-21.64 0.04,-0.07 0.08,-0.13 0.12,-0.19 -11.78,-17.22 -25.3,-54.83 -39.66,-63.06z"/>
  <path class="fil2 str1" d="M154.39 119.25c4.06,-30.5 0.67,-52.57 -16.72,-55.75 -14.37,8.21 -27.9,45.84 -39.68,63.07 0.04,0.06 0.08,0.12 0.12,0.19 5.86,8.9 36.14,19.63 44.04,21.64 2.02,0.56 3.35,0.84 4.32,0.92 0.08,0.01 0.16,0.01 0.24,0.01 0.41,-0.3 2.85,-6.17 3.85,-8.21 1.45,-6.92 2.49,-14.32 3.83,-21.87z"/>
 </g>
</svg>
