<?xml version="1.0" encoding="UTF-8"?>
<!DOCTYPE svg PUBLIC "-//W3C//DTD SVG 1.1//EN" "http://www.w3.org/Graphics/SVG/1.1/DTD/svg11.dtd">
<!-- Creator: CorelDRAW -->
<svg xmlns="http://www.w3.org/2000/svg" xml:space="preserve" width="888px" height="598px" version="1.1" style="shape-rendering:geometricPrecision; text-rendering:geometricPrecision; image-rendering:optimizeQuality; fill-rule:evenodd; clip-rule:evenodd"
viewBox="0 0 888 598.5"
 xmlns:xlink="http://www.w3.org/1999/xlink"
 xmlns:xodm="http://www.corel.com/coreldraw/odm/2003">
 <defs>
  <style type="text/css">
   <![CDATA[
    .str1 {stroke:#EC268F;stroke-width:0.9;stroke-miterlimit:22.9256}
    .str0 {stroke:#ED3237;stroke-width:0.9;stroke-miterlimit:22.9256}
    .fil1 {fill:none}
    .fil0 {fill:#FEFEFE}
   ]]>
  </style>
 </defs>
 <g id="Capa_x0020_1">
  <metadata id="CorelCorpID_0Corel-Layer"/>
  <rect class="fil0 str0" x="0.2" y="0.79" width="887.1" height="597.6"/>
  <g id="_1987682387664">
   <g>
    <path class="fil1 str1" d="M154.39 119.25c4.06,-30.5 0.67,-52.57 -16.72,-55.75 -21.06,12.03 -70.1,132.76 -77.63,149.75l27.25 15.6c19.4,-24.24 50.77,-62.3 63.27,-87.73 1.45,-6.92 2.49,-14.32 3.83,-21.87z"/>
    <g>
     <path class="fil1 str1" d="M319.65 119.25c-4.06,-30.5 -0.67,-52.57 16.72,-55.75 21.06,12.03 70.1,132.76 77.63,149.75l-27.25 15.6c-19.4,-24.24 -50.77,-62.3 -63.28,-87.73 -1.45,-6.92 -2.49,-14.32 -3.82,-21.87z"/>
    </g>
    <g>
     <path class="fil1 str1" d="M552.84 119.25c4.05,-30.5 0.67,-52.57 -16.72,-55.75 -21.06,12.03 -70.1,132.76 -77.63,149.75l27.24 15.6c19.4,-24.24 50.77,-62.3 63.28,-87.73 1.45,-6.92 2.49,-14.32 3.83,-21.87z"/>
    </g>
    <g>
     <path class="fil1 str1" d="M718.1 119.25c-4.06,-30.5 -0.67,-52.57 16.72,-55.75 21.06,12.03 70.1,132.76 77.63,149.75l-27.25 15.6c-19.4,-24.24 -50.77,-62.3 -63.28,-87.73 -1.45,-6.92 -2.49,-14.32 -3.82,-21.87z"/>
    </g>
   </g>
  </g>
 </g>
</svg>
