<?xml version="1.0" encoding="UTF-8"?>
<!DOCTYPE svg PUBLIC "-//W3C//DTD SVG 1.1//EN" "http://www.w3.org/Graphics/SVG/1.1/DTD/svg11.dtd">
<!-- Creator: CorelDRAW -->
<svg xmlns="http://www.w3.org/2000/svg" xml:space="preserve" width="888px" height="598px" version="1.1" style="shape-rendering:geometricPrecision; text-rendering:geometricPrecision; image-rendering:optimizeQuality; fill-rule:evenodd; clip-rule:evenodd"
viewBox="0 0 888 598.5"
 xmlns:xlink="http://www.w3.org/1999/xlink"
 xmlns:xodm="http://www.corel.com/coreldraw/odm/2003">
 <defs>
  <style type="text/css">
   <![CDATA[
    .str1 {stroke:#373435;stroke-width:0.9;stroke-miterlimit:22.9256}
    .str0 {stroke:#ED3237;stroke-width:0.9;stroke-miterlimit:22.9256}
    .fil0 {fill:#FEFEFE}
    .fil1 {fill:#252323}
   ]]>
  </style>
 </defs>
 <g id="Capa_x0020_1">
  <metadata id="CorelCorpID_0Corel-Layer"/>
  <rect class="fil0 str0" x="0.43" y="1.21" width="887.1" height="597.6"/>
  <path class="fil1 str1" d="M311.63 522.71c1.02,-5.14 6.24,-6.61 11.11,-6.74 3.39,-0.08 4.78,2.05 1.19,3.56 -3.38,1.42 -8.33,2.32 -9.81,-0.18l-1.5 7.59c-0.05,0.24 -0.48,0.46 -1.01,0.5 -0.53,0.03 -0.89,-0.14 -0.84,-0.37l0.86 -4.36zm-8.23 7.62l-0.34 2.01 1.28 -0.09c0.55,-0.03 1.08,-0.52 1.17,-1.07 0.1,-0.55 -0.28,-0.97 -0.83,-0.94l-1.28 0.09zm17.2 1.97l-0.23 1.37 -1.05 0.07c-0.37,0.02 -0.62,-0.27 -0.56,-0.64 0.06,-0.38 0.42,-0.7 0.79,-0.73l1.05 -0.07zm-10.09 0.67l-0.23 1.37 -1.05 0.07c-0.37,0.03 -0.63,-0.26 -0.56,-0.64 0.06,-0.37 0.42,-0.7 0.79,-0.73l1.05 -0.07z"/>
 </g>
</svg>
