<?xml version="1.0" encoding="UTF-8"?>
<!DOCTYPE svg PUBLIC "-//W3C//DTD SVG 1.1//EN" "http://www.w3.org/Graphics/SVG/1.1/DTD/svg11.dtd">
<!-- Creator: CorelDRAW -->
<svg xmlns="http://www.w3.org/2000/svg" xml:space="preserve" width="888px" height="598px" version="1.1" style="shape-rendering:geometricPrecision; text-rendering:geometricPrecision; image-rendering:optimizeQuality; fill-rule:evenodd; clip-rule:evenodd"
viewBox="0 0 888 598.5"
 xmlns:xlink="http://www.w3.org/1999/xlink"
 xmlns:xodm="http://www.corel.com/coreldraw/odm/2003">
 <defs>
  <style type="text/css">
   <![CDATA[
    .str1 {stroke:#373435;stroke-width:0.9;stroke-miterlimit:22.9256}
    .str0 {stroke:#ED3237;stroke-width:0.9;stroke-miterlimit:22.9256}
    .fil1 {fill:none}
    .fil0 {fill:#FEFEFE}
   ]]>
  </style>
 </defs>
 <g id="Capa_x0020_1">
  <metadata id="CorelCorpID_0Corel-Layer"/>
  <rect class="fil0 str0" x="0.43" y="1.21" width="887.1" height="597.6"/>
  <g id="_1950416148816">
   <path class="fil1 str1" d="M309.54 528.53c1.14,-6.03 -1.6,-8.73 -7.05,-8.72 3.85,-1.9 14.19,-4.53 21.13,-4.99 1.3,-0.09 6.36,-0.48 6.5,1.61 0.07,0.99 -1.69,2.74 -6.52,4.29 -4.75,1.53 -9.36,2.81 -10.3,7.56l-0.06 0.37 -3.76 0.25 0.06 -0.37zm16.63 5.88l1.69 -0.11 0.19 -1.14 0.23 -1.37 0.19 -1.14 0.05 -0.27c0.16,-0.99 -0.4,-1.75 -1.26,-1.69l-1.88 0.13 -1.69 0.11 -0.19 1.14 -0.23 1.37 -0.19 1.14 -0.35 2.06 1.69 -0.11 0.77 -4.57 1.32 -0.09c0.24,-0.01 0.39,0.21 0.34,0.48l-0.68 4.06zm-24.35 -5.16l1.78 -0.11 1.99 -0.14c1.19,-0.07 1.99,0.84 1.79,2.03 -0.2,1.2 -1.34,2.24 -2.52,2.32l-1.99 0.13 -0.42 2.51 -1.79 0.12 0.43 -2.51 0.23 -1.4 0.28 -1.67 0.22 -1.28zm20.24 4.31l0.23 -1.37 0.2 -1.14 0.04 -0.28c0.17,-0.98 -0.4,-1.74 -1.26,-1.68l-2.77 0.18 -0.19 1.15 2.22 -0.15c0.23,-0.01 0.38,0.21 0.33,0.48l-0.07 0.41 -1.48 0.1c-0.99,0.06 -1.95,0.94 -2.12,1.94 -0.17,1.01 0.51,1.78 1.51,1.71l1.48 -0.1 1.69 -0.11 0.19 -1.14zm-10.09 0.67l0.23 -1.37 0.19 -1.14 0.05 -0.27c0.16,-0.99 -0.41,-1.75 -1.26,-1.69l-2.73 0.18 -0.19 1.15 2.17 -0.15c0.23,-0.01 0.38,0.22 0.34,0.48l-0.07 0.41 -1.48 0.1c-1,0.06 -1.96,0.94 -2.12,1.95 -0.17,1 0.5,1.77 1.5,1.7l1.48 -0.1 1.69 -0.11 0.2 -1.14zm20.24 -4.74l-0.77 4.57 -1.69 0.11 0.35 -2.05 0.19 -1.15 0.23 -1.36 0 0 -1.42 0.09 0.2 -1.14 1.42 -0.1 0.84 -0.06 0.85 -0.05 1.42 -0.1 -0.2 1.15 -1.42 0.09zm-17 0l-1.68 0.12 -0.19 1.14 -0.23 1.37 -0.19 1.14 -0.05 0.27c-0.16,0.98 0.4,1.74 1.26,1.68l2.52 -0.16 0.2 -1.15 -1.99 0.13c-0.23,0.02 -0.38,-0.21 -0.34,-0.47l0.69 -4.07z"/>
  </g>
 </g>
</svg>
