<?xml version="1.0" encoding="UTF-8"?>
<!DOCTYPE svg PUBLIC "-//W3C//DTD SVG 1.1//EN" "http://www.w3.org/Graphics/SVG/1.1/DTD/svg11.dtd">
<!-- Creator: CorelDRAW -->
<svg xmlns="http://www.w3.org/2000/svg" xml:space="preserve" width="888px" height="598px" version="1.1" style="shape-rendering:geometricPrecision; text-rendering:geometricPrecision; image-rendering:optimizeQuality; fill-rule:evenodd; clip-rule:evenodd"
viewBox="0 0 888 598.5"
 xmlns:xlink="http://www.w3.org/1999/xlink"
 xmlns:xodm="http://www.corel.com/coreldraw/odm/2003">
 <defs>
  <style type="text/css">
   <![CDATA[
    .str1 {stroke:#373435;stroke-width:0.9;stroke-miterlimit:22.9256}
    .str0 {stroke:#ED3237;stroke-width:0.9;stroke-miterlimit:22.9256}
    .fil0 {fill:#FEFEFE}
    .fil1 {fill:#252323}
   ]]>
  </style>
 </defs>
 <g id="Capa_x0020_1">
  <metadata id="CorelCorpID_0Corel-Layer"/>
  <rect class="fil0 str0" x="0.43" y="1.21" width="887.1" height="597.6"/>
  <g id="_1546882539952">
   <path class="fil1 str1" d="M289.75 522.88c0.86,-5.17 6.03,-6.8 10.89,-7.07 3.38,-0.2 4.84,1.89 1.3,3.51 -3.33,1.52 -8.26,2.59 -9.81,0.13l-1.26 7.64c-0.04,0.23 -0.47,0.47 -1,0.52 -0.52,0.05 -0.88,-0.11 -0.85,-0.34l0.73 -4.39zm-7.99 7.88l-0.28 2.02 1.28 -0.13c0.55,-0.05 1.06,-0.55 1.14,-1.1 0.07,-0.56 -0.31,-0.97 -0.86,-0.92l-1.28 0.13zm17.25 1.43l-0.18 1.38 -1.05 0.1c-0.37,0.04 -0.63,-0.24 -0.58,-0.62 0.05,-0.38 0.4,-0.72 0.77,-0.76l1.04 -0.1zm-10.07 0.99l-0.18 1.37 -1.05 0.11c-0.37,0.03 -0.63,-0.25 -0.58,-0.62 0.05,-0.38 0.4,-0.72 0.77,-0.76l1.04 -0.1z"/>
  </g>
 </g>
</svg>
