<?xml version="1.0" encoding="UTF-8"?>
<!DOCTYPE svg PUBLIC "-//W3C//DTD SVG 1.1//EN" "http://www.w3.org/Graphics/SVG/1.1/DTD/svg11.dtd">
<!-- Creator: CorelDRAW -->
<svg xmlns="http://www.w3.org/2000/svg" xml:space="preserve" width="888px" height="598px" version="1.1" style="shape-rendering:geometricPrecision; text-rendering:geometricPrecision; image-rendering:optimizeQuality; fill-rule:evenodd; clip-rule:evenodd"
viewBox="0 0 888 598.5"
 xmlns:xlink="http://www.w3.org/1999/xlink"
 xmlns:xodm="http://www.corel.com/coreldraw/odm/2003">
 <defs>
  <style type="text/css">
   <![CDATA[
    .str1 {stroke:#373435;stroke-width:0.9;stroke-miterlimit:22.9256}
    .str0 {stroke:#ED3237;stroke-width:0.9;stroke-miterlimit:22.9256}
    .fil0 {fill:#FEFEFE}
    .fil1 {fill:#ED3237}
   ]]>
  </style>
 </defs>
 <g id="Capa_x0020_1">
  <metadata id="CorelCorpID_0Corel-Layer"/>
  <rect class="fil0 str0" x="0.43" y="1.21" width="887.1" height="597.6"/>
  <path class="fil1 str1" d="M485.84 141.21c0.39,0.08 3.01,-0.22 6.95,-0.73 -5.63,-8.43 -17.5,-37.83 -20.26,-47.81 -1.97,1.11 -3.91,2.2 -5.81,3.26 0.23,0.86 0.5,1.78 0.8,2.76 0,0.02 0.01,0.03 0.01,0.05 3.02,9.95 9.03,25.23 14.55,35.96 1.43,2.9 2.48,4.78 3.4,6.03 0.03,0.05 0.07,0.09 0.1,0.14 0.09,0.12 0.18,0.23 0.26,0.34z"/>
  <path class="fil1 str1" d="M785.23 141.18c-0.38,0.08 -3,-0.22 -6.95,-0.73 5.63,-8.42 17.51,-37.83 20.26,-47.8 1.98,1.11 3.92,2.19 5.82,3.25 -0.24,0.86 -0.51,1.79 -0.8,2.76 -0.01,0.02 -0.01,0.04 -0.02,0.06 -3.01,9.95 -9.02,25.23 -14.55,35.95 -1.42,2.9 -2.47,4.78 -3.39,6.04 -0.04,0.04 -0.07,0.08 -0.1,0.13 -0.09,0.12 -0.18,0.23 -0.27,0.34z"/>
  <g id="_1987142138320">
   <path class="fil1 str1" d="M403.1 141.18c-0.38,0.08 -3.01,-0.22 -6.95,-0.73 5.63,-8.42 17.51,-37.83 20.26,-47.8 1.97,1.11 3.91,2.19 5.81,3.25 -0.23,0.86 -0.5,1.79 -0.79,2.76 -0.01,0.02 -0.01,0.04 -0.02,0.06 -3.02,9.95 -9.02,25.23 -14.55,35.95 -1.43,2.9 -2.48,4.78 -3.4,6.04 -0.03,0.04 -0.06,0.08 -0.1,0.13 -0.09,0.12 -0.17,0.23 -0.26,0.34z"/>
  </g>
  <path class="fil1 str1" d="M103.71 141.21c0.38,0.08 3.01,-0.22 6.95,-0.73 -5.63,-8.43 -17.51,-37.83 -20.26,-47.81 -1.98,1.11 -3.91,2.2 -5.81,3.26 0.23,0.86 0.5,1.78 0.79,2.76 0.01,0.02 0.01,0.03 0.02,0.05 3.02,9.95 9.02,25.23 14.55,35.96 1.43,2.9 2.48,4.78 3.4,6.03 0.03,0.05 0.06,0.09 0.09,0.14 0.1,0.12 0.18,0.23 0.27,0.34z"/>
 </g>
</svg>
