<?xml version="1.0" encoding="UTF-8"?>
<!DOCTYPE svg PUBLIC "-//W3C//DTD SVG 1.1//EN" "http://www.w3.org/Graphics/SVG/1.1/DTD/svg11.dtd">
<!-- Creator: CorelDRAW -->
<svg xmlns="http://www.w3.org/2000/svg" xml:space="preserve" width="888px" height="598px" version="1.1" style="shape-rendering:geometricPrecision; text-rendering:geometricPrecision; image-rendering:optimizeQuality; fill-rule:evenodd; clip-rule:evenodd"
viewBox="0 0 888 598.5"
 xmlns:xlink="http://www.w3.org/1999/xlink"
 xmlns:xodm="http://www.corel.com/coreldraw/odm/2003">
 <defs>
  <style type="text/css">
   <![CDATA[
    .str0 {stroke:#ED3237;stroke-width:0.9;stroke-miterlimit:22.9256}
    .str1 {stroke:#ED3237;stroke-width:0.9;stroke-miterlimit:22.9256}
    .fil1 {fill:none}
    .fil0 {fill:#FEFEFE}
   ]]>
  </style>
 </defs>
 <g id="Capa_x0020_1">
  <metadata id="CorelCorpID_0Corel-Layer"/>
  <rect class="fil0 str0" x="0.43" y="1.21" width="887.1" height="597.6"/>
  <path class="fil1 str1" d="M23.82 159.93l-10.68 -22.65 -7.78 4.62c-2.41,1.15 -1.13,1.91 0.16,4.61l5.45 11.39c1.8,3.83 1.61,5.73 5.19,4.47l7.66 -2.44z"/>
  <path class="fil1 str1" d="M406.27 159.93l-8.43 -17.88 -0.69 -1.45 -1.56 -3.32 -4.3 2.55 -1.23 0.74 -2.25 1.33c-2.42,1.15 -1.13,1.91 0.15,4.61l5.45 11.39c1.81,3.83 1.62,5.73 5.19,4.47l7.67 -2.44z"/>
  <path class="fil1 str1" d="M876.14 137.28l-10.68 22.65 7.67 2.44c3.57,1.26 3.38,-0.64 5.18,-4.47l5.46 -11.39c1.28,-2.7 2.57,-3.46 0.15,-4.61l-7.78 -4.62z"/>
  <path class="fil1 str1" d="M491.44 142.05l-8.42 17.88 7.66 2.44c3.57,1.26 3.39,-0.64 5.19,-4.47l5.45 -11.39c1.29,-2.7 2.57,-3.46 0.16,-4.61l-2.25 -1.33c-2.56,0.47 -5.16,0.96 -7.79,1.48z"/>
 </g>
</svg>
