<?xml version="1.0" encoding="UTF-8"?>
<!DOCTYPE svg PUBLIC "-//W3C//DTD SVG 1.1//EN" "http://www.w3.org/Graphics/SVG/1.1/DTD/svg11.dtd">
<!-- Creator: CorelDRAW -->
<svg xmlns="http://www.w3.org/2000/svg" xml:space="preserve" width="888px" height="598px" version="1.1" style="shape-rendering:geometricPrecision; text-rendering:geometricPrecision; image-rendering:optimizeQuality; fill-rule:evenodd; clip-rule:evenodd"
viewBox="0 0 888 598.5"
 xmlns:xlink="http://www.w3.org/1999/xlink"
 xmlns:xodm="http://www.corel.com/coreldraw/odm/2003">
 <defs>
  <style type="text/css">
   <![CDATA[
    .str0 {stroke:#ED3237;stroke-width:0.9;stroke-miterlimit:22.9256}
    .str1 {stroke:#252323;stroke-width:0.9;stroke-miterlimit:22.9256}
    .str2 {stroke:#252323;stroke-width:0.9;stroke-linecap:round;stroke-linejoin:round;stroke-miterlimit:22.9256}
    .fil0 {fill:#FEFEFE}
    .fil2 {fill:#FFF212}
    .fil1 {fill:#FFF212}
   ]]>
  </style>
 </defs>
 <g id="Capa_x0020_1">
  <metadata id="CorelCorpID_0Corel-Layer"/>
  <rect class="fil0 str0" x="-0.48" y="1.29" width="887.1" height="597.6"/>
  <path class="fil1 str1" d="M252.46 75.74c-18.93,-7.49 -33.56,-21.07 -34.91,-41.47 2.36,-1.17 4.64,-2.37 6.81,-3.62 17.01,5.09 39.18,5.09 56.19,0 2.17,1.25 4.45,2.45 6.81,3.62 -1.34,20.4 -15.98,33.98 -34.9,41.47zm0 -8.33c13.93,-6.99 23.47,-14.04 26.99,-29.42 -18.45,4.98 -35.54,4.98 -53.99,0 3.52,15.38 13.06,22.43 27,29.42z"/>
  <path class="fil2 str2" d="M663.74 30.42c-21.41,5.27 -34.65,5.82 -58.36,-0.08 -3.35,3.02 -3.63,2.48 -8.85,5.37 19.27,9.49 57.2,9.91 76.26,0.22 -5.38,-2.93 -8.07,-3.44 -9.05,-5.51z"/>
 </g>
</svg>
