<?xml version="1.0" encoding="UTF-8"?>
<!DOCTYPE svg PUBLIC "-//W3C//DTD SVG 1.1//EN" "http://www.w3.org/Graphics/SVG/1.1/DTD/svg11.dtd">
<!-- Creator: CorelDRAW -->
<svg xmlns="http://www.w3.org/2000/svg" xml:space="preserve" width="888px" height="598px" version="1.1" style="shape-rendering:geometricPrecision; text-rendering:geometricPrecision; image-rendering:optimizeQuality; fill-rule:evenodd; clip-rule:evenodd"
viewBox="0 0 888 598.5"
 xmlns:xlink="http://www.w3.org/1999/xlink"
 xmlns:xodm="http://www.corel.com/coreldraw/odm/2003">
 <defs>
  <style type="text/css">
   <![CDATA[
    .str0 {stroke:#ED3237;stroke-width:0.9;stroke-miterlimit:22.9256}
    .fil0 {fill:#FEFEFE}
    .fil1 {fill:#373435}
   ]]>
  </style>
 </defs>
 <g id="Capa_x0020_1">
  <metadata id="CorelCorpID_0Corel-Layer"/>
  <rect class="fil0 str0" x="0.43" y="1.21" width="887.1" height="597.6"/>
  <g id="_2140008726224">
   <path class="fil1" d="M535.21 66.29c17.21,6.33 17.74,35.04 10.53,71.84 1.13,1.52 2.98,3.05 3.38,3.37 -0.04,-0.13 -0.08,-0.27 -0.12,-0.41 8.68,-41.37 8.42,-73.64 -12.82,-77.61 -0.03,0.01 -0.06,0.02 -0.09,0.03 -0.4,0.86 -0.69,1.79 -0.88,2.78z"/>
   <path class="fil1" d="M735.73 66.29c-17.22,6.33 -17.74,35.04 -10.53,71.84 -1.13,1.52 -2.99,3.05 -3.38,3.37 0.04,-0.13 0.08,-0.27 0.12,-0.41 -8.69,-41.37 -8.42,-73.64 12.82,-77.61 0.03,0.01 0.05,0.02 0.08,0.03 0.41,0.86 0.69,1.79 0.89,2.78z"/>
  </g>
  <g id="_2140008726128">
   <path class="fil1" d="M136.78 66.29c17.21,6.33 17.74,35.04 10.53,71.84 1.13,1.52 2.98,3.05 3.38,3.37 -0.04,-0.13 -0.08,-0.27 -0.12,-0.41 8.68,-41.37 8.42,-73.64 -12.82,-77.61 -0.03,0.01 -0.06,0.02 -0.08,0.03 -0.41,0.86 -0.7,1.79 -0.89,2.78z"/>
   <path class="fil1" d="M337.3 66.29c-17.22,6.33 -17.74,35.04 -10.53,71.84 -1.13,1.52 -2.98,3.05 -3.38,3.37 0.04,-0.13 0.08,-0.27 0.12,-0.41 -8.68,-41.37 -8.42,-73.64 12.82,-77.61 0.03,0.01 0.05,0.02 0.08,0.03 0.41,0.86 0.7,1.79 0.89,2.78z"/>
  </g>
 </g>
</svg>
