<?xml version="1.0" encoding="UTF-8"?>
<!DOCTYPE svg PUBLIC "-//W3C//DTD SVG 1.1//EN" "http://www.w3.org/Graphics/SVG/1.1/DTD/svg11.dtd">
<!-- Creator: CorelDRAW -->
<svg xmlns="http://www.w3.org/2000/svg" xml:space="preserve" width="888px" height="598px" version="1.1" style="shape-rendering:geometricPrecision; text-rendering:geometricPrecision; image-rendering:optimizeQuality; fill-rule:evenodd; clip-rule:evenodd"
viewBox="0 0 888 598.5"
 xmlns:xlink="http://www.w3.org/1999/xlink"
 xmlns:xodm="http://www.corel.com/coreldraw/odm/2003">
 <defs>
  <style type="text/css">
   <![CDATA[
    .str1 {stroke:#373435;stroke-width:0.9;stroke-miterlimit:22.9256}
    .str0 {stroke:#ED3237;stroke-width:0.9;stroke-miterlimit:22.9256}
    .str2 {stroke:#ED3237;stroke-width:0.9;stroke-miterlimit:22.9256}
    .fil0 {fill:#FEFEFE}
    .fil1 {fill:#252323}
   ]]>
  </style>
 </defs>
 <g id="Capa_x0020_1">
  <metadata id="CorelCorpID_0Corel-Layer"/>
  <rect class="fil0 str0" x="0.2" y="0.79" width="887.1" height="597.6"/>
  <g id="_1987189011072">
   <path class="fil1 str1" d="M730.2 148.38c7.9,-2.02 38.18,-12.74 44.04,-21.64 0.65,1.05 1.3,2.06 1.95,3.01 -5.55,8.93 -36.2,19.8 -44.16,21.83 -2.19,0.6 -3.57,0.89 -4.56,0.93 -0.19,-0.14 -0.85,-1.55 -1.59,-3.21 0.97,-0.08 2.3,-0.36 4.32,-0.92z"/>
   <g>
    <path class="fil1 str1" d="M142.15 148.4c-7.9,-2.01 -38.18,-12.74 -44.04,-21.64 -0.65,1.06 -1.3,2.06 -1.95,3.01 5.55,8.93 36.2,19.8 44.16,21.83 2.19,0.6 3.57,0.89 4.55,0.93 0.2,-0.14 0.86,-1.55 1.6,-3.21 -0.97,-0.08 -2.3,-0.36 -4.32,-0.92z"/>
   </g>
   <g>
    <path class="fil1 str2" d="M540.75 148.4c-7.9,-2.01 -38.18,-12.74 -44.04,-21.64 -0.65,1.06 -1.3,2.06 -1.95,3.01 5.55,8.93 36.2,19.8 44.16,21.83 2.19,0.6 3.57,0.89 4.55,0.93 0.2,-0.14 0.86,-1.55 1.6,-3.21 -0.97,-0.08 -2.3,-0.36 -4.32,-0.92z"/>
   </g>
  </g>
  <g id="_1987189011456">
   <g>
    <path class="fil1 str1" d="M331.89 148.4c7.9,-2.01 38.19,-12.74 44.04,-21.64 0.66,1.06 1.31,2.06 1.96,3.01 -5.55,8.93 -36.21,19.8 -44.16,21.83 -2.19,0.6 -3.57,0.89 -4.56,0.93 -0.19,-0.14 -0.85,-1.55 -1.59,-3.21 0.96,-0.08 2.29,-0.36 4.31,-0.92z"/>
   </g>
  </g>
 </g>
</svg>
