<?xml version="1.0" encoding="UTF-8"?>
<!DOCTYPE svg PUBLIC "-//W3C//DTD SVG 1.1//EN" "http://www.w3.org/Graphics/SVG/1.1/DTD/svg11.dtd">
<!-- Creator: CorelDRAW -->
<svg xmlns="http://www.w3.org/2000/svg" xml:space="preserve" width="888px" height="598px" version="1.1" style="shape-rendering:geometricPrecision; text-rendering:geometricPrecision; image-rendering:optimizeQuality; fill-rule:evenodd; clip-rule:evenodd"
viewBox="0 0 888 598.5"
 xmlns:xlink="http://www.w3.org/1999/xlink"
 xmlns:xodm="http://www.corel.com/coreldraw/odm/2003">
 <defs>
  <style type="text/css">
   <![CDATA[
    .str1 {stroke:#373435;stroke-width:0.9;stroke-miterlimit:22.9256}
    .str0 {stroke:#ED3237;stroke-width:0.9;stroke-miterlimit:22.9256}
    .fil1 {fill:#FEFEFE}
    .fil0 {fill:#FEFEFE}
   ]]>
  </style>
 </defs>
 <g id="Capa_x0020_1">
  <metadata id="CorelCorpID_0Corel-Layer"/>
  <rect class="fil0 str0" x="0.43" y="1.21" width="887.1" height="597.6"/>
  <path class="fil1 str1" d="M639.22 211.16l1.06 0 0.17 -0.71 0.21 -0.85 0.17 -0.71 0.04 -0.17c0.14,-0.61 -0.18,-1.12 -0.73,-1.12l-1.18 0 -1.07 0 -0.17 0.72 -0.2 0.85 -0.17 0.71 -0.31 1.28 1.07 0 0.68 -2.84 0.83 0c0.15,0 0.24,0.15 0.2,0.31l-0.6 2.53zm-15.12 -4.27l1.13 0 1.26 0c0.75,0 1.22,0.61 1.04,1.36 -0.18,0.74 -0.94,1.35 -1.69,1.35l-1.26 0 -0.37 1.56 -1.13 0 0.38 -1.56 0.2 -0.87 0.25 -1.04 0.19 -0.8zm0.95 0.75l-0.3 1.25 0.81 0c0.35,0 0.7,-0.28 0.78,-0.63 0.09,-0.34 -0.13,-0.62 -0.48,-0.62l-0.81 0zm11.62 2.81l0.2 -0.85 0.17 -0.71 0.04 -0.17c0.14,-0.61 -0.18,-1.12 -0.73,-1.12l-1.75 0 -0.16 0.72 1.4 0c0.15,0 0.23,0.15 0.19,0.31l-0.06 0.26 -0.94 0c-0.63,0 -1.27,0.51 -1.42,1.13 -0.15,0.63 0.25,1.14 0.88,1.14l0.94 0 1.07 0 0.17 -0.71zm-0.87 -0.85l-0.2 0.85 -0.66 0c-0.24,0 -0.39,-0.19 -0.33,-0.43 0.05,-0.23 0.29,-0.42 0.53,-0.42l0.66 0zm-5.52 0.85l0.2 -0.85 0.17 -0.71 0.04 -0.17c0.15,-0.61 -0.18,-1.12 -0.72,-1.12l-1.72 0 -0.17 0.72 1.37 0c0.15,0 0.23,0.15 0.19,0.31l-0.06 0.26 -0.93 0c-0.63,0 -1.27,0.51 -1.42,1.13 -0.15,0.63 0.24,1.14 0.88,1.14l0.93 0 1.07 0 0.17 -0.71zm-0.86 -0.85l-0.21 0.85 -0.66 0c-0.24,0 -0.38,-0.19 -0.33,-0.43 0.06,-0.23 0.3,-0.42 0.53,-0.42l0.67 0zm13.81 -1.28l-0.68 2.84 -1.07 0 0.31 -1.28 0.17 -0.71 0.2 -0.85 0 0 -0.9 0 0.17 -0.72 0.9 0 0.53 0 0.54 0 0.9 0 -0.17 0.72 -0.9 0zm-10.71 -0.72l-1.06 0 -0.17 0.72 -0.2 0.85 -0.17 0.71 -0.04 0.17c-0.15,0.61 0.18,1.11 0.72,1.11l1.6 0 0.17 -0.71 -1.26 0c-0.15,0 -0.23,-0.15 -0.19,-0.32l0.6 -2.53z"/>
 </g>
</svg>
