<?xml version="1.0" encoding="UTF-8"?>
<!DOCTYPE svg PUBLIC "-//W3C//DTD SVG 1.1//EN" "http://www.w3.org/Graphics/SVG/1.1/DTD/svg11.dtd">
<!-- Creator: CorelDRAW -->
<svg xmlns="http://www.w3.org/2000/svg" xml:space="preserve" width="888px" height="598px" version="1.1" style="shape-rendering:geometricPrecision; text-rendering:geometricPrecision; image-rendering:optimizeQuality; fill-rule:evenodd; clip-rule:evenodd"
viewBox="0 0 888 598.5"
 xmlns:xlink="http://www.w3.org/1999/xlink"
 xmlns:xodm="http://www.corel.com/coreldraw/odm/2003">
 <defs>
  <style type="text/css">
   <![CDATA[
    .str0 {stroke:#ED3237;stroke-width:0.9;stroke-miterlimit:22.9256}
    .str1 {stroke:#3E4095;stroke-width:0.9;stroke-miterlimit:22.9256}
    .fil2 {fill:none}
    .fil0 {fill:#FEFEFE}
    .fil1 {fill:#252323}
   ]]>
  </style>
 </defs>
 <g id="Capa_x0020_1">
  <metadata id="CorelCorpID_0Corel-Layer"/>
  <rect class="fil0 str0" x="0.43" y="1.21" width="887.1" height="597.6"/>
  <path class="fil1 str1" d="M158.28 338.89c1.19,-19.1 2.4,-39.71 4.01,-61.25 3.28,-43.78 4.95,-91.52 1.74,-138.32 -0.07,-0.94 -0.14,-2.86 -0.55,-4.23 4.51,-9.72 -0.62,-35.55 14.11,-57.84 10.08,-15.24 45.21,-17.67 45.5,-31.15l0.29 -13.86 -0.03 0.01 0.02 -0.94 0.92 -0.53c0.24,0.07 0.49,0.14 0.74,0.21l0.05 0.02 0.04 0.01 0.01 0 0.05 0.01 0.05 0.02c0.21,0.06 0.43,0.12 0.65,0.17l0.05 0.02 0.1 0.02 0.05 0.02 0.05 0.01 0.05 0.01 0.4 0.11 0.05 0.01 0.06 0.02 0.05 0.01 0.25 0.06 0.05 0.02 0.05 0.01 0.05 0.01 0.05 0.01 0.05 0.02 0.11 0.02 0.05 0.01 0.05 0.02 0.05 0.01 0 0c7.62,1.87 16.25,2.87 24.93,2.99 8.69,-0.12 17.31,-1.12 24.94,-2.99l0 0 0.05 -0.01 0.05 -0.02 0.05 -0.01 0.1 -0.02 0.05 -0.02 0.05 -0.01 0.05 -0.01 0.06 -0.01 0.05 -0.02 0.25 -0.06 0.05 -0.01 0.05 -0.02 0.05 -0.01 0.41 -0.11 0.05 -0.01 0.05 -0.01 0.05 -0.02 0.1 -0.02 0.05 -0.02c0.22,-0.05 0.43,-0.11 0.65,-0.17l0.05 -0.02 0.05 -0.01 0 0 0.05 -0.01 0.05 -0.02c0.25,-0.07 0.49,-0.14 0.74,-0.21 0.89,0.53 1.81,1.04 2.74,1.55l0.28 13.77c0.29,13.48 35.43,15.91 45.5,31.15 14.02,21.2 10.05,45.61 13.52,56.3 -1.57,0.21 -1.67,4.26 -1.78,5.77 -3.21,46.8 -1.54,94.54 1.74,138.32 1.61,21.54 2.81,42.15 4,61.25 -18.49,-5.3 -56.3,-8.22 -94.15,-8.35 -37.84,0.13 -75.66,3.05 -94.15,8.35z"/>
  <path class="fil2 str1" d="M540.43 339.2c1.19,-19.1 2.4,-39.71 4.01,-61.25 3.27,-43.78 4.95,-91.52 1.73,-138.32 -0.09,-1.26 -0.17,-4.28 -1.11,-5.37 3.9,-10.3 -0.56,-35.34 13.76,-57.01 10.08,-15.24 45.22,-17.67 45.5,-31.15l0.29 -13.86 -0.03 0.01 0.02 -0.65 1.43 -0.84c18.29,4.78 37.89,5.04 57.24,0.03l1.29 0.77 0.02 0.69 -0.03 -0.01 0.29 13.86c0.28,13.48 35.42,15.91 45.5,31.15 14.33,21.67 9.86,46.71 13.76,57 -0.94,1.1 -1.02,4.12 -1.11,5.38 -3.22,46.8 -1.54,94.54 1.74,138.32 1.61,21.54 2.81,42.15 4,61.25 -18.49,-5.3 -56.31,-8.22 -94.15,-8.35 -37.84,0.13 -75.66,3.05 -94.15,8.35z"/>
 </g>
</svg>
