<?xml version="1.0" encoding="UTF-8"?>
<!DOCTYPE svg PUBLIC "-//W3C//DTD SVG 1.1//EN" "http://www.w3.org/Graphics/SVG/1.1/DTD/svg11.dtd">
<!-- Creator: CorelDRAW -->
<svg xmlns="http://www.w3.org/2000/svg" xml:space="preserve" width="888px" height="598px" version="1.1" style="shape-rendering:geometricPrecision; text-rendering:geometricPrecision; image-rendering:optimizeQuality; fill-rule:evenodd; clip-rule:evenodd"
viewBox="0 0 888 598.5"
 xmlns:xlink="http://www.w3.org/1999/xlink"
 xmlns:xodm="http://www.corel.com/coreldraw/odm/2003">
 <defs>
  <style type="text/css">
   <![CDATA[
    .str0 {stroke:#ED3237;stroke-width:0.9;stroke-miterlimit:22.9256}
    .str1 {stroke:#00A859;stroke-width:0.21;stroke-linecap:round;stroke-linejoin:round;stroke-miterlimit:22.9256}
    .str2 {stroke:#00A859;stroke-width:0.21;stroke-linecap:round;stroke-linejoin:round;stroke-miterlimit:22.9256}
    .str3 {stroke:#00A859;stroke-width:0.21;stroke-linecap:round;stroke-linejoin:round;stroke-miterlimit:22.9256}
    .fil1 {fill:none}
    .fil0 {fill:#FEFEFE}
   ]]>
  </style>
 </defs>
 <g id="Capa_x0020_1">
  <metadata id="CorelCorpID_0Corel-Layer"/>
  <rect class="fil0 str0" x="0.43" y="1.21" width="887.1" height="597.6"/>
  <path class="fil1 str1" d="M163.25 135.15c-5.44,-1.64 -50.45,4.8 -82.02,9.39 -4.96,-8.4 -11.74,-23.06 -17.49,-35.73 32.83,-18.58 82.99,-47.08 102.95,-55.69 12.16,-4.8 42.75,-13.16 56.6,-21.12l-0.29 13.87c-0.28,13.48 -35.42,15.91 -45.5,31.15 -14.88,22.5 -9.49,48.64 -14.25,58.13z"/>
  <path class="fil1 str2" d="M343.17 135.15c5.44,-1.64 50.45,4.8 82.02,9.39 4.96,-8.4 11.73,-23.06 17.49,-35.73 -32.84,-18.58 -82.99,-47.08 -102.95,-55.69 -12.16,-4.8 -42.75,-13.16 -56.6,-21.12l0.29 13.87c0.28,13.48 35.42,15.91 45.5,31.15 14.88,22.5 9.49,48.64 14.25,58.13z"/>
  <path class="fil1 str1" d="M544.91 135.35c-5.44,-1.64 -50.45,4.8 -82.02,9.39 -4.96,-8.4 -11.74,-23.06 -17.49,-35.73 32.83,-18.58 82.99,-47.08 102.95,-55.7 12.16,-4.8 42.75,-13.15 56.6,-21.11l-0.29 13.87c-0.28,13.48 -35.42,15.91 -45.5,31.15 -14.88,22.5 -9.49,48.63 -14.25,58.13z"/>
  <path class="fil1 str3" d="M724.83 135.35c5.43,-1.64 50.45,4.8 82.02,9.39 4.96,-8.4 11.73,-23.06 17.49,-35.73 -32.84,-18.58 -82.99,-47.08 -102.95,-55.7 -12.16,-4.8 -42.75,-13.15 -56.6,-21.11l0.29 13.87c0.28,13.48 35.42,15.91 45.5,31.15 14.88,22.5 9.49,48.63 14.25,58.13z"/>
 </g>
</svg>
