<?xml version="1.0" encoding="UTF-8"?>
<!DOCTYPE svg PUBLIC "-//W3C//DTD SVG 1.1//EN" "http://www.w3.org/Graphics/SVG/1.1/DTD/svg11.dtd">
<!-- Creator: CorelDRAW -->
<svg xmlns="http://www.w3.org/2000/svg" xml:space="preserve" width="888px" height="598px" version="1.1" style="shape-rendering:geometricPrecision; text-rendering:geometricPrecision; image-rendering:optimizeQuality; fill-rule:evenodd; clip-rule:evenodd"
viewBox="0 0 888 598.5"
 xmlns:xlink="http://www.w3.org/1999/xlink"
 xmlns:xodm="http://www.corel.com/coreldraw/odm/2003">
 <defs>
  <style type="text/css">
   <![CDATA[
    .str2 {stroke:#373435;stroke-width:0.9;stroke-miterlimit:22.9256}
    .str0 {stroke:#ED3237;stroke-width:0.9;stroke-miterlimit:22.9256}
    .str1 {stroke:#252323;stroke-width:0.9;stroke-miterlimit:22.9256}
    .fil0 {fill:#FEFEFE}
   ]]>
  </style>
 </defs>
 <g id="Capa_x0020_1">
  <metadata id="CorelCorpID_0Corel-Layer"/>
  <rect class="fil0 str0" x="-0.48" y="1.29" width="887.1" height="597.6"/>
  <path class="fil0 str1" d="M468.5 95.13c2.58,9.51 9.13,26.54 15.12,38.14 1.59,3.25 2.71,5.19 3.7,6.41 1.56,0.33 41.05,-5.83 54.06,-5.95 0.02,0 0.04,0 0.05,0 1.16,-0.09 2.09,-0.06 2.74,0.12 0.02,0 0.05,0 0.07,0.01 0.31,-0.01 0.57,0.12 0.79,0.35 0.39,-0.83 0.74,-1.79 1.07,-2.87 0.16,-0.01 0.33,-0.01 0.49,-0.02 19.76,-44.56 -5.86,-51.49 61.12,-85.8 1.92,-0.98 5.23,-2.82 7.85,-4.11 -6.95,-1.18 -13.32,-2.99 -18.45,-5.42 -15.93,7.59 -34.84,13.29 -47.11,17.86 -25.95,11.21 -57.53,27.92 -81.5,41.28z"/>
  <path class="fil0 str1" d="M800.75 95.13c-2.58,9.51 -9.13,26.54 -15.11,38.14 -1.59,3.25 -2.71,5.19 -3.7,6.41 -1.56,0.33 -41.06,-5.83 -54.07,-5.95 -0.01,0 -0.03,0 -0.05,0 -1.16,-0.09 -2.08,-0.06 -2.74,0.12 -0.02,0 -0.04,0 -0.07,0.01 -0.31,-0.01 -0.57,0.12 -0.79,0.35 -0.38,-0.83 -0.73,-1.79 -1.06,-2.87 -0.17,-0.01 -0.33,-0.01 -0.49,-0.02 -19.76,-44.56 5.85,-51.49 -61.13,-85.8 -1.92,-0.98 -5.23,-2.82 -7.84,-4.11 6.95,-1.18 13.32,-2.99 18.44,-5.42 15.94,7.59 34.84,13.29 47.11,17.86 25.96,11.21 57.53,27.92 81.5,41.28z"/>
  <path class="fil0 str2" d="M86.35 94.82c2.58,9.51 9.14,26.54 15.12,38.15 1.59,3.24 2.71,5.18 3.7,6.4 0.03,0.01 0.09,0.01 0.18,0.01 0.67,0 2.67,-0.22 5.55,-0.59 11.75,-1.48 38.15,-5.27 48.33,-5.37 0.02,0 0.04,0 0.06,0 1.15,-0.09 2.08,-0.06 2.73,0.12 0.03,0 0.05,0 0.07,0.01 0.37,-0.01 0.66,0.17 0.9,0.48 0.01,0.02 0.03,0.04 0.04,0.06 0.02,-0.04 0.04,-0.08 0.05,-0.12 4.7,-10.18 3.76,-39.1 23.12,-62.25 10.08,-12.05 26.21,-20.15 40.13,-27.96 -1.6,-4.08 -1.7,-8.42 -1.12,-12.72 -0.3,-0.09 -0.62,-0.17 -0.92,-0.26 -3.97,2.33 -8.11,4.39 -12.31,6.29 -15.26,6.9 -32.61,12.19 -44.13,16.47 -24.24,10.47 -53.38,25.74 -76.65,38.6 -1.65,0.9 -3.26,1.8 -4.85,2.68z"/>
  <path class="fil0 str2" d="M418.56 94.82c-2.58,9.51 -9.13,26.54 -15.12,38.14 -1.59,3.25 -2.71,5.19 -3.7,6.41 -0.03,0.01 -0.09,0.01 -0.18,0.01 -0.67,0 -2.67,-0.22 -5.55,-0.59 -11.75,-1.48 -38.15,-5.27 -48.33,-5.37 -0.02,0 -0.04,0 -0.06,0 -1.15,-0.09 -2.08,-0.06 -2.73,0.11 -0.02,0.01 -0.05,0.01 -0.07,0.02 -0.37,-0.02 -0.66,0.17 -0.9,0.48 -0.01,0.02 -0.03,0.04 -0.04,0.06 -0.02,-0.04 -0.04,-0.08 -0.05,-0.12 -4.7,-10.18 -3.76,-39.1 -23.12,-62.25 -10.12,-12.1 -26.22,-20.13 -40.17,-27.98 1.6,-4.09 1.69,-8.4 1.12,-12.7 0.3,-0.08 0.61,-0.17 0.92,-0.26 4,2.35 8.13,4.38 12.35,6.28 15.26,6.91 32.61,12.2 44.13,16.48 24.24,10.47 53.38,25.74 76.66,38.59 1.64,0.91 3.26,1.81 4.84,2.69z"/>
 </g>
</svg>
