<?xml version="1.0" encoding="UTF-8"?>
<!DOCTYPE svg PUBLIC "-//W3C//DTD SVG 1.1//EN" "http://www.w3.org/Graphics/SVG/1.1/DTD/svg11.dtd">
<!-- Creator: CorelDRAW -->
<svg xmlns="http://www.w3.org/2000/svg" xml:space="preserve" width="888px" height="598px" version="1.1" style="shape-rendering:geometricPrecision; text-rendering:geometricPrecision; image-rendering:optimizeQuality; fill-rule:evenodd; clip-rule:evenodd"
viewBox="0 0 888 598.5"
 xmlns:xlink="http://www.w3.org/1999/xlink"
 xmlns:xodm="http://www.corel.com/coreldraw/odm/2003">
 <defs>
  <style type="text/css">
   <![CDATA[
    .str0 {stroke:#ED3237;stroke-width:0.9;stroke-miterlimit:22.9256}
    .str1 {stroke:#252323;stroke-width:0.9;stroke-miterlimit:22.9256}
    .fil0 {fill:#FEFEFE}
   ]]>
  </style>
 </defs>
 <g id="Capa_x0020_1">
  <metadata id="CorelCorpID_0Corel-Layer"/>
  <rect class="fil0 str0" x="-0.48" y="1.29" width="887.1" height="597.6"/>
  <path class="fil0 str1" d="M158.28 338.89c1.19,-19.1 2.4,-39.71 4.01,-61.25 3.28,-43.78 4.95,-91.52 1.74,-138.32 -0.12,-1.25 -0.18,-4.23 -1.09,-5.34l0.05 0.05c0.01,0.02 0.03,0.04 0.04,0.06 0.02,-0.04 0.04,-0.08 0.05,-0.12 4.7,-10.18 3.76,-39.1 23.12,-62.25 10.08,-12.05 26.21,-20.15 40.13,-27.96 -1.6,-4.08 -1.7,-8.42 -1.12,-12.72l0.02 0.01c0.21,0.06 0.43,0.12 0.65,0.17l0.05 0.02 0.1 0.02 0.05 0.02 0.05 0.01 0.05 0.01 0.4 0.11 0.05 0.01 0.06 0.02 0.05 0.01 0.25 0.06 0.05 0.02 0.05 0.01 0.05 0.01 0.05 0.01 0.05 0.02 0.11 0.02 0.05 0.01 0.05 0.02 0.05 0.01 0 0c7.62,1.87 16.25,2.87 24.93,2.99 8.69,-0.12 17.31,-1.12 24.94,-2.99l0 0 0.05 -0.01 0.05 -0.02 0.05 -0.01 0.1 -0.02 0.05 -0.02 0.05 -0.01 0.05 -0.01 0.06 -0.01 0.05 -0.02 0.25 -0.06 0.05 -0.01 0.05 -0.02 0.05 -0.01 0.41 -0.11 0.05 -0.01 0.05 -0.01 0.05 -0.02 0.1 -0.02 0.05 -0.02c0.22,-0.05 0.43,-0.11 0.65,-0.17l0.02 -0.01c0.57,4.3 0.48,8.61 -1.12,12.7 13.95,7.85 30.05,15.88 40.17,27.98 19.36,23.15 18.42,52.07 23.12,62.25l0.04 0.08c-0.86,1.17 -0.94,4.05 -1.03,5.27 -3.21,46.8 -1.54,94.54 1.74,138.32 1.61,21.54 2.81,42.15 4,61.25 -18.49,-5.3 -56.3,-8.22 -94.15,-8.35 -37.84,0.13 -75.66,3.05 -94.15,8.35z"/>
  <path class="fil0 str1" d="M540.43 339.2c1.19,-19.1 2.4,-39.71 4.01,-61.25 3.27,-43.78 4.95,-91.52 1.73,-138.32 -0.1,-1.28 -0.18,-4.44 -1.18,-5.45l0.04 0.03c0.39,-0.83 0.74,-1.79 1.07,-2.87 0.16,-0.01 0.33,-0.01 0.49,-0.02 19.76,-44.56 -5.86,-51.49 61.12,-85.8 1.92,-0.98 5.23,-2.82 7.85,-4.11 -6.95,-1.18 -13.32,-2.99 -18.45,-5.42l0.13 -0.06 -0.03 -0.01c2.85,-1.73 5.96,-3.48 8.82,-5.16 18.29,4.78 37.89,5.04 57.24,0.03l8.68 5.13 -0.02 0.01 0.17 0.08c-5.12,2.42 -11.47,4.22 -18.4,5.4 2.61,1.29 5.92,3.13 7.84,4.11 66.98,34.31 41.37,41.24 61.13,85.8 0.16,0.01 0.32,0.01 0.49,0.02 0.32,1.05 0.66,1.99 1.04,2.81 -1.03,0.99 -1.11,4.18 -1.21,5.48 -3.22,46.8 -1.54,94.54 1.74,138.32 1.61,21.54 2.81,42.15 4,61.25 -18.49,-5.3 -56.31,-8.22 -94.15,-8.35 -37.84,0.13 -75.66,3.05 -94.15,8.35z"/>
 </g>
</svg>
