<?xml version="1.0" encoding="UTF-8"?>
<!DOCTYPE svg PUBLIC "-//W3C//DTD SVG 1.1//EN" "http://www.w3.org/Graphics/SVG/1.1/DTD/svg11.dtd">
<!-- Creator: CorelDRAW -->
<svg xmlns="http://www.w3.org/2000/svg" xml:space="preserve" width="888px" height="598px" version="1.1" style="shape-rendering:geometricPrecision; text-rendering:geometricPrecision; image-rendering:optimizeQuality; fill-rule:evenodd; clip-rule:evenodd"
viewBox="0 0 888 598.5"
 xmlns:xlink="http://www.w3.org/1999/xlink"
 xmlns:xodm="http://www.corel.com/coreldraw/odm/2003">
 <defs>
  <style type="text/css">
   <![CDATA[
    .str1 {stroke:#373435;stroke-width:0.9;stroke-miterlimit:22.9256}
    .str0 {stroke:#ED3237;stroke-width:0.9;stroke-miterlimit:22.9256}
    .fil0 {fill:#FEFEFE}
    .fil1 {fill:#252323}
   ]]>
  </style>
 </defs>
 <g id="Capa_x0020_1">
  <metadata id="CorelCorpID_0Corel-Layer"/>
  <rect class="fil0 str0" x="0.43" y="1.21" width="887.1" height="597.6"/>
  <path class="fil1 str1" d="M206.74 107.15c1.36,-5.07 6.67,-6.18 11.53,-5.98 3.39,0.14 4.63,2.35 0.95,3.62 -3.46,1.19 -8.47,1.77 -9.77,-0.83l-2.01 7.48c-0.06,0.23 -0.51,0.42 -1.04,0.42 -0.53,0 -0.87,-0.19 -0.81,-0.42l1.15 -4.29zm-8.72 7.05l-0.47 1.99 1.28 0c0.55,0 1.11,-0.45 1.24,-0.99 0.13,-0.55 -0.21,-1 -0.76,-1l-1.29 0zm17.03 3.11l-0.32 1.35 -1.05 0c-0.37,0 -0.61,-0.3 -0.52,-0.67 0.09,-0.37 0.47,-0.68 0.84,-0.68l1.05 0zm-10.11 0l-0.32 1.35 -1.06 0c-0.37,0 -0.6,-0.3 -0.52,-0.67 0.09,-0.37 0.47,-0.68 0.85,-0.68l1.05 0z"/>
 </g>
</svg>
