<?xml version="1.0" encoding="UTF-8"?>
<!DOCTYPE svg PUBLIC "-//W3C//DTD SVG 1.1//EN" "http://www.w3.org/Graphics/SVG/1.1/DTD/svg11.dtd">
<!-- Creator: CorelDRAW -->
<svg xmlns="http://www.w3.org/2000/svg" xml:space="preserve" width="888px" height="598px" version="1.1" style="shape-rendering:geometricPrecision; text-rendering:geometricPrecision; image-rendering:optimizeQuality; fill-rule:evenodd; clip-rule:evenodd"
viewBox="0 0 888 598.5"
 xmlns:xlink="http://www.w3.org/1999/xlink"
 xmlns:xodm="http://www.corel.com/coreldraw/odm/2003">
 <defs>
  <style type="text/css">
   <![CDATA[
    .str1 {stroke:#373435;stroke-width:0.9;stroke-miterlimit:22.9256}
    .str0 {stroke:#ED3237;stroke-width:0.9;stroke-miterlimit:22.9256}
    .fil0 {fill:#FEFEFE}
    .fil1 {fill:#6B809B}
   ]]>
  </style>
 </defs>
 <g id="Capa_x0020_1">
  <metadata id="CorelCorpID_0Corel-Layer"/>
  <rect class="fil0 str0" x="0.43" y="1.21" width="887.1" height="597.6"/>
  <g id="_2279233083072">
   <path class="fil1 str1" d="M173.94 387.41l-0.05 0.07 0.05 -0.07zm-1.35 -0.76l-0.02 0.03 0.02 -0.03zm-31.62 134.05c2.35,-10.82 6.97,-36.64 9.42,-50.42 2.45,-13.78 8.8,-31.69 10.27,-39.97 2.09,-11.74 7.97,-31.45 13.41,-42.82 -0.04,-0.03 -0.09,-0.05 -0.13,-0.08 -0.46,-0.24 -0.91,-0.5 -1.35,-0.76 -2.46,-1.46 -4.51,-3.12 -6.02,-5l-0.31 -0.19c-0.07,0.09 -0.13,0.19 -0.2,0.28 -6.11,8.82 -14.1,34.46 -16.62,48.57 -1.47,8.28 -7.82,26.19 -10.27,39.97 -2.45,13.78 -7.07,39.6 -9.42,50.42 -2.35,10.82 -5.18,32.06 -5.18,32.06 0.47,0.59 4.02,2.04 9.94,3.35 1.46,-8.57 4.68,-27.21 6.46,-35.41z"/>
   <path class="fil1 str1" d="M300.14 387.49c5.43,11.38 11.31,31.09 13.4,42.82 1.48,8.28 7.83,26.19 10.28,39.97 2.45,13.78 7.07,39.6 9.42,50.42 1.78,8.2 5,26.84 6.46,35.4 5.89,-1.3 9.42,-2.75 9.89,-3.34 0,0 -2.83,-21.24 -5.18,-32.06 -2.34,-10.82 -6.97,-36.64 -9.42,-50.42 -2.45,-13.78 -8.79,-31.69 -10.27,-39.97 -2.56,-14.31 -10.74,-40.49 -16.88,-48.93 -0.02,-0.02 -0.03,-0.05 -0.05,-0.07l-0.61 0.61c-1.73,2.14 -4.14,3.98 -7.04,5.57z"/>
   <path class="fil1 str1" d="M572.35 387.41l-0.05 0.07 0.05 -0.07zm-1.35 -0.76l-0.02 0.03 0.02 -0.03zm-31.62 134.05c2.35,-10.82 6.97,-36.64 9.42,-50.42 2.45,-13.78 8.8,-31.69 10.27,-39.97 2.09,-11.74 7.97,-31.45 13.41,-42.82 -0.04,-0.03 -0.09,-0.05 -0.13,-0.08 -0.46,-0.24 -0.91,-0.5 -1.35,-0.76 -2.46,-1.46 -4.51,-3.12 -6.02,-5l-0.31 -0.19c-0.07,0.09 -0.13,0.19 -0.2,0.28 -6.11,8.82 -14.1,34.46 -16.62,48.57 -1.47,8.28 -7.82,26.19 -10.27,39.97 -2.45,13.78 -7.07,39.6 -9.42,50.42 -2.35,10.82 -5.18,32.06 -5.18,32.06 0.47,0.59 4.02,2.04 9.94,3.35 1.46,-8.57 4.68,-27.21 6.46,-35.41z"/>
   <path class="fil1 str1" d="M698.55 387.49c5.43,11.38 11.31,31.09 13.4,42.82 1.48,8.28 7.83,26.19 10.28,39.97 2.45,13.78 7.07,39.6 9.42,50.42 1.78,8.2 5,26.84 6.46,35.4 5.89,-1.3 9.42,-2.75 9.89,-3.34 0,0 -2.83,-21.24 -5.18,-32.06 -2.35,-10.82 -6.97,-36.64 -9.42,-50.42 -2.45,-13.78 -8.8,-31.69 -10.27,-39.97 -2.56,-14.31 -10.74,-40.49 -16.88,-48.93 -0.02,-0.02 -0.03,-0.05 -0.05,-0.07l-0.61 0.61c-1.73,2.14 -4.14,3.98 -7.04,5.57z"/>
  </g>
 </g>
</svg>
