<?xml version="1.0" encoding="UTF-8"?>
<!DOCTYPE svg PUBLIC "-//W3C//DTD SVG 1.1//EN" "http://www.w3.org/Graphics/SVG/1.1/DTD/svg11.dtd">
<!-- Creator: CorelDRAW -->
<svg xmlns="http://www.w3.org/2000/svg" xml:space="preserve" width="888px" height="598px" version="1.1" style="shape-rendering:geometricPrecision; text-rendering:geometricPrecision; image-rendering:optimizeQuality; fill-rule:evenodd; clip-rule:evenodd"
viewBox="0 0 888 598.5"
 xmlns:xlink="http://www.w3.org/1999/xlink"
 xmlns:xodm="http://www.corel.com/coreldraw/odm/2003">
 <defs>
  <style type="text/css">
   <![CDATA[
    .str1 {stroke:#373435;stroke-width:0.9;stroke-miterlimit:22.9256}
    .str0 {stroke:#ED3237;stroke-width:0.9;stroke-miterlimit:22.9256}
    .fil0 {fill:#FEFEFE}
    .fil1 {fill:#6B809B}
   ]]>
  </style>
 </defs>
 <g id="Capa_x0020_1">
  <metadata id="CorelCorpID_0Corel-Layer"/>
  <rect class="fil0 str0" x="0.43" y="1.21" width="887.1" height="597.6"/>
  <g id="_2261123539920">
   <path class="fil1 str1" d="M219.68 567.76c-25.57,-1.6 -57.99,-6.49 -82.4,-11.07 -0.97,-0.19 -1.9,-0.38 -2.77,-0.57 -4.09,-0.9 -7.06,-1.87 -8.66,-2.58 -0.48,3.49 -0.78,5.81 -0.78,5.81 0.52,0.68 5,2.47 12.37,3.86 23.66,4.45 55.09,9.16 79.88,10.62 1.58,0.1 1.99,-0.1 2.2,-1.46 0.23,-1.49 0.47,-3.02 0.73,-4.59 -0.17,0 -0.36,-0.01 -0.57,-0.02z"/>
   <path class="fil1 str1" d="M254.88 567.76c25.58,-1.6 58,-6.49 82.4,-11.07 0.98,-0.19 1.91,-0.38 2.78,-0.57 4.09,-0.9 7.05,-1.87 8.66,-2.58 0.48,3.49 0.78,5.81 0.78,5.81 -0.52,0.68 -5,2.47 -12.37,3.86 -23.66,4.45 -55.09,9.16 -79.89,10.62 -1.57,0.1 -1.99,-0.1 -2.2,-1.46 -0.22,-1.49 -0.47,-3.02 -0.72,-4.59 0.17,0 0.35,-0.01 0.56,-0.02z"/>
  </g>
  <g id="_2261123540352">
   <path class="fil1 str1" d="M618.09 567.76c-25.57,-1.6 -57.99,-6.49 -82.4,-11.07 -0.97,-0.19 -1.9,-0.38 -2.77,-0.57 -4.09,-0.9 -7.06,-1.87 -8.66,-2.58 -0.48,3.49 -0.78,5.81 -0.78,5.81 0.52,0.68 5,2.47 12.37,3.86 23.66,4.45 55.09,9.16 79.88,10.62 1.58,0.1 1.99,-0.1 2.2,-1.46 0.23,-1.49 0.47,-3.02 0.73,-4.59 -0.17,0 -0.36,-0.01 -0.57,-0.02z"/>
   <path class="fil1 str1" d="M653.29 567.76c25.58,-1.6 58,-6.49 82.4,-11.07 0.98,-0.19 1.91,-0.38 2.78,-0.57 4.09,-0.9 7.05,-1.87 8.66,-2.58 0.48,3.49 0.78,5.81 0.78,5.81 -0.52,0.68 -5,2.47 -12.37,3.86 -23.66,4.45 -55.09,9.16 -79.89,10.62 -1.57,0.1 -1.99,-0.1 -2.2,-1.46 -0.22,-1.49 -0.47,-3.02 -0.72,-4.59 0.17,0 0.35,-0.01 0.56,-0.02z"/>
  </g>
 </g>
</svg>
