<?xml version="1.0" encoding="UTF-8"?>
<!DOCTYPE svg PUBLIC "-//W3C//DTD SVG 1.1//EN" "http://www.w3.org/Graphics/SVG/1.1/DTD/svg11.dtd">
<!-- Creator: CorelDRAW -->
<svg xmlns="http://www.w3.org/2000/svg" xml:space="preserve" width="888px" height="598px" version="1.1" style="shape-rendering:geometricPrecision; text-rendering:geometricPrecision; image-rendering:optimizeQuality; fill-rule:evenodd; clip-rule:evenodd"
viewBox="0 0 888 598.5"
 xmlns:xlink="http://www.w3.org/1999/xlink"
 xmlns:xodm="http://www.corel.com/coreldraw/odm/2003">
 <defs>
  <style type="text/css">
   <![CDATA[
    .str0 {stroke:#ED3237;stroke-width:0.9;stroke-miterlimit:22.9256}
    .fil0 {fill:#FEFEFE}
    .fil1 {fill:#373435;fill-rule:nonzero}
   ]]>
  </style>
 </defs>
 <g id="Capa_x0020_1">
  <metadata id="CorelCorpID_0Corel-Layer"/>
  <rect class="fil0 str0" x="0.43" y="1.21" width="887.1" height="597.6"/>
  <path class="fil1" d="M174.55 363.98c-0.58,1.45 -1.16,3.17 -1.71,4.67l-0.18 0.48c6.18,5.25 15.65,7.42 26.56,9.48 11.42,2.16 24.58,2.9 37.76,2.92l0.02 0c13.18,-0.02 26.35,-0.76 37.76,-2.92 10.92,-2.06 20.68,-4.68 26.86,-9.93l-0.18 -0.47c-0.55,-1.51 -1.23,-2.94 -1.8,-4.38 -3.43,5.65 -14.08,8.67 -26.07,10.47 -11.59,1.74 -24.21,2.4 -36.57,2.46l-0.02 0c-12.36,-0.06 -24.98,-0.72 -36.57,-2.46 -11.98,-1.8 -22.43,-4.66 -25.86,-10.32zm62.45 18.07l-0.02 0c-13.21,-0.02 -26.41,-0.76 -37.85,-2.93 -10.92,-2.06 -20.41,-4.23 -26.66,-9.47 -0.97,2.6 -1.97,5.18 -3.14,7.63 4.99,4.85 13.81,7.25 24.44,9.68 12.56,2.86 27.87,4.16 43.21,4.19l0.02 0c15.35,-0.03 30.66,-1.33 43.21,-4.19 10.63,-2.43 19.93,-4.97 24.92,-9.83 -1.17,-2.44 -2.35,-5.33 -3.32,-7.93 -6.25,5.24 -16.04,7.86 -26.95,9.92 -11.45,2.17 -24.65,2.91 -37.86,2.93zm0 9.62l-0.02 0c-15.38,-0.03 -30.73,-1.33 -43.32,-4.2 -10.63,-2.43 -19.48,-4.85 -24.57,-9.72 -0.58,1.19 -1.17,1.98 -1.85,3.07 11.25,14.13 52.55,15.58 69.74,15.66l0.02 0c17.19,-0.08 58.99,-1.85 70.25,-15.98 -0.69,-1.08 -1.3,-1.68 -1.88,-2.87 -5.09,4.86 -14.41,7.41 -25.05,9.84 -12.59,2.87 -27.94,4.17 -43.32,4.2zm0 107.41l-0.02 0.01 -0.41 0.06 -0.06 -101.72c-17.22,-0.15 -58.58,-1.68 -69.94,-15.78l-0.5 -0.31 0.07 -0.1c2.57,-3.7 4.33,-8.46 6.05,-13.12 0.82,-2.22 1.68,-3.92 2.56,-5.97l0.01 0c0.01,-0.03 0.03,-0.07 0.05,-0.1 0.25,-0.42 0.79,-0.57 1.22,-0.32 8.69,5.13 34.33,7.19 60.95,7.2l0.02 0c26.62,-0.01 53.18,-2.57 61.87,-7.7 0.43,-0.25 0.44,0.05 0.69,0.48 0.02,0.03 0.04,0.06 0.05,0.1l0 -0.01c0.89,2.06 1.88,4.5 2.7,6.72 1.65,4.45 3.41,8.87 5.79,12.49l-0.92 0.91c-11.36,14.1 -52.49,15.36 -69.71,15.51l-0.06 101.6 -0.41 0.05zm0 -128.36l-0.02 0c-24.81,0 -49.66,-2.26 -60.39,-6.77 3.41,4.75 12.97,6.92 24.08,8.58 11.52,1.73 24.04,2.38 36.31,2.44l0.02 0c12.27,-0.06 24.8,-0.71 36.31,-2.44 11.11,-1.66 20.67,-3.83 24.09,-8.58 -10.74,4.51 -35.58,6.77 -60.4,6.77z"/>
  <path class="fil1" d="M572.96 363.98c-0.58,1.45 -1.16,3.17 -1.71,4.67l-0.18 0.48c6.18,5.25 15.65,7.42 26.56,9.48 11.42,2.16 24.58,2.9 37.76,2.92l0.02 0c13.18,-0.02 26.35,-0.76 37.76,-2.92 10.92,-2.06 20.68,-4.68 26.86,-9.93l-0.18 -0.47c-0.55,-1.51 -1.23,-2.94 -1.8,-4.38 -3.43,5.65 -14.08,8.67 -26.07,10.47 -11.59,1.74 -24.21,2.4 -36.57,2.46l-0.02 0c-12.36,-0.06 -24.98,-0.72 -36.57,-2.46 -11.99,-1.8 -22.43,-4.66 -25.86,-10.32zm62.45 18.07l-0.02 0c-13.21,-0.02 -26.41,-0.76 -37.85,-2.93 -10.92,-2.06 -20.41,-4.23 -26.66,-9.47 -0.97,2.6 -1.97,5.18 -3.14,7.63 4.99,4.85 13.81,7.25 24.44,9.68 12.56,2.86 27.87,4.16 43.21,4.19l0.02 0c15.35,-0.03 30.66,-1.33 43.21,-4.19 10.63,-2.43 19.93,-4.97 24.92,-9.83 -1.17,-2.44 -2.36,-5.33 -3.32,-7.93 -6.25,5.24 -16.04,7.86 -26.95,9.92 -11.45,2.17 -24.65,2.91 -37.86,2.93zm0 9.62l-0.02 0c-15.38,-0.03 -30.73,-1.33 -43.32,-4.2 -10.63,-2.43 -19.48,-4.85 -24.57,-9.72 -0.58,1.19 -1.17,1.98 -1.85,3.07 11.25,14.13 52.55,15.58 69.74,15.66l0.02 0c17.19,-0.08 58.99,-1.85 70.25,-15.98 -0.69,-1.08 -1.3,-1.68 -1.88,-2.87 -5.09,4.86 -14.41,7.41 -25.05,9.84 -12.59,2.87 -27.94,4.17 -43.32,4.2zm0 107.41l-0.02 0.01 -0.41 0.06 -0.06 -101.72c-17.22,-0.15 -58.58,-1.68 -69.94,-15.78l-0.5 -0.31 0.07 -0.1c2.57,-3.7 4.33,-8.46 6.05,-13.12 0.82,-2.22 1.68,-3.92 2.56,-5.97l0.01 0c0.01,-0.03 0.03,-0.07 0.04,-0.1 0.26,-0.42 0.8,-0.57 1.23,-0.32 8.69,5.13 34.33,7.19 60.95,7.2l0.02 0c26.62,-0.01 53.18,-2.57 61.87,-7.7 0.43,-0.25 0.44,0.05 0.69,0.48 0.02,0.03 0.04,0.06 0.05,0.1l0 -0.01c0.89,2.06 1.88,4.5 2.7,6.72 1.65,4.45 3.41,8.87 5.79,12.49l-0.92 0.91c-11.36,14.1 -52.49,15.36 -69.71,15.51l-0.06 101.6 -0.41 0.05zm0 -128.36l-0.02 0c-24.81,0 -49.66,-2.26 -60.4,-6.77 3.42,4.75 12.98,6.92 24.09,8.58 11.51,1.73 24.04,2.38 36.31,2.44l0.02 0c12.27,-0.06 24.8,-0.71 36.31,-2.44 11.11,-1.66 20.67,-3.83 24.09,-8.58 -10.74,4.51 -35.58,6.77 -60.4,6.77z"/>
 </g>
</svg>
