<?xml version="1.0" encoding="UTF-8"?>
<!DOCTYPE svg PUBLIC "-//W3C//DTD SVG 1.1//EN" "http://www.w3.org/Graphics/SVG/1.1/DTD/svg11.dtd">
<!-- Creator: CorelDRAW -->
<svg xmlns="http://www.w3.org/2000/svg" xml:space="preserve" width="888px" height="598px" version="1.1" style="shape-rendering:geometricPrecision; text-rendering:geometricPrecision; image-rendering:optimizeQuality; fill-rule:evenodd; clip-rule:evenodd"
viewBox="0 0 888 598.5"
 xmlns:xlink="http://www.w3.org/1999/xlink"
 xmlns:xodm="http://www.corel.com/coreldraw/odm/2003">
 <defs>
  <style type="text/css">
   <![CDATA[
    .str1 {stroke:#373435;stroke-width:0.9;stroke-miterlimit:22.9256}
    .str0 {stroke:#ED3237;stroke-width:0.9;stroke-miterlimit:22.9256}
    .fil1 {fill:none;fill-rule:nonzero}
    .fil0 {fill:#FEFEFE}
   ]]>
  </style>
 </defs>
 <g id="Capa_x0020_1">
  <metadata id="CorelCorpID_0Corel-Layer"/>
  <rect class="fil0 str0" x="0.43" y="1.21" width="887.1" height="597.6"/>
  <path class="fil1 str1" d="M179.06 414.9l-0.07 0.22 0.82 0.23 0.06 -0.22 -0.81 -0.23zm-0.74 2.67l0.82 0.23 -0.45 1.63 -0.82 -0.22 0.45 -1.64zm-1.12 4.09l0.81 0.22 -0.44 1.64 -0.82 -0.23 0.45 -1.63zm-1.12 4.08l0.81 0.22 -0.45 1.64 -0.81 -0.23 0.45 -1.63zm-1.13 4.08l0.82 0.23 -0.45 1.63 -0.81 -0.23 0.44 -1.63zm-1.12 4.08l0.82 0.23 -0.45 1.63 -0.82 -0.22 0.45 -1.64zm-1.12 4.08l0.81 0.23 -0.44 1.63 -0.82 -0.22 0.45 -1.64zm-1.12 4.09l0.81 0.22 -0.45 1.63 -0.81 -0.22 0.45 -1.63zm-1.12 4.08l0.81 0.22 -0.45 1.63 -0.81 -0.22 0.45 -1.63zm-1.13 4.08l0.82 0.22 -0.45 1.63 -0.82 -0.22 0.45 -1.63zm-1.12 4.08l0.82 0.22 -0.45 1.63 -0.82 -0.22 0.45 -1.63zm-0.83 1.53l11.28 -41.05 -3.7 -1.01 -11.28 41.04 3.7 1.02z"/>
  <path class="fil1 str1" d="M295.26 414.84l0.06 0.23 -0.81 0.22 -0.06 -0.22 0.81 -0.23zm0.74 2.68l-0.82 0.22 0.45 1.64 0.82 -0.23 -0.45 -1.63zm1.12 4.08l-0.82 0.23 0.45 1.63 0.82 -0.22 -0.45 -1.64zm1.12 4.08l-0.81 0.23 0.45 1.63 0.81 -0.22 -0.45 -1.64zm1.13 4.09l-0.82 0.22 0.45 1.63 0.81 -0.22 -0.44 -1.63zm1.12 4.08l-0.82 0.22 0.45 1.63 0.82 -0.22 -0.45 -1.63zm1.12 4.08l-0.82 0.22 0.45 1.64 0.82 -0.23 -0.45 -1.63zm1.12 4.08l-0.81 0.22 0.45 1.64 0.81 -0.23 -0.45 -1.63zm1.12 4.08l-0.81 0.23 0.45 1.63 0.81 -0.23 -0.45 -1.63zm1.13 4.08l-0.82 0.23 0.45 1.63 0.81 -0.23 -0.44 -1.63zm1.12 4.08l-0.82 0.23 0.45 1.63 0.82 -0.23 -0.45 -1.63zm0.83 1.53l-11.28 -41.04 3.7 -1.02 11.28 41.04 -3.7 1.02z"/>
 </g>
</svg>
