<?xml version="1.0" encoding="UTF-8"?>
<!DOCTYPE svg PUBLIC "-//W3C//DTD SVG 1.1//EN" "http://www.w3.org/Graphics/SVG/1.1/DTD/svg11.dtd">
<!-- Creator: CorelDRAW -->
<svg xmlns="http://www.w3.org/2000/svg" xml:space="preserve" width="888px" height="598px" version="1.1" style="shape-rendering:geometricPrecision; text-rendering:geometricPrecision; image-rendering:optimizeQuality; fill-rule:evenodd; clip-rule:evenodd"
viewBox="0 0 888 598.5"
 xmlns:xlink="http://www.w3.org/1999/xlink"
 xmlns:xodm="http://www.corel.com/coreldraw/odm/2003">
 <defs>
  <style type="text/css">
   <![CDATA[
    .str0 {stroke:#373435;stroke-width:2.36;stroke-miterlimit:22.9256}
    .fil0 {fill:#6B809B}
   ]]>
  </style>
 </defs>
 <g id="Capa_x0020_1">
  <metadata id="CorelCorpID_0Corel-Layer"/>
  <path class="fil0 str0" d="M134.51 556.11l0 0.01c0.87,0.19 1.8,0.38 2.77,0.57 0.81,0.15 1.61,0.3 2.43,0.45 -0.4,-1.7 -1.58,-6.7 -3.04,-13.5 -1.74,-8.09 -3.88,-18.73 -5.6,-29.37 -0.49,2.47 -0.94,4.66 -1.32,6.43 -2.35,10.82 -5.18,32.06 -5.18,32.06 0.47,0.59 4.02,2.04 9.94,3.35z"/>
  <path class="fil0 str0" d="M338.66 556.11l0.01 0.01c-0.88,0.19 -1.81,0.38 -2.78,0.57 -0.8,0.15 -1.61,0.3 -2.43,0.45 0.4,-1.7 1.58,-6.7 3.05,-13.5 1.73,-8.09 3.87,-18.73 5.59,-29.37 0.49,2.47 0.94,4.66 1.32,6.43 2.35,10.82 5.18,32.06 5.18,32.06 -0.47,0.59 -4.02,2.04 -9.94,3.35z"/>
  <g id="_2260198275904">
   <path class="fil0 str0" d="M533.39 556.11l0 0.01c0.87,0.19 1.8,0.38 2.78,0.57 0.8,0.15 1.61,0.3 2.42,0.45 -0.4,-1.7 -1.58,-6.7 -3.04,-13.5 -1.74,-8.09 -3.88,-18.73 -5.6,-29.37 -0.49,2.47 -0.94,4.66 -1.32,6.43 -2.35,10.82 -5.18,32.06 -5.18,32.06 0.47,0.59 4.02,2.04 9.94,3.35z"/>
   <path class="fil0 str0" d="M737.54 556.11l0.01 0.01c-0.88,0.19 -1.81,0.38 -2.78,0.57 -0.8,0.15 -1.61,0.3 -2.43,0.45 0.41,-1.7 1.58,-6.7 3.05,-13.5 1.74,-8.09 3.88,-18.73 5.59,-29.37 0.49,2.47 0.94,4.66 1.32,6.43 2.35,10.82 5.18,32.06 5.18,32.06 -0.47,0.59 -4.02,2.04 -9.94,3.35z"/>
  </g>
 </g>
</svg>
