<?xml version="1.0" encoding="UTF-8"?>
<!DOCTYPE svg PUBLIC "-//W3C//DTD SVG 1.1//EN" "http://www.w3.org/Graphics/SVG/1.1/DTD/svg11.dtd">
<!-- Creator: CorelDRAW -->
<svg xmlns="http://www.w3.org/2000/svg" xml:space="preserve" width="888px" height="598px" version="1.1" style="shape-rendering:geometricPrecision; text-rendering:geometricPrecision; image-rendering:optimizeQuality; fill-rule:evenodd; clip-rule:evenodd"
viewBox="0 0 888 598.5"
 xmlns:xlink="http://www.w3.org/1999/xlink"
 xmlns:xodm="http://www.corel.com/coreldraw/odm/2003">
 <defs>
  <style type="text/css">
   <![CDATA[
    .str1 {stroke:#373435;stroke-width:0.9;stroke-miterlimit:22.9256}
    .str0 {stroke:#ED3237;stroke-width:0.9;stroke-miterlimit:22.9256}
    .fil1 {fill:none}
    .fil0 {fill:#FEFEFE}
   ]]>
  </style>
 </defs>
 <g id="Capa_x0020_1">
  <metadata id="CorelCorpID_0Corel-Layer"/>
  <rect class="fil0 str0" x="0.43" y="1.21" width="887.1" height="597.6"/>
  <g id="_2263741976928">
   <path class="fil1 str1" d="M334.99 470.28c-2.45,-13.78 -8.79,-31.69 -10.27,-39.97 -2.56,-14.31 -10.74,-40.49 -16.88,-48.93 -3.11,-4.29 -6.01,-13.85 -8.39,-19.37 -17.68,10.42 -106.81,10.42 -124.5,0 -2.76,6.4 -5.08,14.17 -8.94,19.73 -6.11,8.82 -14.1,34.46 -16.62,48.57 -1.47,8.28 -7.82,26.19 -10.27,39.97 -2.45,13.78 -7.07,39.6 -9.42,50.42 -2.35,10.82 -5.18,32.06 -5.18,32.06 0.54,0.69 5.16,2.5 12.76,3.93 24.41,4.58 56.83,9.47 82.4,11.07 1.63,0.1 2.05,-0.09 2.27,-1.45 3.15,-19.86 8.97,-46.8 15.11,-66.41 5.06,20.03 12.4,46.55 15.4,66.41 0.21,1.36 0.64,1.55 2.27,1.45 25.57,-1.6 57.7,-6.49 82.1,-11.07 7.6,-1.43 12.22,-3.24 12.76,-3.93 0,0 -2.83,-21.24 -5.18,-32.06 -2.34,-10.82 -6.97,-36.64 -9.42,-50.42z"/>
  </g>
  <g id="_2263741976256">
   <path class="fil1 str1" d="M733.4 470.28c-2.45,-13.78 -8.8,-31.69 -10.27,-39.97 -2.56,-14.31 -10.74,-40.49 -16.88,-48.93 -3.12,-4.29 -6.01,-13.85 -8.39,-19.37 -17.68,10.42 -106.81,10.42 -124.5,0 -2.76,6.4 -5.08,14.17 -8.94,19.73 -6.11,8.82 -14.1,34.46 -16.62,48.57 -1.47,8.28 -7.82,26.19 -10.27,39.97 -2.45,13.78 -7.07,39.6 -9.42,50.42 -2.35,10.82 -5.18,32.06 -5.18,32.06 0.54,0.69 5.16,2.5 12.76,3.93 24.41,4.58 56.83,9.47 82.4,11.07 1.63,0.1 2.05,-0.09 2.27,-1.45 3.15,-19.86 8.97,-46.8 15.11,-66.41 5.06,20.03 12.4,46.55 15.4,66.41 0.21,1.36 0.64,1.55 2.27,1.45 25.57,-1.6 57.7,-6.49 82.1,-11.07 7.6,-1.43 12.22,-3.24 12.76,-3.93 0,0 -2.83,-21.24 -5.18,-32.06 -2.35,-10.82 -6.97,-36.64 -9.42,-50.42z"/>
  </g>
 </g>
</svg>
