<?xml version="1.0" encoding="UTF-8"?>
<!DOCTYPE svg PUBLIC "-//W3C//DTD SVG 1.1//EN" "http://www.w3.org/Graphics/SVG/1.1/DTD/svg11.dtd">
<!-- Creator: CorelDRAW -->
<svg xmlns="http://www.w3.org/2000/svg" xml:space="preserve" width="888px" height="598px" version="1.1" style="shape-rendering:geometricPrecision; text-rendering:geometricPrecision; image-rendering:optimizeQuality; fill-rule:evenodd; clip-rule:evenodd"
viewBox="0 0 888 598.5"
 xmlns:xlink="http://www.w3.org/1999/xlink"
 xmlns:xodm="http://www.corel.com/coreldraw/odm/2003">
 <defs>
  <style type="text/css">
   <![CDATA[
    .str0 {stroke:#ED3237;stroke-width:0.9;stroke-miterlimit:22.9256}
    .fil0 {fill:#FEFEFE}
    .fil1 {fill:#373435;fill-rule:nonzero}
   ]]>
  </style>
 </defs>
 <g id="Capa_x0020_1">
  <metadata id="CorelCorpID_0Corel-Layer"/>
  <rect class="fil0 str0" x="0.43" y="1.21" width="887.1" height="597.6"/>
  <g>
   <path class="fil0" d="M232.96 375.47c0.36,16.8 -3.27,25.39 -5.44,37.58 -1.03,5.79 -2.34,15.09 -2.44,20.7 -0.03,1.25 -0.43,2.48 -1.44,2.71l-0.36 6.61c-0.08,1.49 -1.8,1.25 -1.74,-0.1l0.43 -6.46c0,0 -0.95,-0.38 -1.09,-1.44 -0.75,-5.63 3.56,-24.71 5,-31.01 1.84,-8.02 3.29,-15.7 3.3,-28.05 0,0 0.26,-1.71 1.7,-1.85 1.44,-0.14 2.08,1.31 2.08,1.31zm8.19 0c-0.36,16.8 3.28,25.39 5.45,37.58 1.03,5.79 2.33,15.09 2.44,20.7 0.02,1.25 0.42,2.48 1.44,2.71l0.35 6.61c0.08,1.49 1.8,1.25 1.75,-0.1l-0.44 -6.46c0,0 0.96,-0.38 1.1,-1.44 0.75,-5.63 -3.57,-24.71 -5.01,-31.01 -1.83,-8.02 -3.29,-15.7 -3.3,-28.05 0,0 -0.26,-1.71 -1.7,-1.85 -1.44,-0.14 -2.08,1.31 -2.08,1.31z"/>
   <path id="_1" class="fil1" d="M227.96 413.13l-0.89 -0.16 0 0 0.21 -1.13 0.22 -1.12 0.22 -1.1 0.23 -1.09 0.23 -1.07 0.24 -1.06 0.24 -1.05 0.23 -1.05 0.24 -1.04 0.24 -1.04 0.24 -1.04 0.24 -1.04 0.23 -1.05 0.23 -1.05 0.22 -1.06 0.21 -1.07 0.21 -1.09 0.2 -1.1 0.19 -1.12 0.18 -1.13 0.17 -1.16 0.16 -1.19 0.14 -1.21 0.13 -1.24 0.11 -1.26 0.1 -1.3 0.08 -1.34 0.06 -1.38 0.04 -1.41 0.02 -1.46 0 -1.49 -0.02 -1.55 0.9 -0.02 0.02 1.56 0 1.51 -0.02 1.47 -0.04 1.43 -0.06 1.38 -0.08 1.36 -0.1 1.31 -0.12 1.28 -0.13 1.25 -0.14 1.22 -0.16 1.2 -0.17 1.17 -0.18 1.15 -0.19 1.13 -0.2 1.11 -0.21 1.09 -0.22 1.08 -0.22 1.07 -0.23 1.05 -0.23 1.05 -0.24 1.05 -0.24 1.04 -0.24 1.04 -0.24 1.04 -0.24 1.05 -0.24 1.05 -0.23 1.05 -0.23 1.07 -0.23 1.08 -0.22 1.09 -0.21 1.11 -0.21 1.13 0 0zm-2.43 20.63l-0.9 -0.02 0 0 0.01 -0.54 0.02 -0.56 0.03 -0.58 0.03 -0.6 0.04 -0.61 0.04 -0.63 0.05 -0.64 0.06 -0.66 0.06 -0.66 0.06 -0.68 0.07 -0.68 0.08 -0.69 0.07 -0.69 0.08 -0.7 0.09 -0.71 0.08 -0.7 0.09 -0.71 0.09 -0.7 0.1 -0.7 0.09 -0.7 0.1 -0.69 0.1 -0.69 0.1 -0.68 0.1 -0.67 0.1 -0.66 0.1 -0.65 0.1 -0.64 0.11 -0.62 0.1 -0.61 0.1 -0.59 0.1 -0.57 0.09 -0.56 0.89 0.16 -0.1 0.55 -0.1 0.57 -0.1 0.59 -0.1 0.61 -0.1 0.62 -0.1 0.63 -0.1 0.65 -0.1 0.66 -0.1 0.66 -0.1 0.68 -0.1 0.69 -0.1 0.69 -0.09 0.69 -0.09 0.7 -0.09 0.7 -0.09 0.7 -0.09 0.7 -0.08 0.7 -0.08 0.7 -0.08 0.69 -0.07 0.68 -0.07 0.68 -0.07 0.67 -0.05 0.66 -0.06 0.65 -0.05 0.63 -0.04 0.63 -0.04 0.6 -0.04 0.59 -0.02 0.58 -0.02 0.55 -0.01 0.53 0 0zm-1.45 2.73l-0.89 -0.05 0.34 -0.41 0.07 -0.02 0.06 -0.02 0.06 -0.03 0.05 -0.03 0.06 -0.03 0.05 -0.03 0.05 -0.04 0.05 -0.04 0.05 -0.05 0.04 -0.05 0.05 -0.05 0.04 -0.07 0.04 -0.06 0.04 -0.07 0.04 -0.07 0.04 -0.07 0.04 -0.08 0.03 -0.08 0.03 -0.09 0.03 -0.09 0.02 -0.09 0.03 -0.09 0.02 -0.1 0.02 -0.1 0.02 -0.1 0.02 -0.1 0.01 -0.1 0.01 -0.11 0.01 -0.1 0.01 -0.11 0 -0.11 0.01 -0.11 0.9 0.02 -0.01 0.12 -0.01 0.13 0 0.12 -0.01 0.13 -0.02 0.12 -0.01 0.13 -0.02 0.12 -0.03 0.12 -0.02 0.12 -0.03 0.12 -0.03 0.12 -0.03 0.12 -0.04 0.11 -0.04 0.12 -0.05 0.11 -0.05 0.11 -0.05 0.11 -0.05 0.1 -0.06 0.1 -0.07 0.1 -0.07 0.09 -0.07 0.1 -0.09 0.09 -0.08 0.07 -0.09 0.08 -0.09 0.08 -0.1 0.07 -0.11 0.06 -0.11 0.05 -0.11 0.05 -0.12 0.04 -0.12 0.03 0.34 -0.41zm-0.89 -0.05l0.01 -0.34 0.33 -0.07 -0.34 0.41zm-0.36 6.61l0.36 -6.61 0.89 0.05 -0.35 6.61 -0.9 -0.05zm-1.74 -0.11l0.89 0.06 0.01 -0.01 0 0.08 0 0.08 0.01 0.07 0.02 0.07 0.02 0.05 0.03 0.06 0.02 0.04 0.03 0.04 0.03 0.03 0.04 0.03 0.03 0.03 0.04 0.02 0.04 0.02 0.03 0.01 0.04 0.01 0.03 0.01 0.04 0 0.03 0 0.04 -0.01 0.03 0 0.03 -0.02 0.03 -0.01 0.02 -0.02 0.03 -0.03 0.03 -0.03 0.03 -0.04 0.03 -0.04 0.02 -0.06 0.03 -0.06 0.02 -0.08 0.01 -0.09 0.01 -0.1 0.9 0.05 -0.01 0.17 -0.03 0.16 -0.04 0.15 -0.05 0.14 -0.06 0.14 -0.08 0.12 -0.09 0.12 -0.09 0.1 -0.1 0.09 -0.12 0.08 -0.11 0.06 -0.13 0.05 -0.12 0.03 -0.13 0.02 -0.13 0.01 -0.13 0 -0.12 -0.03 -0.13 -0.03 -0.12 -0.04 -0.11 -0.06 -0.11 -0.06 -0.11 -0.08 -0.09 -0.09 -0.1 -0.1 -0.08 -0.11 -0.07 -0.12 -0.06 -0.13 -0.05 -0.13 -0.04 -0.14 -0.02 -0.16 -0.01 -0.15 0 -0.16 0 -0.01zm0 0.01l0 -0.01 0 0.02 0 -0.01zm1.33 -6.41l-0.44 6.46 -0.89 -0.06 0.43 -6.46 0.62 -0.39 0.28 0.45zm-0.28 -0.45l0.3 0.12 -0.02 0.33 -0.28 -0.45zm-1.71 -0.96l0.89 -0.12 0 0 0.01 0.08 0.02 0.07 0.02 0.07 0.02 0.06 0.02 0.06 0.03 0.06 0.02 0.05 0.04 0.06 0.03 0.05 0.03 0.04 0.03 0.05 0.04 0.04 0.04 0.05 0.03 0.03 0.04 0.04 0.04 0.03 0.03 0.03 0.04 0.03 0.04 0.03 0.03 0.03 0.03 0.02 0.04 0.02 0.02 0.02 0.03 0.01 0.06 0.03 0.02 0.02 0.02 0 0 0 -0.33 0.84 -0.02 -0.01 -0.05 -0.02 -0.07 -0.03 -0.07 -0.04 -0.04 -0.03 -0.05 -0.03 -0.05 -0.03 -0.05 -0.03 -0.06 -0.04 -0.05 -0.04 -0.06 -0.05 -0.06 -0.05 -0.06 -0.06 -0.06 -0.05 -0.06 -0.07 -0.06 -0.06 -0.05 -0.07 -0.06 -0.08 -0.06 -0.08 -0.05 -0.09 -0.05 -0.08 -0.05 -0.1 -0.04 -0.1 -0.04 -0.1 -0.03 -0.11 -0.04 -0.11 -0.02 -0.12 -0.02 -0.12 0 0zm5.01 -31.17l0.88 0.2 0 0 -0.14 0.63 -0.16 0.69 -0.17 0.77 -0.19 0.82 -0.19 0.88 -0.21 0.93 -0.21 0.97 -0.22 1.02 -0.23 1.05 -0.23 1.08 -0.23 1.11 -0.23 1.14 -0.23 1.15 -0.23 1.16 -0.23 1.17 -0.22 1.17 -0.21 1.17 -0.21 1.16 -0.2 1.15 -0.18 1.14 -0.18 1.11 -0.16 1.09 -0.15 1.05 -0.12 1.02 -0.11 0.98 -0.1 0.93 -0.07 0.88 -0.04 0.82 -0.03 0.76 0 0.7 0.03 0.62 0.05 0.53 -0.89 0.12 -0.06 -0.59 -0.03 -0.67 0 -0.72 0.03 -0.79 0.05 -0.84 0.07 -0.9 0.09 -0.95 0.11 -0.98 0.13 -1.03 0.15 -1.07 0.16 -1.09 0.18 -1.12 0.18 -1.14 0.2 -1.16 0.21 -1.17 0.22 -1.17 0.22 -1.18 0.22 -1.17 0.23 -1.17 0.24 -1.15 0.23 -1.14 0.23 -1.11 0.23 -1.09 0.23 -1.05 0.22 -1.02 0.21 -0.98 0.21 -0.93 0.19 -0.88 0.19 -0.82 0.17 -0.76 0.16 -0.7 0.14 -0.63 0 0zm3.3 -28.01l0.89 0.13 0 -0.07 0 1.15 -0.02 1.12 -0.02 1.1 -0.03 1.07 -0.03 1.05 -0.05 1.02 -0.05 1 -0.06 0.99 -0.07 0.96 -0.07 0.94 -0.08 0.93 -0.08 0.9 -0.1 0.9 -0.09 0.87 -0.11 0.86 -0.11 0.85 -0.11 0.83 -0.12 0.83 -0.13 0.81 -0.12 0.8 -0.14 0.8 -0.14 0.78 -0.14 0.78 -0.15 0.77 -0.15 0.76 -0.15 0.77 -0.16 0.75 -0.16 0.76 -0.16 0.75 -0.17 0.75 -0.17 0.75 -0.17 0.75 -0.88 -0.2 0.17 -0.75 0.17 -0.75 0.17 -0.75 0.16 -0.74 0.16 -0.75 0.16 -0.76 0.15 -0.75 0.15 -0.76 0.15 -0.77 0.14 -0.77 0.14 -0.78 0.13 -0.78 0.13 -0.8 0.12 -0.8 0.12 -0.82 0.11 -0.83 0.11 -0.84 0.1 -0.85 0.1 -0.87 0.09 -0.88 0.09 -0.9 0.07 -0.92 0.08 -0.94 0.06 -0.95 0.06 -0.97 0.05 -1 0.05 -1.02 0.03 -1.04 0.03 -1.06 0.02 -1.09 0.02 -1.12 0 -1.14 0.01 -0.06zm-0.01 0.06l0 -0.03 0.01 -0.03 -0.01 0.06zm2.11 -2.3l0.08 0.9 0 0 -0.09 0.01 -0.1 0.02 -0.08 0.02 -0.08 0.04 -0.08 0.03 -0.07 0.04 -0.07 0.04 -0.06 0.05 -0.07 0.05 -0.05 0.06 -0.06 0.06 -0.05 0.06 -0.05 0.06 -0.04 0.07 -0.04 0.07 -0.04 0.07 -0.04 0.07 -0.03 0.07 -0.03 0.06 -0.03 0.07 -0.03 0.07 -0.02 0.06 -0.02 0.06 -0.01 0.05 -0.02 0.05 -0.01 0.04 -0.01 0.04 0 0.03 -0.01 0.05 0 0 -0.89 -0.13 0 -0.04 0.01 -0.06 0.02 -0.05 0.01 -0.06 0.01 -0.05 0.02 -0.07 0.02 -0.07 0.03 -0.08 0.03 -0.09 0.03 -0.08 0.04 -0.09 0.04 -0.1 0.05 -0.09 0.05 -0.1 0.05 -0.1 0.07 -0.09 0.06 -0.1 0.08 -0.1 0.08 -0.1 0.09 -0.09 0.09 -0.1 0.11 -0.08 0.11 -0.09 0.12 -0.07 0.13 -0.07 0.13 -0.07 0.14 -0.05 0.15 -0.04 0.16 -0.04 0.17 -0.02 0 0zm2.57 1.75l-0.9 0.02 0.04 0.17 0 0 -0.02 -0.04 -0.01 -0.02 -0.02 -0.03 -0.02 -0.04 -0.03 -0.04 -0.02 -0.04 -0.03 -0.05 -0.04 -0.05 -0.03 -0.05 -0.05 -0.05 -0.04 -0.06 -0.05 -0.05 -0.05 -0.05 -0.06 -0.06 -0.05 -0.05 -0.06 -0.04 -0.06 -0.05 -0.07 -0.05 -0.06 -0.04 -0.08 -0.04 -0.07 -0.03 -0.08 -0.03 -0.07 -0.03 -0.09 -0.02 -0.08 -0.02 -0.09 -0.01 -0.09 -0.01 -0.1 0 -0.11 0.01 -0.08 -0.9 0.16 -0.01 0.16 0 0.15 0.01 0.15 0.02 0.14 0.03 0.14 0.04 0.13 0.04 0.13 0.05 0.12 0.06 0.11 0.06 0.1 0.07 0.11 0.07 0.09 0.07 0.09 0.07 0.09 0.08 0.07 0.08 0.07 0.07 0.07 0.08 0.06 0.07 0.06 0.08 0.05 0.07 0.05 0.07 0.04 0.06 0.04 0.06 0.03 0.06 0.03 0.05 0.03 0.05 0.02 0.03 0.03 0.06 0.01 0.03 0.04 0.17zm-0.04 -0.17l0.04 0.08 0 0.09 -0.04 -0.17zm13.67 37.68l-0.88 0.16 0 0 -0.21 -1.13 -0.22 -1.11 -0.22 -1.09 -0.22 -1.08 -0.24 -1.07 -0.23 -1.05 -0.24 -1.05 -0.24 -1.05 -0.24 -1.04 -0.24 -1.04 -0.24 -1.04 -0.23 -1.05 -0.23 -1.05 -0.23 -1.05 -0.23 -1.07 -0.21 -1.08 -0.21 -1.09 -0.21 -1.11 -0.19 -1.13 -0.18 -1.15 -0.17 -1.17 -0.16 -1.2 -0.14 -1.22 -0.13 -1.25 -0.11 -1.28 -0.1 -1.31 -0.08 -1.36 -0.06 -1.38 -0.05 -1.43 -0.02 -1.47 0 -1.51 0.02 -1.56 0.9 0.02 -0.02 1.55 0 1.49 0.02 1.46 0.05 1.41 0.06 1.38 0.08 1.34 0.09 1.3 0.12 1.27 0.12 1.23 0.15 1.21 0.15 1.19 0.17 1.16 0.18 1.13 0.19 1.12 0.2 1.1 0.21 1.09 0.21 1.07 0.23 1.06 0.22 1.05 0.24 1.05 0.23 1.04 0.24 1.04 0.24 1.04 0.24 1.04 0.24 1.05 0.24 1.05 0.23 1.06 0.24 1.07 0.22 1.09 0.23 1.1 0.21 1.12 0.21 1.13 0 0zm2.45 20.77l-0.9 0.02 0 0 -0.01 -0.53 -0.02 -0.55 -0.03 -0.58 -0.03 -0.59 -0.04 -0.6 -0.05 -0.63 -0.05 -0.63 -0.05 -0.65 -0.06 -0.66 -0.06 -0.67 -0.07 -0.68 -0.08 -0.68 -0.07 -0.69 -0.08 -0.7 -0.08 -0.7 -0.09 -0.7 -0.09 -0.7 -0.09 -0.7 -0.09 -0.7 -0.1 -0.69 -0.1 -0.7 -0.1 -0.68 -0.1 -0.68 -0.1 -0.66 -0.1 -0.66 -0.1 -0.65 -0.1 -0.63 -0.1 -0.62 -0.1 -0.61 -0.1 -0.59 -0.1 -0.57 -0.09 -0.55 0.88 -0.16 0.1 0.56 0.1 0.57 0.1 0.59 0.1 0.61 0.1 0.62 0.1 0.64 0.1 0.65 0.1 0.66 0.1 0.67 0.11 0.68 0.09 0.69 0.1 0.69 0.1 0.7 0.09 0.7 0.09 0.7 0.09 0.71 0.09 0.71 0.08 0.7 0.08 0.7 0.08 0.69 0.07 0.69 0.07 0.68 0.07 0.68 0.06 0.66 0.05 0.66 0.05 0.64 0.05 0.63 0.03 0.61 0.04 0.6 0.03 0.58 0.02 0.56 0.01 0.54 0 0zm1.44 2.7l-0.9 0.05 0.35 0.41 -0.13 -0.03 -0.12 -0.04 -0.11 -0.05 -0.11 -0.05 -0.1 -0.06 -0.1 -0.07 -0.1 -0.08 -0.09 -0.07 -0.08 -0.09 -0.08 -0.08 -0.08 -0.1 -0.07 -0.09 -0.06 -0.1 -0.06 -0.1 -0.06 -0.1 -0.05 -0.11 -0.05 -0.11 -0.04 -0.11 -0.05 -0.11 -0.03 -0.12 -0.04 -0.12 -0.03 -0.12 -0.03 -0.11 -0.02 -0.13 -0.02 -0.12 -0.02 -0.12 -0.02 -0.13 -0.01 -0.12 -0.01 -0.13 -0.01 -0.12 -0.01 -0.13 0 -0.12 0.9 -0.02 0 0.11 0.01 0.11 0 0.11 0.01 0.1 0.02 0.11 0.01 0.1 0.01 0.1 0.02 0.1 0.02 0.1 0.03 0.1 0.02 0.09 0.03 0.09 0.03 0.09 0.03 0.09 0.03 0.08 0.03 0.08 0.04 0.07 0.04 0.07 0.04 0.07 0.04 0.06 0.05 0.06 0.04 0.06 0.05 0.05 0.05 0.05 0.04 0.04 0.05 0.04 0.06 0.03 0.05 0.04 0.06 0.02 0.06 0.03 0.06 0.02 0.06 0.02 0.35 0.41zm-0.35 -0.41l0.33 0.07 0.02 0.34 -0.35 -0.41zm-0.2 7.07l-0.35 -6.61 0.9 -0.05 0.35 6.61 -0.9 0.05zm1.75 -0.1l0.9 -0.06 0 0.01 0 0.16 -0.01 0.15 -0.03 0.16 -0.04 0.14 -0.05 0.13 -0.06 0.13 -0.07 0.12 -0.08 0.11 -0.09 0.1 -0.1 0.09 -0.1 0.08 -0.11 0.06 -0.12 0.06 -0.12 0.04 -0.12 0.03 -0.13 0.03 -0.13 0 -0.13 -0.01 -0.12 -0.02 -0.13 -0.03 -0.12 -0.05 -0.12 -0.06 -0.11 -0.08 -0.11 -0.09 -0.09 -0.1 -0.09 -0.12 -0.07 -0.12 -0.06 -0.14 -0.05 -0.14 -0.04 -0.15 -0.03 -0.16 -0.02 -0.17 0.9 -0.05 0.01 0.1 0.02 0.09 0.02 0.08 0.02 0.06 0.03 0.06 0.02 0.04 0.03 0.04 0.03 0.03 0.03 0.03 0.03 0.02 0.03 0.01 0.03 0.02 0.03 0 0.03 0.01 0.04 0 0.03 0 0.04 -0.01 0.03 -0.01 0.04 -0.01 0.04 -0.02 0.03 -0.02 0.04 -0.02 0.03 -0.04 0.03 -0.03 0.03 -0.04 0.03 -0.04 0.02 -0.06 0.02 -0.05 0.02 -0.07 0.01 -0.07 0.01 -0.08 0 -0.08 0 0.01zm0.9 -0.06l0 0.01 0 0.01 0 -0.02zm-0.44 -6.46l0.44 6.46 -0.9 0.06 -0.44 -6.46 0.28 -0.45 0.62 0.39zm-0.9 0.06l-0.02 -0.33 0.3 -0.12 -0.28 0.45zm1.1 -1.53l0.9 0.12 0 0 -0.02 0.12 -0.03 0.12 -0.03 0.11 -0.03 0.11 -0.04 0.1 -0.05 0.1 -0.05 0.1 -0.05 0.09 -0.05 0.08 -0.05 0.08 -0.06 0.08 -0.06 0.07 -0.06 0.06 -0.06 0.07 -0.06 0.05 -0.06 0.06 -0.05 0.05 -0.06 0.05 -0.06 0.04 -0.05 0.04 -0.05 0.03 -0.05 0.03 -0.06 0.03 -0.04 0.03 -0.07 0.04 -0.07 0.03 -0.04 0.02 -0.02 0.01 -0.34 -0.84 0 0 0.02 0 0.03 -0.02 0.05 -0.03 0.03 -0.02 0.03 -0.01 0.03 -0.02 0.03 -0.02 0.04 -0.03 0.04 -0.03 0.03 -0.02 0.04 -0.04 0.04 -0.03 0.03 -0.04 0.04 -0.03 0.04 -0.05 0.03 -0.04 0.03 -0.04 0.04 -0.05 0.03 -0.06 0.03 -0.05 0.03 -0.05 0.02 -0.06 0.03 -0.06 0.02 -0.06 0.02 -0.07 0.01 -0.07 0.01 -0.08 0 0zm-5 -30.85l0.88 -0.2 0 0 0.14 0.63 0.16 0.7 0.17 0.76 0.19 0.82 0.2 0.88 0.2 0.93 0.22 0.98 0.22 1.02 0.22 1.05 0.23 1.09 0.23 1.11 0.24 1.14 0.23 1.15 0.23 1.17 0.23 1.17 0.22 1.18 0.21 1.17 0.21 1.17 0.2 1.16 0.19 1.14 0.17 1.12 0.17 1.09 0.14 1.07 0.13 1.03 0.11 0.98 0.1 0.95 0.07 0.9 0.05 0.84 0.02 0.79 0 0.72 -0.03 0.67 -0.05 0.59 -0.9 -0.12 0.06 -0.53 0.02 -0.62 0 -0.7 -0.02 -0.76 -0.05 -0.82 -0.07 -0.88 -0.09 -0.93 -0.11 -0.98 -0.13 -1.02 -0.15 -1.05 -0.16 -1.09 -0.17 -1.11 -0.19 -1.14 -0.19 -1.15 -0.21 -1.16 -0.22 -1.17 -0.22 -1.17 -0.22 -1.17 -0.23 -1.16 -0.23 -1.15 -0.24 -1.14 -0.23 -1.11 -0.23 -1.08 -0.22 -1.05 -0.22 -1.02 -0.22 -0.97 -0.2 -0.93 -0.2 -0.88 -0.18 -0.82 -0.18 -0.77 -0.15 -0.69 -0.15 -0.63 0 0zm-3.3 -28.08l0.89 -0.13 0 0.06 0.01 1.14 0.01 1.12 0.02 1.09 0.03 1.06 0.04 1.04 0.04 1.02 0.05 1 0.06 0.97 0.07 0.95 0.07 0.94 0.08 0.92 0.08 0.9 0.09 0.88 0.1 0.87 0.1 0.85 0.11 0.84 0.12 0.83 0.11 0.81 0.13 0.81 0.13 0.8 0.13 0.78 0.14 0.78 0.14 0.77 0.14 0.77 0.15 0.76 0.16 0.75 0.15 0.76 0.16 0.75 0.16 0.74 0.17 0.75 0.17 0.75 0.17 0.75 -0.88 0.2 -0.17 -0.75 -0.17 -0.75 -0.16 -0.75 -0.17 -0.75 -0.16 -0.76 -0.16 -0.75 -0.15 -0.77 -0.15 -0.76 -0.15 -0.77 -0.14 -0.78 -0.14 -0.78 -0.13 -0.8 -0.13 -0.8 -0.13 -0.81 -0.12 -0.83 -0.11 -0.83 -0.11 -0.85 -0.1 -0.86 -0.1 -0.87 -0.09 -0.9 -0.09 -0.9 -0.08 -0.93 -0.07 -0.94 -0.07 -0.96 -0.05 -0.99 -0.06 -1 -0.04 -1.02 -0.04 -1.05 -0.03 -1.07 -0.02 -1.1 -0.01 -1.12 -0.01 -1.15 0.01 0.07zm0.89 -0.13l0 0.03 0 0.03 0 -0.06zm-2.19 -1.34l0.09 -0.9 0 0 0.16 0.02 0.16 0.04 0.15 0.04 0.14 0.05 0.14 0.07 0.12 0.07 0.12 0.07 0.11 0.09 0.11 0.08 0.09 0.1 0.09 0.09 0.09 0.1 0.07 0.09 0.07 0.1 0.06 0.1 0.06 0.1 0.05 0.1 0.04 0.09 0.05 0.1 0.03 0.09 0.04 0.08 0.03 0.09 0.02 0.08 0.02 0.07 0.02 0.07 0.02 0.05 0.01 0.06 0.01 0.05 0.01 0.06 0.01 0.04 -0.89 0.13 0 0 -0.01 -0.05 -0.01 -0.03 -0.01 -0.04 -0.01 -0.04 -0.01 -0.05 -0.02 -0.05 -0.02 -0.06 -0.02 -0.06 -0.02 -0.07 -0.03 -0.07 -0.03 -0.06 -0.04 -0.08 -0.03 -0.06 -0.04 -0.07 -0.04 -0.07 -0.05 -0.07 -0.05 -0.06 -0.05 -0.06 -0.05 -0.06 -0.06 -0.06 -0.06 -0.05 -0.07 -0.05 -0.07 -0.04 -0.07 -0.04 -0.07 -0.03 -0.08 -0.04 -0.09 -0.02 -0.09 -0.02 -0.1 -0.01 0 0zm-1.59 0.87l-0.9 -0.02 0.04 -0.17 0.02 -0.03 0.02 -0.06 0.02 -0.03 0.03 -0.05 0.03 -0.06 0.03 -0.05 0.04 -0.06 0.04 -0.06 0.05 -0.07 0.06 -0.07 0.05 -0.08 0.06 -0.07 0.07 -0.08 0.07 -0.07 0.08 -0.08 0.08 -0.08 0.09 -0.07 0.1 -0.07 0.1 -0.07 0.11 -0.07 0.11 -0.06 0.12 -0.06 0.12 -0.05 0.14 -0.04 0.13 -0.04 0.15 -0.03 0.15 -0.02 0.15 -0.01 0.15 0 0.17 0.01 -0.09 0.9 -0.1 -0.01 -0.1 0 -0.1 0.01 -0.09 0.01 -0.08 0.02 -0.08 0.02 -0.08 0.03 -0.08 0.03 -0.07 0.03 -0.07 0.04 -0.07 0.04 -0.06 0.05 -0.06 0.04 -0.07 0.05 -0.05 0.06 -0.06 0.05 -0.05 0.05 -0.04 0.05 -0.05 0.06 -0.04 0.05 -0.04 0.05 -0.03 0.05 -0.03 0.05 -0.03 0.04 -0.03 0.04 -0.01 0.04 -0.02 0.03 -0.01 0.02 -0.02 0.04 0 0 0.03 -0.17zm-0.9 -0.02l0.01 -0.09 0.03 -0.08 -0.04 0.17z"/>
  </g>
 </g>
</svg>
