<?xml version="1.0" encoding="UTF-8"?>
<!DOCTYPE svg PUBLIC "-//W3C//DTD SVG 1.1//EN" "http://www.w3.org/Graphics/SVG/1.1/DTD/svg11.dtd">
<!-- Creator: CorelDRAW -->
<svg xmlns="http://www.w3.org/2000/svg" xml:space="preserve" width="888px" height="598px" version="1.1" style="shape-rendering:geometricPrecision; text-rendering:geometricPrecision; image-rendering:optimizeQuality; fill-rule:evenodd; clip-rule:evenodd"
viewBox="0 0 888 598.5"
 xmlns:xlink="http://www.w3.org/1999/xlink"
 xmlns:xodm="http://www.corel.com/coreldraw/odm/2003">
 <defs>
  <style type="text/css">
   <![CDATA[
    .str0 {stroke:#ED3237;stroke-width:0.9;stroke-miterlimit:22.9256}
    .fil0 {fill:#FEFEFE}
    .fil1 {fill:#373435;fill-rule:nonzero;fill-opacity:0.501961}
   ]]>
  </style>
 </defs>
 <g id="Capa_x0020_1">
  <metadata id="CorelCorpID_0Corel-Layer"/>
  <rect class="fil0 str0" x="0.43" y="1.21" width="887.1" height="597.6"/>
  <path class="fil1" d="M233.39 376.08c0.01,-0.18 0.15,-0.32 0.33,-0.31 0.17,0 0.31,0.15 0.3,0.32 -0.04,1.81 -0.06,3.52 -0.08,5.19 -0.07,4.97 -0.13,9.59 -0.76,15.39 -0.01,0.17 -0.17,0.3 -0.34,0.28 -0.18,-0.02 -0.3,-0.18 -0.29,-0.35 0.63,-5.78 0.69,-10.37 0.75,-15.33 0.03,-1.67 0.05,-3.39 0.09,-5.19zm6.49 0.01c0,-0.17 0.14,-0.32 0.31,-0.32 0.18,-0.01 0.32,0.13 0.32,0.31 0.05,1.8 0.07,3.52 0.09,5.19 0.07,4.96 0.13,9.55 0.75,15.33 0.02,0.17 -0.11,0.33 -0.28,0.35 -0.17,0.02 -0.33,-0.11 -0.35,-0.28 -0.63,-5.8 -0.69,-10.42 -0.75,-15.39 -0.02,-1.67 -0.05,-3.38 -0.09,-5.19zm54.89 -11.19c-0.06,-0.16 0.03,-0.35 0.19,-0.41 0.16,-0.06 0.35,0.03 0.41,0.19l0.4 1.1c0.06,0.16 -0.03,0.34 -0.19,0.4 -0.17,0.06 -0.35,-0.02 -0.41,-0.19l-0.4 -1.09zm-57.46 5.82c0,-0.17 0.14,-0.32 0.32,-0.32 0.17,0 0.32,0.14 0.32,0.32l0.04 4.8c0,0.18 -0.14,0.32 -0.31,0.32 -0.18,0 -0.32,-0.14 -0.32,-0.31l-0.05 -4.81zm1.96 -0.16c0,-0.17 0.14,-0.31 0.32,-0.31 0.17,0 0.31,0.14 0.31,0.31l0 4.94c0,0.17 -0.15,0.31 -0.32,0.31 -0.18,0 -0.32,-0.14 -0.32,-0.31l0.01 -4.94zm1.7 0.04c-0.01,-0.18 0.13,-0.32 0.3,-0.33 0.18,0 0.32,0.13 0.33,0.31l0.15 4.87c0,0.18 -0.13,0.33 -0.31,0.33 -0.17,0 -0.32,-0.13 -0.32,-0.31l-0.15 -4.87zm1.72 -0.2c-0.01,-0.18 0.13,-0.33 0.31,-0.33 0.17,-0.01 0.32,0.13 0.33,0.3l0.21 5.04c0.01,0.17 -0.13,0.32 -0.3,0.33 -0.18,0 -0.33,-0.13 -0.33,-0.31l-0.22 -5.03zm2.09 0.24c-0.01,-0.17 0.13,-0.32 0.31,-0.32 0.17,0 0.32,0.14 0.32,0.31l0.11 4.73c0,0.11 -0.05,0.21 -0.13,0.27 0.1,0.05 0.17,0.15 0.18,0.28 0.05,4.93 0.19,8.66 0.42,11.91 0.23,3.25 0.55,5.99 0.95,8.95 0.02,0.17 -0.1,0.33 -0.28,0.36 -0.17,0.02 -0.33,-0.1 -0.35,-0.27 -0.41,-2.99 -0.73,-5.75 -0.96,-8.99 -0.22,-3.25 -0.37,-6.99 -0.42,-11.96 0,-0.11 0.05,-0.2 0.13,-0.26 -0.1,-0.05 -0.17,-0.15 -0.17,-0.28l-0.11 -4.73zm1.74 -0.18c0,-0.18 0.13,-0.32 0.31,-0.33 0.17,-0.01 0.32,0.13 0.32,0.31l0.16 4.86c0,0.11 -0.05,0.21 -0.13,0.27 0.01,0.04 0.02,0.07 0.02,0.11 0.02,4.02 0.18,7.67 0.46,11.13 0.29,3.44 0.7,6.68 1.25,9.88 0.03,0.17 -0.09,0.33 -0.26,0.36 -0.17,0.03 -0.34,-0.08 -0.37,-0.26 -0.55,-3.21 -0.96,-6.47 -1.25,-9.93 -0.28,-3.45 -0.44,-7.12 -0.47,-11.18 0,-0.1 0.06,-0.2 0.14,-0.26 -0.02,-0.03 -0.02,-0.06 -0.02,-0.1l-0.16 -4.86zm2.03 0.09c0,-0.18 0.14,-0.32 0.31,-0.32 0.18,-0.01 0.32,0.13 0.32,0.31l0.09 4.7c0,0.17 -0.14,0.31 -0.32,0.32 -0.07,0 -0.14,-0.02 -0.19,-0.07 0.01,0.04 0.02,0.07 0.02,0.11 0.12,4.01 0.28,7.64 0.6,11.09 0.32,3.44 0.8,6.7 1.56,9.96 0.04,0.17 -0.07,0.34 -0.24,0.38 -0.17,0.04 -0.34,-0.06 -0.38,-0.23 -0.77,-3.29 -1.25,-6.58 -1.57,-10.05 -0.32,-3.47 -0.48,-7.12 -0.6,-11.14 -0.01,-0.17 0.13,-0.32 0.3,-0.32 0.08,0 0.15,0.02 0.2,0.06 -0.01,-0.03 -0.02,-0.07 -0.02,-0.1l-0.08 -4.7zm1.83 -0.05c-0.01,-0.18 0.13,-0.33 0.3,-0.33 0.18,-0.01 0.33,0.12 0.33,0.3l0.21 4.68c0.01,0.17 -0.13,0.32 -0.3,0.33 -0.18,0 -0.32,-0.13 -0.33,-0.31l-0.21 -4.67zm1.81 -0.06c-0.01,-0.18 0.12,-0.33 0.3,-0.34 0.17,-0.01 0.32,0.12 0.33,0.3l0.3 4.65c0.01,0.17 -0.12,0.32 -0.3,0.34 -0.17,0.01 -0.32,-0.13 -0.33,-0.3l-0.3 -4.65zm1.84 -0.08c-0.01,-0.17 0.12,-0.33 0.29,-0.34 0.18,-0.01 0.33,0.12 0.34,0.29l0.36 4.63c0,0.04 0,0.07 -0.01,0.1l0.01 0c0.18,-0.01 0.33,0.13 0.33,0.3 0.16,3.71 0.45,7.23 0.98,10.66 0.53,3.42 1.3,6.75 2.42,10.07 0.06,0.17 -0.03,0.35 -0.19,0.4 -0.17,0.06 -0.35,-0.03 -0.41,-0.2 -1.14,-3.36 -1.92,-6.72 -2.45,-10.17 -0.53,-3.44 -0.82,-6.99 -0.98,-10.73 0,-0.03 0,-0.06 0.01,-0.09l-0.01 0c-0.17,0.02 -0.32,-0.11 -0.34,-0.29l-0.35 -4.63zm1.83 -0.09c-0.01,-0.17 0.12,-0.32 0.3,-0.33 0.17,-0.02 0.32,0.11 0.34,0.29l0.32 4.61c0.01,0.08 -0.02,0.16 -0.07,0.22l0.04 0c0.17,-0.01 0.32,0.12 0.33,0.3 0.17,3.51 0.49,7 1.04,10.43 0.55,3.42 1.34,6.78 2.46,10.06 0.06,0.16 -0.03,0.34 -0.2,0.4 -0.16,0.06 -0.34,-0.03 -0.4,-0.2 -1.13,-3.3 -1.93,-6.7 -2.49,-10.17 -0.55,-3.45 -0.87,-6.96 -1.04,-10.49 -0.01,-0.08 0.02,-0.16 0.07,-0.22l-0.03 0.01c-0.18,0.01 -0.33,-0.12 -0.34,-0.3l-0.33 -4.61zm1.9 -0.1c-0.01,-0.17 0.12,-0.32 0.3,-0.33 0.17,-0.02 0.32,0.12 0.34,0.29l0.31 4.58c0.02,0.18 -0.12,0.33 -0.29,0.34 -0.18,0.01 -0.33,-0.12 -0.34,-0.3l-0.32 -4.58zm1.91 -0.1c-0.02,-0.17 0.11,-0.33 0.29,-0.34 0.17,-0.02 0.32,0.11 0.34,0.28l0.41 4.55c0.01,0.17 -0.12,0.33 -0.29,0.34 -0.03,0 -0.05,0 -0.08,0 0.01,0.01 0.01,0.03 0.01,0.05l0.39 5.65c0.25,1.7 0.52,3.32 0.84,4.84 0.31,1.52 0.66,2.96 1.04,4.29l0 0.01 0 0 1.59 5.66c0.05,0.17 -0.05,0.35 -0.22,0.39 -0.17,0.05 -0.34,-0.05 -0.39,-0.22l-1.59 -5.66 0 0c-0.39,-1.35 -0.74,-2.8 -1.05,-4.35 -0.32,-1.54 -0.6,-3.18 -0.85,-4.88l0 -0.03 -0.39 -5.66c-0.01,-0.18 0.12,-0.33 0.29,-0.34 0.03,0 0.05,0 0.07,0l-0.01 -0.04 -0.4 -4.54zm1.86 -0.12c-0.02,-0.17 0.11,-0.33 0.28,-0.34 0.18,-0.02 0.33,0.11 0.35,0.28l0.42 4.51c0.02,0.18 -0.11,0.33 -0.28,0.35 -0.12,0.01 -0.22,-0.04 -0.29,-0.13l0.44 6.08c0.25,1.56 0.54,3.06 0.87,4.51 0.33,1.44 0.7,2.84 1.12,4.17l0 0.02 1.77 5.95c0.05,0.16 -0.04,0.34 -0.21,0.39 -0.17,0.05 -0.35,-0.05 -0.4,-0.21l-1.76 -5.95 -0.01 -0.01c-0.42,-1.34 -0.79,-2.75 -1.13,-4.23 -0.33,-1.46 -0.62,-2.97 -0.87,-4.54 -0.01,-0.01 -0.01,-0.03 -0.01,-0.04l-0.44 -6.13c-0.02,-0.18 0.12,-0.33 0.29,-0.34 0.11,-0.01 0.22,0.04 0.28,0.13l-0.42 -4.47zm1.85 -0.13c-0.02,-0.17 0.11,-0.33 0.29,-0.34 0.17,-0.02 0.33,0.11 0.34,0.29l0.38 4.47c0.02,0.18 -0.11,0.33 -0.29,0.34 -0.17,0.02 -0.33,-0.11 -0.34,-0.29l-0.38 -4.47zm1.83 -0.14c-0.01,-0.17 0.12,-0.33 0.29,-0.34 0.18,-0.02 0.33,0.11 0.35,0.29l0.37 4.43c0.02,0.18 -0.12,0.33 -0.29,0.34 -0.17,0.02 -0.33,-0.11 -0.34,-0.29l-0.38 -4.43zm1.77 -0.15c-0.02,-0.17 0.11,-0.32 0.29,-0.34 0.17,-0.01 0.33,0.12 0.34,0.3l0.34 4.32c0.05,-0.04 0.11,-0.07 0.17,-0.07 0.18,-0.02 0.33,0.11 0.35,0.28l0.56 5.81 2.61 8.85 0 0.02 1.67 5.78c0.04,0.16 -0.05,0.34 -0.22,0.39 -0.17,0.04 -0.35,-0.05 -0.39,-0.22l-1.67 -5.77 0 -0.02 -2.61 -8.88 0 0c-0.01,-0.02 -0.01,-0.04 -0.01,-0.06l-0.57 -5.78c-0.05,0.04 -0.11,0.07 -0.18,0.07 -0.17,0.02 -0.33,-0.11 -0.34,-0.29l-0.34 -4.39zm1.65 -0.28c-0.02,-0.18 0.11,-0.33 0.28,-0.35 0.18,-0.02 0.33,0.11 0.35,0.28l0.45 4.42c0.03,-0.01 0.07,-0.02 0.1,-0.03 0.18,-0.01 0.33,0.11 0.35,0.29l0.54 5.43 2.68 9.11 0 0 1.8 5.84c0.05,0.16 -0.04,0.34 -0.21,0.39 -0.17,0.05 -0.34,-0.04 -0.39,-0.21l-1.81 -5.84 0 0 -2.69 -9.14 0 0c0,-0.02 -0.01,-0.04 -0.01,-0.06l-0.53 -5.41c-0.04,0.02 -0.07,0.03 -0.11,0.04 -0.18,0.01 -0.33,-0.12 -0.35,-0.29l-0.45 -4.47zm1.8 -0.03c-0.02,-0.18 0.11,-0.34 0.28,-0.35 0.18,-0.02 0.34,0.1 0.35,0.28l0.46 4.25c0.01,0.07 -0.01,0.13 -0.04,0.19 0.11,0.04 0.2,0.14 0.21,0.27l0.54 5.42 2.83 8.73 0.01 0.01 1.82 5.68c0.05,0.17 -0.04,0.35 -0.21,0.4 -0.16,0.06 -0.34,-0.04 -0.4,-0.2l-1.82 -5.68 0 -0.02 -2.85 -8.76 0 0c0,-0.02 -0.01,-0.04 -0.01,-0.07l-0.54 -5.45c-0.01,-0.07 0.01,-0.13 0.04,-0.19 -0.11,-0.04 -0.2,-0.14 -0.21,-0.27l-0.46 -4.24zm1.62 -0.37c-0.02,-0.17 0.11,-0.33 0.28,-0.35 0.18,-0.01 0.33,0.11 0.35,0.29l0.45 4.38c0.05,0.04 0.08,0.11 0.09,0.18l0.58 5.6 2.84 8.74 1.95 5.93c0.05,0.17 -0.04,0.35 -0.21,0.4 -0.16,0.05 -0.34,-0.04 -0.4,-0.2l-1.95 -5.94 -2.84 -8.76c-0.01,-0.02 -0.01,-0.04 -0.01,-0.07l-0.59 -5.6c-0.04,-0.05 -0.08,-0.12 -0.08,-0.19l-0.46 -4.41zm1.61 -0.23c-0.02,-0.17 0.1,-0.33 0.28,-0.35 0.17,-0.03 0.33,0.1 0.35,0.27l0.56 4.27c0.02,0.15 -0.07,0.29 -0.21,0.34l0 0.02 0.58 5.3 2.83 8.73 2.13 6.04c0.06,0.16 -0.03,0.34 -0.19,0.4 -0.17,0.06 -0.35,-0.03 -0.41,-0.19l-2.13 -6.04 0 -0.01 -2.84 -8.76c-0.01,-0.02 -0.01,-0.04 -0.02,-0.07l-0.58 -5.33c-0.02,-0.16 0.07,-0.29 0.21,-0.34l0 -0.01 -0.56 -4.27zm1.81 0.05c-0.02,-0.17 0.1,-0.33 0.28,-0.35 0.17,-0.02 0.33,0.11 0.35,0.29l0.42 3.9c0.02,0.17 -0.1,0.32 -0.25,0.35 0.04,0.05 0.07,0.11 0.08,0.18l0.58 5.31 2.84 8.73 0 0.02 1.82 5.72c0.06,0.17 -0.04,0.34 -0.2,0.4 -0.17,0.05 -0.35,-0.04 -0.4,-0.21l-1.82 -5.72 -0.01 -0.02 -2.84 -8.76c-0.01,-0.02 -0.01,-0.04 -0.02,-0.06l-0.58 -5.34c-0.02,-0.17 0.09,-0.32 0.25,-0.35 -0.04,-0.05 -0.07,-0.11 -0.08,-0.18l-0.42 -3.91zm1.72 -0.21c-0.02,-0.18 0.11,-0.34 0.28,-0.36 0.18,-0.02 0.33,0.11 0.35,0.28l0.42 3.58c0.02,0.18 -0.11,0.34 -0.28,0.36 -0.17,0.02 -0.33,-0.11 -0.35,-0.28l-0.42 -3.58zm1.72 -0.22c-0.02,-0.18 0.09,-0.34 0.27,-0.37 0.17,-0.02 0.33,0.09 0.36,0.27l0.55 3.39c0.02,0.18 -0.1,0.34 -0.27,0.37 -0.17,0.02 -0.33,-0.09 -0.36,-0.27l-0.55 -3.39zm1.74 -0.25c-0.03,-0.18 0.09,-0.34 0.26,-0.37 0.17,-0.03 0.34,0.09 0.36,0.26l0.58 3.33c0.02,0.18 -0.09,0.34 -0.26,0.37 -0.18,0.03 -0.34,-0.09 -0.37,-0.26l-0.57 -3.33zm1.78 -0.28c-0.03,-0.17 0.08,-0.34 0.25,-0.37 0.17,-0.03 0.34,0.08 0.37,0.25l0.62 3.18c0.04,0.17 -0.07,0.34 -0.25,0.37 -0.17,0.03 -0.34,-0.08 -0.37,-0.25l-0.62 -3.18zm1.82 -0.3c-0.04,-0.17 0.07,-0.34 0.24,-0.38 0.17,-0.04 0.34,0.07 0.38,0.24l0.66 2.86c0.04,0.17 -0.07,0.34 -0.24,0.38 -0.17,0.04 -0.34,-0.07 -0.38,-0.24l-0.66 -2.86zm1.73 -0.33c-0.04,-0.17 0.07,-0.34 0.25,-0.37 0.17,-0.04 0.34,0.07 0.37,0.24l0.54 2.59c0.04,0.17 -0.07,0.34 -0.25,0.37 -0.17,0.04 -0.33,-0.07 -0.37,-0.24l-0.54 -2.59zm1.75 -0.35c-0.03,-0.17 0.07,-0.34 0.24,-0.38 0.18,-0.04 0.35,0.07 0.38,0.24l0.59 2.58c0.02,0.12 -0.02,0.24 -0.11,0.31 0.12,0.03 0.22,0.13 0.23,0.26l0.84 5.47 2.78 8.43 2.35 5.17c0.07,0.16 0,0.35 -0.16,0.42 -0.16,0.07 -0.35,0 -0.42,-0.16l-2.35 -5.17c0,-0.01 -0.01,-0.03 -0.02,-0.04l-2.79 -8.47c-0.01,-0.02 -0.01,-0.04 -0.01,-0.06l-0.84 -5.49c-0.02,-0.12 0.03,-0.23 0.11,-0.3 -0.11,-0.03 -0.2,-0.11 -0.23,-0.24l-0.59 -2.57zm1.77 -0.38c-0.04,-0.17 0.06,-0.35 0.22,-0.39 0.17,-0.05 0.35,0.05 0.39,0.22l0.62 2.31c0.05,0.17 -0.05,0.34 -0.22,0.39 -0.17,0.05 -0.34,-0.05 -0.39,-0.22l-0.62 -2.31zm1.64 -0.41c-0.05,-0.17 0.06,-0.34 0.23,-0.39 0.16,-0.04 0.34,0.06 0.38,0.23l0.57 2.23c0.04,0.16 -0.06,0.34 -0.23,0.38 -0.17,0.04 -0.34,-0.06 -0.38,-0.23l-0.57 -2.22zm1.77 -0.48c-0.04,-0.17 0.05,-0.35 0.22,-0.39 0.17,-0.05 0.35,0.05 0.39,0.22l0.5 1.76c0.05,0.17 -0.05,0.34 -0.22,0.39 -0.17,0.04 -0.34,-0.05 -0.39,-0.22l-0.5 -1.76zm3.44 -1.14c-0.06,-0.17 0.03,-0.35 0.2,-0.4 0.16,-0.06 0.34,0.03 0.4,0.2l0.14 0.4c0.05,0.16 -0.04,0.34 -0.2,0.4 -0.17,0.06 -0.35,-0.03 -0.41,-0.2l-0.13 -0.4zm-3.74 4.16c-0.04,-0.17 0.07,-0.34 0.24,-0.37 0.17,-0.04 0.34,0.07 0.38,0.24l1.17 5.25 2.94 8.39 2.8 5.06c0.08,0.16 0.03,0.35 -0.13,0.43 -0.15,0.09 -0.34,0.03 -0.43,-0.12l-2.81 -5.09 0 0c0,-0.01 -0.01,-0.03 -0.02,-0.04l-2.95 -8.43 0 0 -0.01 -0.04 -1.18 -5.28zm3.95 -2.1c-0.04,-0.17 0.06,-0.34 0.23,-0.38 0.17,-0.05 0.35,0.05 0.39,0.22 0.2,0.79 0.47,1.7 0.78,2.63 0.29,0.86 0.61,1.74 0.95,2.56 0.44,1.06 0.83,2.08 1.2,3.07 0.63,1.68 1.23,3.28 2.04,4.89 0.67,1.33 1.29,2.39 1.91,3.43 0.19,0.32 0.38,0.63 0.58,0.99 0.09,0.15 0.04,0.35 -0.11,0.44 -0.15,0.08 -0.35,0.03 -0.44,-0.12 -0.18,-0.31 -0.38,-0.65 -0.58,-0.99 -0.61,-1.04 -1.24,-2.09 -1.93,-3.47 -0.82,-1.65 -1.43,-3.26 -2.06,-4.94 -0.37,-0.98 -0.75,-1.99 -1.19,-3.06 -0.35,-0.82 -0.68,-1.72 -0.97,-2.6 -0.31,-0.94 -0.59,-1.86 -0.8,-2.67zm1.37 -1.09c-0.06,-0.16 0.04,-0.34 0.2,-0.39 0.17,-0.06 0.35,0.03 0.4,0.2l1.71 5.14 3.45 7.96 2.29 4.21c0.08,0.15 0.02,0.34 -0.13,0.43 -0.15,0.08 -0.35,0.02 -0.43,-0.13l-2.29 -4.22 0 0 -0.02 -0.02 -3.46 -7.99 -0.01 -0.03 -1.71 -5.16zm-56.37 10.78c0,-0.18 0.14,-0.32 0.31,-0.33 0.18,0 0.32,0.14 0.32,0.31 0.04,1.26 0.06,2.47 0.09,3.64 0.11,5.54 0.21,10.39 0.85,16.89 0.02,0.17 -0.11,0.33 -0.29,0.35 -0.17,0.02 -0.33,-0.11 -0.34,-0.29 -0.64,-6.52 -0.74,-11.38 -0.86,-16.94 -0.02,-1.17 -0.05,-2.37 -0.08,-3.63zm1.71 -0.08c0,-0.17 0.14,-0.32 0.31,-0.32 0.18,0 0.32,0.14 0.32,0.32 0.05,4.37 0.14,8.13 0.32,11.52 0.18,3.39 0.45,6.4 0.84,9.27 0.02,0.18 -0.1,0.34 -0.27,0.36 -0.18,0.02 -0.34,-0.1 -0.36,-0.27 -0.39,-2.9 -0.66,-5.92 -0.84,-9.32 -0.18,-3.39 -0.27,-7.17 -0.32,-11.56zm6.6 -0.44c0,-0.17 0.13,-0.32 0.31,-0.32 0.17,-0.01 0.32,0.13 0.32,0.3 0.12,3.86 0.27,7.2 0.63,10.53 0.35,3.32 0.91,6.62 1.83,10.37 0.04,0.17 -0.07,0.34 -0.24,0.39 -0.17,0.04 -0.34,-0.07 -0.38,-0.24 -0.93,-3.79 -1.49,-7.11 -1.84,-10.45 -0.36,-3.34 -0.51,-6.7 -0.63,-10.58zm1.61 -0.12c-0.01,-0.17 0.13,-0.32 0.3,-0.33 0.18,-0.01 0.33,0.12 0.34,0.3 0.04,0.76 0.08,1.52 0.12,2.26 0.36,6.5 0.67,12.13 2.68,18.74 0.05,0.17 -0.04,0.34 -0.21,0.39 -0.17,0.05 -0.34,-0.04 -0.39,-0.21 -2.04,-6.68 -2.35,-12.35 -2.71,-18.89 -0.04,-0.74 -0.08,-1.49 -0.13,-2.26zm1.61 -0.06c0,-0.18 0.13,-0.32 0.3,-0.33 0.18,-0.01 0.33,0.12 0.34,0.3 0.22,4.25 0.53,8.07 1.01,11.51 0.49,3.43 1.15,6.48 2.1,9.21 0.05,0.16 -0.04,0.34 -0.2,0.4 -0.17,0.06 -0.35,-0.03 -0.4,-0.2 -0.96,-2.77 -1.63,-5.86 -2.12,-9.32 -0.49,-3.46 -0.8,-7.3 -1.03,-11.57zm4.93 0.06c-0.02,-0.18 0.11,-0.33 0.28,-0.35 0.18,-0.01 0.33,0.11 0.35,0.29l0.55 5.8 0 0c0.2,1.65 0.44,3.18 0.7,4.63 0.26,1.45 0.56,2.83 0.87,4.17l1.59 5.63c0.05,0.17 -0.05,0.35 -0.22,0.39 -0.17,0.05 -0.34,-0.05 -0.39,-0.22l-1.59 -5.64c-0.32,-1.33 -0.62,-2.74 -0.88,-4.22m-1.26 -10.48l0.55 5.81 0 0c0.2,1.64 0.44,3.19 0.71,4.67m1.49 4.06l0 0m-0.66 -9.29l0 -0.01m3.02 -6.08c-0.01,-0.17 0.13,-0.32 0.3,-0.33 0.18,-0.01 0.33,0.13 0.34,0.3l0.3 5.77c0.39,1.68 0.76,3.24 1.11,4.7 0.35,1.44 0.7,2.85 1.05,4.24l0.01 0.01 1.69 5.79c0.05,0.16 -0.05,0.34 -0.22,0.39 -0.17,0.05 -0.34,-0.05 -0.39,-0.22l-1.69 -5.78 -0.01 -0.04c-0.33,-1.29 -0.68,-2.7 -1.06,-4.24 -0.36,-1.52 -0.73,-3.09 -1.11,-4.73l0 -0.01 0 0c-0.01,-0.02 -0.01,-0.04 -0.01,-0.05l-0.31 -5.8zm1.58 -0.04c-0.01,-0.18 0.12,-0.33 0.3,-0.34 0.17,0 0.32,0.13 0.33,0.3l0.32 5.54c0.35,1.58 0.73,3.15 1.15,4.68 0.41,1.54 0.85,3.04 1.32,4.49l0 0 0 0 1.65 5.53c0.05,0.17 -0.04,0.35 -0.21,0.4 -0.17,0.05 -0.35,-0.05 -0.4,-0.22l-1.64 -5.52 0 0c-0.48,-1.47 -0.92,-2.98 -1.34,-4.52 -0.41,-1.52 -0.79,-3.09 -1.15,-4.72 -0.01,-0.02 -0.01,-0.04 -0.01,-0.07l-0.32 -5.55zm1.66 -0.37c-0.01,-0.18 0.13,-0.33 0.3,-0.34 0.18,-0.01 0.33,0.13 0.34,0.3l0.35 5.78c0.48,1.62 0.87,3.14 1.24,4.61 0.37,1.44 0.72,2.83 1.13,4.15l0 0.01 1.72 5.98c0.05,0.17 -0.05,0.34 -0.21,0.39 -0.17,0.05 -0.35,-0.05 -0.4,-0.22l-1.72 -5.98 0 0c-0.42,-1.37 -0.77,-2.75 -1.13,-4.18 -0.38,-1.47 -0.77,-3 -1.25,-4.61l0 0c-0.01,-0.03 -0.01,-0.05 -0.01,-0.08l-0.36 -5.81zm10.98 -1.3c-0.02,-0.17 0.11,-0.33 0.28,-0.35 0.18,-0.02 0.33,0.11 0.35,0.28l0.6 5.3 2.82 8.58 1.83 5.58c0.05,0.17 -0.04,0.34 -0.21,0.4 -0.17,0.05 -0.34,-0.04 -0.4,-0.21l-1.83 -5.57 -2.82 -8.61c-0.01,-0.02 -0.02,-0.04 -0.02,-0.07l-0.6 -5.33zm1.45 -0.48c-0.02,-0.18 0.1,-0.34 0.28,-0.36 0.17,-0.02 0.33,0.1 0.35,0.28l0.68 5.29 2.83 8.68 0 0.01 2.06 5.54c0.07,0.17 -0.02,0.35 -0.18,0.41 -0.17,0.06 -0.35,-0.02 -0.41,-0.19l-2.06 -5.54 -0.01 -0.03 -2.85 -8.71 0.01 0c-0.01,-0.02 -0.01,-0.04 -0.02,-0.06l-0.68 -5.32zm1.59 -0.36c-0.02,-0.18 0.09,-0.34 0.27,-0.36 0.17,-0.03 0.33,0.09 0.36,0.26l0.8 5.29 2.73 8.61 2.32 5.68c0.07,0.16 -0.01,0.34 -0.17,0.41 -0.16,0.07 -0.35,-0.01 -0.41,-0.17l-2.33 -5.68c0,-0.01 -0.01,-0.03 -0.02,-0.05l-2.73 -8.63 0 0 -0.01 -0.01c0,-0.01 0,-0.03 -0.01,-0.04l-0.8 -5.31zm1.64 -0.27c-0.02,-0.17 0.1,-0.33 0.27,-0.36 0.17,-0.03 0.34,0.09 0.36,0.27l0.76 5.02 2.71 8.59 2.5 5.78c0.07,0.16 0,0.35 -0.16,0.42 -0.16,0.07 -0.35,-0.01 -0.42,-0.17l-2.5 -5.78c-0.01,-0.02 -0.02,-0.03 -0.02,-0.05l-2.72 -8.61 0 -0.01c-0.01,-0.02 -0.01,-0.03 -0.02,-0.05l-0.76 -5.05zm1.61 -0.36c-0.03,-0.17 0.09,-0.33 0.26,-0.36 0.18,-0.02 0.34,0.1 0.37,0.27l0.75 5.02 2.75 8.53 2.46 5.57c0.07,0.16 0,0.35 -0.16,0.42 -0.16,0.07 -0.35,-0.01 -0.42,-0.17l-2.46 -5.57 0 0 -0.01 -0.03 -2.76 -8.57c-0.01,-0.02 -0.02,-0.04 -0.02,-0.07l-0.76 -5.04zm1.66 -0.53c-0.03,-0.17 0.09,-0.33 0.27,-0.36 0.17,-0.03 0.33,0.09 0.36,0.27l0.74 5.11 2.78 8.48 2.28 5.31c0.07,0.16 -0.01,0.34 -0.17,0.41 -0.16,0.07 -0.35,0 -0.42,-0.16l-2.28 -5.32 0 0 -0.01 -0.02 -2.78 -8.52c-0.01,-0.02 -0.02,-0.04 -0.02,-0.07l-0.75 -5.13zm1.59 -0.59c-0.02,-0.18 0.1,-0.34 0.27,-0.36 0.18,-0.02 0.34,0.1 0.36,0.27l0.73 5.19 2.8 8.51 2.26 5.42c0.07,0.16 -0.01,0.35 -0.17,0.42 -0.16,0.06 -0.35,-0.01 -0.42,-0.17l-2.26 -5.43 -0.01 -0.03 -2.81 -8.55c0,-0.02 -0.01,-0.04 -0.01,-0.06l-0.74 -5.21zm3.57 13.85l0 0m-0.53 -14.9c-0.03,-0.17 0.09,-0.33 0.26,-0.36 0.18,-0.02 0.34,0.1 0.36,0.27l0.8 5.35 2.92 8.7 2.4 4.86c0.08,0.16 0.02,0.35 -0.14,0.43 -0.16,0.07 -0.35,0.01 -0.43,-0.15l-2.4 -4.88c-0.01,-0.01 -0.02,-0.02 -0.02,-0.04l-2.93 -8.73c-0.01,-0.02 -0.02,-0.05 -0.02,-0.07l-0.8 -5.38zm1.39 -0.39c-0.03,-0.17 0.08,-0.34 0.25,-0.37 0.18,-0.03 0.34,0.08 0.38,0.25l0.99 5.14 2.77 8.42 2.73 5.52c0.08,0.15 0.02,0.34 -0.14,0.42 -0.16,0.08 -0.35,0.01 -0.42,-0.14l-2.74 -5.53c-0.01,-0.02 -0.02,-0.04 -0.03,-0.06l-2.78 -8.45 0 -0.04 -1.01 -5.16zm2.53 -0.77c-0.04,-0.17 0.06,-0.35 0.23,-0.39 0.16,-0.05 0.34,0.06 0.38,0.22l1.39 5.26 2.92 7.95 2.69 5.14c0.09,0.15 0.03,0.34 -0.13,0.42 -0.15,0.09 -0.35,0.03 -0.43,-0.13l-2.69 -5.14c-0.01,-0.01 -0.02,-0.03 -0.03,-0.05l-2.93 -7.98 0.01 0 -0.01 -0.03 -1.4 -5.27zm1.29 -0.8c-0.06,-0.17 0.04,-0.35 0.2,-0.4 0.17,-0.05 0.35,0.04 0.4,0.21l1.7 5.32 0 0 3.08 8.03 2.61 4.56c0.09,0.15 0.04,0.35 -0.11,0.43 -0.16,0.09 -0.35,0.04 -0.44,-0.12l-2.62 -4.58c-0.01,-0.01 -0.02,-0.03 -0.02,-0.04l-3.09 -8.06 0 0 -0.01 -0.01 -1.7 -5.34zm-58.4 8.94c-0.01,-0.18 0.13,-0.32 0.31,-0.33 0.17,0 0.32,0.14 0.32,0.32 0.05,2.54 0.05,4.88 0.05,7.19 0.01,4.32 0.01,8.51 0.3,13.68 0.01,0.18 -0.12,0.33 -0.3,0.34 -0.17,0.01 -0.32,-0.13 -0.33,-0.3 -0.29,-5.17 -0.3,-9.38 -0.3,-13.72 0,-2.3 -0.01,-4.64 -0.05,-7.18zm1.54 -0.27c-0.01,-0.18 0.13,-0.32 0.3,-0.33 0.18,-0.01 0.32,0.13 0.33,0.31 0.12,3.28 0.12,6.18 0.13,9 0,3.84 0.01,7.53 0.31,11.92 0.01,0.17 -0.12,0.33 -0.3,0.34 -0.17,0.01 -0.32,-0.12 -0.33,-0.3 -0.3,-4.38 -0.31,-8.1 -0.32,-11.96 0,-2.81 0,-5.69 -0.12,-8.98zm-59.74 -11.27c0.06,-0.16 0.24,-0.25 0.41,-0.19 0.16,0.06 0.24,0.25 0.19,0.41l-0.41 1.09c-0.05,0.17 -0.24,0.25 -0.4,0.19 -0.17,-0.06 -0.25,-0.24 -0.19,-0.4l0.4 -1.1zm57.26 6.04c0,-0.18 0.14,-0.32 0.32,-0.32 0.17,0 0.31,0.15 0.31,0.32l-0.04 4.81c0,0.17 -0.15,0.31 -0.32,0.31 -0.18,0 -0.32,-0.14 -0.32,-0.32l0.05 -4.8zm-1.64 -0.16c0,-0.17 0.14,-0.31 0.32,-0.31 0.17,0 0.31,0.14 0.31,0.31l0.01 4.94c0,0.17 -0.14,0.31 -0.31,0.31 -0.18,0 -0.32,-0.14 -0.32,-0.31l-0.01 -4.94zm-1.7 0.02c0.01,-0.18 0.16,-0.31 0.33,-0.31 0.18,0.01 0.31,0.15 0.31,0.33l-0.15 4.87c0,0.18 -0.15,0.31 -0.33,0.31 -0.17,0 -0.31,-0.15 -0.3,-0.33l0.14 -4.87zm-1.88 -0.21c0.01,-0.17 0.16,-0.31 0.33,-0.3 0.17,0 0.31,0.15 0.3,0.33l-0.21 5.03c-0.01,0.18 -0.16,0.31 -0.33,0.31 -0.18,-0.01 -0.31,-0.16 -0.31,-0.33l0.22 -5.04zm-2.09 0.26c0.01,-0.17 0.15,-0.31 0.33,-0.31 0.17,0 0.31,0.15 0.31,0.32l-0.11 4.73c0,0.13 -0.08,0.23 -0.18,0.28 0.08,0.06 0.14,0.15 0.13,0.26 -0.05,4.97 -0.19,8.71 -0.42,11.96 -0.23,3.24 -0.55,6 -0.95,8.99 -0.03,0.17 -0.18,0.29 -0.36,0.27 -0.17,-0.03 -0.29,-0.19 -0.27,-0.36 0.4,-2.96 0.72,-5.7 0.95,-8.95 0.23,-3.25 0.37,-6.98 0.42,-11.91 0,-0.13 0.07,-0.23 0.18,-0.28 -0.08,-0.06 -0.14,-0.16 -0.14,-0.27l0.11 -4.73zm-1.74 -0.19c0.01,-0.18 0.15,-0.32 0.33,-0.31 0.17,0.01 0.31,0.15 0.31,0.33l-0.16 4.86c0,0.04 -0.01,0.07 -0.02,0.1 0.08,0.06 0.13,0.16 0.13,0.26 -0.02,4.06 -0.18,7.73 -0.46,11.18 -0.29,3.46 -0.71,6.72 -1.26,9.93 -0.03,0.18 -0.19,0.29 -0.36,0.26 -0.18,-0.03 -0.29,-0.19 -0.26,-0.36 0.54,-3.2 0.96,-6.44 1.24,-9.88 0.29,-3.46 0.44,-7.11 0.47,-11.13 0,-0.04 0.01,-0.07 0.02,-0.11 -0.08,-0.06 -0.14,-0.16 -0.13,-0.27l0.15 -4.86zm-2.03 0.1c0,-0.18 0.15,-0.32 0.32,-0.31 0.18,0 0.32,0.14 0.31,0.32l-0.08 4.7c0,0.03 0,0.07 -0.02,0.1 0.06,-0.04 0.13,-0.06 0.2,-0.06 0.18,0 0.31,0.15 0.31,0.32 -0.12,4.02 -0.29,7.67 -0.61,11.14 -0.32,3.47 -0.8,6.76 -1.57,10.05 -0.03,0.17 -0.21,0.27 -0.38,0.23 -0.17,-0.04 -0.27,-0.21 -0.23,-0.38 0.76,-3.26 1.24,-6.52 1.55,-9.96 0.32,-3.45 0.48,-7.08 0.61,-11.09 0,-0.04 0.01,-0.07 0.02,-0.11 -0.06,0.05 -0.12,0.07 -0.2,0.07 -0.17,-0.01 -0.31,-0.15 -0.31,-0.32l0.08 -4.7zm-1.83 -0.07c0.01,-0.18 0.16,-0.31 0.33,-0.3 0.18,0 0.31,0.15 0.31,0.33l-0.21 4.67c-0.01,0.18 -0.16,0.31 -0.33,0.31 -0.18,-0.01 -0.31,-0.16 -0.31,-0.33l0.21 -4.68zm-1.81 -0.07c0.01,-0.18 0.17,-0.31 0.34,-0.3 0.18,0.01 0.31,0.16 0.3,0.34l-0.3 4.65c-0.01,0.17 -0.16,0.31 -0.34,0.3 -0.17,-0.02 -0.31,-0.17 -0.29,-0.34l0.29 -4.65zm-1.84 -0.09c0.01,-0.17 0.17,-0.3 0.34,-0.29 0.18,0.01 0.31,0.17 0.3,0.34l-0.36 4.63c-0.01,0.18 -0.16,0.31 -0.34,0.29l0 0c0,0.03 0.01,0.06 0.01,0.09 -0.16,3.73 -0.45,7.28 -0.99,10.73l0.01 0c-0.54,3.45 -1.32,6.81 -2.46,10.17 -0.05,0.17 -0.24,0.26 -0.4,0.2 -0.17,-0.05 -0.26,-0.23 -0.2,-0.4 1.13,-3.32 1.9,-6.65 2.43,-10.07l0 0 0 0c0.53,-3.42 0.81,-6.94 0.97,-10.66 0.01,-0.17 0.16,-0.31 0.33,-0.3l0.01 0c0,-0.03 -0.01,-0.06 0,-0.1l0.35 -4.63zm-1.83 -0.08c0.01,-0.18 0.16,-0.31 0.34,-0.29 0.17,0.01 0.31,0.16 0.29,0.33l-0.32 4.61c-0.02,0.18 -0.17,0.31 -0.34,0.3l-0.03 -0.01c0.05,0.06 0.07,0.14 0.07,0.22 -0.18,3.53 -0.49,7.04 -1.05,10.49 -0.55,3.47 -1.35,6.87 -2.48,10.17 -0.06,0.17 -0.24,0.26 -0.41,0.2 -0.16,-0.06 -0.25,-0.24 -0.19,-0.4 1.12,-3.28 1.91,-6.64 2.46,-10.06 0.55,-3.43 0.86,-6.92 1.04,-10.43 0,-0.18 0.15,-0.31 0.33,-0.3l0.03 0c-0.05,-0.06 -0.07,-0.14 -0.07,-0.22l0.33 -4.61zm-1.9 -0.1c0.01,-0.17 0.16,-0.31 0.34,-0.29 0.17,0.01 0.31,0.16 0.29,0.33l-0.31 4.58c-0.02,0.18 -0.17,0.31 -0.34,0.3 -0.18,-0.01 -0.31,-0.16 -0.3,-0.34l0.32 -4.58zm-1.9 -0.12c0.01,-0.17 0.17,-0.3 0.34,-0.28 0.17,0.01 0.3,0.17 0.29,0.34l-0.41 4.54 0 0.04c0.02,0 0.04,0 0.06,0 0.18,0.01 0.31,0.16 0.3,0.34l-0.39 5.66 0 0.03c-0.25,1.7 -0.53,3.34 -0.85,4.88 -0.31,1.55 -0.67,3 -1.06,4.35l0 0 -1.59 5.66c-0.04,0.17 -0.22,0.27 -0.39,0.22 -0.17,-0.04 -0.26,-0.22 -0.22,-0.39l1.59 -5.66 0 0 0 -0.01c0.39,-1.33 0.74,-2.77 1.05,-4.29 0.31,-1.52 0.59,-3.14 0.84,-4.84l0.39 -5.65c0,-0.02 0,-0.04 0,-0.05 -0.02,0 -0.05,0 -0.07,0 -0.18,-0.01 -0.3,-0.17 -0.29,-0.34l0.41 -4.55zm-1.86 -0.12c0.01,-0.17 0.17,-0.3 0.34,-0.28 0.18,0.01 0.31,0.17 0.29,0.34l-0.42 4.47c0.06,-0.09 0.16,-0.14 0.27,-0.13 0.18,0.01 0.31,0.16 0.3,0.34l-0.44 6.13c0,0.01 -0.01,0.03 -0.01,0.04 -0.25,1.57 -0.54,3.08 -0.88,4.54 -0.33,1.48 -0.71,2.89 -1.13,4.23l0 0.01 -1.77 5.95c-0.05,0.16 -0.22,0.26 -0.39,0.21 -0.17,-0.05 -0.27,-0.23 -0.22,-0.39l1.77 -5.95 0.01 -0.02c0.42,-1.33 0.79,-2.73 1.12,-4.17 0.33,-1.45 0.61,-2.95 0.86,-4.51l0.44 -6.08c-0.06,0.09 -0.17,0.14 -0.28,0.13 -0.18,-0.02 -0.3,-0.17 -0.29,-0.35l0.43 -4.51zm-1.85 -0.12c0.01,-0.18 0.16,-0.31 0.34,-0.29 0.17,0.01 0.3,0.17 0.29,0.34l-0.38 4.47c-0.02,0.18 -0.17,0.31 -0.35,0.29 -0.17,-0.01 -0.3,-0.16 -0.29,-0.34l0.39 -4.47zm-1.84 -0.14c0.01,-0.18 0.17,-0.31 0.34,-0.29 0.18,0.01 0.31,0.17 0.29,0.34l-0.37 4.43c-0.02,0.18 -0.17,0.31 -0.34,0.29 -0.18,-0.01 -0.31,-0.16 -0.3,-0.34l0.38 -4.43zm-1.76 -0.14c0.01,-0.18 0.16,-0.31 0.34,-0.3 0.17,0.02 0.3,0.17 0.29,0.34l-0.34 4.39c-0.02,0.18 -0.17,0.31 -0.34,0.29 -0.07,0 -0.14,-0.03 -0.19,-0.07l-0.56 5.78c0,0.02 -0.01,0.04 -0.01,0.06l0 0 -2.61 8.88 -0.01 0.02 -1.66 5.77c-0.05,0.17 -0.22,0.26 -0.39,0.22 -0.17,-0.05 -0.27,-0.23 -0.22,-0.39l1.66 -5.78 0.01 -0.02 2.6 -8.85 0.57 -5.81c0.01,-0.17 0.17,-0.3 0.34,-0.28 0.07,0 0.13,0.03 0.18,0.07l0.34 -4.32zm-1.65 -0.31c0.01,-0.17 0.17,-0.3 0.34,-0.28 0.18,0.02 0.3,0.17 0.29,0.35l-0.45 4.47c-0.02,0.17 -0.18,0.3 -0.35,0.29 -0.04,-0.01 -0.08,-0.02 -0.11,-0.04l-0.53 5.41c-0.01,0.02 -0.01,0.04 -0.02,0.06l0 0 -2.68 9.14 -0.01 0 -1.8 5.84c-0.05,0.17 -0.23,0.26 -0.4,0.21 -0.16,-0.05 -0.26,-0.23 -0.21,-0.39l1.81 -5.84 0 0 2.68 -9.11 0.53 -5.43c0.02,-0.18 0.18,-0.3 0.35,-0.29 0.04,0.01 0.08,0.02 0.11,0.03l0.45 -4.42zm-1.81 -0.03c0.02,-0.18 0.18,-0.3 0.35,-0.28 0.17,0.01 0.3,0.17 0.28,0.35l-0.45 4.24c-0.02,0.13 -0.1,0.23 -0.21,0.27 0.03,0.06 0.04,0.12 0.04,0.19l-0.54 5.45c-0.01,0.03 -0.01,0.05 -0.02,0.07l0 0 -2.84 8.76 0 0.02 -1.83 5.68c-0.05,0.16 -0.23,0.26 -0.4,0.2 -0.16,-0.05 -0.26,-0.23 -0.2,-0.4l1.82 -5.68 0.01 -0.01 2.83 -8.73 0.54 -5.42c0.01,-0.13 0.09,-0.23 0.21,-0.27 -0.04,-0.06 -0.05,-0.12 -0.04,-0.19l0.45 -4.25zm-1.61 -0.36c0.01,-0.18 0.17,-0.3 0.34,-0.29 0.18,0.02 0.3,0.18 0.29,0.35l-0.46 4.41c-0.01,0.07 -0.04,0.14 -0.09,0.19l-0.58 5.6c0,0.03 -0.01,0.05 -0.01,0.07l-2.85 8.76 -1.95 5.94c-0.05,0.16 -0.23,0.25 -0.4,0.2 -0.17,-0.05 -0.26,-0.23 -0.2,-0.4l1.95 -5.93 2.83 -8.74 0.59 -5.6c0,-0.07 0.04,-0.14 0.08,-0.18l0.46 -4.38zm-1.62 -0.25c0.03,-0.17 0.19,-0.3 0.36,-0.27 0.17,0.02 0.29,0.18 0.27,0.35l-0.56 4.27 0 0.01c0.14,0.05 0.23,0.18 0.22,0.34l-0.59 5.33c0,0.03 -0.01,0.05 -0.01,0.07l-2.85 8.76 0 0.01 -2.13 6.04c-0.05,0.16 -0.23,0.25 -0.4,0.19 -0.16,-0.06 -0.25,-0.24 -0.19,-0.4l2.12 -6.04 2.83 -8.73 0.59 -5.3 0 -0.02c-0.14,-0.05 -0.23,-0.19 -0.21,-0.34l0.55 -4.27zm-1.8 0.07c0.02,-0.18 0.17,-0.31 0.35,-0.29 0.17,0.02 0.3,0.18 0.28,0.35l-0.42 3.91c-0.01,0.07 -0.04,0.13 -0.09,0.18 0.16,0.03 0.28,0.18 0.26,0.35l-0.59 5.34c0,0.02 -0.01,0.04 -0.01,0.06l-2.85 8.76 0 0.02 -1.82 5.72c-0.06,0.17 -0.23,0.26 -0.4,0.21 -0.17,-0.06 -0.26,-0.23 -0.21,-0.4l1.82 -5.72 0.01 -0.02 2.84 -8.73 0.58 -5.31c0,-0.07 0.04,-0.13 0.08,-0.18 -0.16,-0.03 -0.27,-0.18 -0.25,-0.35l0.42 -3.9zm-1.73 -0.23c0.02,-0.17 0.18,-0.3 0.35,-0.28 0.18,0.02 0.3,0.18 0.28,0.36l-0.41 3.58c-0.02,0.17 -0.18,0.3 -0.35,0.28 -0.18,-0.02 -0.3,-0.18 -0.28,-0.36l0.41 -3.58zm-1.71 -0.24c0.02,-0.18 0.19,-0.29 0.36,-0.27 0.17,0.03 0.29,0.19 0.26,0.37l-0.54 3.39c-0.03,0.18 -0.19,0.29 -0.37,0.27 -0.17,-0.03 -0.29,-0.19 -0.26,-0.37l0.55 -3.39zm-1.74 -0.26c0.03,-0.17 0.19,-0.29 0.37,-0.26 0.17,0.03 0.29,0.19 0.26,0.37l-0.57 3.33c-0.03,0.17 -0.2,0.29 -0.37,0.26 -0.17,-0.03 -0.29,-0.19 -0.26,-0.37l0.57 -3.33zm-1.78 -0.29c0.04,-0.17 0.2,-0.28 0.37,-0.25 0.18,0.03 0.29,0.2 0.26,0.37l-0.62 3.18c-0.04,0.17 -0.2,0.28 -0.38,0.25 -0.17,-0.03 -0.28,-0.2 -0.25,-0.37l0.62 -3.18zm-1.82 -0.32c0.04,-0.17 0.21,-0.28 0.38,-0.24 0.17,0.04 0.28,0.21 0.24,0.38l-0.66 2.86c-0.04,0.17 -0.21,0.28 -0.38,0.24 -0.17,-0.04 -0.27,-0.21 -0.23,-0.38l0.65 -2.86zm-1.73 -0.32c0.04,-0.17 0.21,-0.28 0.38,-0.24 0.17,0.03 0.28,0.2 0.25,0.37l-0.54 2.59c-0.04,0.17 -0.21,0.28 -0.38,0.24 -0.17,-0.03 -0.28,-0.2 -0.24,-0.37l0.53 -2.59zm-1.75 -0.36c0.04,-0.17 0.21,-0.28 0.38,-0.24 0.17,0.04 0.28,0.21 0.24,0.38l-0.58 2.57c-0.03,0.13 -0.12,0.21 -0.24,0.24 0.09,0.07 0.14,0.18 0.12,0.3l-0.84 5.49c0,0.02 -0.01,0.04 -0.01,0.06l-2.8 8.47c0,0.01 -0.01,0.03 -0.02,0.04l-2.34 5.17c-0.07,0.16 -0.26,0.23 -0.42,0.16 -0.16,-0.07 -0.23,-0.26 -0.16,-0.42l2.34 -5.17 2.79 -8.43 0.83 -5.47c0.02,-0.13 0.12,-0.23 0.24,-0.26 -0.09,-0.07 -0.14,-0.19 -0.11,-0.31l0.58 -2.58zm-1.76 -0.41c0.05,-0.17 0.22,-0.27 0.39,-0.22 0.17,0.04 0.27,0.22 0.23,0.39l-0.62 2.31c-0.05,0.17 -0.22,0.27 -0.39,0.22 -0.17,-0.05 -0.27,-0.22 -0.23,-0.39l0.62 -2.31zm-1.63 -0.4c0.04,-0.17 0.21,-0.27 0.38,-0.23 0.17,0.05 0.27,0.22 0.23,0.39l-0.57 2.22c-0.04,0.17 -0.22,0.27 -0.39,0.23 -0.17,-0.04 -0.27,-0.22 -0.23,-0.38l0.58 -2.23zm-1.78 -0.49c0.05,-0.17 0.22,-0.27 0.39,-0.22 0.17,0.04 0.27,0.22 0.22,0.39l-0.5 1.76c-0.04,0.17 -0.22,0.26 -0.39,0.22 -0.17,-0.05 -0.26,-0.22 -0.22,-0.39l0.5 -1.76zm-3.42 -1.17c0.05,-0.17 0.23,-0.26 0.4,-0.2 0.17,0.05 0.25,0.23 0.2,0.4l-0.14 0.4c-0.05,0.17 -0.23,0.26 -0.4,0.2 -0.17,-0.06 -0.26,-0.24 -0.2,-0.4l0.14 -0.4zm3.72 4.23c0.03,-0.17 0.2,-0.28 0.37,-0.24 0.18,0.03 0.28,0.2 0.25,0.37l-1.18 5.28 -0.02 0.04 0 0 -2.95 8.43c0,0.01 -0.01,0.03 -0.02,0.04l0 0 -2.81 5.09c-0.08,0.15 -0.27,0.21 -0.43,0.12 -0.15,-0.08 -0.21,-0.27 -0.12,-0.43l2.79 -5.06 2.94 -8.39 1.18 -5.25zm-3.95 -2.13c0.04,-0.17 0.21,-0.27 0.38,-0.22 0.17,0.04 0.27,0.21 0.23,0.38 -0.21,0.81 -0.48,1.73 -0.79,2.67 -0.3,0.88 -0.63,1.78 -0.97,2.6 -0.44,1.07 -0.82,2.08 -1.19,3.06 -0.64,1.68 -1.24,3.29 -2.07,4.94 -0.69,1.38 -1.31,2.43 -1.93,3.47 -0.2,0.34 -0.4,0.68 -0.58,0.99 -0.09,0.15 -0.28,0.2 -0.43,0.12 -0.15,-0.09 -0.21,-0.29 -0.12,-0.44 0.21,-0.36 0.4,-0.67 0.59,-0.99 0.61,-1.04 1.24,-2.1 1.91,-3.43 0.8,-1.61 1.4,-3.21 2.04,-4.89 0.37,-0.99 0.75,-2.01 1.19,-3.07 0.34,-0.82 0.67,-1.7 0.95,-2.56 0.32,-0.93 0.59,-1.84 0.79,-2.63zm-1.36 -1.12c0.06,-0.17 0.24,-0.26 0.4,-0.2 0.17,0.05 0.26,0.23 0.21,0.39l-1.72 5.16 -0.01 0.03 -3.46 7.99 -0.01 0.02 0 0 -2.3 4.22c-0.08,0.15 -0.27,0.21 -0.43,0.13 -0.15,-0.09 -0.21,-0.28 -0.12,-0.43l2.29 -4.21 3.45 -7.96 1.7 -5.14zm56.34 10.95c0,-0.17 0.15,-0.31 0.32,-0.31 0.18,0.01 0.32,0.15 0.32,0.33 -0.04,1.26 -0.06,2.46 -0.09,3.63 -0.11,5.56 -0.21,10.42 -0.85,16.94 -0.02,0.18 -0.18,0.31 -0.35,0.29 -0.17,-0.02 -0.3,-0.18 -0.28,-0.35 0.64,-6.5 0.74,-11.35 0.85,-16.89 0.03,-1.17 0.05,-2.38 0.08,-3.64zm-1.71 -0.06c0.01,-0.18 0.15,-0.32 0.32,-0.32 0.18,0 0.32,0.15 0.32,0.32 -0.05,4.39 -0.14,8.17 -0.32,11.56 -0.18,3.4 -0.45,6.42 -0.85,9.32 -0.02,0.17 -0.18,0.29 -0.35,0.27 -0.18,-0.02 -0.3,-0.18 -0.27,-0.36 0.39,-2.87 0.65,-5.88 0.83,-9.27 0.18,-3.39 0.28,-7.15 0.32,-11.52zm-6.6 -0.46c0.01,-0.17 0.15,-0.31 0.33,-0.3 0.17,0 0.31,0.15 0.31,0.32 -0.12,3.88 -0.28,7.24 -0.63,10.58 -0.36,3.34 -0.92,6.66 -1.85,10.45 -0.04,0.17 -0.21,0.28 -0.38,0.24 -0.17,-0.05 -0.27,-0.22 -0.23,-0.39 0.92,-3.75 1.47,-7.05 1.83,-10.37 0.35,-3.33 0.51,-6.67 0.62,-10.53zm-1.61 -0.13c0.01,-0.18 0.16,-0.31 0.33,-0.3 0.18,0.01 0.31,0.16 0.3,0.33 -0.04,0.77 -0.08,1.52 -0.12,2.26 -0.36,6.54 -0.68,12.21 -2.71,18.89 -0.05,0.17 -0.23,0.26 -0.4,0.21 -0.16,-0.05 -0.26,-0.22 -0.21,-0.39 2.02,-6.61 2.33,-12.24 2.68,-18.74 0.04,-0.74 0.09,-1.5 0.13,-2.26zm-1.61 -0.06c0.01,-0.18 0.16,-0.31 0.33,-0.3 0.18,0.01 0.31,0.15 0.3,0.33 -0.23,4.27 -0.53,8.11 -1.02,11.57 -0.49,3.46 -1.16,6.55 -2.12,9.32 -0.06,0.17 -0.24,0.26 -0.4,0.2 -0.17,-0.06 -0.26,-0.24 -0.2,-0.4 0.94,-2.73 1.61,-5.78 2.09,-9.21 0.49,-3.44 0.79,-7.26 1.02,-11.51zm-6.17 10.46c0.26,-1.45 0.49,-2.98 0.7,-4.63l0 0 0.55 -5.8c0.01,-0.18 0.17,-0.3 0.34,-0.29 0.17,0.02 0.3,0.17 0.29,0.35l-0.55 5.81 0 0 0 0c-0.2,1.64 -0.44,3.19 -0.71,4.67 -0.27,1.48 -0.57,2.89 -0.88,4.22l0 0.01 -1.59 5.63c-0.05,0.17 -0.23,0.27 -0.4,0.22 -0.16,-0.04 -0.26,-0.22 -0.22,-0.39l1.6 -5.63 0 0m0 0c0.31,-1.34 0.6,-2.72 0.87,-4.17m-0.21 -5.13l0 0.01m-3.66 -6.12c0.01,-0.17 0.16,-0.31 0.33,-0.3 0.18,0.01 0.31,0.16 0.3,0.33l-0.3 5.8c0,0.01 -0.01,0.03 -0.01,0.05l0 0 0 0.01c-0.38,1.64 -0.75,3.21 -1.12,4.73 -0.37,1.54 -0.72,2.95 -1.05,4.24l-0.01 0.04 -1.69 5.78c-0.05,0.17 -0.23,0.27 -0.4,0.22 -0.17,-0.05 -0.26,-0.23 -0.21,-0.39l1.69 -5.79 0 -0.01c0.36,-1.39 0.71,-2.8 1.06,-4.24 0.35,-1.46 0.72,-3.02 1.11,-4.7l0.3 -5.77zm-1.58 -0.05c0.01,-0.17 0.16,-0.3 0.34,-0.3 0.17,0.01 0.31,0.16 0.3,0.34l-0.32 5.55c0,0.03 -0.01,0.05 -0.01,0.07 -0.36,1.63 -0.75,3.2 -1.16,4.72 -0.41,1.54 -0.86,3.05 -1.33,4.52l0 0 -1.65 5.52c-0.05,0.17 -0.23,0.27 -0.39,0.22 -0.17,-0.05 -0.27,-0.23 -0.22,-0.4l1.65 -5.53 0 0 0 0c0.47,-1.45 0.91,-2.95 1.33,-4.49 0.41,-1.53 0.8,-3.1 1.15,-4.68l0.31 -5.54zm0.31 5.66c-0.04,0.14 -0.17,0.24 -0.32,0.23m-1.65 -6.26c0.01,-0.17 0.16,-0.31 0.33,-0.3 0.18,0.01 0.31,0.16 0.3,0.34l-0.35 5.81c0,0.03 -0.01,0.05 -0.01,0.08l0 0c-0.48,1.61 -0.88,3.14 -1.25,4.61 -0.37,1.43 -0.72,2.81 -1.13,4.18l0 0 -1.73 5.98c-0.05,0.17 -0.22,0.27 -0.39,0.22 -0.17,-0.05 -0.26,-0.22 -0.22,-0.39l1.73 -5.98 0 -0.01c0.4,-1.32 0.76,-2.71 1.12,-4.15 0.38,-1.47 0.77,-2.99 1.25,-4.61l0.35 -5.78zm-7.6 4.5c-0.05,0.14 -0.19,0.23 -0.34,0.22m-1.37 -0.35c-0.05,0.14 -0.19,0.23 -0.34,0.22m-1.33 -5.92c0.02,-0.17 0.18,-0.3 0.35,-0.28 0.18,0.02 0.3,0.18 0.28,0.35l-0.59 5.33c-0.01,0.03 -0.01,0.05 -0.02,0.07l-2.83 8.61 -1.83 5.57c-0.05,0.17 -0.23,0.26 -0.4,0.21 -0.16,-0.06 -0.25,-0.23 -0.2,-0.4l1.83 -5.58 2.82 -8.58 0.59 -5.3zm-1.44 -0.49c0.02,-0.18 0.18,-0.3 0.35,-0.28 0.17,0.02 0.3,0.18 0.27,0.36l-0.68 5.32c0,0.02 0,0.04 -0.01,0.06l0 0 -2.84 8.71 -0.01 0.03 -2.07 5.54c-0.06,0.17 -0.24,0.25 -0.4,0.19 -0.17,-0.06 -0.25,-0.24 -0.19,-0.41l2.06 -5.54 0.01 -0.01 2.83 -8.68 0.68 -5.29zm-1.59 -0.38c0.02,-0.17 0.18,-0.29 0.36,-0.26 0.17,0.02 0.29,0.18 0.26,0.36l-0.8 5.31c0,0.01 0,0.03 -0.01,0.04l0 0.01 0 0 -2.74 8.63c0,0.02 -0.01,0.04 -0.02,0.05l-2.32 5.68c-0.07,0.16 -0.25,0.24 -0.41,0.17 -0.17,-0.07 -0.24,-0.25 -0.18,-0.41l2.33 -5.68 2.73 -8.61 0.8 -5.29zm-1.65 -0.26c0.03,-0.18 0.19,-0.3 0.37,-0.27 0.17,0.03 0.29,0.19 0.26,0.36l-0.76 5.05c0,0.02 0,0.03 -0.01,0.05l0 0.01 -2.72 8.61c-0.01,0.02 -0.02,0.03 -0.03,0.05l-2.49 5.78c-0.07,0.16 -0.26,0.24 -0.42,0.17 -0.16,-0.07 -0.23,-0.26 -0.17,-0.42l2.5 -5.78 2.72 -8.59 0.75 -5.02zm-1.6 -0.36c0.03,-0.17 0.19,-0.29 0.36,-0.27 0.18,0.03 0.29,0.19 0.27,0.36l-0.76 5.04c-0.01,0.03 -0.01,0.05 -0.02,0.07l-2.76 8.57 -0.01 0.03 0 0 -2.47 5.57c-0.07,0.16 -0.26,0.24 -0.41,0.17 -0.17,-0.07 -0.24,-0.26 -0.17,-0.42l2.46 -5.57 2.75 -8.53 0.76 -5.02zm-1.66 -0.53c0.02,-0.18 0.19,-0.3 0.36,-0.27 0.17,0.03 0.29,0.19 0.27,0.36l-0.75 5.13c-0.01,0.03 -0.01,0.05 -0.02,0.07l-2.79 8.52 -0.01 0.02 0 0 -2.28 5.32c-0.07,0.16 -0.25,0.23 -0.42,0.16 -0.16,-0.07 -0.23,-0.25 -0.16,-0.41l2.28 -5.31 2.77 -8.48 0.75 -5.11zm-1.59 -0.59c0.02,-0.17 0.18,-0.29 0.35,-0.27 0.18,0.02 0.3,0.18 0.27,0.36l-0.73 5.21c-0.01,0.02 -0.01,0.04 -0.02,0.06l-2.8 8.55 -0.02 0.03 -2.26 5.43c-0.07,0.16 -0.25,0.23 -0.41,0.17 -0.16,-0.07 -0.24,-0.26 -0.17,-0.42l2.26 -5.42 2.79 -8.51 0.74 -5.19zm-2.94 13.94l-0.01 0m-0.09 -14.99c0.03,-0.17 0.19,-0.29 0.36,-0.27 0.17,0.03 0.3,0.19 0.27,0.36l-0.8 5.38c-0.01,0.02 -0.01,0.05 -0.02,0.07l-2.93 8.73c-0.01,0.02 -0.01,0.03 -0.02,0.04l-2.41 4.88c-0.08,0.16 -0.27,0.22 -0.42,0.15 -0.16,-0.08 -0.22,-0.27 -0.15,-0.43l2.4 -4.86 2.92 -8.7 0.8 -5.35zm-1.39 -0.42c0.03,-0.17 0.2,-0.28 0.37,-0.25 0.17,0.03 0.29,0.2 0.25,0.37l-1 5.16 -0.01 0.04 -2.78 8.45c-0.01,0.02 -0.01,0.04 -0.02,0.06l-2.74 5.53c-0.08,0.15 -0.27,0.22 -0.42,0.14 -0.16,-0.08 -0.22,-0.27 -0.15,-0.42l2.73 -5.52 2.77 -8.42 1 -5.14zm-2.52 -0.82c0.05,-0.16 0.22,-0.27 0.39,-0.22 0.17,0.04 0.27,0.22 0.23,0.39l-1.4 5.27 -0.01 0.03 0 0 -2.92 7.98c-0.01,0.02 -0.02,0.04 -0.03,0.05l-2.7 5.14c-0.08,0.16 -0.27,0.22 -0.43,0.13 -0.15,-0.08 -0.21,-0.27 -0.13,-0.42l2.7 -5.14 2.91 -7.95 1.39 -5.26zm-1.27 -0.82c0.05,-0.17 0.23,-0.26 0.39,-0.21 0.17,0.05 0.26,0.23 0.21,0.4l-1.71 5.34 0 0.01 0 0 -3.09 8.06c-0.01,0.01 -0.01,0.03 -0.02,0.04l-2.63 4.58c-0.08,0.16 -0.28,0.21 -0.43,0.12 -0.15,-0.08 -0.21,-0.28 -0.12,-0.43l2.62 -4.56 3.08 -8.03 0 0 1.7 -5.32zm56.83 8.84c0,-0.17 0.14,-0.31 0.32,-0.31 0.17,0 0.31,0.15 0.31,0.32 -0.06,3.4 -0.08,6.3 -0.1,9.07 -0.02,3.87 -0.04,7.5 -0.18,11.87 -0.01,0.17 -0.15,0.31 -0.33,0.31 -0.17,-0.01 -0.31,-0.15 -0.31,-0.33 0.15,-4.37 0.17,-7.99 0.19,-11.86 0.02,-2.77 0.03,-5.68 0.1,-9.07z"/>
  <path class="fil1" d="M631.8 376.08c0,-0.18 0.15,-0.32 0.33,-0.31 0.17,0 0.31,0.15 0.3,0.32 -0.04,1.81 -0.06,3.52 -0.08,5.19 -0.07,4.97 -0.13,9.59 -0.76,15.39 -0.01,0.17 -0.17,0.3 -0.34,0.28 -0.18,-0.02 -0.3,-0.18 -0.29,-0.35 0.63,-5.78 0.69,-10.37 0.75,-15.33 0.03,-1.67 0.05,-3.39 0.09,-5.19zm6.49 0.01c0,-0.17 0.14,-0.32 0.31,-0.32 0.17,-0.01 0.32,0.13 0.32,0.31 0.05,1.8 0.07,3.52 0.09,5.19 0.06,4.96 0.13,9.55 0.75,15.33 0.02,0.17 -0.11,0.33 -0.28,0.35 -0.17,0.02 -0.33,-0.11 -0.35,-0.28 -0.63,-5.8 -0.69,-10.42 -0.75,-15.39 -0.02,-1.67 -0.05,-3.38 -0.09,-5.19zm54.89 -11.19c-0.06,-0.16 0.03,-0.35 0.19,-0.41 0.16,-0.06 0.35,0.03 0.41,0.19l0.4 1.1c0.06,0.16 -0.03,0.34 -0.19,0.4 -0.17,0.06 -0.35,-0.02 -0.41,-0.19l-0.4 -1.09zm-57.46 5.82c0,-0.17 0.14,-0.32 0.32,-0.32 0.17,0 0.32,0.14 0.32,0.32l0.04 4.8c0,0.18 -0.14,0.32 -0.31,0.32 -0.18,0 -0.32,-0.14 -0.32,-0.31l-0.05 -4.81zm1.96 -0.16c0,-0.17 0.14,-0.31 0.32,-0.31 0.17,0 0.31,0.14 0.31,0.31l0 4.94c0,0.17 -0.15,0.31 -0.32,0.31 -0.18,0 -0.32,-0.14 -0.32,-0.31l0.01 -4.94zm1.7 0.04c-0.01,-0.18 0.13,-0.32 0.3,-0.33 0.18,0 0.32,0.13 0.33,0.31l0.15 4.87c0,0.18 -0.13,0.33 -0.31,0.33 -0.18,0 -0.32,-0.13 -0.33,-0.31l-0.14 -4.87zm1.72 -0.2c-0.01,-0.18 0.13,-0.33 0.31,-0.33 0.17,-0.01 0.32,0.13 0.32,0.3l0.22 5.04c0.01,0.17 -0.13,0.32 -0.3,0.33 -0.18,0 -0.33,-0.13 -0.33,-0.31l-0.22 -5.03zm2.09 0.24c-0.01,-0.17 0.13,-0.32 0.31,-0.32 0.17,0 0.32,0.14 0.32,0.31l0.11 4.73c0,0.11 -0.05,0.21 -0.13,0.27 0.1,0.05 0.17,0.15 0.18,0.28 0.05,4.93 0.19,8.66 0.42,11.91 0.23,3.25 0.55,5.99 0.95,8.95 0.02,0.17 -0.1,0.33 -0.28,0.36 -0.17,0.02 -0.33,-0.1 -0.35,-0.27 -0.41,-2.99 -0.73,-5.75 -0.96,-8.99 -0.22,-3.25 -0.37,-6.99 -0.42,-11.96 0,-0.11 0.05,-0.2 0.13,-0.26 -0.1,-0.05 -0.17,-0.15 -0.17,-0.28l-0.11 -4.73zm1.74 -0.18c0,-0.18 0.13,-0.32 0.31,-0.33 0.17,-0.01 0.32,0.13 0.32,0.31l0.16 4.86c0,0.11 -0.05,0.21 -0.13,0.27 0.01,0.04 0.02,0.07 0.02,0.11 0.02,4.02 0.18,7.67 0.46,11.13 0.29,3.44 0.7,6.68 1.25,9.88 0.03,0.17 -0.09,0.33 -0.26,0.36 -0.17,0.03 -0.34,-0.08 -0.37,-0.26 -0.55,-3.21 -0.97,-6.47 -1.25,-9.93 -0.28,-3.45 -0.44,-7.12 -0.47,-11.18 0,-0.1 0.06,-0.2 0.14,-0.26 -0.02,-0.03 -0.02,-0.06 -0.02,-0.1l-0.16 -4.86zm2.03 0.09c0,-0.18 0.14,-0.32 0.31,-0.32 0.18,-0.01 0.32,0.13 0.32,0.31l0.08 4.7c0.01,0.17 -0.13,0.31 -0.31,0.32 -0.07,0 -0.14,-0.02 -0.19,-0.07 0.01,0.04 0.02,0.07 0.02,0.11 0.12,4.01 0.28,7.64 0.6,11.09 0.32,3.44 0.8,6.7 1.56,9.96 0.04,0.17 -0.07,0.34 -0.24,0.38 -0.17,0.04 -0.34,-0.06 -0.38,-0.23 -0.77,-3.29 -1.25,-6.58 -1.57,-10.05 -0.32,-3.47 -0.48,-7.12 -0.6,-11.14 -0.01,-0.17 0.13,-0.32 0.3,-0.32 0.08,0 0.15,0.02 0.2,0.06 -0.01,-0.03 -0.02,-0.07 -0.02,-0.1l-0.08 -4.7zm1.83 -0.05c-0.01,-0.18 0.13,-0.33 0.3,-0.33 0.18,-0.01 0.33,0.12 0.33,0.3l0.21 4.68c0.01,0.17 -0.13,0.32 -0.3,0.33 -0.18,0 -0.32,-0.13 -0.33,-0.31l-0.21 -4.67zm1.81 -0.06c-0.01,-0.18 0.12,-0.33 0.29,-0.34 0.18,-0.01 0.33,0.12 0.34,0.3l0.3 4.65c0.01,0.17 -0.12,0.32 -0.3,0.34 -0.17,0.01 -0.32,-0.13 -0.33,-0.3l-0.3 -4.65zm1.84 -0.08c-0.01,-0.17 0.12,-0.33 0.29,-0.34 0.18,-0.01 0.33,0.12 0.34,0.29l0.36 4.63c0,0.04 0,0.07 -0.01,0.1l0.01 0c0.18,-0.01 0.33,0.13 0.33,0.3 0.16,3.71 0.45,7.23 0.98,10.66 0.53,3.42 1.3,6.75 2.42,10.07 0.06,0.17 -0.03,0.35 -0.19,0.4 -0.17,0.06 -0.35,-0.03 -0.41,-0.2 -1.14,-3.36 -1.92,-6.72 -2.45,-10.17 -0.53,-3.44 -0.82,-6.99 -0.98,-10.73 0,-0.03 0,-0.06 0.01,-0.09l-0.01 0c-0.17,0.02 -0.32,-0.11 -0.34,-0.29l-0.35 -4.63zm1.83 -0.09c-0.01,-0.17 0.12,-0.32 0.3,-0.33 0.17,-0.02 0.32,0.11 0.33,0.29l0.33 4.61c0.01,0.08 -0.02,0.16 -0.07,0.22l0.04 0c0.17,-0.01 0.32,0.12 0.33,0.3 0.17,3.51 0.49,7 1.04,10.43 0.55,3.42 1.34,6.78 2.46,10.06 0.06,0.16 -0.03,0.34 -0.2,0.4 -0.16,0.06 -0.35,-0.03 -0.4,-0.2 -1.13,-3.3 -1.93,-6.7 -2.49,-10.17 -0.55,-3.45 -0.87,-6.96 -1.04,-10.49 -0.01,-0.08 0.02,-0.16 0.07,-0.22l-0.03 0.01c-0.18,0.01 -0.33,-0.12 -0.34,-0.3l-0.33 -4.61zm1.9 -0.1c-0.01,-0.17 0.12,-0.32 0.3,-0.33 0.17,-0.02 0.32,0.12 0.34,0.29l0.31 4.58c0.01,0.18 -0.12,0.33 -0.29,0.34 -0.18,0.01 -0.33,-0.12 -0.34,-0.3l-0.32 -4.58zm1.91 -0.1c-0.02,-0.17 0.11,-0.33 0.29,-0.34 0.17,-0.02 0.32,0.11 0.34,0.28l0.41 4.55c0.01,0.17 -0.12,0.33 -0.29,0.34 -0.03,0 -0.05,0 -0.08,0 0.01,0.01 0.01,0.03 0.01,0.05l0.39 5.65c0.25,1.7 0.52,3.32 0.84,4.84 0.31,1.52 0.66,2.96 1.04,4.29l0 0.01 0 0 1.59 5.66c0.05,0.17 -0.05,0.35 -0.22,0.39 -0.17,0.05 -0.34,-0.05 -0.39,-0.22l-1.59 -5.66 0 0c-0.39,-1.35 -0.74,-2.8 -1.06,-4.35 -0.31,-1.54 -0.59,-3.18 -0.84,-4.88l0 -0.03 -0.39 -5.66c-0.01,-0.18 0.12,-0.33 0.29,-0.34 0.03,0 0.05,0 0.07,0l-0.01 -0.04 -0.4 -4.54zm1.86 -0.12c-0.02,-0.17 0.11,-0.33 0.28,-0.34 0.17,-0.02 0.33,0.11 0.35,0.28l0.42 4.51c0.02,0.18 -0.11,0.33 -0.28,0.35 -0.12,0.01 -0.22,-0.04 -0.29,-0.13l0.44 6.08c0.25,1.56 0.54,3.06 0.87,4.51 0.33,1.44 0.7,2.84 1.12,4.17l0 0.02 1.77 5.95c0.05,0.16 -0.04,0.34 -0.21,0.39 -0.17,0.05 -0.35,-0.05 -0.4,-0.21l-1.76 -5.95 -0.01 -0.01c-0.42,-1.34 -0.8,-2.75 -1.13,-4.23 -0.33,-1.46 -0.62,-2.97 -0.87,-4.54 -0.01,-0.01 -0.01,-0.03 -0.01,-0.04l-0.44 -6.13c-0.02,-0.18 0.12,-0.33 0.29,-0.34 0.11,-0.01 0.22,0.04 0.28,0.13l-0.42 -4.47zm1.85 -0.13c-0.02,-0.17 0.11,-0.33 0.29,-0.34 0.17,-0.02 0.33,0.11 0.34,0.29l0.38 4.47c0.02,0.18 -0.11,0.33 -0.29,0.34 -0.17,0.02 -0.33,-0.11 -0.34,-0.29l-0.38 -4.47zm1.83 -0.14c-0.01,-0.17 0.12,-0.33 0.29,-0.34 0.18,-0.02 0.33,0.11 0.35,0.29l0.37 4.43c0.02,0.18 -0.12,0.33 -0.29,0.34 -0.17,0.02 -0.33,-0.11 -0.34,-0.29l-0.38 -4.43zm1.77 -0.15c-0.02,-0.17 0.11,-0.32 0.29,-0.34 0.17,-0.01 0.33,0.12 0.34,0.3l0.34 4.32c0.05,-0.04 0.11,-0.07 0.17,-0.07 0.18,-0.02 0.33,0.11 0.35,0.28l0.56 5.81 2.61 8.85 0 0.02 1.67 5.78c0.04,0.16 -0.05,0.34 -0.22,0.39 -0.17,0.04 -0.35,-0.05 -0.39,-0.22l-1.67 -5.77 0 -0.02 -2.61 -8.88 0 0c-0.01,-0.02 -0.01,-0.04 -0.01,-0.06l-0.57 -5.78c-0.05,0.04 -0.11,0.07 -0.18,0.07 -0.17,0.02 -0.33,-0.11 -0.34,-0.29l-0.34 -4.39zm1.65 -0.28c-0.02,-0.18 0.11,-0.33 0.28,-0.35 0.18,-0.02 0.33,0.11 0.35,0.28l0.44 4.42c0.04,-0.01 0.08,-0.02 0.11,-0.03 0.18,-0.01 0.33,0.11 0.35,0.29l0.54 5.43 2.68 9.11 0 0 1.8 5.84c0.05,0.16 -0.04,0.34 -0.21,0.39 -0.17,0.05 -0.34,-0.04 -0.4,-0.21l-1.8 -5.84 0 0 -2.69 -9.14 0 0c0,-0.02 -0.01,-0.04 -0.01,-0.06l-0.53 -5.41c-0.04,0.02 -0.07,0.03 -0.11,0.04 -0.18,0.01 -0.33,-0.12 -0.35,-0.29l-0.45 -4.47zm1.8 -0.03c-0.02,-0.18 0.11,-0.34 0.28,-0.35 0.18,-0.02 0.34,0.1 0.35,0.28l0.46 4.25c0.01,0.07 -0.01,0.13 -0.04,0.19 0.11,0.04 0.2,0.14 0.21,0.27l0.54 5.42 2.83 8.73 0 0.01 1.83 5.68c0.05,0.17 -0.04,0.35 -0.21,0.4 -0.16,0.06 -0.34,-0.04 -0.4,-0.2l-1.82 -5.68 0 -0.02 -2.85 -8.76 0 0c0,-0.02 -0.01,-0.04 -0.01,-0.07l-0.54 -5.45c-0.01,-0.07 0.01,-0.13 0.04,-0.19 -0.11,-0.04 -0.2,-0.14 -0.21,-0.27l-0.46 -4.24zm1.62 -0.37c-0.02,-0.17 0.11,-0.33 0.28,-0.35 0.18,-0.01 0.33,0.11 0.35,0.29l0.45 4.38c0.05,0.04 0.08,0.11 0.09,0.18l0.58 5.6 2.84 8.74 1.95 5.93c0.05,0.17 -0.04,0.35 -0.21,0.4 -0.16,0.05 -0.34,-0.04 -0.4,-0.2l-1.95 -5.94 -2.84 -8.76c-0.01,-0.02 -0.01,-0.04 -0.01,-0.07l-0.59 -5.6c-0.04,-0.05 -0.08,-0.12 -0.08,-0.19l-0.46 -4.41zm1.61 -0.23c-0.02,-0.17 0.1,-0.33 0.28,-0.35 0.17,-0.03 0.33,0.1 0.35,0.27l0.56 4.27c0.02,0.15 -0.07,0.29 -0.21,0.34l0 0.02 0.58 5.3 2.83 8.73 2.13 6.04c0.06,0.16 -0.03,0.34 -0.19,0.4 -0.17,0.06 -0.35,-0.03 -0.41,-0.19l-2.13 -6.04 0 -0.01 -2.84 -8.76c-0.01,-0.02 -0.01,-0.04 -0.02,-0.07l-0.58 -5.33c-0.02,-0.16 0.07,-0.29 0.21,-0.34l0 -0.01 -0.56 -4.27zm1.81 0.05c-0.02,-0.17 0.1,-0.33 0.28,-0.35 0.17,-0.02 0.33,0.11 0.35,0.29l0.42 3.9c0.02,0.17 -0.1,0.32 -0.26,0.35 0.05,0.05 0.08,0.11 0.09,0.18l0.58 5.31 2.83 8.73 0.01 0.02 1.82 5.72c0.06,0.17 -0.04,0.34 -0.2,0.4 -0.17,0.05 -0.35,-0.04 -0.4,-0.21l-1.82 -5.72 -0.01 -0.02 -2.84 -8.76c-0.01,-0.02 -0.01,-0.04 -0.02,-0.06l-0.58 -5.34c-0.02,-0.17 0.09,-0.32 0.25,-0.35 -0.04,-0.05 -0.07,-0.11 -0.08,-0.18l-0.42 -3.91zm1.72 -0.21c-0.02,-0.18 0.11,-0.34 0.28,-0.36 0.18,-0.02 0.33,0.11 0.35,0.28l0.42 3.58c0.02,0.18 -0.11,0.34 -0.28,0.36 -0.17,0.02 -0.33,-0.11 -0.35,-0.28l-0.42 -3.58zm1.72 -0.22c-0.02,-0.18 0.09,-0.34 0.27,-0.37 0.17,-0.02 0.33,0.09 0.36,0.27l0.54 3.39c0.03,0.18 -0.09,0.34 -0.26,0.37 -0.17,0.02 -0.33,-0.09 -0.36,-0.27l-0.55 -3.39zm1.74 -0.25c-0.03,-0.18 0.09,-0.34 0.26,-0.37 0.17,-0.03 0.34,0.09 0.36,0.26l0.58 3.33c0.02,0.18 -0.09,0.34 -0.26,0.37 -0.18,0.03 -0.34,-0.09 -0.37,-0.26l-0.57 -3.33zm1.78 -0.28c-0.03,-0.17 0.08,-0.34 0.25,-0.37 0.17,-0.03 0.34,0.08 0.37,0.25l0.62 3.18c0.04,0.17 -0.07,0.34 -0.25,0.37 -0.17,0.03 -0.34,-0.08 -0.37,-0.25l-0.62 -3.18zm1.82 -0.3c-0.04,-0.17 0.07,-0.34 0.24,-0.38 0.17,-0.04 0.34,0.07 0.38,0.24l0.66 2.86c0.04,0.17 -0.07,0.34 -0.24,0.38 -0.17,0.04 -0.34,-0.07 -0.38,-0.24l-0.66 -2.86zm1.73 -0.33c-0.04,-0.17 0.07,-0.34 0.25,-0.37 0.17,-0.04 0.34,0.07 0.37,0.24l0.54 2.59c0.04,0.17 -0.07,0.34 -0.25,0.37 -0.17,0.04 -0.33,-0.07 -0.37,-0.24l-0.54 -2.59zm1.75 -0.35c-0.03,-0.17 0.07,-0.34 0.24,-0.38 0.18,-0.04 0.35,0.07 0.38,0.24l0.59 2.58c0.02,0.12 -0.02,0.24 -0.11,0.31 0.12,0.03 0.22,0.13 0.23,0.26l0.84 5.47 2.78 8.43 2.35 5.17c0.07,0.16 0,0.35 -0.16,0.42 -0.16,0.07 -0.35,0 -0.42,-0.16l-2.35 -5.17c-0.01,-0.01 -0.01,-0.03 -0.02,-0.04l-2.79 -8.47c-0.01,-0.02 -0.01,-0.04 -0.01,-0.06l-0.84 -5.49c-0.02,-0.12 0.03,-0.23 0.11,-0.3 -0.11,-0.03 -0.2,-0.11 -0.23,-0.24l-0.59 -2.57zm1.77 -0.38c-0.05,-0.17 0.06,-0.35 0.22,-0.39 0.17,-0.05 0.35,0.05 0.39,0.22l0.62 2.31c0.05,0.17 -0.05,0.34 -0.22,0.39 -0.17,0.05 -0.35,-0.05 -0.39,-0.22l-0.62 -2.31zm1.64 -0.41c-0.05,-0.17 0.05,-0.34 0.22,-0.39 0.17,-0.04 0.35,0.06 0.39,0.23l0.57 2.23c0.04,0.16 -0.06,0.34 -0.23,0.38 -0.17,0.04 -0.34,-0.06 -0.38,-0.23l-0.57 -2.22zm1.77 -0.48c-0.04,-0.17 0.05,-0.35 0.22,-0.39 0.17,-0.05 0.35,0.05 0.39,0.22l0.5 1.76c0.05,0.17 -0.05,0.34 -0.22,0.39 -0.17,0.04 -0.34,-0.05 -0.39,-0.22l-0.5 -1.76zm3.44 -1.14c-0.06,-0.17 0.03,-0.35 0.2,-0.4 0.16,-0.06 0.34,0.03 0.4,0.2l0.14 0.4c0.05,0.16 -0.04,0.34 -0.2,0.4 -0.17,0.06 -0.35,-0.03 -0.41,-0.2l-0.13 -0.4zm-3.74 4.16c-0.04,-0.17 0.07,-0.34 0.24,-0.37 0.17,-0.04 0.34,0.07 0.38,0.24l1.17 5.25 2.94 8.39 2.8 5.06c0.08,0.16 0.03,0.35 -0.13,0.43 -0.15,0.09 -0.35,0.03 -0.43,-0.12l-2.81 -5.09 0 0c0,-0.01 -0.01,-0.03 -0.02,-0.04l-2.95 -8.43 0 0 -0.01 -0.04 -1.18 -5.28zm3.95 -2.1c-0.04,-0.17 0.06,-0.34 0.23,-0.38 0.17,-0.05 0.34,0.05 0.39,0.22 0.2,0.79 0.47,1.7 0.78,2.63 0.29,0.86 0.61,1.74 0.95,2.56 0.44,1.06 0.83,2.08 1.2,3.07 0.63,1.68 1.23,3.28 2.04,4.89 0.67,1.33 1.29,2.39 1.91,3.43 0.19,0.32 0.38,0.63 0.58,0.99 0.09,0.15 0.04,0.35 -0.11,0.44 -0.15,0.08 -0.35,0.03 -0.44,-0.12 -0.18,-0.31 -0.38,-0.65 -0.58,-0.99 -0.61,-1.04 -1.24,-2.09 -1.93,-3.47 -0.82,-1.65 -1.43,-3.26 -2.06,-4.94 -0.37,-0.98 -0.75,-1.99 -1.19,-3.06 -0.35,-0.82 -0.68,-1.72 -0.97,-2.6 -0.31,-0.94 -0.59,-1.86 -0.8,-2.67zm1.37 -1.09c-0.06,-0.16 0.04,-0.34 0.2,-0.39 0.17,-0.06 0.35,0.03 0.4,0.2l1.71 5.14 3.45 7.96 2.29 4.21c0.08,0.15 0.02,0.34 -0.13,0.43 -0.15,0.08 -0.35,0.02 -0.43,-0.13l-2.29 -4.22 0 0 -0.02 -0.02 -3.46 -7.99 -0.01 -0.03 -1.71 -5.16zm-56.37 10.78c0,-0.18 0.13,-0.32 0.31,-0.33 0.18,0 0.32,0.14 0.32,0.31 0.04,1.26 0.06,2.47 0.08,3.64 0.12,5.54 0.22,10.39 0.86,16.89 0.02,0.17 -0.11,0.33 -0.29,0.35 -0.17,0.02 -0.33,-0.11 -0.34,-0.29 -0.64,-6.52 -0.74,-11.38 -0.86,-16.94 -0.02,-1.17 -0.05,-2.37 -0.08,-3.63zm1.71 -0.08c0,-0.17 0.14,-0.32 0.31,-0.32 0.18,0 0.32,0.14 0.32,0.32 0.05,4.37 0.14,8.13 0.32,11.52 0.18,3.39 0.45,6.4 0.84,9.27 0.02,0.18 -0.1,0.34 -0.27,0.36 -0.18,0.02 -0.34,-0.1 -0.36,-0.27 -0.39,-2.9 -0.66,-5.92 -0.84,-9.32 -0.18,-3.39 -0.27,-7.17 -0.32,-11.56zm6.6 -0.44c0,-0.17 0.13,-0.32 0.31,-0.32 0.17,-0.01 0.32,0.13 0.32,0.3 0.12,3.86 0.27,7.2 0.63,10.53 0.35,3.32 0.91,6.62 1.83,10.37 0.04,0.17 -0.07,0.34 -0.24,0.39 -0.17,0.04 -0.34,-0.07 -0.38,-0.24 -0.93,-3.79 -1.49,-7.11 -1.84,-10.45 -0.36,-3.34 -0.51,-6.7 -0.63,-10.58zm1.61 -0.12c-0.01,-0.17 0.13,-0.32 0.3,-0.33 0.18,-0.01 0.33,0.12 0.34,0.3 0.04,0.76 0.08,1.52 0.12,2.26 0.36,6.5 0.67,12.13 2.68,18.74 0.05,0.17 -0.04,0.34 -0.21,0.39 -0.17,0.05 -0.34,-0.04 -0.39,-0.21 -2.04,-6.68 -2.35,-12.35 -2.71,-18.89 -0.04,-0.74 -0.08,-1.49 -0.13,-2.26zm1.61 -0.06c-0.01,-0.18 0.13,-0.32 0.3,-0.33 0.18,-0.01 0.33,0.12 0.34,0.3 0.22,4.25 0.53,8.07 1.01,11.51 0.49,3.43 1.15,6.48 2.09,9.21 0.06,0.16 -0.03,0.34 -0.19,0.4 -0.17,0.06 -0.35,-0.03 -0.4,-0.2 -0.96,-2.77 -1.64,-5.86 -2.12,-9.32 -0.49,-3.46 -0.8,-7.3 -1.03,-11.57zm4.93 0.06c-0.02,-0.18 0.11,-0.33 0.28,-0.35 0.18,-0.01 0.33,0.11 0.35,0.29l0.55 5.8 0 0c0.2,1.65 0.44,3.18 0.7,4.63 0.26,1.45 0.56,2.83 0.87,4.17l1.59 5.63c0.05,0.17 -0.05,0.35 -0.22,0.39 -0.17,0.05 -0.34,-0.05 -0.39,-0.22l-1.59 -5.64c-0.32,-1.33 -0.62,-2.74 -0.88,-4.22m-1.26 -10.48l0.55 5.81 0 0c0.2,1.64 0.44,3.19 0.71,4.67m1.49 4.06l0 0m-0.66 -9.29l0 -0.01m3.02 -6.08c-0.01,-0.17 0.13,-0.32 0.3,-0.33 0.18,-0.01 0.33,0.13 0.34,0.3l0.3 5.77c0.39,1.68 0.76,3.24 1.11,4.7 0.35,1.44 0.7,2.85 1.05,4.24l0.01 0.01 1.69 5.79c0.05,0.16 -0.05,0.34 -0.22,0.39 -0.17,0.05 -0.34,-0.05 -0.39,-0.22l-1.69 -5.78 -0.01 -0.04c-0.33,-1.29 -0.68,-2.7 -1.06,-4.24 -0.36,-1.52 -0.73,-3.09 -1.11,-4.73l0 -0.01 0 0c-0.01,-0.02 -0.01,-0.04 -0.01,-0.05l-0.31 -5.8zm1.58 -0.04c-0.01,-0.18 0.12,-0.33 0.3,-0.34 0.17,0 0.32,0.13 0.33,0.3l0.32 5.54c0.35,1.58 0.73,3.15 1.15,4.68 0.41,1.54 0.85,3.04 1.32,4.49l0 0 0 0 1.65 5.53c0.05,0.17 -0.04,0.35 -0.21,0.4 -0.17,0.05 -0.35,-0.05 -0.4,-0.22l-1.64 -5.52 0 0c-0.48,-1.47 -0.92,-2.98 -1.34,-4.52 -0.41,-1.52 -0.79,-3.09 -1.15,-4.72 -0.01,-0.02 -0.01,-0.04 -0.01,-0.07l-0.32 -5.55zm1.66 -0.37c-0.01,-0.18 0.13,-0.33 0.3,-0.34 0.18,-0.01 0.33,0.13 0.34,0.3l0.35 5.78c0.48,1.62 0.87,3.14 1.24,4.61 0.37,1.44 0.72,2.83 1.12,4.15l0.01 0.01 1.72 5.98c0.05,0.17 -0.05,0.34 -0.21,0.39 -0.17,0.05 -0.35,-0.05 -0.4,-0.22l-1.72 -5.98 0 0c-0.42,-1.37 -0.77,-2.75 -1.13,-4.18 -0.38,-1.47 -0.77,-3 -1.25,-4.61l0 0c-0.01,-0.03 -0.01,-0.05 -0.01,-0.08l-0.36 -5.81zm10.98 -1.3c-0.02,-0.17 0.11,-0.33 0.28,-0.35 0.18,-0.02 0.33,0.11 0.35,0.28l0.6 5.3 2.82 8.58 1.83 5.58c0.05,0.17 -0.04,0.34 -0.21,0.4 -0.17,0.05 -0.34,-0.04 -0.4,-0.21l-1.83 -5.57 -2.82 -8.61c-0.01,-0.02 -0.02,-0.04 -0.02,-0.07l-0.6 -5.33zm1.45 -0.48c-0.02,-0.18 0.1,-0.34 0.28,-0.36 0.17,-0.02 0.33,0.1 0.35,0.28l0.68 5.29 2.83 8.68 0 0.01 2.06 5.54c0.07,0.17 -0.02,0.35 -0.18,0.41 -0.17,0.06 -0.35,-0.02 -0.41,-0.19l-2.06 -5.54 -0.02 -0.03 -2.84 -8.71 0.01 0c-0.01,-0.02 -0.02,-0.04 -0.02,-0.06l-0.68 -5.32zm1.59 -0.36c-0.03,-0.18 0.09,-0.34 0.27,-0.36 0.17,-0.03 0.33,0.09 0.36,0.26l0.8 5.29 2.73 8.61 2.32 5.68c0.07,0.16 -0.01,0.34 -0.17,0.41 -0.16,0.07 -0.35,-0.01 -0.41,-0.17l-2.33 -5.68c0,-0.01 -0.01,-0.03 -0.02,-0.05l-2.73 -8.63 0 0 -0.01 -0.01c0,-0.01 0,-0.03 -0.01,-0.04l-0.8 -5.31zm1.64 -0.27c-0.02,-0.17 0.1,-0.33 0.27,-0.36 0.17,-0.03 0.33,0.09 0.36,0.27l0.76 5.02 2.71 8.59 2.5 5.78c0.07,0.16 0,0.35 -0.16,0.42 -0.16,0.07 -0.35,-0.01 -0.42,-0.17l-2.5 -5.78c-0.01,-0.02 -0.02,-0.03 -0.02,-0.05l-2.72 -8.61 0 -0.01c-0.01,-0.02 -0.01,-0.03 -0.02,-0.05l-0.76 -5.05zm1.61 -0.36c-0.03,-0.17 0.09,-0.33 0.26,-0.36 0.18,-0.02 0.34,0.1 0.36,0.27l0.76 5.02 2.75 8.53 2.46 5.57c0.07,0.16 0,0.35 -0.16,0.42 -0.16,0.07 -0.35,-0.01 -0.42,-0.17l-2.46 -5.57 0 0 -0.01 -0.03 -2.76 -8.57c-0.01,-0.02 -0.02,-0.04 -0.02,-0.07l-0.76 -5.04zm1.66 -0.53c-0.03,-0.17 0.09,-0.33 0.27,-0.36 0.17,-0.03 0.33,0.09 0.36,0.27l0.74 5.11 2.78 8.48 2.28 5.31c0.07,0.16 -0.01,0.34 -0.17,0.41 -0.16,0.07 -0.35,0 -0.42,-0.16l-2.28 -5.32 0 0 -0.01 -0.02 -2.78 -8.52c-0.01,-0.02 -0.02,-0.04 -0.02,-0.07l-0.75 -5.13zm1.59 -0.59c-0.02,-0.18 0.1,-0.34 0.27,-0.36 0.17,-0.02 0.34,0.1 0.36,0.27l0.73 5.19 2.8 8.51 2.26 5.42c0.07,0.16 -0.01,0.35 -0.17,0.42 -0.16,0.06 -0.35,-0.01 -0.42,-0.17l-2.26 -5.43 -0.01 -0.03 -2.81 -8.55c0,-0.02 -0.01,-0.04 -0.01,-0.06l-0.74 -5.21zm3.57 13.85l0 0m-0.53 -14.9c-0.03,-0.17 0.09,-0.33 0.26,-0.36 0.18,-0.02 0.34,0.1 0.36,0.27l0.8 5.35 2.92 8.7 2.4 4.86c0.08,0.16 0.01,0.35 -0.14,0.43 -0.16,0.07 -0.35,0.01 -0.43,-0.15l-2.4 -4.88c-0.01,-0.01 -0.02,-0.02 -0.02,-0.04l-2.93 -8.73c-0.01,-0.02 -0.02,-0.05 -0.02,-0.07l-0.8 -5.38zm1.39 -0.39c-0.03,-0.17 0.08,-0.34 0.25,-0.37 0.18,-0.03 0.34,0.08 0.37,0.25l1 5.14 2.77 8.42 2.73 5.52c0.08,0.15 0.02,0.34 -0.14,0.42 -0.16,0.08 -0.35,0.01 -0.42,-0.14l-2.74 -5.53c-0.01,-0.02 -0.02,-0.04 -0.03,-0.06l-2.78 -8.45 0 -0.04 -1.01 -5.16zm2.53 -0.77c-0.04,-0.17 0.06,-0.35 0.23,-0.39 0.16,-0.05 0.34,0.06 0.38,0.22l1.39 5.26 2.92 7.95 2.69 5.14c0.09,0.15 0.03,0.34 -0.13,0.42 -0.15,0.09 -0.35,0.03 -0.43,-0.13l-2.7 -5.14c0,-0.01 -0.01,-0.03 -0.02,-0.05l-2.93 -7.98 0.01 0 -0.01 -0.03 -1.4 -5.27zm1.29 -0.8c-0.06,-0.17 0.04,-0.35 0.2,-0.4 0.17,-0.05 0.35,0.04 0.4,0.21l1.7 5.32 0 0 3.08 8.03 2.61 4.56c0.09,0.15 0.04,0.35 -0.11,0.43 -0.16,0.09 -0.35,0.04 -0.44,-0.12l-2.62 -4.58c-0.01,-0.01 -0.02,-0.03 -0.02,-0.04l-3.09 -8.06 0 0 -0.01 -0.01 -1.7 -5.34zm-58.4 8.94c-0.01,-0.18 0.13,-0.32 0.31,-0.33 0.17,0 0.32,0.14 0.32,0.32 0.05,2.54 0.05,4.88 0.05,7.19 0.01,4.32 0.01,8.51 0.3,13.68 0.01,0.18 -0.12,0.33 -0.3,0.34 -0.17,0.01 -0.32,-0.13 -0.33,-0.3 -0.29,-5.17 -0.3,-9.38 -0.3,-13.72 -0.01,-2.3 -0.01,-4.64 -0.05,-7.18zm1.54 -0.27c-0.01,-0.18 0.13,-0.32 0.3,-0.33 0.18,-0.01 0.32,0.13 0.33,0.31 0.12,3.28 0.12,6.18 0.13,9 0,3.84 0.01,7.53 0.31,11.92 0.01,0.17 -0.12,0.33 -0.3,0.34 -0.17,0.01 -0.32,-0.12 -0.33,-0.3 -0.31,-4.38 -0.31,-8.1 -0.32,-11.96 0,-2.81 0,-5.69 -0.12,-8.98zm-59.74 -11.27c0.06,-0.16 0.24,-0.25 0.4,-0.19 0.17,0.06 0.25,0.25 0.2,0.41l-0.41 1.09c-0.05,0.17 -0.24,0.25 -0.4,0.19 -0.17,-0.06 -0.25,-0.24 -0.19,-0.4l0.4 -1.1zm57.26 6.04c0,-0.18 0.14,-0.32 0.32,-0.32 0.17,0 0.31,0.15 0.31,0.32l-0.04 4.81c0,0.17 -0.15,0.31 -0.32,0.31 -0.18,0 -0.32,-0.14 -0.32,-0.32l0.05 -4.8zm-1.64 -0.16c0,-0.17 0.14,-0.31 0.32,-0.31 0.17,0 0.31,0.14 0.31,0.31l0.01 4.94c0,0.17 -0.14,0.31 -0.31,0.31 -0.18,0 -0.32,-0.14 -0.32,-0.31l-0.01 -4.94zm-1.7 0.02c0.01,-0.18 0.16,-0.31 0.33,-0.31 0.18,0.01 0.31,0.15 0.31,0.33l-0.15 4.87c-0.01,0.18 -0.15,0.31 -0.33,0.31 -0.17,0 -0.31,-0.15 -0.3,-0.33l0.14 -4.87zm-1.88 -0.21c0.01,-0.17 0.15,-0.31 0.33,-0.3 0.17,0 0.31,0.15 0.3,0.33l-0.21 5.03c-0.01,0.18 -0.16,0.31 -0.33,0.31 -0.18,-0.01 -0.31,-0.16 -0.31,-0.33l0.22 -5.04zm-2.09 0.26c0.01,-0.17 0.15,-0.31 0.33,-0.31 0.17,0 0.31,0.15 0.31,0.32l-0.11 4.73c0,0.13 -0.08,0.23 -0.18,0.28 0.08,0.06 0.14,0.15 0.13,0.26 -0.05,4.97 -0.19,8.71 -0.42,11.96 -0.23,3.24 -0.55,6 -0.95,8.99 -0.03,0.17 -0.19,0.29 -0.36,0.27 -0.17,-0.03 -0.29,-0.19 -0.27,-0.36 0.4,-2.96 0.72,-5.7 0.95,-8.95 0.23,-3.25 0.37,-6.98 0.42,-11.91 0,-0.13 0.07,-0.23 0.18,-0.28 -0.08,-0.06 -0.14,-0.16 -0.14,-0.27l0.11 -4.73zm-1.74 -0.19c0.01,-0.18 0.15,-0.32 0.33,-0.31 0.17,0.01 0.31,0.15 0.31,0.33l-0.16 4.86c0,0.04 -0.01,0.07 -0.02,0.1 0.08,0.06 0.13,0.16 0.13,0.26 -0.02,4.06 -0.18,7.73 -0.46,11.18 -0.29,3.46 -0.71,6.72 -1.26,9.93 -0.03,0.18 -0.19,0.29 -0.36,0.26 -0.18,-0.03 -0.29,-0.19 -0.26,-0.36 0.54,-3.2 0.96,-6.44 1.24,-9.88 0.29,-3.46 0.44,-7.11 0.47,-11.13 0,-0.04 0.01,-0.07 0.02,-0.11 -0.08,-0.06 -0.14,-0.16 -0.13,-0.27l0.15 -4.86zm-2.03 0.1c0,-0.18 0.15,-0.32 0.32,-0.31 0.18,0 0.32,0.14 0.31,0.32l-0.08 4.7c0,0.03 0,0.07 -0.02,0.1 0.06,-0.04 0.13,-0.06 0.2,-0.06 0.18,0 0.31,0.15 0.31,0.32 -0.13,4.02 -0.29,7.67 -0.61,11.14 -0.32,3.47 -0.8,6.76 -1.57,10.05 -0.03,0.17 -0.21,0.27 -0.38,0.23 -0.17,-0.04 -0.27,-0.21 -0.23,-0.38 0.76,-3.26 1.24,-6.52 1.55,-9.96 0.32,-3.45 0.48,-7.08 0.61,-11.09 0,-0.04 0.01,-0.07 0.02,-0.11 -0.06,0.05 -0.12,0.07 -0.2,0.07 -0.17,-0.01 -0.31,-0.15 -0.31,-0.32l0.08 -4.7zm-1.83 -0.07c0.01,-0.18 0.16,-0.31 0.33,-0.3 0.18,0 0.31,0.15 0.31,0.33l-0.21 4.67c-0.01,0.18 -0.16,0.31 -0.33,0.31 -0.18,-0.01 -0.31,-0.16 -0.31,-0.33l0.21 -4.68zm-1.81 -0.07c0.01,-0.18 0.17,-0.31 0.34,-0.3 0.18,0.01 0.31,0.16 0.3,0.34l-0.3 4.65c-0.01,0.17 -0.16,0.31 -0.34,0.3 -0.17,-0.02 -0.31,-0.17 -0.3,-0.34l0.3 -4.65zm-1.84 -0.09c0.01,-0.17 0.17,-0.3 0.34,-0.29 0.18,0.01 0.31,0.17 0.3,0.34l-0.36 4.63c-0.01,0.18 -0.16,0.31 -0.34,0.29l0 0c0,0.03 0.01,0.06 0.01,0.09 -0.16,3.73 -0.45,7.28 -0.99,10.73l0.01 0c-0.54,3.45 -1.32,6.81 -2.46,10.17 -0.05,0.17 -0.24,0.26 -0.4,0.2 -0.17,-0.05 -0.26,-0.23 -0.2,-0.4 1.13,-3.32 1.9,-6.65 2.43,-10.07l0 0 0 0c0.53,-3.42 0.81,-6.94 0.97,-10.66 0.01,-0.17 0.16,-0.31 0.33,-0.3l0.01 0c0,-0.03 -0.01,-0.06 0,-0.1l0.35 -4.63zm-1.83 -0.08c0.01,-0.18 0.16,-0.31 0.34,-0.29 0.17,0.01 0.31,0.16 0.29,0.33l-0.32 4.61c-0.02,0.18 -0.17,0.31 -0.35,0.3l-0.02 -0.01c0.05,0.06 0.07,0.14 0.07,0.22 -0.18,3.53 -0.49,7.04 -1.05,10.49 -0.55,3.47 -1.35,6.87 -2.48,10.17 -0.06,0.17 -0.24,0.26 -0.41,0.2 -0.16,-0.06 -0.25,-0.24 -0.19,-0.4 1.12,-3.28 1.91,-6.64 2.46,-10.06 0.55,-3.43 0.86,-6.92 1.04,-10.43 0,-0.18 0.15,-0.31 0.33,-0.3l0.03 0c-0.05,-0.06 -0.08,-0.14 -0.07,-0.22l0.33 -4.61zm-1.9 -0.1c0.01,-0.17 0.16,-0.31 0.34,-0.29 0.17,0.01 0.3,0.16 0.29,0.33l-0.31 4.58c-0.02,0.18 -0.17,0.31 -0.34,0.3 -0.18,-0.01 -0.31,-0.16 -0.3,-0.34l0.32 -4.58zm-1.9 -0.12c0.01,-0.17 0.16,-0.3 0.34,-0.28 0.17,0.01 0.3,0.17 0.29,0.34l-0.41 4.54 0 0.04c0.02,0 0.04,0 0.06,0 0.18,0.01 0.31,0.16 0.3,0.34l-0.39 5.66 0 0.03c-0.25,1.7 -0.53,3.34 -0.85,4.88 -0.32,1.55 -0.67,3 -1.06,4.35l0 0 -1.59 5.66c-0.04,0.17 -0.22,0.27 -0.39,0.22 -0.17,-0.04 -0.26,-0.22 -0.22,-0.39l1.59 -5.66 0 0 0 -0.01c0.39,-1.33 0.74,-2.77 1.05,-4.29 0.31,-1.52 0.59,-3.14 0.84,-4.84l0.39 -5.65c0,-0.02 0,-0.04 0,-0.05 -0.02,0 -0.05,0 -0.07,0 -0.18,-0.01 -0.3,-0.17 -0.29,-0.34l0.41 -4.55zm-1.86 -0.12c0.01,-0.17 0.17,-0.3 0.34,-0.28 0.18,0.01 0.31,0.17 0.29,0.34l-0.42 4.47c0.06,-0.09 0.16,-0.14 0.27,-0.13 0.18,0.01 0.31,0.16 0.3,0.34l-0.44 6.13c0,0.01 -0.01,0.03 -0.01,0.04 -0.25,1.57 -0.54,3.08 -0.88,4.54 -0.33,1.48 -0.71,2.89 -1.13,4.23l0 0.01 -1.77 5.95c-0.05,0.16 -0.22,0.26 -0.39,0.21 -0.17,-0.05 -0.27,-0.23 -0.22,-0.39l1.77 -5.95 0.01 -0.02c0.42,-1.33 0.79,-2.73 1.12,-4.17 0.33,-1.45 0.61,-2.95 0.86,-4.51l0.44 -6.08c-0.06,0.09 -0.17,0.14 -0.28,0.13 -0.18,-0.02 -0.3,-0.17 -0.29,-0.35l0.43 -4.51zm-1.85 -0.12c0.01,-0.18 0.16,-0.31 0.34,-0.29 0.17,0.01 0.3,0.17 0.29,0.34l-0.38 4.47c-0.02,0.18 -0.17,0.31 -0.35,0.29 -0.17,-0.01 -0.3,-0.16 -0.29,-0.34l0.39 -4.47zm-1.84 -0.14c0.01,-0.18 0.17,-0.31 0.34,-0.29 0.18,0.01 0.31,0.17 0.29,0.34l-0.37 4.43c-0.02,0.18 -0.17,0.31 -0.34,0.29 -0.18,-0.01 -0.31,-0.16 -0.3,-0.34l0.38 -4.43zm-1.76 -0.14c0.01,-0.18 0.16,-0.31 0.34,-0.3 0.17,0.02 0.3,0.17 0.29,0.34l-0.34 4.39c-0.02,0.18 -0.17,0.31 -0.35,0.29 -0.06,0 -0.13,-0.03 -0.18,-0.07l-0.56 5.78c0,0.02 -0.01,0.04 -0.01,0.06l0 0 -2.61 8.88 -0.01 0.02 -1.66 5.77c-0.05,0.17 -0.22,0.26 -0.39,0.22 -0.17,-0.05 -0.27,-0.23 -0.22,-0.39l1.66 -5.78 0.01 -0.02 2.6 -8.85 0.57 -5.81c0.01,-0.17 0.17,-0.3 0.34,-0.28 0.07,0 0.13,0.03 0.18,0.07l0.34 -4.32zm-1.65 -0.31c0.01,-0.17 0.17,-0.3 0.34,-0.28 0.18,0.02 0.3,0.17 0.29,0.35l-0.45 4.47c-0.02,0.17 -0.18,0.3 -0.35,0.29 -0.04,-0.01 -0.08,-0.02 -0.11,-0.04l-0.53 5.41c-0.01,0.02 -0.01,0.04 -0.02,0.06l0 0 -2.68 9.14 -0.01 0 -1.8 5.84c-0.05,0.17 -0.23,0.26 -0.4,0.21 -0.16,-0.05 -0.26,-0.23 -0.21,-0.39l1.81 -5.84 0 0 2.68 -9.11 0.53 -5.43c0.02,-0.18 0.18,-0.3 0.35,-0.29 0.04,0.01 0.08,0.02 0.11,0.03l0.45 -4.42zm-1.81 -0.03c0.02,-0.18 0.18,-0.3 0.35,-0.28 0.17,0.01 0.3,0.17 0.28,0.35l-0.45 4.24c-0.02,0.13 -0.1,0.23 -0.21,0.27 0.03,0.06 0.04,0.12 0.04,0.19l-0.54 5.45c-0.01,0.03 -0.01,0.05 -0.02,0.07l0 0 -2.84 8.76 -0.01 0.02 -1.82 5.68c-0.05,0.16 -0.23,0.26 -0.4,0.2 -0.16,-0.05 -0.26,-0.23 -0.2,-0.4l1.82 -5.68 0 -0.01 2.84 -8.73 0.53 -5.42c0.02,-0.13 0.1,-0.23 0.22,-0.27 -0.04,-0.06 -0.05,-0.12 -0.04,-0.19l0.45 -4.25zm-1.61 -0.36c0.01,-0.18 0.17,-0.3 0.34,-0.29 0.18,0.02 0.3,0.18 0.29,0.35l-0.46 4.41c-0.01,0.07 -0.04,0.14 -0.09,0.19l-0.58 5.6c0,0.03 -0.01,0.05 -0.01,0.07l-2.85 8.76 -1.95 5.94c-0.05,0.16 -0.23,0.25 -0.4,0.2 -0.17,-0.05 -0.26,-0.23 -0.2,-0.4l1.95 -5.93 2.83 -8.74 0.59 -5.6c0,-0.07 0.04,-0.14 0.08,-0.18l0.46 -4.38zm-1.62 -0.25c0.03,-0.17 0.19,-0.3 0.36,-0.27 0.17,0.02 0.29,0.18 0.27,0.35l-0.56 4.27 0 0.01c0.14,0.05 0.23,0.18 0.22,0.34l-0.59 5.33c0,0.03 -0.01,0.05 -0.01,0.07l-2.85 8.76 0 0.01 -2.13 6.04c-0.05,0.16 -0.24,0.25 -0.4,0.19 -0.16,-0.06 -0.25,-0.24 -0.19,-0.4l2.12 -6.04 2.83 -8.73 0.59 -5.3 0 -0.02c-0.14,-0.05 -0.23,-0.19 -0.21,-0.34l0.55 -4.27zm-1.8 0.07c0.02,-0.18 0.17,-0.31 0.35,-0.29 0.17,0.02 0.3,0.18 0.28,0.35l-0.42 3.91c-0.01,0.07 -0.04,0.13 -0.09,0.18 0.16,0.03 0.28,0.18 0.26,0.35l-0.59 5.34c0,0.02 -0.01,0.04 -0.01,0.06l-2.85 8.76 0 0.02 -1.82 5.72c-0.06,0.17 -0.23,0.26 -0.4,0.21 -0.17,-0.06 -0.26,-0.23 -0.21,-0.4l1.82 -5.72 0.01 -0.02 2.84 -8.73 0.58 -5.31c0,-0.07 0.04,-0.13 0.08,-0.18 -0.16,-0.03 -0.27,-0.18 -0.25,-0.35l0.42 -3.9zm-1.73 -0.23c0.02,-0.17 0.18,-0.3 0.35,-0.28 0.18,0.02 0.3,0.18 0.28,0.36l-0.41 3.58c-0.02,0.17 -0.18,0.3 -0.35,0.28 -0.18,-0.02 -0.3,-0.18 -0.28,-0.36l0.41 -3.58zm-1.71 -0.24c0.02,-0.18 0.19,-0.29 0.36,-0.27 0.17,0.03 0.29,0.19 0.26,0.37l-0.54 3.39c-0.03,0.18 -0.19,0.29 -0.37,0.27 -0.17,-0.03 -0.29,-0.19 -0.26,-0.37l0.55 -3.39zm-1.74 -0.26c0.03,-0.17 0.19,-0.29 0.37,-0.26 0.17,0.03 0.29,0.19 0.26,0.37l-0.57 3.33c-0.03,0.17 -0.2,0.29 -0.37,0.26 -0.17,-0.03 -0.29,-0.19 -0.26,-0.37l0.57 -3.33zm-1.78 -0.29c0.04,-0.17 0.2,-0.28 0.37,-0.25 0.18,0.03 0.29,0.2 0.26,0.37l-0.62 3.18c-0.04,0.17 -0.21,0.28 -0.38,0.25 -0.17,-0.03 -0.28,-0.2 -0.25,-0.37l0.62 -3.18zm-1.82 -0.32c0.04,-0.17 0.21,-0.28 0.38,-0.24 0.17,0.04 0.28,0.21 0.24,0.38l-0.66 2.86c-0.04,0.17 -0.21,0.28 -0.38,0.24 -0.17,-0.04 -0.27,-0.21 -0.23,-0.38l0.65 -2.86zm-1.73 -0.32c0.04,-0.17 0.21,-0.28 0.38,-0.24 0.17,0.03 0.28,0.2 0.25,0.37l-0.54 2.59c-0.04,0.17 -0.21,0.28 -0.38,0.24 -0.17,-0.03 -0.28,-0.2 -0.24,-0.37l0.53 -2.59zm-1.75 -0.36c0.04,-0.17 0.21,-0.28 0.38,-0.24 0.17,0.04 0.28,0.21 0.24,0.38l-0.58 2.57c-0.03,0.13 -0.12,0.21 -0.24,0.24 0.09,0.07 0.14,0.18 0.12,0.3l-0.84 5.49c0,0.02 -0.01,0.04 -0.01,0.06l-2.8 8.47c0,0.01 -0.01,0.03 -0.02,0.04l-2.34 5.17c-0.07,0.16 -0.26,0.23 -0.42,0.16 -0.16,-0.07 -0.23,-0.26 -0.16,-0.42l2.34 -5.17 2.79 -8.43 0.83 -5.47c0.02,-0.13 0.12,-0.23 0.24,-0.26 -0.09,-0.07 -0.14,-0.19 -0.11,-0.31l0.58 -2.58zm-1.76 -0.41c0.05,-0.17 0.22,-0.27 0.39,-0.22 0.17,0.04 0.27,0.22 0.23,0.39l-0.62 2.31c-0.05,0.17 -0.22,0.27 -0.39,0.22 -0.17,-0.05 -0.27,-0.22 -0.23,-0.39l0.62 -2.31zm-1.63 -0.4c0.04,-0.17 0.21,-0.27 0.38,-0.23 0.17,0.05 0.27,0.22 0.23,0.39l-0.57 2.22c-0.04,0.17 -0.22,0.27 -0.39,0.23 -0.17,-0.04 -0.27,-0.22 -0.23,-0.38l0.58 -2.23zm-1.78 -0.49c0.05,-0.17 0.22,-0.27 0.39,-0.22 0.17,0.04 0.27,0.22 0.22,0.39l-0.5 1.76c-0.04,0.17 -0.22,0.26 -0.39,0.22 -0.17,-0.05 -0.26,-0.22 -0.22,-0.39l0.5 -1.76zm-3.42 -1.17c0.05,-0.17 0.23,-0.26 0.4,-0.2 0.17,0.05 0.25,0.23 0.2,0.4l-0.14 0.4c-0.05,0.17 -0.24,0.26 -0.4,0.2 -0.17,-0.06 -0.26,-0.24 -0.2,-0.4l0.14 -0.4zm3.72 4.23c0.03,-0.17 0.2,-0.28 0.37,-0.24 0.18,0.03 0.28,0.2 0.25,0.37l-1.18 5.28 -0.02 0.04 0 0 -2.95 8.43c0,0.01 -0.01,0.03 -0.02,0.04l0 0 -2.81 5.09c-0.08,0.15 -0.27,0.21 -0.43,0.12 -0.15,-0.08 -0.21,-0.27 -0.12,-0.43l2.79 -5.06 2.94 -8.39 1.18 -5.25zm-3.95 -2.13c0.04,-0.17 0.21,-0.27 0.38,-0.22 0.17,0.04 0.27,0.21 0.23,0.38 -0.21,0.81 -0.48,1.73 -0.79,2.67 -0.3,0.88 -0.63,1.78 -0.97,2.6 -0.44,1.07 -0.82,2.08 -1.19,3.06 -0.64,1.68 -1.24,3.29 -2.07,4.94 -0.69,1.38 -1.31,2.43 -1.93,3.47 -0.2,0.34 -0.4,0.68 -0.58,0.99 -0.09,0.15 -0.28,0.2 -0.43,0.12 -0.15,-0.09 -0.21,-0.29 -0.12,-0.44 0.21,-0.36 0.4,-0.67 0.59,-0.99 0.61,-1.04 1.24,-2.1 1.91,-3.43 0.8,-1.61 1.4,-3.21 2.04,-4.89 0.37,-0.99 0.75,-2.01 1.19,-3.07 0.34,-0.82 0.67,-1.7 0.95,-2.56 0.32,-0.93 0.59,-1.84 0.79,-2.63zm-1.36 -1.12c0.06,-0.17 0.24,-0.26 0.4,-0.2 0.17,0.05 0.26,0.23 0.21,0.39l-1.72 5.16 -0.01 0.03 -3.46 7.99 -0.01 0.02 0 0 -2.3 4.22c-0.08,0.15 -0.27,0.21 -0.43,0.13 -0.15,-0.09 -0.21,-0.28 -0.12,-0.43l2.29 -4.21 3.45 -7.96 1.7 -5.14zm56.34 10.95c0,-0.17 0.15,-0.31 0.32,-0.31 0.18,0.01 0.32,0.15 0.31,0.33 -0.03,1.26 -0.05,2.46 -0.08,3.63 -0.11,5.56 -0.21,10.42 -0.85,16.94 -0.02,0.18 -0.18,0.31 -0.35,0.29 -0.17,-0.02 -0.3,-0.18 -0.28,-0.35 0.64,-6.5 0.74,-11.35 0.85,-16.89 0.03,-1.17 0.05,-2.38 0.08,-3.64zm-1.71 -0.06c0.01,-0.18 0.15,-0.32 0.32,-0.32 0.18,0 0.32,0.15 0.32,0.32 -0.05,4.39 -0.14,8.17 -0.32,11.56 -0.19,3.4 -0.45,6.42 -0.85,9.32 -0.02,0.17 -0.18,0.29 -0.35,0.27 -0.18,-0.02 -0.3,-0.18 -0.27,-0.36 0.39,-2.87 0.65,-5.88 0.83,-9.27 0.18,-3.39 0.28,-7.15 0.32,-11.52zm-6.6 -0.46c0.01,-0.17 0.15,-0.31 0.33,-0.3 0.17,0 0.31,0.15 0.31,0.32 -0.12,3.88 -0.28,7.24 -0.63,10.58 -0.36,3.34 -0.92,6.66 -1.85,10.45 -0.04,0.17 -0.21,0.28 -0.38,0.24 -0.17,-0.05 -0.27,-0.22 -0.23,-0.39 0.92,-3.75 1.47,-7.05 1.83,-10.37 0.35,-3.33 0.51,-6.67 0.62,-10.53zm-1.61 -0.13c0.01,-0.18 0.16,-0.31 0.33,-0.3 0.18,0.01 0.31,0.16 0.3,0.33 -0.04,0.77 -0.08,1.52 -0.12,2.26 -0.36,6.54 -0.68,12.21 -2.71,18.89 -0.05,0.17 -0.23,0.26 -0.4,0.21 -0.16,-0.05 -0.26,-0.22 -0.21,-0.39 2.02,-6.61 2.33,-12.24 2.68,-18.74 0.04,-0.74 0.09,-1.5 0.13,-2.26zm-1.61 -0.06c0.01,-0.18 0.15,-0.31 0.33,-0.3 0.18,0.01 0.31,0.15 0.3,0.33 -0.23,4.27 -0.53,8.11 -1.02,11.57 -0.49,3.46 -1.16,6.55 -2.12,9.32 -0.06,0.17 -0.24,0.26 -0.4,0.2 -0.17,-0.06 -0.26,-0.24 -0.2,-0.4 0.94,-2.73 1.61,-5.78 2.09,-9.21 0.49,-3.44 0.79,-7.26 1.02,-11.51zm-6.17 10.46c0.26,-1.45 0.49,-2.98 0.7,-4.63l0 0 0.54 -5.8c0.02,-0.18 0.18,-0.3 0.35,-0.29 0.17,0.02 0.3,0.17 0.29,0.35l-0.55 5.81 0 0 0 0c-0.2,1.64 -0.44,3.19 -0.71,4.67 -0.27,1.48 -0.57,2.89 -0.88,4.22l0 0.01 -1.59 5.63c-0.05,0.17 -0.23,0.27 -0.4,0.22 -0.16,-0.04 -0.26,-0.22 -0.22,-0.39l1.6 -5.63 0 0m0 0c0.31,-1.34 0.6,-2.72 0.87,-4.17m-0.21 -5.13l0 0.01m-3.66 -6.12c0.01,-0.17 0.16,-0.31 0.33,-0.3 0.18,0.01 0.31,0.16 0.3,0.33l-0.3 5.8c0,0.01 -0.01,0.03 -0.01,0.05l0 0 0 0.01c-0.38,1.64 -0.75,3.21 -1.12,4.73 -0.37,1.54 -0.72,2.95 -1.05,4.24l-0.01 0.04 -1.69 5.78c-0.05,0.17 -0.23,0.27 -0.4,0.22 -0.17,-0.05 -0.26,-0.23 -0.21,-0.39l1.69 -5.79 0 -0.01c0.35,-1.39 0.71,-2.8 1.06,-4.24 0.35,-1.46 0.72,-3.02 1.11,-4.7l0.3 -5.77zm-1.58 -0.05c0.01,-0.17 0.16,-0.3 0.34,-0.3 0.17,0.01 0.3,0.16 0.3,0.34l-0.32 5.55c0,0.03 -0.01,0.05 -0.01,0.07 -0.36,1.63 -0.75,3.2 -1.16,4.72 -0.41,1.54 -0.86,3.05 -1.33,4.52l0 0 -1.65 5.52c-0.05,0.17 -0.23,0.27 -0.39,0.22 -0.17,-0.05 -0.27,-0.23 -0.22,-0.4l1.65 -5.53 0 0 0 0c0.47,-1.45 0.91,-2.95 1.33,-4.49 0.41,-1.53 0.79,-3.1 1.15,-4.68l0.31 -5.54zm0.31 5.66c-0.04,0.14 -0.17,0.24 -0.32,0.23m-1.65 -6.26c0.01,-0.17 0.16,-0.31 0.33,-0.3 0.18,0.01 0.31,0.16 0.3,0.34l-0.35 5.81c0,0.03 -0.01,0.05 -0.01,0.08l0 0c-0.48,1.61 -0.88,3.14 -1.25,4.61 -0.37,1.43 -0.72,2.81 -1.13,4.18l-0.01 0 -1.72 5.98c-0.05,0.17 -0.22,0.27 -0.39,0.22 -0.17,-0.05 -0.27,-0.22 -0.22,-0.39l1.73 -5.98 0 -0.01c0.4,-1.32 0.76,-2.71 1.12,-4.15 0.38,-1.47 0.77,-2.99 1.25,-4.61l0.35 -5.78zm-7.6 4.5c-0.05,0.14 -0.19,0.23 -0.34,0.22m-1.37 -0.35c-0.05,0.14 -0.19,0.23 -0.34,0.22m-1.33 -5.92c0.02,-0.17 0.18,-0.3 0.35,-0.28 0.18,0.02 0.3,0.18 0.28,0.35l-0.59 5.33c-0.01,0.03 -0.01,0.05 -0.02,0.07l-2.83 8.61 -1.83 5.57c-0.05,0.17 -0.23,0.26 -0.4,0.21 -0.16,-0.06 -0.25,-0.23 -0.2,-0.4l1.83 -5.58 2.82 -8.58 0.59 -5.3zm-1.44 -0.49c0.02,-0.18 0.18,-0.3 0.35,-0.28 0.17,0.02 0.3,0.18 0.27,0.36l-0.68 5.32c0,0.02 0,0.04 -0.01,0.06l0 0 -2.84 8.71 -0.01 0.03 -2.07 5.54c-0.06,0.17 -0.24,0.25 -0.4,0.19 -0.17,-0.06 -0.25,-0.24 -0.19,-0.41l2.06 -5.54 0.01 -0.01 2.83 -8.68 0.68 -5.29zm-1.59 -0.38c0.02,-0.17 0.18,-0.29 0.36,-0.26 0.17,0.02 0.29,0.18 0.26,0.36l-0.8 5.31c0,0.01 0,0.03 -0.01,0.04l0 0.01 0 0 -2.74 8.63c0,0.02 -0.01,0.04 -0.02,0.05l-2.32 5.68c-0.07,0.16 -0.25,0.24 -0.41,0.17 -0.17,-0.07 -0.24,-0.25 -0.18,-0.41l2.33 -5.68 2.73 -8.61 0.8 -5.29zm-1.65 -0.26c0.03,-0.18 0.19,-0.3 0.37,-0.27 0.17,0.03 0.29,0.19 0.26,0.36l-0.76 5.05c0,0.02 -0.01,0.03 -0.01,0.05l0 0.01 -2.72 8.61c-0.01,0.02 -0.02,0.03 -0.03,0.05l-2.49 5.78c-0.07,0.16 -0.26,0.24 -0.42,0.17 -0.16,-0.07 -0.24,-0.26 -0.17,-0.42l2.5 -5.78 2.72 -8.59 0.75 -5.02zm-1.6 -0.36c0.03,-0.17 0.19,-0.29 0.36,-0.27 0.18,0.03 0.29,0.19 0.27,0.36l-0.76 5.04c-0.01,0.03 -0.01,0.05 -0.02,0.07l-2.76 8.57 -0.01 0.03 0 0 -2.47 5.57c-0.07,0.16 -0.26,0.24 -0.42,0.17 -0.16,-0.07 -0.23,-0.26 -0.16,-0.42l2.46 -5.57 2.75 -8.53 0.76 -5.02zm-1.66 -0.53c0.02,-0.18 0.18,-0.3 0.36,-0.27 0.17,0.03 0.29,0.19 0.27,0.36l-0.75 5.13c-0.01,0.03 -0.01,0.05 -0.02,0.07l-2.79 8.52 -0.01 0.02 0 0 -2.28 5.32c-0.07,0.16 -0.26,0.23 -0.42,0.16 -0.16,-0.07 -0.23,-0.25 -0.16,-0.41l2.28 -5.31 2.77 -8.48 0.75 -5.11zm-1.59 -0.59c0.02,-0.17 0.18,-0.29 0.35,-0.27 0.18,0.02 0.3,0.18 0.27,0.36l-0.73 5.21c-0.01,0.02 -0.01,0.04 -0.02,0.06l-2.8 8.55 -0.02 0.03 -2.26 5.43c-0.07,0.16 -0.25,0.23 -0.41,0.17 -0.16,-0.07 -0.24,-0.26 -0.17,-0.42l2.26 -5.42 2.79 -8.51 0.74 -5.19zm-2.94 13.94l-0.01 0m-0.09 -14.99c0.03,-0.17 0.19,-0.29 0.36,-0.27 0.17,0.03 0.29,0.19 0.27,0.36l-0.8 5.38c-0.01,0.02 -0.01,0.05 -0.02,0.07l-2.93 8.73c-0.01,0.02 -0.01,0.03 -0.02,0.04l-2.41 4.88c-0.08,0.16 -0.27,0.22 -0.42,0.15 -0.16,-0.08 -0.22,-0.27 -0.15,-0.43l2.4 -4.86 2.92 -8.7 0.8 -5.35zm-1.39 -0.42c0.03,-0.17 0.2,-0.28 0.37,-0.25 0.17,0.03 0.29,0.2 0.25,0.37l-1 5.16 -0.01 0.04 -2.78 8.45c-0.01,0.02 -0.01,0.04 -0.02,0.06l-2.74 5.53c-0.08,0.15 -0.27,0.22 -0.42,0.14 -0.16,-0.08 -0.23,-0.27 -0.15,-0.42l2.73 -5.52 2.77 -8.42 1 -5.14zm-2.52 -0.82c0.05,-0.16 0.22,-0.27 0.39,-0.22 0.17,0.04 0.27,0.22 0.23,0.39l-1.4 5.27 -0.01 0.03 0 0 -2.92 7.98c-0.01,0.02 -0.02,0.04 -0.03,0.05l-2.7 5.14c-0.08,0.16 -0.27,0.22 -0.43,0.13 -0.15,-0.08 -0.21,-0.27 -0.13,-0.42l2.7 -5.14 2.91 -7.95 1.39 -5.26zm-1.27 -0.82c0.05,-0.17 0.23,-0.26 0.39,-0.21 0.17,0.05 0.26,0.23 0.21,0.4l-1.71 5.34 0 0.01 0 0 -3.09 8.06c-0.01,0.01 -0.01,0.03 -0.02,0.04l-2.63 4.58c-0.08,0.16 -0.28,0.21 -0.43,0.12 -0.15,-0.08 -0.21,-0.28 -0.12,-0.43l2.62 -4.56 3.08 -8.03 0 0 1.7 -5.32zm56.83 8.84c0,-0.17 0.14,-0.31 0.32,-0.31 0.17,0 0.31,0.15 0.31,0.32 -0.06,3.4 -0.08,6.3 -0.1,9.07 -0.02,3.87 -0.04,7.5 -0.18,11.87 -0.01,0.17 -0.15,0.31 -0.33,0.31 -0.17,-0.01 -0.31,-0.15 -0.31,-0.33 0.15,-4.37 0.17,-7.99 0.19,-11.86 0.02,-2.77 0.03,-5.68 0.1,-9.07z"/>
 </g>
</svg>
