<?xml version="1.0" encoding="UTF-8"?>
<!DOCTYPE svg PUBLIC "-//W3C//DTD SVG 1.1//EN" "http://www.w3.org/Graphics/SVG/1.1/DTD/svg11.dtd">
<!-- Creator: CorelDRAW -->
<svg xmlns="http://www.w3.org/2000/svg" xml:space="preserve" width="888px" height="598px" version="1.1" style="shape-rendering:geometricPrecision; text-rendering:geometricPrecision; image-rendering:optimizeQuality; fill-rule:evenodd; clip-rule:evenodd"
viewBox="0 0 888 598.5"
 xmlns:xlink="http://www.w3.org/1999/xlink"
 xmlns:xodm="http://www.corel.com/coreldraw/odm/2003">
 <defs>
  <style type="text/css">
   <![CDATA[
    .str0 {stroke:#ED3237;stroke-width:0.9;stroke-miterlimit:22.9256}
    .fil0 {fill:#FEFEFE}
    .fil1 {fill:#373435;fill-rule:nonzero;fill-opacity:0.501961}
   ]]>
  </style>
 </defs>
 <g id="Capa_x0020_1">
  <metadata id="CorelCorpID_0Corel-Layer"/>
  <rect class="fil0 str0" x="0.43" y="1.21" width="887.1" height="597.6"/>
  <path class="fil1" d="M631.39 369.11c0,-0.19 0.15,-0.34 0.34,-0.33 0.19,0 0.33,0.16 0.33,0.34 -0.05,1.93 -0.07,3.74 -0.09,5.51 -0.07,5.3 -0.14,10.2 -0.8,16.36 -0.02,0.19 -0.19,0.32 -0.38,0.3 -0.18,-0.02 -0.32,-0.18 -0.29,-0.37 0.66,-6.14 0.73,-11.02 0.79,-16.3 0.02,-1.77 0.05,-3.6 0.1,-5.51zm6.89 0.01c0,-0.18 0.15,-0.34 0.33,-0.34 0.19,-0.01 0.34,0.14 0.35,0.33 0.04,1.91 0.07,3.74 0.09,5.51 0.07,5.28 0.13,10.16 0.8,16.3 0.02,0.19 -0.12,0.35 -0.3,0.37 -0.19,0.02 -0.35,-0.11 -0.37,-0.3 -0.67,-6.16 -0.73,-11.06 -0.8,-16.36 -0.03,-1.77 -0.05,-3.58 -0.1,-5.51zm58.36 -11.9c-0.07,-0.17 0.02,-0.36 0.2,-0.43 0.17,-0.06 0.37,0.03 0.43,0.2l0.42 1.17c0.07,0.17 -0.02,0.37 -0.2,0.43 -0.17,0.06 -0.36,-0.03 -0.43,-0.2l-0.42 -1.17zm-61.08 6.19c0,-0.18 0.15,-0.33 0.33,-0.34 0.19,0 0.34,0.15 0.34,0.34l0.05 5.11c0,0.18 -0.15,0.33 -0.34,0.34 -0.18,0 -0.34,-0.15 -0.34,-0.34l-0.04 -5.11zm2.08 -0.17c0,-0.18 0.15,-0.33 0.33,-0.33 0.19,0 0.34,0.15 0.34,0.33l-0.01 5.25c0,0.19 -0.15,0.34 -0.34,0.34 -0.18,0 -0.33,-0.15 -0.33,-0.34l0.01 -5.25zm1.8 0.04c-0.01,-0.19 0.14,-0.34 0.33,-0.35 0.18,0 0.34,0.15 0.34,0.33l0.16 5.18c0.01,0.19 -0.14,0.35 -0.33,0.35 -0.18,0 -0.34,-0.14 -0.34,-0.33l-0.16 -5.18zm1.83 -0.21c-0.01,-0.19 0.14,-0.35 0.33,-0.35 0.18,-0.01 0.34,0.14 0.35,0.32l0.23 5.35c0,0.19 -0.14,0.35 -0.33,0.35 -0.18,0.01 -0.34,-0.13 -0.35,-0.32l-0.23 -5.35zm2.22 0.26c0,-0.19 0.14,-0.34 0.33,-0.34 0.19,-0.01 0.34,0.14 0.34,0.33l0.12 5.02c0,0.12 -0.05,0.22 -0.14,0.29 0.11,0.05 0.19,0.16 0.19,0.3 0.05,5.24 0.2,9.21 0.45,12.66 0.24,3.45 0.58,6.37 1.01,9.51 0.02,0.19 -0.11,0.36 -0.29,0.38 -0.19,0.03 -0.36,-0.1 -0.38,-0.28 -0.43,-3.17 -0.77,-6.11 -1.02,-9.56 -0.24,-3.45 -0.39,-7.43 -0.45,-12.71 0,-0.11 0.06,-0.21 0.14,-0.28 -0.1,-0.05 -0.18,-0.16 -0.18,-0.29l-0.12 -5.03zm1.85 -0.2c0,-0.18 0.14,-0.34 0.33,-0.35 0.19,0 0.34,0.14 0.35,0.33l0.16 5.17c0.01,0.12 -0.05,0.22 -0.14,0.29 0.01,0.03 0.02,0.07 0.02,0.12 0.03,4.26 0.2,8.15 0.5,11.82 0.3,3.67 0.74,7.11 1.32,10.51 0.03,0.18 -0.09,0.35 -0.27,0.39 -0.19,0.03 -0.36,-0.1 -0.39,-0.28 -0.59,-3.42 -1.03,-6.88 -1.34,-10.56 -0.3,-3.67 -0.46,-7.57 -0.49,-11.88 0,-0.12 0.05,-0.22 0.14,-0.28 -0.01,-0.03 -0.02,-0.07 -0.02,-0.11l-0.17 -5.17zm2.16 0.1c0,-0.19 0.15,-0.34 0.33,-0.34 0.19,-0.01 0.34,0.14 0.35,0.33l0.08 4.99c0,0.19 -0.14,0.34 -0.33,0.34 -0.08,0 -0.15,-0.02 -0.21,-0.06 0.02,0.03 0.02,0.07 0.02,0.11 0.14,4.26 0.31,8.12 0.65,11.79 0.33,3.65 0.84,7.12 1.65,10.59 0.04,0.18 -0.07,0.36 -0.25,0.41 -0.18,0.04 -0.36,-0.08 -0.41,-0.26 -0.81,-3.49 -1.32,-6.99 -1.67,-10.68 -0.34,-3.69 -0.51,-7.56 -0.64,-11.83 0,-0.19 0.14,-0.35 0.33,-0.35 0.08,0 0.15,0.02 0.21,0.07 -0.01,-0.04 -0.02,-0.08 -0.02,-0.12l-0.09 -4.99zm1.95 -0.06c-0.01,-0.18 0.13,-0.34 0.32,-0.35 0.18,-0.01 0.34,0.14 0.35,0.33l0.22 4.97c0.01,0.18 -0.14,0.34 -0.32,0.35 -0.19,0 -0.34,-0.14 -0.35,-0.33l-0.22 -4.97zm1.92 -0.06c-0.01,-0.19 0.13,-0.35 0.31,-0.36 0.19,-0.01 0.35,0.13 0.36,0.32l0.32 4.94c0.01,0.19 -0.13,0.35 -0.32,0.36 -0.18,0.01 -0.34,-0.13 -0.35,-0.31l-0.32 -4.95zm1.96 -0.08c-0.02,-0.18 0.12,-0.35 0.31,-0.36 0.18,-0.01 0.35,0.12 0.36,0.31l0.38 4.92c0,0.04 0,0.07 -0.01,0.1l0.01 0c0.19,-0.01 0.34,0.14 0.35,0.32 0.17,3.95 0.48,7.69 1.04,11.34 0.56,3.63 1.38,7.17 2.58,10.7 0.06,0.18 -0.04,0.37 -0.21,0.43 -0.18,0.06 -0.37,-0.04 -0.43,-0.21 -1.21,-3.58 -2.04,-7.15 -2.61,-10.82 -0.56,-3.66 -0.87,-7.43 -1.04,-11.41 0,-0.03 0,-0.06 0.01,-0.09l0 0c-0.19,0.02 -0.35,-0.12 -0.37,-0.31l-0.37 -4.92zm1.94 -0.09c-0.01,-0.19 0.13,-0.35 0.32,-0.36 0.18,-0.02 0.34,0.12 0.36,0.31l0.35 4.9c0,0.09 -0.03,0.17 -0.08,0.24l0.04 -0.01c0.18,-0.01 0.34,0.14 0.35,0.32 0.19,3.73 0.52,7.44 1.11,11.09 0.58,3.63 1.42,7.21 2.61,10.69 0.06,0.18 -0.03,0.37 -0.21,0.43 -0.18,0.06 -0.37,-0.03 -0.43,-0.21 -1.2,-3.51 -2.05,-7.13 -2.64,-10.81 -0.59,-3.67 -0.93,-7.4 -1.11,-11.16 -0.01,-0.08 0.02,-0.16 0.07,-0.23l-0.03 0.01c-0.18,0.01 -0.34,-0.13 -0.36,-0.31l-0.35 -4.9zm2.02 -0.11c-0.01,-0.19 0.13,-0.35 0.32,-0.36 0.18,-0.01 0.34,0.13 0.36,0.32l0.34 4.87c0.01,0.18 -0.13,0.34 -0.32,0.36 -0.19,0.01 -0.35,-0.13 -0.36,-0.32l-0.34 -4.87zm2.03 -0.11c-0.02,-0.19 0.12,-0.35 0.31,-0.37 0.18,-0.01 0.34,0.13 0.36,0.31l0.43 4.83c0.02,0.19 -0.12,0.35 -0.3,0.37 -0.03,0 -0.06,0 -0.08,-0.01 0,0.02 0,0.04 0.01,0.05l0.41 6.01c0.26,1.81 0.56,3.53 0.89,5.15 0.33,1.62 0.7,3.15 1.11,4.57l0 0 0 0 1.69 6.02c0.05,0.18 -0.05,0.37 -0.23,0.42 -0.18,0.05 -0.37,-0.06 -0.42,-0.24l-1.69 -6.02 0 0c-0.41,-1.43 -0.79,-2.98 -1.12,-4.62 -0.34,-1.65 -0.64,-3.38 -0.9,-5.19l0 -0.03 -0.42 -6.02c-0.01,-0.19 0.13,-0.35 0.32,-0.36 0.02,0 0.04,0 0.07,0l-0.01 -0.04 -0.43 -4.83zm1.97 -0.12c-0.01,-0.19 0.12,-0.35 0.31,-0.37 0.18,-0.02 0.35,0.12 0.37,0.3l0.45 4.8c0.02,0.18 -0.12,0.35 -0.3,0.36 -0.13,0.01 -0.24,-0.04 -0.31,-0.13l0.47 6.46c0.27,1.65 0.57,3.25 0.92,4.79 0.35,1.54 0.75,3.02 1.19,4.44l0.01 0.02 1.88 6.32c0.05,0.18 -0.05,0.37 -0.23,0.42 -0.18,0.05 -0.37,-0.05 -0.42,-0.23l-1.88 -6.32 0 -0.01c-0.45,-1.42 -0.85,-2.93 -1.21,-4.49 -0.35,-1.56 -0.66,-3.17 -0.93,-4.83 0,-0.01 0,-0.03 0,-0.05l-0.47 -6.51c-0.02,-0.19 0.12,-0.35 0.31,-0.36 0.12,-0.01 0.23,0.04 0.29,0.13l-0.45 -4.74zm1.97 -0.14c-0.01,-0.19 0.12,-0.35 0.31,-0.37 0.19,-0.01 0.35,0.12 0.36,0.31l0.41 4.76c0.02,0.18 -0.12,0.34 -0.31,0.36 -0.18,0.02 -0.35,-0.12 -0.36,-0.31l-0.41 -4.75zm1.95 -0.15c-0.01,-0.19 0.13,-0.35 0.31,-0.37 0.19,-0.01 0.35,0.13 0.37,0.31l0.4 4.71c0.01,0.19 -0.13,0.35 -0.31,0.37 -0.19,0.01 -0.35,-0.13 -0.37,-0.31l-0.4 -4.71zm1.88 -0.16c-0.01,-0.18 0.12,-0.35 0.31,-0.36 0.19,-0.01 0.35,0.12 0.36,0.31l0.36 4.6c0.05,-0.05 0.12,-0.08 0.19,-0.08 0.18,-0.02 0.35,0.12 0.37,0.3l0.6 6.17 2.76 9.42 0.01 0.02 1.77 6.14c0.05,0.17 -0.06,0.36 -0.24,0.41 -0.17,0.05 -0.36,-0.05 -0.41,-0.23l-1.77 -6.14 -0.01 -0.02 -2.77 -9.43 0 0c0,-0.02 -0.01,-0.05 -0.01,-0.07l-0.6 -6.14c-0.05,0.04 -0.12,0.07 -0.19,0.08 -0.19,0.01 -0.35,-0.13 -0.37,-0.31l-0.36 -4.67zm1.76 -0.31c-0.02,-0.18 0.11,-0.35 0.3,-0.36 0.18,-0.02 0.35,0.11 0.37,0.3l0.47 4.7c0.04,-0.02 0.07,-0.03 0.12,-0.03 0.18,-0.02 0.35,0.11 0.37,0.3l0.57 5.77 2.85 9.68 0 0.01 1.91 6.2c0.06,0.18 -0.04,0.37 -0.22,0.42 -0.18,0.06 -0.37,-0.04 -0.42,-0.22l-1.92 -6.21 0 -0.01 -2.86 -9.71 0 0c-0.01,-0.02 -0.01,-0.04 -0.01,-0.06l-0.57 -5.75c-0.04,0.02 -0.07,0.03 -0.12,0.03 -0.18,0.02 -0.35,-0.11 -0.36,-0.3l-0.48 -4.76zm1.91 -0.03c-0.02,-0.18 0.12,-0.35 0.3,-0.37 0.19,-0.02 0.36,0.12 0.38,0.3l0.48 4.52c0.01,0.07 -0.01,0.14 -0.04,0.2 0.12,0.04 0.21,0.15 0.22,0.29l0.57 5.76 3.01 9.28 0.01 0.02 1.94 6.03c0.05,0.18 -0.04,0.37 -0.22,0.43 -0.18,0.05 -0.37,-0.04 -0.43,-0.22l-1.94 -6.04 0 -0.01 -3.02 -9.32 0 0c-0.01,-0.02 -0.01,-0.04 -0.02,-0.07l-0.57 -5.8c-0.01,-0.07 0.01,-0.14 0.04,-0.2 -0.12,-0.04 -0.21,-0.15 -0.22,-0.28l-0.49 -4.52zm1.72 -0.39c-0.02,-0.18 0.12,-0.35 0.3,-0.37 0.19,-0.01 0.35,0.12 0.37,0.31l0.48 4.65c0.05,0.05 0.09,0.12 0.1,0.2l0.62 5.96 3.01 9.28 2.07 6.31c0.06,0.17 -0.04,0.37 -0.21,0.42 -0.18,0.06 -0.37,-0.04 -0.43,-0.21l-2.07 -6.31 -3.03 -9.32c0,-0.02 -0.01,-0.04 -0.01,-0.07l-0.62 -5.96c-0.05,-0.05 -0.08,-0.12 -0.09,-0.2l-0.49 -4.69zm1.72 -0.24c-0.03,-0.18 0.1,-0.35 0.29,-0.38 0.18,-0.02 0.35,0.11 0.38,0.29l0.59 4.54c0.02,0.16 -0.08,0.31 -0.23,0.36l0 0.02 0.62 5.64 3.01 9.28 2.26 6.42c0.07,0.17 -0.03,0.37 -0.2,0.43 -0.18,0.06 -0.37,-0.03 -0.43,-0.21l-2.26 -6.42 -0.01 -0.01 -3.02 -9.31c0,-0.02 -0.01,-0.04 -0.01,-0.07l-0.63 -5.67c-0.01,-0.16 0.09,-0.31 0.23,-0.36l0 -0.01 -0.59 -4.54zm1.91 0.05c-0.02,-0.18 0.12,-0.35 0.3,-0.37 0.19,-0.02 0.36,0.12 0.38,0.3l0.44 4.16c0.02,0.17 -0.1,0.33 -0.27,0.37 0.05,0.05 0.08,0.11 0.09,0.19l0.62 5.64 3.01 9.28 0.01 0.02 1.94 6.09c0.05,0.17 -0.04,0.36 -0.22,0.42 -0.18,0.05 -0.37,-0.04 -0.42,-0.22l-1.94 -6.08 -0.01 -0.02 -3.02 -9.31c-0.01,-0.03 -0.01,-0.05 -0.02,-0.07l-0.62 -5.68c-0.02,-0.17 0.1,-0.33 0.27,-0.37 -0.05,-0.05 -0.08,-0.12 -0.09,-0.19l-0.45 -4.16zm1.84 -0.23c-0.02,-0.18 0.11,-0.35 0.3,-0.37 0.18,-0.02 0.35,0.11 0.37,0.3l0.44 3.8c0.02,0.19 -0.11,0.36 -0.3,0.38 -0.18,0.02 -0.35,-0.12 -0.37,-0.3l-0.44 -3.81zm1.83 -0.23c-0.03,-0.18 0.1,-0.35 0.28,-0.38 0.18,-0.03 0.36,0.09 0.38,0.28l0.58 3.61c0.03,0.18 -0.09,0.35 -0.28,0.38 -0.18,0.03 -0.35,-0.09 -0.38,-0.28l-0.58 -3.61zm1.84 -0.26c-0.03,-0.19 0.1,-0.36 0.28,-0.39 0.18,-0.04 0.36,0.09 0.39,0.27l0.61 3.55c0.03,0.18 -0.1,0.36 -0.28,0.39 -0.18,0.03 -0.36,-0.09 -0.39,-0.28l-0.61 -3.54zm1.9 -0.3c-0.04,-0.18 0.08,-0.36 0.26,-0.39 0.19,-0.04 0.36,0.08 0.4,0.26l0.66 3.38c0.03,0.18 -0.09,0.36 -0.27,0.4 -0.18,0.03 -0.36,-0.09 -0.39,-0.27l-0.66 -3.38zm1.94 -0.32c-0.05,-0.18 0.07,-0.36 0.25,-0.4 0.18,-0.04 0.36,0.07 0.4,0.25l0.7 3.04c0.05,0.18 -0.07,0.36 -0.25,0.41 -0.18,0.04 -0.36,-0.08 -0.4,-0.26l-0.7 -3.04zm1.83 -0.35c-0.04,-0.18 0.08,-0.36 0.26,-0.4 0.19,-0.03 0.36,0.08 0.4,0.27l0.58 2.75c0.03,0.18 -0.08,0.36 -0.27,0.39 -0.18,0.04 -0.36,-0.08 -0.4,-0.26l-0.57 -2.75zm1.87 -0.37c-0.04,-0.18 0.07,-0.36 0.25,-0.4 0.18,-0.04 0.36,0.07 0.4,0.25l0.62 2.74c0.03,0.13 -0.02,0.26 -0.11,0.34 0.12,0.03 0.23,0.13 0.25,0.27l0.89 5.81 2.96 8.97 2.49 5.49c0.08,0.17 0,0.37 -0.17,0.45 -0.17,0.08 -0.37,0 -0.45,-0.17l-2.49 -5.49c-0.01,-0.02 -0.02,-0.04 -0.02,-0.05l-2.97 -9.01c-0.01,-0.02 -0.01,-0.04 -0.02,-0.06l-0.89 -5.84c-0.02,-0.12 0.03,-0.24 0.13,-0.31 -0.13,-0.03 -0.22,-0.13 -0.25,-0.25l-0.62 -2.74zm1.87 -0.41c-0.04,-0.18 0.06,-0.36 0.24,-0.41 0.18,-0.05 0.37,0.06 0.41,0.24l0.66 2.45c0.05,0.18 -0.06,0.37 -0.23,0.42 -0.19,0.04 -0.37,-0.06 -0.42,-0.24l-0.66 -2.46zm1.74 -0.43c-0.04,-0.18 0.07,-0.36 0.24,-0.41 0.19,-0.05 0.37,0.06 0.41,0.24l0.61 2.37c0.05,0.18 -0.06,0.36 -0.24,0.41 -0.18,0.04 -0.37,-0.07 -0.41,-0.25l-0.61 -2.36zm1.89 -0.51c-0.05,-0.18 0.06,-0.37 0.24,-0.42 0.17,-0.05 0.36,0.06 0.41,0.24l0.53 1.87c0.05,0.18 -0.05,0.36 -0.23,0.41 -0.18,0.05 -0.37,-0.05 -0.42,-0.23l-0.53 -1.87zm3.65 -1.21c-0.06,-0.18 0.04,-0.37 0.21,-0.43 0.18,-0.06 0.37,0.04 0.43,0.21l0.15 0.43c0.06,0.17 -0.04,0.37 -0.21,0.43 -0.18,0.06 -0.37,-0.04 -0.43,-0.21l-0.15 -0.43zm-3.97 4.42c-0.04,-0.18 0.07,-0.36 0.26,-0.4 0.18,-0.04 0.36,0.08 0.4,0.26l1.25 5.59 3.12 8.91 2.97 5.38c0.09,0.17 0.03,0.37 -0.13,0.46 -0.17,0.09 -0.37,0.03 -0.46,-0.13l-2.98 -5.41 0 0c-0.01,-0.01 -0.02,-0.03 -0.03,-0.05l-3.13 -8.96 0 0 -0.02 -0.04 -1.25 -5.61zm4.2 -2.23c-0.04,-0.18 0.07,-0.37 0.25,-0.41 0.18,-0.05 0.36,0.06 0.4,0.24 0.22,0.83 0.51,1.8 0.84,2.79 0.3,0.92 0.65,1.85 1.01,2.72 0.47,1.13 0.88,2.22 1.27,3.27 0.67,1.79 1.31,3.48 2.17,5.19 0.71,1.42 1.38,2.54 2.03,3.65 0.2,0.34 0.4,0.68 0.62,1.06 0.1,0.16 0.04,0.36 -0.12,0.46 -0.16,0.09 -0.37,0.04 -0.46,-0.12 -0.2,-0.34 -0.41,-0.7 -0.62,-1.05 -0.65,-1.11 -1.32,-2.23 -2.05,-3.7 -0.88,-1.75 -1.52,-3.46 -2.2,-5.25 -0.39,-1.04 -0.79,-2.12 -1.26,-3.25 -0.37,-0.88 -0.72,-1.83 -1.03,-2.77 -0.33,-0.99 -0.63,-1.97 -0.85,-2.83zm1.45 -1.16c-0.05,-0.17 0.04,-0.36 0.22,-0.42 0.17,-0.06 0.37,0.04 0.42,0.21l1.82 5.47 3.67 8.46 2.43 4.47c0.09,0.17 0.03,0.37 -0.13,0.46 -0.17,0.09 -0.37,0.03 -0.46,-0.13l-2.44 -4.49 0 0 -0.02 -0.02 -3.67 -8.49 -0.02 -0.03 -1.82 -5.49zm-59.92 11.46c0,-0.19 0.14,-0.34 0.33,-0.35 0.19,0 0.34,0.15 0.34,0.33 0.04,1.33 0.06,2.62 0.09,3.87 0.12,5.88 0.23,11.04 0.91,17.95 0.02,0.19 -0.12,0.35 -0.31,0.37 -0.18,0.02 -0.34,-0.11 -0.36,-0.3 -0.69,-6.93 -0.79,-12.11 -0.91,-18.01 -0.03,-1.24 -0.06,-2.52 -0.09,-3.86zm1.82 -0.08c-0.01,-0.19 0.14,-0.34 0.33,-0.34 0.19,0 0.34,0.14 0.34,0.33 0.05,4.65 0.15,8.65 0.34,12.25 0.19,3.6 0.48,6.8 0.89,9.86 0.02,0.18 -0.1,0.35 -0.29,0.38 -0.18,0.02 -0.35,-0.11 -0.38,-0.29 -0.42,-3.08 -0.7,-6.3 -0.89,-9.91 -0.19,-3.61 -0.29,-7.61 -0.34,-12.28zm7.01 -0.47c0,-0.19 0.15,-0.34 0.33,-0.35 0.19,0 0.34,0.14 0.35,0.33 0.12,4.1 0.28,7.65 0.66,11.19 0.38,3.53 0.97,7.03 1.94,11.03 0.05,0.18 -0.06,0.36 -0.24,0.4 -0.18,0.05 -0.37,-0.06 -0.41,-0.25 -0.99,-4.03 -1.58,-7.56 -1.96,-11.11 -0.38,-3.55 -0.54,-7.12 -0.67,-11.24zm1.72 -0.13c-0.01,-0.19 0.13,-0.34 0.31,-0.35 0.19,-0.01 0.35,0.13 0.36,0.31 0.05,0.82 0.09,1.62 0.14,2.4 0.38,6.91 0.71,12.9 2.85,19.93 0.05,0.18 -0.05,0.36 -0.23,0.42 -0.18,0.05 -0.37,-0.05 -0.42,-0.23 -2.16,-7.1 -2.5,-13.13 -2.88,-20.08 -0.04,-0.79 -0.09,-1.58 -0.13,-2.4zm1.71 -0.07c-0.01,-0.18 0.14,-0.34 0.32,-0.35 0.19,-0.01 0.35,0.13 0.36,0.32 0.24,4.52 0.56,8.58 1.08,12.24 0.51,3.65 1.22,6.89 2.22,9.78 0.06,0.18 -0.04,0.37 -0.21,0.43 -0.18,0.06 -0.37,-0.03 -0.43,-0.21 -1.02,-2.94 -1.73,-6.22 -2.25,-9.91 -0.52,-3.68 -0.85,-7.76 -1.09,-12.3zm5.24 0.07c-0.02,-0.19 0.12,-0.35 0.3,-0.37 0.18,-0.02 0.35,0.12 0.37,0.3l0.58 6.17 0 0c0.22,1.75 0.47,3.38 0.75,4.92 0.27,1.54 0.59,3.01 0.92,4.44l1.69 5.98c0.05,0.18 -0.05,0.37 -0.23,0.42 -0.18,0.05 -0.37,-0.06 -0.42,-0.24l-1.69 -6c-0.33,-1.41 -0.65,-2.9 -0.94,-4.48m-1.33 -11.14l0.58 6.18 0 0c0.21,1.74 0.47,3.39 0.75,4.96m1.59 4.32l0 0m-0.7 -9.88l0 -0.01m3.21 -6.46c-0.01,-0.19 0.14,-0.35 0.32,-0.36 0.19,-0.01 0.35,0.14 0.36,0.32l0.32 6.13c0.41,1.79 0.8,3.45 1.18,5 0.37,1.53 0.74,3.03 1.12,4.51l0 0.01 1.8 6.15c0.05,0.18 -0.05,0.37 -0.23,0.42 -0.18,0.05 -0.36,-0.05 -0.42,-0.23l-1.8 -6.15 -0.01 -0.04c-0.34,-1.37 -0.72,-2.87 -1.11,-4.51 -0.4,-1.61 -0.79,-3.28 -1.19,-5.02l0 -0.01 0 -0.01c-0.01,-0.01 -0.01,-0.03 -0.01,-0.05l-0.33 -6.16zm1.68 -0.05c-0.01,-0.18 0.13,-0.34 0.32,-0.35 0.18,-0.01 0.34,0.13 0.35,0.31l0.34 5.88c0.37,1.69 0.78,3.35 1.22,4.99 0.44,1.63 0.91,3.22 1.41,4.77l0 0 0 0 1.75 5.88c0.06,0.18 -0.05,0.37 -0.22,0.42 -0.18,0.05 -0.37,-0.05 -0.42,-0.23l-1.76 -5.87 0 0c-0.5,-1.57 -0.97,-3.17 -1.41,-4.8 -0.44,-1.62 -0.85,-3.29 -1.23,-5.02 -0.01,-0.02 -0.01,-0.05 -0.01,-0.08l-0.34 -5.9zm1.77 -0.39c-0.01,-0.19 0.13,-0.35 0.31,-0.36 0.19,-0.01 0.35,0.13 0.36,0.32l0.37 6.14c0.52,1.72 0.93,3.34 1.33,4.9 0.39,1.53 0.77,3.01 1.19,4.41l0.01 0.02 1.83 6.35c0.05,0.18 -0.05,0.37 -0.23,0.42 -0.18,0.05 -0.37,-0.05 -0.42,-0.23l-1.83 -6.36 0 0c-0.45,-1.47 -0.82,-2.92 -1.21,-4.45 -0.4,-1.56 -0.81,-3.18 -1.32,-4.9l0 0c-0.01,-0.03 -0.02,-0.05 -0.02,-0.08l-0.37 -6.18zm11.67 -1.38c-0.02,-0.18 0.11,-0.35 0.3,-0.37 0.18,-0.02 0.35,0.11 0.37,0.3l0.63 5.62 3 9.13 1.94 5.93c0.06,0.18 -0.04,0.37 -0.21,0.43 -0.18,0.05 -0.37,-0.04 -0.43,-0.22l-1.94 -5.93 -3.01 -9.15c-0.01,-0.02 -0.01,-0.05 -0.02,-0.08l-0.63 -5.66zm1.54 -0.52c-0.02,-0.18 0.11,-0.35 0.29,-0.37 0.19,-0.03 0.35,0.1 0.38,0.29l0.72 5.63 3.01 9.23 0 0.01 2.2 5.88c0.06,0.18 -0.03,0.37 -0.2,0.44 -0.18,0.06 -0.37,-0.03 -0.44,-0.2l-2.19 -5.89 -0.01 -0.03 -3.02 -9.26 0 0c-0.01,-0.02 -0.01,-0.04 -0.02,-0.07l-0.72 -5.66zm1.69 -0.38c-0.03,-0.18 0.1,-0.36 0.28,-0.38 0.19,-0.03 0.36,0.1 0.39,0.28l0.85 5.62 2.9 9.16 2.47 6.03c0.07,0.17 -0.01,0.37 -0.18,0.44 -0.17,0.07 -0.37,-0.01 -0.44,-0.19l-2.47 -6.03c-0.01,-0.01 -0.02,-0.03 -0.02,-0.05l-2.91 -9.18 0 0 -0.01 0c0,-0.02 -0.01,-0.04 -0.01,-0.05l-0.85 -5.65zm1.74 -0.28c-0.02,-0.19 0.1,-0.36 0.29,-0.39 0.18,-0.02 0.36,0.1 0.38,0.29l0.81 5.34 2.88 9.13 2.66 6.14c0.07,0.18 -0.01,0.37 -0.18,0.45 -0.17,0.07 -0.37,-0.01 -0.44,-0.18l-2.65 -6.14c-0.01,-0.02 -0.02,-0.04 -0.03,-0.06l-2.89 -9.15 0 -0.01c-0.01,-0.02 -0.01,-0.03 -0.02,-0.05l-0.81 -5.37zm1.71 -0.38c-0.03,-0.18 0.1,-0.36 0.28,-0.38 0.19,-0.03 0.36,0.1 0.39,0.28l0.8 5.33 2.93 9.07 2.61 5.92c0.08,0.17 0,0.37 -0.17,0.45 -0.17,0.07 -0.37,-0.01 -0.45,-0.18l-2.62 -5.92 0 0 -0.01 -0.04 -2.93 -9.1c-0.01,-0.03 -0.02,-0.05 -0.02,-0.08l-0.81 -5.35zm1.77 -0.57c-0.03,-0.18 0.1,-0.35 0.28,-0.38 0.19,-0.03 0.36,0.1 0.38,0.28l0.8 5.43 2.95 9.02 2.42 5.64c0.07,0.17 0,0.37 -0.18,0.45 -0.17,0.07 -0.37,-0.01 -0.44,-0.18l-2.43 -5.65 0 0 -0.01 -0.03 -2.96 -9.05c-0.01,-0.02 -0.01,-0.05 -0.02,-0.07l-0.79 -5.46zm1.69 -0.63c-0.03,-0.18 0.1,-0.35 0.29,-0.38 0.18,-0.02 0.35,0.11 0.38,0.29l0.78 5.51 2.97 9.06 2.4 5.76c0.08,0.17 -0.01,0.37 -0.18,0.44 -0.17,0.07 -0.37,-0.01 -0.44,-0.18l-2.4 -5.77 -0.02 -0.03 -2.98 -9.1c-0.01,-0.01 -0.01,-0.03 -0.02,-0.05l-0.78 -5.55zm3.8 14.73l-0.01 -0.01m-0.56 -15.83c-0.03,-0.18 0.1,-0.35 0.28,-0.38 0.19,-0.03 0.36,0.1 0.38,0.28l0.85 5.69 3.11 9.25 2.55 5.17c0.08,0.16 0.01,0.37 -0.16,0.45 -0.16,0.08 -0.36,0.01 -0.45,-0.15l-2.56 -5.19c0,-0.02 -0.01,-0.03 -0.01,-0.04l-3.12 -9.29c-0.01,-0.02 -0.02,-0.05 -0.02,-0.07l-0.85 -5.72zm1.48 -0.42c-0.03,-0.18 0.08,-0.36 0.27,-0.39 0.18,-0.04 0.36,0.08 0.39,0.27l1.06 5.47 2.95 8.94 2.9 5.86c0.08,0.17 0.01,0.37 -0.15,0.46 -0.17,0.08 -0.37,0.01 -0.45,-0.16l-2.91 -5.87c-0.01,-0.02 -0.02,-0.04 -0.03,-0.06l-2.95 -8.99 -0.01 -0.04 -1.07 -5.49zm2.69 -0.82c-0.05,-0.18 0.06,-0.36 0.24,-0.41 0.18,-0.05 0.36,0.06 0.41,0.24l1.48 5.59 3.1 8.45 2.86 5.46c0.09,0.16 0.03,0.37 -0.14,0.45 -0.16,0.09 -0.37,0.03 -0.45,-0.14l-2.87 -5.46c-0.01,-0.02 -0.02,-0.04 -0.03,-0.06l-3.11 -8.48 0 0 -0.01 -0.03 -1.48 -5.61zm1.36 -0.85c-0.05,-0.17 0.05,-0.36 0.22,-0.42 0.18,-0.06 0.37,0.04 0.43,0.22l1.8 5.65 0 0 3.28 8.54 2.78 4.85c0.09,0.16 0.03,0.37 -0.13,0.46 -0.16,0.09 -0.37,0.04 -0.46,-0.12l-2.79 -4.87c-0.01,-0.02 -0.02,-0.03 -0.02,-0.05l-3.29 -8.57 0 0 0 -0.01 -1.82 -5.68zm-62.08 9.5c0,-0.18 0.15,-0.34 0.33,-0.34 0.19,0 0.34,0.15 0.35,0.33 0.04,2.7 0.05,5.2 0.05,7.65 0,4.59 0.01,9.05 0.32,14.55 0.01,0.18 -0.13,0.34 -0.32,0.35 -0.19,0.01 -0.35,-0.13 -0.35,-0.32 -0.31,-5.49 -0.32,-9.97 -0.32,-14.58 -0.01,-2.45 -0.01,-4.93 -0.06,-7.64zm1.64 -0.28c-0.01,-0.19 0.14,-0.34 0.32,-0.35 0.19,-0.01 0.35,0.14 0.35,0.33 0.13,3.49 0.13,6.57 0.14,9.57 0,4.08 0.01,8.01 0.33,12.67 0.01,0.18 -0.13,0.35 -0.31,0.36 -0.19,0.01 -0.35,-0.13 -0.36,-0.32 -0.32,-4.66 -0.33,-8.61 -0.33,-12.71 -0.01,-2.99 -0.01,-6.06 -0.14,-9.55zm-63.51 -11.98c0.07,-0.17 0.26,-0.26 0.44,-0.2 0.17,0.07 0.26,0.26 0.2,0.43l-0.43 1.17c-0.06,0.17 -0.25,0.26 -0.43,0.2 -0.17,-0.06 -0.26,-0.26 -0.2,-0.43l0.42 -1.17zm60.87 6.42c0.01,-0.19 0.16,-0.34 0.34,-0.34 0.19,0.01 0.34,0.16 0.34,0.34l-0.05 5.11c0,0.19 -0.15,0.34 -0.34,0.34 -0.18,-0.01 -0.33,-0.16 -0.33,-0.34l0.04 -5.11zm-1.74 -0.17c0,-0.18 0.15,-0.33 0.34,-0.33 0.19,0 0.34,0.15 0.34,0.33l0.01 5.25c0,0.19 -0.16,0.34 -0.34,0.34 -0.19,0 -0.34,-0.15 -0.34,-0.34l-0.01 -5.25zm-1.8 0.02c0.01,-0.18 0.16,-0.33 0.35,-0.33 0.18,0.01 0.33,0.16 0.32,0.35l-0.15 5.18c-0.01,0.19 -0.16,0.33 -0.35,0.33 -0.19,0 -0.33,-0.16 -0.33,-0.35l0.16 -5.18zm-2 -0.22c0.01,-0.18 0.16,-0.33 0.35,-0.32 0.18,0 0.33,0.16 0.32,0.35l-0.23 5.35c-0.01,0.19 -0.16,0.33 -0.35,0.32 -0.18,0 -0.33,-0.16 -0.32,-0.35l0.23 -5.35zm-2.22 0.28c0,-0.19 0.16,-0.34 0.34,-0.33 0.19,0 0.34,0.15 0.33,0.34l-0.11 5.03c-0.01,0.13 -0.08,0.24 -0.19,0.29 0.09,0.07 0.14,0.17 0.14,0.28 -0.05,5.28 -0.21,9.26 -0.45,12.71 -0.25,3.45 -0.58,6.39 -1.01,9.56 -0.03,0.18 -0.2,0.31 -0.38,0.28 -0.19,-0.02 -0.32,-0.19 -0.29,-0.38 0.42,-3.14 0.76,-6.06 1.01,-9.51 0.24,-3.45 0.39,-7.42 0.45,-12.66 0,-0.14 0.07,-0.25 0.19,-0.3 -0.09,-0.07 -0.15,-0.17 -0.15,-0.29l0.12 -5.02zm-1.85 -0.21c0,-0.19 0.16,-0.33 0.34,-0.33 0.19,0.01 0.34,0.17 0.33,0.35l-0.17 5.17c0,0.04 0,0.08 -0.02,0.11 0.09,0.06 0.15,0.16 0.15,0.28 -0.03,4.31 -0.2,8.21 -0.5,11.88 -0.3,3.68 -0.75,7.14 -1.33,10.56 -0.03,0.18 -0.21,0.31 -0.39,0.28 -0.19,-0.04 -0.31,-0.21 -0.28,-0.39 0.58,-3.4 1.02,-6.84 1.33,-10.51 0.3,-3.67 0.46,-7.56 0.49,-11.82 0,-0.05 0.01,-0.09 0.02,-0.12 -0.09,-0.07 -0.14,-0.17 -0.14,-0.29l0.17 -5.17zm-2.16 0.11c0,-0.19 0.15,-0.34 0.34,-0.33 0.19,0 0.33,0.15 0.33,0.34l-0.08 4.99c0,0.04 -0.01,0.08 -0.03,0.12 0.06,-0.05 0.14,-0.07 0.22,-0.07 0.18,0 0.33,0.16 0.32,0.35 -0.13,4.27 -0.3,8.14 -0.64,11.83 -0.34,3.69 -0.85,7.19 -1.67,10.68 -0.04,0.18 -0.22,0.3 -0.4,0.26 -0.19,-0.05 -0.3,-0.23 -0.26,-0.41 0.81,-3.47 1.32,-6.94 1.66,-10.59 0.34,-3.67 0.51,-7.53 0.64,-11.79 0,-0.04 0.01,-0.08 0.02,-0.11 -0.06,0.04 -0.13,0.06 -0.21,0.06 -0.18,0 -0.33,-0.15 -0.33,-0.34l0.09 -4.99zm-1.95 -0.07c0.01,-0.19 0.17,-0.34 0.36,-0.33 0.18,0.01 0.33,0.17 0.32,0.35l-0.22 4.97c-0.01,0.19 -0.17,0.33 -0.36,0.33 -0.18,-0.01 -0.33,-0.17 -0.32,-0.35l0.22 -4.97zm-1.92 -0.08c0.01,-0.19 0.17,-0.33 0.36,-0.32 0.19,0.01 0.33,0.17 0.32,0.36l-0.32 4.95c-0.01,0.18 -0.17,0.32 -0.36,0.31 -0.19,-0.01 -0.33,-0.17 -0.32,-0.36l0.32 -4.94zm-1.96 -0.09c0.02,-0.19 0.18,-0.32 0.37,-0.31 0.18,0.01 0.32,0.18 0.31,0.36l-0.38 4.92c-0.01,0.19 -0.18,0.33 -0.36,0.31l0 0c0,0.03 0.01,0.06 0.01,0.09 -0.18,3.97 -0.48,7.74 -1.05,11.41l0 0c-0.56,3.67 -1.39,7.24 -2.61,10.82 -0.06,0.17 -0.25,0.27 -0.42,0.21 -0.18,-0.06 -0.27,-0.25 -0.22,-0.43 1.2,-3.53 2.02,-7.07 2.58,-10.7l0.01 0 0 0c0.56,-3.64 0.86,-7.38 1.03,-11.34 0.01,-0.18 0.17,-0.33 0.35,-0.32l0.01 0c0,-0.03 -0.01,-0.06 0,-0.1l0.37 -4.92zm-1.94 -0.09c0.01,-0.19 0.17,-0.33 0.36,-0.31 0.18,0.01 0.32,0.17 0.31,0.36l-0.35 4.9c-0.01,0.18 -0.17,0.32 -0.36,0.31l-0.03 -0.01c0.05,0.07 0.08,0.15 0.08,0.23 -0.19,3.76 -0.53,7.49 -1.12,11.16 -0.59,3.68 -1.43,7.3 -2.64,10.81 -0.06,0.18 -0.25,0.27 -0.43,0.21 -0.17,-0.06 -0.27,-0.25 -0.21,-0.43 1.2,-3.48 2.03,-7.06 2.62,-10.69 0.58,-3.65 0.92,-7.36 1.1,-11.09 0.01,-0.18 0.17,-0.33 0.36,-0.32l0.03 0.01c-0.05,-0.07 -0.08,-0.15 -0.07,-0.24l0.35 -4.9zm-2.02 -0.1c0.01,-0.19 0.17,-0.33 0.36,-0.32 0.18,0.01 0.32,0.17 0.31,0.36l-0.34 4.87c-0.01,0.19 -0.17,0.33 -0.36,0.32 -0.18,-0.02 -0.32,-0.18 -0.31,-0.36l0.34 -4.87zm-2.03 -0.13c0.02,-0.18 0.18,-0.32 0.37,-0.31 0.18,0.02 0.32,0.18 0.3,0.37l-0.43 4.83 0 0.04c0.02,0 0.04,0 0.07,0 0.18,0.01 0.32,0.17 0.31,0.36l-0.41 6.02 -0.01 0.03c-0.26,1.81 -0.56,3.54 -0.89,5.19 -0.34,1.64 -0.71,3.19 -1.13,4.62l0 0 -1.69 6.02c-0.05,0.18 -0.23,0.29 -0.41,0.24 -0.18,-0.05 -0.29,-0.24 -0.24,-0.42l1.69 -6.02 0 0 0 0c0.41,-1.42 0.78,-2.95 1.12,-4.57 0.33,-1.62 0.62,-3.34 0.89,-5.15l0.41 -6.01c0,-0.01 0,-0.03 0,-0.05 -0.02,0.01 -0.05,0.01 -0.07,0.01 -0.19,-0.02 -0.32,-0.18 -0.31,-0.37l0.43 -4.83zm-1.97 -0.13c0.02,-0.18 0.18,-0.32 0.37,-0.3 0.18,0.02 0.32,0.18 0.3,0.37l-0.45 4.74c0.07,-0.09 0.18,-0.14 0.3,-0.13 0.18,0.01 0.32,0.17 0.31,0.36l-0.47 6.51c0,0.02 -0.01,0.04 -0.01,0.05 -0.27,1.66 -0.58,3.27 -0.93,4.83 -0.36,1.56 -0.75,3.07 -1.2,4.49l-0.01 0.01 -1.88 6.32c-0.05,0.18 -0.24,0.28 -0.42,0.23 -0.17,-0.05 -0.28,-0.24 -0.22,-0.42l1.88 -6.32 0 -0.02c0.45,-1.42 0.84,-2.9 1.19,-4.44 0.35,-1.54 0.66,-3.14 0.92,-4.79l0.47 -6.46c-0.07,0.09 -0.18,0.14 -0.3,0.13 -0.19,-0.01 -0.32,-0.18 -0.31,-0.36l0.46 -4.8zm-1.97 -0.13c0.01,-0.19 0.18,-0.32 0.36,-0.31 0.19,0.02 0.33,0.18 0.31,0.37l-0.41 4.75c-0.01,0.19 -0.17,0.33 -0.36,0.31 -0.19,-0.02 -0.33,-0.18 -0.31,-0.36l0.41 -4.76zm-1.95 -0.15c0.01,-0.18 0.17,-0.32 0.36,-0.31 0.19,0.02 0.33,0.18 0.31,0.37l-0.4 4.71c-0.01,0.18 -0.18,0.32 -0.36,0.31 -0.19,-0.02 -0.33,-0.18 -0.31,-0.37l0.4 -4.71zm-1.88 -0.15c0.01,-0.19 0.18,-0.32 0.36,-0.31 0.19,0.01 0.33,0.18 0.32,0.36l-0.37 4.67c-0.01,0.18 -0.18,0.32 -0.36,0.31 -0.08,-0.01 -0.14,-0.04 -0.2,-0.08l-0.6 6.14c0,0.02 0,0.05 -0.01,0.07l0 0 -2.77 9.43 -0.01 0.02 -1.77 6.14c-0.05,0.18 -0.23,0.28 -0.41,0.23 -0.18,-0.05 -0.28,-0.24 -0.23,-0.41l1.76 -6.14 0.01 -0.02 2.77 -9.42 0.6 -6.17c0.02,-0.18 0.18,-0.32 0.37,-0.3 0.07,0 0.13,0.03 0.18,0.08l0.36 -4.6zm-1.75 -0.32c0.02,-0.19 0.18,-0.32 0.37,-0.3 0.18,0.01 0.32,0.18 0.3,0.36l-0.48 4.76c-0.02,0.19 -0.18,0.32 -0.37,0.3 -0.04,0 -0.08,-0.01 -0.12,-0.03l-0.56 5.75c-0.01,0.02 -0.01,0.04 -0.02,0.06l0 0 -2.85 9.71 -0.01 0.01 -1.91 6.21c-0.06,0.18 -0.25,0.28 -0.42,0.22 -0.18,-0.05 -0.28,-0.24 -0.23,-0.42l1.92 -6.2 0 -0.01 2.85 -9.68 0.57 -5.77c0.02,-0.19 0.18,-0.32 0.37,-0.3 0.04,0 0.08,0.01 0.11,0.03l0.48 -4.7zm-1.92 -0.04c0.02,-0.18 0.19,-0.32 0.37,-0.3 0.18,0.02 0.32,0.19 0.3,0.37l-0.48 4.52c-0.02,0.13 -0.11,0.24 -0.23,0.28 0.03,0.06 0.05,0.13 0.04,0.2l-0.57 5.8c0,0.03 -0.01,0.05 -0.01,0.07l0 0 -3.03 9.32 0 0.01 -1.94 6.04c-0.06,0.18 -0.25,0.27 -0.42,0.22 -0.18,-0.06 -0.28,-0.25 -0.22,-0.43l1.94 -6.03 0 -0.02 3.01 -9.28 0.57 -5.76c0.02,-0.14 0.11,-0.25 0.23,-0.29 -0.04,-0.06 -0.05,-0.13 -0.05,-0.2l0.49 -4.52zm-1.72 -0.38c0.02,-0.19 0.19,-0.32 0.37,-0.31 0.19,0.02 0.32,0.19 0.3,0.37l-0.48 4.69c-0.01,0.08 -0.05,0.15 -0.1,0.2l-0.62 5.96c0,0.03 0,0.05 -0.01,0.07l-3.02 9.32 -2.08 6.31c-0.06,0.17 -0.25,0.27 -0.42,0.21 -0.18,-0.05 -0.28,-0.25 -0.22,-0.42l2.08 -6.31 3.01 -9.28 0.62 -5.96c0.01,-0.08 0.04,-0.15 0.09,-0.2l0.48 -4.65zm-1.71 -0.27c0.02,-0.18 0.19,-0.31 0.38,-0.29 0.18,0.03 0.31,0.2 0.29,0.38l-0.6 4.54 0 0.01c0.15,0.05 0.25,0.2 0.23,0.36l-0.62 5.67c-0.01,0.03 -0.01,0.05 -0.02,0.07l-3.02 9.31 0 0.01 -2.26 6.42c-0.07,0.18 -0.26,0.27 -0.43,0.21 -0.18,-0.06 -0.27,-0.26 -0.21,-0.43l2.26 -6.42 3.01 -9.28 0.62 -5.64 0 -0.02c-0.15,-0.05 -0.25,-0.2 -0.23,-0.36l0.6 -4.54zm-1.92 0.07c0.02,-0.18 0.18,-0.32 0.37,-0.3 0.18,0.02 0.32,0.19 0.3,0.37l-0.45 4.16c-0.01,0.07 -0.04,0.14 -0.09,0.19 0.17,0.04 0.29,0.2 0.27,0.37l-0.62 5.68c0,0.02 -0.01,0.04 -0.02,0.07l-3.02 9.31 -0.01 0.02 -1.93 6.08c-0.06,0.18 -0.25,0.27 -0.42,0.22 -0.18,-0.06 -0.28,-0.25 -0.22,-0.42l1.93 -6.09 0.01 -0.02 3.01 -9.28 0.62 -5.64c0.01,-0.08 0.04,-0.14 0.09,-0.19 -0.17,-0.04 -0.29,-0.2 -0.27,-0.37l0.45 -4.16zm-1.84 -0.23c0.02,-0.19 0.19,-0.32 0.38,-0.3 0.18,0.02 0.31,0.19 0.29,0.37l-0.44 3.81c-0.02,0.18 -0.19,0.32 -0.37,0.3 -0.19,-0.02 -0.32,-0.19 -0.3,-0.38l0.44 -3.8zm-1.82 -0.26c0.03,-0.19 0.2,-0.31 0.38,-0.28 0.19,0.03 0.31,0.2 0.28,0.38l-0.58 3.61c-0.02,0.19 -0.2,0.31 -0.38,0.28 -0.18,-0.03 -0.31,-0.2 -0.28,-0.38l0.58 -3.61zm-1.85 -0.28c0.04,-0.18 0.21,-0.31 0.39,-0.27 0.19,0.03 0.31,0.2 0.28,0.39l-0.61 3.54c-0.03,0.19 -0.2,0.31 -0.39,0.28 -0.18,-0.03 -0.3,-0.21 -0.27,-0.39l0.6 -3.55zm-1.89 -0.31c0.04,-0.18 0.22,-0.3 0.4,-0.26 0.18,0.03 0.3,0.21 0.27,0.39l-0.66 3.38c-0.04,0.18 -0.22,0.3 -0.4,0.27 -0.18,-0.04 -0.3,-0.22 -0.27,-0.4l0.66 -3.38zm-1.93 -0.34c0.04,-0.18 0.22,-0.29 0.4,-0.25 0.19,0.04 0.3,0.22 0.26,0.4l-0.7 3.04c-0.04,0.18 -0.23,0.3 -0.41,0.26 -0.18,-0.05 -0.29,-0.23 -0.25,-0.41l0.7 -3.04zm-1.84 -0.33c0.04,-0.19 0.22,-0.3 0.4,-0.27 0.18,0.04 0.3,0.22 0.26,0.4l-0.57 2.75c-0.04,0.18 -0.22,0.3 -0.4,0.26 -0.18,-0.03 -0.3,-0.21 -0.26,-0.39l0.57 -2.75zm-1.86 -0.39c0.04,-0.18 0.22,-0.29 0.4,-0.25 0.18,0.04 0.3,0.22 0.26,0.4l-0.62 2.74c-0.03,0.12 -0.13,0.22 -0.25,0.25 0.09,0.07 0.14,0.19 0.12,0.31l-0.89 5.84c0,0.02 -0.01,0.04 -0.02,0.06l-2.97 9.01c0,0.01 -0.01,0.03 -0.02,0.05l-2.49 5.49c-0.08,0.17 -0.28,0.25 -0.45,0.17 -0.17,-0.08 -0.24,-0.28 -0.17,-0.45l2.5 -5.49 2.96 -8.97 0.88 -5.81c0.02,-0.14 0.13,-0.24 0.26,-0.27 -0.1,-0.08 -0.15,-0.21 -0.12,-0.34l0.62 -2.74zm-1.87 -0.43c0.05,-0.18 0.23,-0.29 0.41,-0.24 0.18,0.05 0.29,0.23 0.24,0.41l-0.66 2.46c-0.05,0.18 -0.23,0.28 -0.41,0.24 -0.18,-0.05 -0.29,-0.24 -0.24,-0.42l0.66 -2.45zm-1.74 -0.43c0.05,-0.18 0.23,-0.29 0.41,-0.24 0.18,0.05 0.29,0.23 0.24,0.41l-0.61 2.36c-0.04,0.18 -0.23,0.29 -0.4,0.25 -0.18,-0.05 -0.29,-0.23 -0.25,-0.41l0.61 -2.37zm-1.89 -0.52c0.05,-0.18 0.24,-0.29 0.42,-0.24 0.18,0.05 0.28,0.24 0.23,0.42l-0.53 1.87c-0.05,0.18 -0.23,0.28 -0.41,0.23 -0.18,-0.05 -0.29,-0.23 -0.24,-0.41l0.53 -1.87zm-3.64 -1.25c0.06,-0.17 0.25,-0.27 0.43,-0.21 0.18,0.06 0.27,0.25 0.21,0.43l-0.14 0.43c-0.06,0.17 -0.26,0.27 -0.43,0.21 -0.18,-0.06 -0.27,-0.26 -0.21,-0.43l0.14 -0.43zm3.96 4.5c0.04,-0.18 0.22,-0.3 0.4,-0.26 0.18,0.04 0.29,0.22 0.25,0.4l-1.25 5.61 -0.01 0.04 0 0 -3.14 8.96c-0.01,0.02 -0.01,0.04 -0.02,0.05l0 0 -2.99 5.41c-0.09,0.16 -0.29,0.22 -0.46,0.13 -0.16,-0.09 -0.22,-0.29 -0.13,-0.46l2.97 -5.38 3.13 -8.91 1.25 -5.59zm-4.2 -2.26c0.04,-0.18 0.23,-0.29 0.41,-0.24 0.18,0.04 0.29,0.23 0.24,0.41 -0.22,0.86 -0.51,1.84 -0.84,2.83 -0.32,0.94 -0.67,1.89 -1.03,2.77 -0.47,1.13 -0.88,2.21 -1.27,3.25 -0.67,1.79 -1.32,3.5 -2.19,5.25 -0.74,1.47 -1.4,2.59 -2.06,3.7 -0.21,0.35 -0.42,0.71 -0.61,1.05 -0.1,0.16 -0.3,0.21 -0.47,0.12 -0.16,-0.1 -0.21,-0.3 -0.12,-0.46 0.22,-0.38 0.42,-0.72 0.62,-1.06 0.66,-1.11 1.32,-2.23 2.03,-3.65 0.86,-1.71 1.5,-3.4 2.17,-5.19 0.4,-1.05 0.81,-2.14 1.28,-3.27 0.36,-0.87 0.7,-1.8 1.01,-2.72 0.33,-0.99 0.61,-1.96 0.83,-2.79zm-1.44 -1.2c0.06,-0.17 0.25,-0.27 0.43,-0.21 0.17,0.06 0.27,0.25 0.21,0.42l-1.82 5.49 -0.01 0.03 -3.68 8.49 -0.01 0.02 0 0 -2.45 4.49c-0.08,0.16 -0.29,0.22 -0.45,0.13 -0.17,-0.09 -0.23,-0.29 -0.14,-0.46l2.44 -4.47 3.66 -8.46 1.82 -5.47zm59.89 11.65c0,-0.18 0.16,-0.33 0.34,-0.33 0.19,0.01 0.34,0.16 0.33,0.35 -0.03,1.34 -0.06,2.62 -0.08,3.86 -0.12,5.9 -0.23,11.08 -0.91,18.01 -0.02,0.19 -0.19,0.32 -0.37,0.3 -0.19,-0.02 -0.32,-0.18 -0.3,-0.37 0.68,-6.91 0.78,-12.07 0.9,-17.95 0.03,-1.25 0.06,-2.54 0.09,-3.87zm-1.82 -0.07c0.01,-0.19 0.16,-0.33 0.34,-0.33 0.19,0 0.34,0.15 0.34,0.34 -0.05,4.67 -0.15,8.67 -0.34,12.28 -0.2,3.61 -0.48,6.83 -0.9,9.91 -0.02,0.18 -0.19,0.31 -0.38,0.29 -0.18,-0.03 -0.31,-0.2 -0.29,-0.38 0.42,-3.06 0.7,-6.26 0.89,-9.86 0.19,-3.6 0.29,-7.6 0.34,-12.25zm-7.01 -0.48c0,-0.19 0.16,-0.33 0.34,-0.33 0.19,0.01 0.33,0.16 0.33,0.35 -0.12,4.12 -0.29,7.69 -0.67,11.24 -0.38,3.55 -0.97,7.08 -1.96,11.11 -0.04,0.19 -0.22,0.3 -0.4,0.25 -0.18,-0.04 -0.29,-0.22 -0.25,-0.4 0.98,-4 1.57,-7.5 1.94,-11.03 0.38,-3.54 0.54,-7.09 0.67,-11.19zm-1.72 -0.15c0.01,-0.18 0.17,-0.32 0.36,-0.31 0.18,0.01 0.33,0.16 0.32,0.35 -0.05,0.82 -0.09,1.61 -0.14,2.4 -0.38,6.95 -0.71,12.98 -2.88,20.08 -0.05,0.18 -0.24,0.28 -0.42,0.23 -0.18,-0.06 -0.28,-0.24 -0.22,-0.42 2.14,-7.03 2.47,-13.02 2.85,-19.93 0.04,-0.78 0.09,-1.58 0.13,-2.4zm-1.71 -0.06c0.01,-0.19 0.17,-0.33 0.35,-0.32 0.19,0.01 0.33,0.17 0.32,0.35 -0.24,4.54 -0.56,8.62 -1.08,12.3 -0.52,3.69 -1.24,6.97 -2.26,9.91 -0.06,0.18 -0.25,0.27 -0.43,0.21 -0.17,-0.06 -0.27,-0.25 -0.21,-0.43 1.01,-2.89 1.71,-6.13 2.23,-9.78 0.51,-3.66 0.84,-7.72 1.08,-12.24zm-6.56 11.12c0.28,-1.54 0.53,-3.17 0.74,-4.92l0 0 0.59 -6.17c0.01,-0.18 0.18,-0.32 0.36,-0.3 0.19,0.02 0.32,0.18 0.31,0.37l-0.59 6.17 0 0.01 0 0c-0.21,1.74 -0.46,3.39 -0.75,4.96 -0.28,1.58 -0.6,3.07 -0.93,4.48l-0.01 0.02 -1.69 5.98c-0.05,0.18 -0.24,0.29 -0.42,0.24 -0.17,-0.05 -0.28,-0.24 -0.23,-0.42l1.69 -5.98 0 0m0 0c0.34,-1.43 0.65,-2.9 0.93,-4.44m-0.22 -5.45l-0.01 0.01m-3.88 -6.51c0.01,-0.18 0.17,-0.33 0.35,-0.32 0.19,0.01 0.33,0.17 0.32,0.36l-0.32 6.16c-0.01,0.02 -0.01,0.04 -0.01,0.05l0 0.01 0 0.01c-0.41,1.74 -0.8,3.41 -1.19,5.02 -0.4,1.64 -0.77,3.14 -1.12,4.51l-0.01 0.04 -1.8 6.15c-0.05,0.18 -0.24,0.28 -0.42,0.23 -0.18,-0.05 -0.28,-0.24 -0.23,-0.42l1.8 -6.15 0 -0.01c0.38,-1.48 0.75,-2.98 1.12,-4.51 0.38,-1.55 0.77,-3.21 1.18,-5l0.33 -6.13zm-1.68 -0.05c0.01,-0.18 0.17,-0.32 0.36,-0.31 0.18,0.01 0.32,0.17 0.31,0.35l-0.33 5.9c0,0.03 -0.01,0.06 -0.01,0.08 -0.39,1.73 -0.8,3.4 -1.23,5.02 -0.44,1.63 -0.92,3.23 -1.42,4.8l0 0 -1.75 5.87c-0.06,0.18 -0.24,0.28 -0.42,0.23 -0.18,-0.05 -0.28,-0.24 -0.23,-0.42l1.75 -5.88 0 0 0.01 0c0.49,-1.55 0.96,-3.14 1.4,-4.77 0.44,-1.64 0.85,-3.3 1.23,-4.99l0.33 -5.88zm0.33 6.02c-0.05,0.15 -0.19,0.25 -0.35,0.24m-1.75 -6.65c0.01,-0.19 0.17,-0.33 0.36,-0.32 0.19,0.01 0.33,0.17 0.32,0.36l-0.38 6.18c0,0.03 0,0.05 -0.01,0.08l0 0c-0.51,1.72 -0.93,3.34 -1.33,4.9 -0.39,1.53 -0.76,2.98 -1.2,4.45l0 0 -1.84 6.36c-0.05,0.18 -0.23,0.28 -0.41,0.23 -0.18,-0.05 -0.28,-0.24 -0.23,-0.42l1.83 -6.35 0 -0.02c0.43,-1.4 0.81,-2.88 1.2,-4.41 0.39,-1.56 0.81,-3.18 1.32,-4.9l0.37 -6.14zm-8.08 4.78c-0.05,0.15 -0.19,0.25 -0.35,0.23m-1.47 -0.36c-0.05,0.14 -0.19,0.24 -0.35,0.23m-1.42 -6.29c0.02,-0.19 0.19,-0.32 0.38,-0.3 0.18,0.02 0.31,0.19 0.29,0.37l-0.63 5.66c0,0.03 -0.01,0.06 -0.02,0.08l-3 9.15 -1.95 5.93c-0.06,0.18 -0.25,0.27 -0.42,0.22 -0.18,-0.06 -0.28,-0.25 -0.22,-0.43l1.94 -5.93 3 -9.13 0.63 -5.62zm-1.53 -0.53c0.02,-0.19 0.19,-0.32 0.37,-0.29 0.19,0.02 0.32,0.19 0.29,0.37l-0.72 5.66c0,0.03 -0.01,0.05 -0.01,0.07l0 0 -3.02 9.26 -0.02 0.03 -2.19 5.89c-0.06,0.17 -0.26,0.26 -0.43,0.2 -0.18,-0.07 -0.27,-0.26 -0.2,-0.44l2.19 -5.88 0 -0.01 3.02 -9.23 0.72 -5.63zm-1.69 -0.4c0.02,-0.18 0.2,-0.31 0.38,-0.28 0.18,0.02 0.31,0.2 0.28,0.38l-0.85 5.65c0,0.01 0,0.03 -0.01,0.05l0 0 0 0 -2.91 9.18c-0.01,0.02 -0.02,0.04 -0.02,0.05l-2.47 6.03c-0.07,0.18 -0.27,0.26 -0.44,0.19 -0.18,-0.07 -0.26,-0.27 -0.19,-0.44l2.47 -6.03 2.91 -9.16 0.85 -5.62zm-1.75 -0.28c0.03,-0.19 0.2,-0.31 0.38,-0.29 0.19,0.03 0.32,0.2 0.29,0.39l-0.81 5.37c0,0.02 -0.01,0.03 -0.01,0.05l-0.01 0.01 -2.89 9.15c0,0.02 -0.01,0.04 -0.02,0.06l-2.66 6.14c-0.07,0.17 -0.27,0.25 -0.44,0.18 -0.17,-0.08 -0.25,-0.27 -0.18,-0.45l2.66 -6.14 2.88 -9.13 0.81 -5.34zm-1.7 -0.38c0.02,-0.18 0.19,-0.31 0.38,-0.28 0.18,0.02 0.31,0.2 0.28,0.38l-0.81 5.35c0,0.03 -0.01,0.05 -0.02,0.08l-2.93 9.1 -0.01 0.04 0 0 -2.62 5.92c-0.08,0.17 -0.28,0.25 -0.45,0.18 -0.17,-0.08 -0.24,-0.28 -0.17,-0.45l2.62 -5.92 2.92 -9.07 0.81 -5.33zm-1.77 -0.57c0.03,-0.18 0.2,-0.31 0.38,-0.28 0.19,0.03 0.31,0.2 0.29,0.38l-0.8 5.46c0,0.02 -0.01,0.05 -0.02,0.07l-2.96 9.05 -0.01 0.03 0 0 -2.43 5.65c-0.07,0.17 -0.27,0.25 -0.44,0.18 -0.17,-0.08 -0.25,-0.28 -0.18,-0.45l2.42 -5.64 2.96 -9.02 0.79 -5.43zm-1.69 -0.62c0.02,-0.18 0.19,-0.31 0.38,-0.29 0.18,0.03 0.31,0.2 0.28,0.38l-0.78 5.55c0,0.02 -0.01,0.04 -0.02,0.05l-2.98 9.1 -0.01 0.03 -2.41 5.77c-0.07,0.17 -0.27,0.25 -0.44,0.18 -0.17,-0.07 -0.25,-0.27 -0.18,-0.44l2.4 -5.76 2.97 -9.06 0.79 -5.51zm-3.13 14.81l0 0.01m-0.1 -15.94c0.03,-0.18 0.2,-0.31 0.38,-0.28 0.19,0.03 0.31,0.2 0.29,0.38l-0.86 5.72c0,0.02 -0.01,0.05 -0.02,0.07l-3.11 9.29c-0.01,0.01 -0.01,0.02 -0.02,0.04l-2.56 5.19c-0.08,0.16 -0.28,0.23 -0.45,0.15 -0.17,-0.08 -0.24,-0.29 -0.15,-0.45l2.55 -5.17 3.1 -9.25 0.85 -5.69zm-1.48 -0.44c0.04,-0.19 0.21,-0.31 0.4,-0.27 0.18,0.03 0.3,0.21 0.26,0.39l-1.06 5.49 -0.01 0.04 -2.96 8.99c0,0.02 -0.01,0.04 -0.02,0.06l-2.91 5.87c-0.09,0.17 -0.29,0.24 -0.45,0.16 -0.17,-0.09 -0.24,-0.29 -0.16,-0.46l2.91 -5.86 2.94 -8.94 1.06 -5.47zm-2.68 -0.87c0.05,-0.18 0.24,-0.29 0.42,-0.24 0.18,0.05 0.28,0.23 0.24,0.41l-1.49 5.61 -0.01 0.03 0 0 -3.11 8.48c0,0.02 -0.01,0.04 -0.02,0.06l-2.87 5.46c-0.09,0.17 -0.29,0.23 -0.46,0.14 -0.16,-0.08 -0.23,-0.29 -0.14,-0.45l2.87 -5.46 3.09 -8.45 1.48 -5.59zm-1.35 -0.88c0.05,-0.18 0.24,-0.28 0.42,-0.22 0.18,0.06 0.27,0.25 0.22,0.42l-1.81 5.68 -0.01 0.01 0 0 -3.28 8.57c-0.01,0.02 -0.02,0.03 -0.03,0.05l-2.79 4.87c-0.09,0.16 -0.3,0.21 -0.46,0.12 -0.16,-0.09 -0.22,-0.3 -0.12,-0.46l2.77 -4.85 3.28 -8.54 0 0 1.81 -5.65zm60.41 9.4c0,-0.18 0.16,-0.33 0.34,-0.33 0.19,0 0.34,0.16 0.34,0.34 -0.07,3.61 -0.09,6.69 -0.11,9.64 -0.02,4.12 -0.04,7.98 -0.19,12.62 -0.01,0.19 -0.17,0.33 -0.35,0.33 -0.19,-0.01 -0.33,-0.16 -0.33,-0.35 0.15,-4.65 0.18,-8.5 0.2,-12.6 0.02,-2.95 0.04,-6.04 0.1,-9.65z"/>
  <path class="fil1" d="M249.31 369.11c0.01,-0.19 0.16,-0.34 0.35,-0.33 0.18,0 0.33,0.16 0.33,0.34 -0.05,1.93 -0.07,3.74 -0.1,5.51 -0.06,5.3 -0.13,10.2 -0.8,16.36 -0.02,0.19 -0.18,0.32 -0.37,0.3 -0.18,-0.02 -0.32,-0.18 -0.3,-0.37 0.67,-6.14 0.73,-11.02 0.8,-16.3 0.02,-1.77 0.05,-3.6 0.09,-5.51zm6.9 0.01c0,-0.18 0.15,-0.34 0.33,-0.34 0.19,-0.01 0.34,0.14 0.35,0.33 0.04,1.91 0.07,3.74 0.09,5.51 0.07,5.28 0.13,10.16 0.8,16.3 0.02,0.19 -0.12,0.35 -0.3,0.37 -0.19,0.02 -0.35,-0.11 -0.37,-0.3 -0.67,-6.16 -0.74,-11.06 -0.81,-16.36 -0.02,-1.77 -0.04,-3.58 -0.09,-5.51zm58.35 -11.9c-0.06,-0.17 0.03,-0.36 0.21,-0.43 0.17,-0.06 0.36,0.03 0.43,0.2l0.42 1.17c0.07,0.17 -0.02,0.37 -0.2,0.43 -0.17,0.06 -0.37,-0.03 -0.43,-0.2l-0.43 -1.17zm-61.08 6.19c0,-0.18 0.15,-0.33 0.34,-0.34 0.19,0 0.34,0.15 0.34,0.34l0.04 5.11c0.01,0.18 -0.14,0.33 -0.33,0.34 -0.19,0 -0.34,-0.15 -0.34,-0.34l-0.05 -5.11zm2.08 -0.17c0,-0.18 0.15,-0.33 0.34,-0.33 0.19,0 0.34,0.15 0.34,0.33l-0.01 5.25c0,0.19 -0.15,0.34 -0.34,0.34 -0.18,0 -0.34,-0.15 -0.34,-0.34l0.01 -5.25zm1.81 0.04c-0.01,-0.19 0.14,-0.34 0.32,-0.35 0.19,0 0.35,0.15 0.35,0.33l0.16 5.18c0,0.19 -0.14,0.35 -0.33,0.35 -0.19,0 -0.34,-0.14 -0.34,-0.33l-0.16 -5.18zm1.83 -0.21c-0.01,-0.19 0.14,-0.35 0.32,-0.35 0.19,-0.01 0.35,0.14 0.35,0.32l0.23 5.35c0.01,0.19 -0.13,0.35 -0.32,0.35 -0.19,0.01 -0.34,-0.13 -0.35,-0.32l-0.23 -5.35zm2.22 0.26c-0.01,-0.19 0.14,-0.34 0.33,-0.34 0.18,-0.01 0.34,0.14 0.34,0.33l0.12 5.02c0,0.12 -0.06,0.22 -0.14,0.29 0.11,0.05 0.18,0.16 0.19,0.3 0.05,5.24 0.2,9.21 0.45,12.66 0.24,3.45 0.58,6.37 1,9.51 0.03,0.19 -0.1,0.36 -0.29,0.38 -0.18,0.03 -0.35,-0.1 -0.38,-0.28 -0.42,-3.17 -0.76,-6.11 -1.01,-9.56 -0.24,-3.45 -0.39,-7.43 -0.45,-12.71 0,-0.11 0.06,-0.21 0.14,-0.28 -0.11,-0.05 -0.18,-0.16 -0.19,-0.29l-0.11 -5.03zm1.85 -0.2c0,-0.18 0.14,-0.34 0.33,-0.35 0.18,0 0.34,0.14 0.34,0.33l0.17 5.17c0,0.12 -0.05,0.22 -0.14,0.29 0.01,0.03 0.02,0.07 0.02,0.12 0.03,4.26 0.19,8.15 0.5,11.82 0.3,3.67 0.74,7.11 1.32,10.51 0.03,0.18 -0.09,0.35 -0.28,0.39 -0.18,0.03 -0.35,-0.1 -0.39,-0.28 -0.58,-3.42 -1.02,-6.88 -1.33,-10.56 -0.3,-3.67 -0.47,-7.57 -0.49,-11.88 0,-0.12 0.05,-0.22 0.14,-0.28 -0.02,-0.03 -0.02,-0.07 -0.02,-0.11l-0.17 -5.17zm2.16 0.1c0,-0.19 0.15,-0.34 0.33,-0.34 0.19,-0.01 0.34,0.14 0.34,0.33l0.09 4.99c0,0.19 -0.15,0.34 -0.33,0.34 -0.08,0 -0.15,-0.02 -0.21,-0.06 0.01,0.03 0.02,0.07 0.02,0.11 0.13,4.26 0.3,8.12 0.64,11.79 0.34,3.65 0.85,7.12 1.66,10.59 0.04,0.18 -0.07,0.36 -0.25,0.41 -0.18,0.04 -0.37,-0.08 -0.41,-0.26 -0.81,-3.49 -1.33,-6.99 -1.67,-10.68 -0.34,-3.69 -0.51,-7.56 -0.64,-11.83 -0.01,-0.19 0.14,-0.35 0.33,-0.35 0.07,0 0.15,0.02 0.21,0.07 -0.02,-0.04 -0.02,-0.08 -0.03,-0.12l-0.08 -4.99zm1.94 -0.06c0,-0.18 0.14,-0.34 0.33,-0.35 0.18,-0.01 0.34,0.14 0.35,0.33l0.22 4.97c0.01,0.18 -0.14,0.34 -0.32,0.35 -0.19,0 -0.35,-0.14 -0.35,-0.33l-0.23 -4.97zm1.93 -0.06c-0.02,-0.19 0.13,-0.35 0.31,-0.36 0.19,-0.01 0.35,0.13 0.36,0.32l0.32 4.94c0.01,0.19 -0.13,0.35 -0.32,0.36 -0.18,0.01 -0.35,-0.13 -0.36,-0.31l-0.31 -4.95zm1.95 -0.08c-0.01,-0.18 0.13,-0.35 0.32,-0.36 0.18,-0.01 0.34,0.12 0.36,0.31l0.37 4.92c0.01,0.04 0,0.07 0,0.1l0.01 0c0.19,-0.01 0.34,0.14 0.35,0.32 0.17,3.95 0.48,7.69 1.04,11.34 0.56,3.63 1.38,7.17 2.58,10.7 0.06,0.18 -0.04,0.37 -0.21,0.43 -0.18,0.06 -0.37,-0.04 -0.43,-0.21 -1.22,-3.58 -2.04,-7.15 -2.61,-10.82 -0.57,-3.66 -0.87,-7.43 -1.04,-11.41 -0.01,-0.03 0,-0.06 0,-0.09l0 0c-0.18,0.02 -0.35,-0.12 -0.36,-0.31l-0.38 -4.92zm1.95 -0.09c-0.01,-0.19 0.13,-0.35 0.31,-0.36 0.19,-0.02 0.35,0.12 0.36,0.31l0.35 4.9c0.01,0.09 -0.02,0.17 -0.07,0.24l0.04 -0.01c0.18,-0.01 0.34,0.14 0.35,0.32 0.19,3.73 0.52,7.44 1.1,11.09 0.59,3.63 1.43,7.21 2.62,10.69 0.06,0.18 -0.04,0.37 -0.21,0.43 -0.18,0.06 -0.37,-0.03 -0.43,-0.21 -1.2,-3.51 -2.05,-7.13 -2.64,-10.81 -0.59,-3.67 -0.93,-7.4 -1.11,-11.16 -0.01,-0.08 0.02,-0.16 0.07,-0.23l-0.03 0.01c-0.18,0.01 -0.35,-0.13 -0.36,-0.31l-0.35 -4.9zm2.02 -0.11c-0.01,-0.19 0.13,-0.35 0.32,-0.36 0.18,-0.01 0.34,0.13 0.35,0.32l0.34 4.87c0.02,0.18 -0.13,0.34 -0.31,0.36 -0.19,0.01 -0.35,-0.13 -0.36,-0.32l-0.34 -4.87zm2.03 -0.11c-0.02,-0.19 0.12,-0.35 0.3,-0.37 0.19,-0.01 0.35,0.13 0.37,0.31l0.43 4.83c0.02,0.19 -0.12,0.35 -0.31,0.37 -0.02,0 -0.05,0 -0.07,-0.01 0,0.02 0,0.04 0,0.05l0.42 6.01c0.26,1.81 0.56,3.53 0.89,5.15 0.33,1.62 0.7,3.15 1.11,4.57l0 0 0 0 1.69 6.02c0.05,0.18 -0.06,0.37 -0.23,0.42 -0.18,0.05 -0.37,-0.06 -0.42,-0.24l-1.69 -6.02 0 0c-0.41,-1.43 -0.79,-2.98 -1.12,-4.62 -0.34,-1.65 -0.64,-3.38 -0.9,-5.19l-0.01 -0.03 -0.41 -6.02c-0.01,-0.19 0.13,-0.35 0.31,-0.36 0.03,0 0.05,0 0.08,0l-0.01 -0.04 -0.43 -4.83zm1.97 -0.12c-0.01,-0.19 0.12,-0.35 0.31,-0.37 0.18,-0.02 0.35,0.12 0.36,0.3l0.46 4.8c0.01,0.18 -0.12,0.35 -0.31,0.36 -0.12,0.01 -0.23,-0.04 -0.3,-0.13l0.47 6.46c0.26,1.65 0.57,3.25 0.92,4.79 0.35,1.54 0.74,3.02 1.19,4.44l0.01 0.02 1.88 6.32c0.05,0.18 -0.05,0.37 -0.23,0.42 -0.18,0.05 -0.37,-0.05 -0.42,-0.23l-1.88 -6.32 0 -0.01c-0.45,-1.42 -0.85,-2.93 -1.21,-4.49 -0.35,-1.56 -0.66,-3.17 -0.93,-4.83 0,-0.01 -0.01,-0.03 -0.01,-0.05l-0.47 -6.51c-0.01,-0.19 0.13,-0.35 0.32,-0.36 0.12,-0.01 0.23,0.04 0.29,0.13l-0.45 -4.74zm1.97 -0.14c-0.02,-0.19 0.12,-0.35 0.31,-0.37 0.18,-0.01 0.35,0.12 0.36,0.31l0.41 4.76c0.02,0.18 -0.12,0.34 -0.31,0.36 -0.18,0.02 -0.35,-0.12 -0.36,-0.31l-0.41 -4.75zm1.95 -0.15c-0.01,-0.19 0.12,-0.35 0.31,-0.37 0.19,-0.01 0.35,0.13 0.37,0.31l0.39 4.71c0.02,0.19 -0.12,0.35 -0.31,0.37 -0.18,0.01 -0.34,-0.13 -0.36,-0.31l-0.4 -4.71zm1.88 -0.16c-0.02,-0.18 0.12,-0.35 0.31,-0.36 0.18,-0.01 0.35,0.12 0.36,0.31l0.36 4.6c0.05,-0.05 0.11,-0.08 0.19,-0.08 0.18,-0.02 0.35,0.12 0.36,0.3l0.61 6.17 2.76 9.42 0.01 0.02 1.76 6.14c0.06,0.17 -0.05,0.36 -0.23,0.41 -0.18,0.05 -0.36,-0.05 -0.41,-0.23l-1.77 -6.14 -0.01 -0.02 -2.77 -9.43 0 0c-0.01,-0.02 -0.01,-0.05 -0.01,-0.07l-0.6 -6.14c-0.05,0.04 -0.12,0.07 -0.2,0.08 -0.18,0.01 -0.34,-0.13 -0.36,-0.31l-0.36 -4.67zm1.75 -0.31c-0.01,-0.18 0.12,-0.35 0.31,-0.36 0.18,-0.02 0.35,0.11 0.36,0.3l0.48 4.7c0.03,-0.02 0.07,-0.03 0.12,-0.03 0.18,-0.02 0.35,0.11 0.36,0.3l0.57 5.77 2.85 9.68 0 0.01 1.92 6.2c0.05,0.18 -0.05,0.37 -0.22,0.42 -0.18,0.06 -0.37,-0.04 -0.42,-0.22l-1.92 -6.21 0 -0.01 -2.86 -9.71 0 0c-0.01,-0.02 -0.01,-0.04 -0.01,-0.06l-0.57 -5.75c-0.04,0.02 -0.08,0.03 -0.12,0.03 -0.18,0.02 -0.35,-0.11 -0.37,-0.3l-0.48 -4.76zm1.92 -0.03c-0.02,-0.18 0.12,-0.35 0.3,-0.37 0.19,-0.02 0.35,0.12 0.37,0.3l0.49 4.52c0,0.07 -0.01,0.14 -0.05,0.2 0.12,0.04 0.22,0.15 0.23,0.29l0.57 5.76 3.01 9.28 0.01 0.02 1.93 6.03c0.06,0.18 -0.04,0.37 -0.21,0.43 -0.18,0.05 -0.37,-0.04 -0.43,-0.22l-1.94 -6.04 0 -0.01 -3.02 -9.32 0 0c-0.01,-0.02 -0.02,-0.04 -0.02,-0.07l-0.57 -5.8c-0.01,-0.07 0.01,-0.14 0.04,-0.2 -0.12,-0.04 -0.21,-0.15 -0.22,-0.28l-0.49 -4.52zm1.72 -0.39c-0.02,-0.18 0.11,-0.35 0.3,-0.37 0.19,-0.01 0.35,0.12 0.37,0.31l0.48 4.65c0.05,0.05 0.09,0.12 0.09,0.2l0.62 5.96 3.02 9.28 2.07 6.31c0.06,0.17 -0.04,0.37 -0.22,0.42 -0.17,0.06 -0.36,-0.04 -0.42,-0.21l-2.07 -6.31 -3.03 -9.32c-0.01,-0.02 -0.01,-0.04 -0.01,-0.07l-0.62 -5.96c-0.05,-0.05 -0.09,-0.12 -0.09,-0.2l-0.49 -4.69zm1.72 -0.24c-0.03,-0.18 0.1,-0.35 0.29,-0.38 0.18,-0.02 0.35,0.11 0.37,0.29l0.6 4.54c0.02,0.16 -0.08,0.31 -0.23,0.36l0 0.02 0.62 5.64 3.01 9.28 2.26 6.42c0.06,0.17 -0.03,0.37 -0.2,0.43 -0.18,0.06 -0.37,-0.03 -0.43,-0.21l-2.27 -6.42 0 -0.01 -3.02 -9.31c-0.01,-0.02 -0.01,-0.04 -0.02,-0.07l-0.62 -5.67c-0.02,-0.16 0.08,-0.31 0.23,-0.36l0 -0.01 -0.59 -4.54zm1.91 0.05c-0.02,-0.18 0.12,-0.35 0.3,-0.37 0.19,-0.02 0.35,0.12 0.37,0.3l0.45 4.16c0.02,0.17 -0.1,0.33 -0.27,0.37 0.05,0.05 0.08,0.11 0.09,0.19l0.62 5.64 3.01 9.28 0.01 0.02 1.93 6.09c0.06,0.17 -0.04,0.36 -0.21,0.42 -0.18,0.05 -0.37,-0.04 -0.43,-0.22l-1.93 -6.08 -0.01 -0.02 -3.02 -9.31c-0.01,-0.03 -0.02,-0.05 -0.02,-0.07l-0.62 -5.68c-0.02,-0.17 0.1,-0.33 0.27,-0.37 -0.05,-0.05 -0.08,-0.12 -0.09,-0.19l-0.45 -4.16zm1.84 -0.23c-0.02,-0.18 0.11,-0.35 0.29,-0.37 0.19,-0.02 0.36,0.11 0.38,0.3l0.44 3.8c0.02,0.19 -0.11,0.36 -0.3,0.38 -0.18,0.02 -0.35,-0.12 -0.37,-0.3l-0.44 -3.81zm1.83 -0.23c-0.03,-0.18 0.09,-0.35 0.28,-0.38 0.18,-0.03 0.35,0.09 0.38,0.28l0.58 3.61c0.03,0.18 -0.09,0.35 -0.28,0.38 -0.18,0.03 -0.35,-0.09 -0.38,-0.28l-0.58 -3.61zm1.84 -0.26c-0.03,-0.19 0.09,-0.36 0.28,-0.39 0.18,-0.04 0.36,0.09 0.39,0.27l0.6 3.55c0.03,0.18 -0.09,0.36 -0.27,0.39 -0.19,0.03 -0.36,-0.09 -0.39,-0.28l-0.61 -3.54zm1.9 -0.3c-0.04,-0.18 0.08,-0.36 0.26,-0.39 0.19,-0.04 0.36,0.08 0.4,0.26l0.66 3.38c0.03,0.18 -0.09,0.36 -0.27,0.4 -0.18,0.03 -0.36,-0.09 -0.4,-0.27l-0.65 -3.38zm1.93 -0.32c-0.04,-0.18 0.08,-0.36 0.26,-0.4 0.18,-0.04 0.36,0.07 0.4,0.25l0.7 3.04c0.04,0.18 -0.07,0.36 -0.25,0.41 -0.18,0.04 -0.36,-0.08 -0.41,-0.26l-0.7 -3.04zm1.84 -0.35c-0.04,-0.18 0.08,-0.36 0.26,-0.4 0.18,-0.03 0.36,0.08 0.4,0.27l0.57 2.75c0.04,0.18 -0.08,0.36 -0.26,0.39 -0.18,0.04 -0.36,-0.08 -0.4,-0.26l-0.57 -2.75zm1.86 -0.37c-0.04,-0.18 0.08,-0.36 0.26,-0.4 0.18,-0.04 0.36,0.07 0.4,0.25l0.62 2.74c0.03,0.13 -0.02,0.26 -0.12,0.34 0.13,0.03 0.24,0.13 0.26,0.27l0.89 5.81 2.95 8.97 2.5 5.49c0.07,0.17 0,0.37 -0.17,0.45 -0.17,0.08 -0.37,0 -0.45,-0.17l-2.49 -5.49c-0.01,-0.02 -0.02,-0.04 -0.02,-0.05l-2.97 -9.01c-0.01,-0.02 -0.01,-0.04 -0.02,-0.06l-0.89 -5.84c-0.02,-0.12 0.03,-0.24 0.12,-0.31 -0.12,-0.03 -0.22,-0.13 -0.24,-0.25l-0.63 -2.74zm1.88 -0.41c-0.05,-0.18 0.06,-0.36 0.24,-0.41 0.18,-0.05 0.37,0.06 0.41,0.24l0.66 2.45c0.05,0.18 -0.06,0.37 -0.24,0.42 -0.18,0.04 -0.36,-0.06 -0.41,-0.24l-0.66 -2.46zm1.74 -0.43c-0.05,-0.18 0.06,-0.36 0.24,-0.41 0.18,-0.05 0.37,0.06 0.41,0.24l0.61 2.37c0.04,0.18 -0.06,0.36 -0.24,0.41 -0.18,0.04 -0.37,-0.07 -0.41,-0.25l-0.61 -2.36zm1.89 -0.51c-0.05,-0.18 0.05,-0.37 0.23,-0.42 0.18,-0.05 0.37,0.06 0.42,0.24l0.53 1.87c0.05,0.18 -0.06,0.36 -0.23,0.41 -0.18,0.05 -0.37,-0.05 -0.42,-0.23l-0.53 -1.87zm3.65 -1.21c-0.06,-0.18 0.04,-0.37 0.21,-0.43 0.18,-0.06 0.37,0.04 0.43,0.21l0.14 0.43c0.06,0.17 -0.03,0.37 -0.21,0.43 -0.17,0.06 -0.37,-0.04 -0.42,-0.21l-0.15 -0.43zm-3.97 4.42c-0.04,-0.18 0.07,-0.36 0.25,-0.4 0.18,-0.04 0.36,0.08 0.4,0.26l1.25 5.59 3.13 8.91 2.97 5.38c0.09,0.17 0.03,0.37 -0.13,0.46 -0.17,0.09 -0.37,0.03 -0.46,-0.13l-2.99 -5.41 0.01 0c-0.01,-0.01 -0.02,-0.03 -0.03,-0.05l-3.14 -8.96 0 0 -0.01 -0.04 -1.25 -5.61zm4.2 -2.23c-0.04,-0.18 0.06,-0.37 0.24,-0.41 0.18,-0.05 0.37,0.06 0.41,0.24 0.22,0.83 0.5,1.8 0.84,2.79 0.3,0.92 0.65,1.85 1.01,2.72 0.47,1.13 0.88,2.22 1.27,3.27 0.67,1.79 1.31,3.48 2.17,5.19 0.71,1.42 1.37,2.54 2.03,3.65 0.2,0.34 0.4,0.68 0.62,1.06 0.09,0.16 0.04,0.36 -0.12,0.46 -0.16,0.09 -0.37,0.04 -0.46,-0.12 -0.2,-0.34 -0.41,-0.7 -0.62,-1.05 -0.66,-1.11 -1.32,-2.23 -2.05,-3.7 -0.88,-1.75 -1.53,-3.46 -2.2,-5.25 -0.39,-1.04 -0.8,-2.12 -1.27,-3.25 -0.36,-0.88 -0.71,-1.83 -1.02,-2.77 -0.34,-0.99 -0.63,-1.97 -0.85,-2.83zm1.45 -1.16c-0.06,-0.17 0.04,-0.36 0.22,-0.42 0.17,-0.06 0.36,0.04 0.42,0.21l1.82 5.47 3.66 8.46 2.44 4.47c0.09,0.17 0.03,0.37 -0.14,0.46 -0.16,0.09 -0.36,0.03 -0.45,-0.13l-2.44 -4.49 0 0 -0.02 -0.02 -3.68 -8.49 -0.01 -0.03 -1.82 -5.49zm-59.92 11.46c-0.01,-0.19 0.14,-0.34 0.33,-0.35 0.18,0 0.34,0.15 0.34,0.33 0.04,1.33 0.06,2.62 0.09,3.87 0.12,5.88 0.23,11.04 0.91,17.95 0.01,0.19 -0.12,0.35 -0.31,0.37 -0.18,0.02 -0.35,-0.11 -0.37,-0.3 -0.68,-6.93 -0.78,-12.11 -0.91,-18.01 -0.02,-1.24 -0.05,-2.52 -0.08,-3.86zm1.81 -0.08c0,-0.19 0.15,-0.34 0.34,-0.34 0.18,0 0.34,0.14 0.34,0.33 0.05,4.65 0.15,8.65 0.34,12.25 0.19,3.6 0.47,6.8 0.89,9.86 0.02,0.18 -0.11,0.35 -0.29,0.38 -0.19,0.02 -0.36,-0.11 -0.38,-0.29 -0.42,-3.08 -0.7,-6.3 -0.89,-9.91 -0.19,-3.61 -0.3,-7.61 -0.35,-12.28zm7.02 -0.47c0,-0.19 0.14,-0.34 0.33,-0.35 0.19,0 0.34,0.14 0.35,0.33 0.12,4.1 0.28,7.65 0.66,11.19 0.38,3.53 0.97,7.03 1.94,11.03 0.05,0.18 -0.06,0.36 -0.25,0.4 -0.18,0.05 -0.36,-0.06 -0.4,-0.25 -0.99,-4.03 -1.58,-7.56 -1.96,-11.11 -0.38,-3.55 -0.54,-7.12 -0.67,-11.24zm1.72 -0.13c-0.02,-0.19 0.13,-0.34 0.31,-0.35 0.19,-0.01 0.35,0.13 0.36,0.31 0.05,0.82 0.09,1.62 0.13,2.4 0.38,6.91 0.71,12.9 2.85,19.93 0.06,0.18 -0.04,0.36 -0.22,0.42 -0.18,0.05 -0.37,-0.05 -0.42,-0.23 -2.17,-7.1 -2.5,-13.13 -2.88,-20.08 -0.04,-0.79 -0.09,-1.58 -0.13,-2.4zm1.71 -0.07c-0.01,-0.18 0.13,-0.34 0.32,-0.35 0.18,-0.01 0.34,0.13 0.35,0.32 0.24,4.52 0.57,8.58 1.08,12.24 0.52,3.65 1.22,6.89 2.23,9.78 0.06,0.18 -0.04,0.37 -0.21,0.43 -0.18,0.06 -0.37,-0.03 -0.43,-0.21 -1.02,-2.94 -1.73,-6.22 -2.25,-9.91 -0.52,-3.68 -0.85,-7.76 -1.09,-12.3zm5.24 0.07c-0.02,-0.19 0.11,-0.35 0.3,-0.37 0.18,-0.02 0.35,0.12 0.37,0.3l0.58 6.17 0 0c0.21,1.75 0.46,3.38 0.74,4.92 0.28,1.54 0.59,3.01 0.93,4.44l1.69 5.98c0.05,0.18 -0.05,0.37 -0.23,0.42 -0.18,0.05 -0.37,-0.06 -0.42,-0.24l-1.69 -6c-0.34,-1.41 -0.65,-2.9 -0.94,-4.48m-1.33 -11.14l0.58 6.18 0 0c0.21,1.74 0.47,3.39 0.75,4.96m1.59 4.32l0 0m-0.7 -9.88l0 -0.01m3.21 -6.46c-0.01,-0.19 0.13,-0.35 0.32,-0.36 0.19,-0.01 0.34,0.14 0.35,0.32l0.33 6.13c0.41,1.79 0.8,3.45 1.18,5 0.37,1.53 0.74,3.03 1.12,4.51l0 0.01 1.8 6.15c0.05,0.18 -0.05,0.37 -0.23,0.42 -0.18,0.05 -0.37,-0.05 -0.42,-0.23l-1.8 -6.15 -0.01 -0.04c-0.35,-1.37 -0.72,-2.87 -1.12,-4.51 -0.39,-1.61 -0.78,-3.28 -1.18,-5.02l-0.01 -0.01 0 -0.01c0,-0.01 0,-0.03 0,-0.05l-0.33 -6.16zm1.68 -0.05c-0.01,-0.18 0.13,-0.34 0.32,-0.35 0.18,-0.01 0.34,0.13 0.35,0.31l0.34 5.88c0.37,1.69 0.78,3.35 1.22,4.99 0.44,1.63 0.91,3.22 1.41,4.77l0 0 0 0 1.75 5.88c0.05,0.18 -0.05,0.37 -0.23,0.42 -0.18,0.05 -0.36,-0.05 -0.42,-0.23l-1.75 -5.87 0 0c-0.5,-1.57 -0.97,-3.17 -1.41,-4.8 -0.44,-1.62 -0.85,-3.29 -1.23,-5.02 -0.01,-0.02 -0.02,-0.05 -0.02,-0.08l-0.33 -5.9zm1.77 -0.39c-0.02,-0.19 0.13,-0.35 0.31,-0.36 0.19,-0.01 0.35,0.13 0.36,0.32l0.37 6.14c0.51,1.72 0.93,3.34 1.32,4.9 0.4,1.53 0.77,3.01 1.2,4.41l0 0.02 1.84 6.35c0.05,0.18 -0.06,0.37 -0.24,0.42 -0.17,0.05 -0.36,-0.05 -0.41,-0.23l-1.83 -6.36 -0.01 0c-0.44,-1.47 -0.81,-2.92 -1.2,-4.45 -0.4,-1.56 -0.81,-3.18 -1.33,-4.9l0 0c0,-0.03 -0.01,-0.05 -0.01,-0.08l-0.37 -6.18zm11.67 -1.38c-0.02,-0.18 0.11,-0.35 0.3,-0.37 0.18,-0.02 0.35,0.11 0.37,0.3l0.63 5.62 3 9.13 1.94 5.93c0.06,0.18 -0.04,0.37 -0.22,0.43 -0.17,0.05 -0.36,-0.04 -0.42,-0.22l-1.94 -5.93 -3.01 -9.15c-0.01,-0.02 -0.01,-0.05 -0.02,-0.08l-0.63 -5.66zm1.54 -0.52c-0.02,-0.18 0.1,-0.35 0.29,-0.37 0.18,-0.03 0.35,0.1 0.38,0.29l0.72 5.63 3.01 9.23 0 0.01 2.19 5.88c0.07,0.18 -0.02,0.37 -0.2,0.44 -0.17,0.06 -0.36,-0.03 -0.43,-0.2l-2.19 -5.89 -0.02 -0.03 -3.02 -9.26 0.01 0c-0.01,-0.02 -0.01,-0.04 -0.02,-0.07l-0.72 -5.66zm1.69 -0.38c-0.03,-0.18 0.1,-0.36 0.28,-0.38 0.19,-0.03 0.36,0.1 0.39,0.28l0.84 5.62 2.91 9.16 2.47 6.03c0.07,0.17 -0.01,0.37 -0.19,0.44 -0.17,0.07 -0.36,-0.01 -0.44,-0.19l-2.46 -6.03c-0.01,-0.01 -0.02,-0.03 -0.03,-0.05l-2.91 -9.18 0 0 0 0c0,-0.02 -0.01,-0.04 -0.01,-0.05l-0.85 -5.65zm1.74 -0.28c-0.02,-0.19 0.1,-0.36 0.29,-0.39 0.18,-0.02 0.35,0.1 0.38,0.29l0.81 5.34 2.88 9.13 2.66 6.14c0.07,0.18 -0.01,0.37 -0.18,0.45 -0.17,0.07 -0.37,-0.01 -0.44,-0.18l-2.66 -6.14c-0.01,-0.02 -0.01,-0.04 -0.02,-0.06l-2.89 -9.15 -0.01 -0.01c0,-0.02 0,-0.03 -0.01,-0.05l-0.81 -5.37zm1.71 -0.38c-0.03,-0.18 0.1,-0.36 0.28,-0.38 0.19,-0.03 0.36,0.1 0.39,0.28l0.8 5.33 2.92 9.07 2.62 5.92c0.08,0.17 0,0.37 -0.17,0.45 -0.17,0.07 -0.37,-0.01 -0.45,-0.18l-2.62 -5.92 0 0 -0.01 -0.04 -2.93 -9.1c-0.01,-0.03 -0.02,-0.05 -0.02,-0.08l-0.81 -5.35zm1.76 -0.57c-0.02,-0.18 0.11,-0.35 0.29,-0.38 0.18,-0.03 0.36,0.1 0.38,0.28l0.8 5.43 2.95 9.02 2.42 5.64c0.07,0.17 -0.01,0.37 -0.18,0.45 -0.17,0.07 -0.37,-0.01 -0.44,-0.18l-2.43 -5.65 0 0 -0.01 -0.03 -2.96 -9.05c-0.01,-0.02 -0.01,-0.05 -0.02,-0.07l-0.8 -5.46zm1.7 -0.63c-0.03,-0.18 0.1,-0.35 0.29,-0.38 0.18,-0.02 0.35,0.11 0.38,0.29l0.78 5.51 2.97 9.06 2.4 5.76c0.07,0.17 -0.01,0.37 -0.18,0.44 -0.17,0.07 -0.37,-0.01 -0.44,-0.18l-2.41 -5.77 -0.01 -0.03 -2.98 -9.1c-0.01,-0.01 -0.01,-0.03 -0.02,-0.05l-0.78 -5.55zm3.79 14.73l0 -0.01m-0.57 -15.83c-0.02,-0.18 0.1,-0.35 0.29,-0.38 0.18,-0.03 0.36,0.1 0.38,0.28l0.85 5.69 3.11 9.25 2.55 5.17c0.08,0.16 0.01,0.37 -0.16,0.45 -0.16,0.08 -0.37,0.01 -0.45,-0.15l-2.56 -5.19c-0.01,-0.02 -0.01,-0.03 -0.02,-0.04l-3.11 -9.29c-0.01,-0.02 -0.02,-0.05 -0.02,-0.07l-0.86 -5.72zm1.49 -0.42c-0.04,-0.18 0.08,-0.36 0.27,-0.39 0.18,-0.04 0.36,0.08 0.39,0.27l1.06 5.47 2.94 8.94 2.91 5.86c0.08,0.17 0.01,0.37 -0.15,0.46 -0.17,0.08 -0.37,0.01 -0.46,-0.16l-2.9 -5.87c-0.01,-0.02 -0.02,-0.04 -0.03,-0.06l-2.95 -8.99 -0.02 -0.04 -1.06 -5.49zm2.69 -0.82c-0.05,-0.18 0.06,-0.36 0.23,-0.41 0.19,-0.05 0.37,0.06 0.42,0.24l1.48 5.59 3.1 8.45 2.86 5.46c0.09,0.16 0.02,0.37 -0.14,0.45 -0.17,0.09 -0.37,0.03 -0.46,-0.14l-2.86 -5.46c-0.02,-0.02 -0.02,-0.04 -0.03,-0.06l-3.11 -8.48 0 0 -0.01 -0.03 -1.48 -5.61zm1.36 -0.85c-0.05,-0.17 0.05,-0.36 0.22,-0.42 0.18,-0.06 0.37,0.04 0.43,0.22l1.8 5.65 0 0 3.28 8.54 2.78 4.85c0.09,0.16 0.03,0.37 -0.13,0.46 -0.16,0.09 -0.37,0.04 -0.46,-0.12l-2.79 -4.87c-0.01,-0.02 -0.02,-0.03 -0.02,-0.05l-3.29 -8.57 0 0 -0.01 -0.01 -1.81 -5.68zm-62.08 9.5c0,-0.18 0.15,-0.34 0.33,-0.34 0.19,0 0.34,0.15 0.34,0.33 0.05,2.7 0.05,5.2 0.06,7.65 0,4.59 0.01,9.05 0.32,14.55 0.01,0.18 -0.14,0.34 -0.32,0.35 -0.19,0.01 -0.35,-0.13 -0.36,-0.32 -0.31,-5.49 -0.31,-9.97 -0.32,-14.58 0,-2.45 0,-4.93 -0.05,-7.64zm1.64 -0.28c-0.01,-0.19 0.14,-0.34 0.32,-0.35 0.19,-0.01 0.34,0.14 0.35,0.33 0.13,3.49 0.13,6.57 0.14,9.57 0,4.08 0.01,8.01 0.33,12.67 0.01,0.18 -0.13,0.35 -0.32,0.36 -0.18,0.01 -0.34,-0.13 -0.36,-0.32 -0.32,-4.66 -0.32,-8.61 -0.33,-12.71 0,-2.99 -0.01,-6.06 -0.13,-9.55zm-63.51 -11.98c0.06,-0.17 0.26,-0.26 0.43,-0.2 0.18,0.07 0.27,0.26 0.21,0.43l-0.43 1.17c-0.06,0.17 -0.26,0.26 -0.43,0.2 -0.18,-0.06 -0.27,-0.26 -0.2,-0.43l0.42 -1.17zm60.87 6.42c0,-0.19 0.16,-0.34 0.34,-0.34 0.19,0.01 0.34,0.16 0.34,0.34l-0.05 5.11c0,0.19 -0.15,0.34 -0.34,0.34 -0.19,-0.01 -0.34,-0.16 -0.33,-0.34l0.04 -5.11zm-1.74 -0.17c0,-0.18 0.15,-0.33 0.34,-0.33 0.18,0 0.34,0.15 0.34,0.33l0 5.25c0,0.19 -0.15,0.34 -0.33,0.34 -0.19,0 -0.34,-0.15 -0.34,-0.34l-0.01 -5.25zm-1.8 0.02c0,-0.18 0.16,-0.33 0.34,-0.33 0.19,0.01 0.34,0.16 0.33,0.35l-0.16 5.18c0,0.19 -0.16,0.33 -0.34,0.33 -0.19,0 -0.33,-0.16 -0.33,-0.35l0.16 -5.18zm-2 -0.22c0,-0.18 0.16,-0.33 0.35,-0.32 0.18,0 0.33,0.16 0.32,0.35l-0.23 5.35c-0.01,0.19 -0.16,0.33 -0.35,0.32 -0.19,0 -0.33,-0.16 -0.32,-0.35l0.23 -5.35zm-2.22 0.28c0,-0.19 0.16,-0.34 0.34,-0.33 0.19,0 0.34,0.15 0.33,0.34l-0.11 5.03c-0.01,0.13 -0.08,0.24 -0.19,0.29 0.08,0.07 0.14,0.17 0.14,0.28 -0.06,5.28 -0.21,9.26 -0.45,12.71 -0.25,3.45 -0.59,6.39 -1.01,9.56 -0.03,0.18 -0.2,0.31 -0.38,0.28 -0.19,-0.02 -0.32,-0.19 -0.29,-0.38 0.42,-3.14 0.76,-6.06 1,-9.51 0.25,-3.45 0.4,-7.42 0.45,-12.66 0.01,-0.14 0.08,-0.25 0.19,-0.3 -0.08,-0.07 -0.14,-0.17 -0.14,-0.29l0.12 -5.02zm-1.85 -0.21c0,-0.19 0.16,-0.33 0.34,-0.33 0.19,0.01 0.33,0.17 0.33,0.35l-0.17 5.17c0,0.04 -0.01,0.08 -0.02,0.11 0.09,0.06 0.14,0.16 0.14,0.28 -0.02,4.31 -0.19,8.21 -0.49,11.88 -0.31,3.68 -0.75,7.14 -1.34,10.56 -0.03,0.18 -0.2,0.31 -0.38,0.28 -0.19,-0.04 -0.31,-0.21 -0.28,-0.39 0.58,-3.4 1.02,-6.84 1.32,-10.51 0.31,-3.67 0.47,-7.56 0.5,-11.82 0,-0.05 0.01,-0.09 0.02,-0.12 -0.09,-0.07 -0.14,-0.17 -0.14,-0.29l0.17 -5.17zm-2.16 0.11c0,-0.19 0.15,-0.34 0.34,-0.33 0.18,0 0.33,0.15 0.33,0.34l-0.09 4.99c0,0.04 0,0.08 -0.02,0.12 0.06,-0.05 0.14,-0.07 0.21,-0.07 0.19,0 0.34,0.16 0.33,0.35 -0.13,4.27 -0.3,8.14 -0.64,11.83 -0.34,3.69 -0.86,7.19 -1.67,10.68 -0.04,0.18 -0.23,0.3 -0.41,0.26 -0.18,-0.05 -0.29,-0.23 -0.25,-0.41 0.81,-3.47 1.32,-6.94 1.66,-10.59 0.33,-3.67 0.5,-7.53 0.64,-11.79 0,-0.04 0.01,-0.08 0.02,-0.11 -0.06,0.04 -0.13,0.06 -0.21,0.06 -0.18,0 -0.33,-0.15 -0.33,-0.34l0.09 -4.99zm-1.95 -0.07c0.01,-0.19 0.17,-0.34 0.35,-0.33 0.19,0.01 0.33,0.17 0.33,0.35l-0.23 4.97c0,0.19 -0.16,0.33 -0.35,0.33 -0.18,-0.01 -0.33,-0.17 -0.32,-0.35l0.22 -4.97zm-1.92 -0.08c0.01,-0.19 0.17,-0.33 0.36,-0.32 0.18,0.01 0.33,0.17 0.31,0.36l-0.31 4.95c-0.02,0.18 -0.18,0.32 -0.36,0.31 -0.19,-0.01 -0.33,-0.17 -0.32,-0.36l0.32 -4.94zm-1.96 -0.09c0.02,-0.19 0.18,-0.32 0.36,-0.31 0.19,0.01 0.33,0.18 0.32,0.36l-0.38 4.92c-0.01,0.19 -0.18,0.33 -0.36,0.31l0 0c0,0.03 0,0.06 0,0.09 -0.17,3.97 -0.47,7.74 -1.04,11.41l0 0c-0.57,3.67 -1.39,7.24 -2.61,10.82 -0.06,0.17 -0.25,0.27 -0.43,0.21 -0.17,-0.06 -0.27,-0.25 -0.21,-0.43 1.2,-3.53 2.02,-7.07 2.58,-10.7l0 0 0 0c0.56,-3.64 0.87,-7.38 1.04,-11.34 0.01,-0.18 0.16,-0.33 0.35,-0.32l0.01 0c-0.01,-0.03 -0.01,-0.06 -0.01,-0.1l0.38 -4.92zm-1.94 -0.09c0.01,-0.19 0.17,-0.33 0.36,-0.31 0.18,0.01 0.32,0.17 0.31,0.36l-0.35 4.9c-0.01,0.18 -0.18,0.32 -0.36,0.31l-0.03 -0.01c0.05,0.07 0.08,0.15 0.07,0.23 -0.18,3.76 -0.52,7.49 -1.11,11.16 -0.59,3.68 -1.44,7.3 -2.64,10.81 -0.06,0.18 -0.25,0.27 -0.43,0.21 -0.18,-0.06 -0.27,-0.25 -0.21,-0.43 1.19,-3.48 2.03,-7.06 2.62,-10.69 0.58,-3.65 0.92,-7.36 1.1,-11.09 0.01,-0.18 0.17,-0.33 0.35,-0.32l0.04 0.01c-0.05,-0.07 -0.08,-0.15 -0.07,-0.24l0.35 -4.9zm-2.02 -0.1c0.01,-0.19 0.17,-0.33 0.35,-0.32 0.19,0.01 0.33,0.17 0.32,0.36l-0.34 4.87c-0.01,0.19 -0.17,0.33 -0.36,0.32 -0.18,-0.02 -0.33,-0.18 -0.31,-0.36l0.34 -4.87zm-2.03 -0.13c0.02,-0.18 0.18,-0.32 0.37,-0.31 0.18,0.02 0.32,0.18 0.3,0.37l-0.43 4.83 -0.01 0.04c0.03,0 0.05,0 0.08,0 0.18,0.01 0.32,0.17 0.31,0.36l-0.41 6.02 -0.01 0.03c-0.26,1.81 -0.56,3.54 -0.9,5.19 -0.33,1.64 -0.71,3.19 -1.12,4.62l0 0 -1.69 6.02c-0.05,0.18 -0.24,0.29 -0.42,0.24 -0.17,-0.05 -0.28,-0.24 -0.23,-0.42l1.69 -6.02 0 0 0 0c0.41,-1.42 0.78,-2.95 1.11,-4.57 0.33,-1.62 0.63,-3.34 0.89,-5.15l0.42 -6.01c0,-0.01 0,-0.03 0,-0.05 -0.02,0.01 -0.05,0.01 -0.07,0.01 -0.19,-0.02 -0.33,-0.18 -0.31,-0.37l0.43 -4.83zm-1.97 -0.13c0.01,-0.18 0.18,-0.32 0.36,-0.3 0.19,0.02 0.32,0.18 0.31,0.37l-0.45 4.74c0.06,-0.09 0.17,-0.14 0.29,-0.13 0.19,0.01 0.33,0.17 0.32,0.36l-0.47 6.51c-0.01,0.02 -0.01,0.04 -0.01,0.05 -0.27,1.66 -0.58,3.27 -0.93,4.83 -0.36,1.56 -0.76,3.07 -1.21,4.49l0 0.01 -1.88 6.32c-0.05,0.18 -0.24,0.28 -0.42,0.23 -0.18,-0.05 -0.28,-0.24 -0.23,-0.42l1.88 -6.32 0.01 -0.02c0.45,-1.42 0.84,-2.9 1.19,-4.44 0.35,-1.54 0.65,-3.14 0.92,-4.79l0.47 -6.46c-0.07,0.09 -0.18,0.14 -0.3,0.13 -0.19,-0.01 -0.32,-0.18 -0.31,-0.36l0.46 -4.8zm-1.97 -0.13c0.01,-0.19 0.18,-0.32 0.36,-0.31 0.19,0.02 0.33,0.18 0.31,0.37l-0.41 4.75c-0.01,0.19 -0.18,0.33 -0.36,0.31 -0.19,-0.02 -0.33,-0.18 -0.31,-0.36l0.41 -4.76zm-1.96 -0.15c0.02,-0.18 0.18,-0.32 0.37,-0.31 0.18,0.02 0.32,0.18 0.31,0.37l-0.4 4.71c-0.02,0.18 -0.18,0.32 -0.37,0.31 -0.18,-0.02 -0.32,-0.18 -0.3,-0.37l0.39 -4.71zm-1.87 -0.15c0.01,-0.19 0.18,-0.32 0.36,-0.31 0.19,0.01 0.33,0.18 0.31,0.36l-0.36 4.67c-0.02,0.18 -0.18,0.32 -0.36,0.31 -0.08,-0.01 -0.15,-0.04 -0.2,-0.08l-0.6 6.14c0,0.02 0,0.05 -0.01,0.07l0 0 -2.77 9.43 -0.01 0.02 -1.77 6.14c-0.05,0.18 -0.23,0.28 -0.41,0.23 -0.18,-0.05 -0.29,-0.24 -0.23,-0.41l1.76 -6.14 0.01 -0.02 2.76 -9.42 0.61 -6.17c0.01,-0.18 0.18,-0.32 0.36,-0.3 0.08,0 0.14,0.03 0.19,0.08l0.36 -4.6zm-1.76 -0.32c0.02,-0.19 0.19,-0.32 0.37,-0.3 0.19,0.01 0.32,0.18 0.31,0.36l-0.48 4.76c-0.02,0.19 -0.19,0.32 -0.37,0.3 -0.04,0 -0.08,-0.01 -0.12,-0.03l-0.57 5.75c0,0.02 0,0.04 -0.01,0.06l0 0 -2.86 9.71 0 0.01 -1.92 6.21c-0.05,0.18 -0.24,0.28 -0.42,0.22 -0.17,-0.05 -0.28,-0.24 -0.22,-0.42l1.92 -6.2 0 -0.01 2.85 -9.68 0.57 -5.77c0.01,-0.19 0.18,-0.32 0.36,-0.3 0.05,0 0.09,0.01 0.12,0.03l0.47 -4.7zm-1.91 -0.04c0.02,-0.18 0.18,-0.32 0.37,-0.3 0.18,0.02 0.32,0.19 0.3,0.37l-0.49 4.52c-0.01,0.13 -0.1,0.24 -0.22,0.28 0.03,0.06 0.05,0.13 0.04,0.2l-0.57 5.8c0,0.03 -0.01,0.05 -0.02,0.07l0 0 -3.02 9.32 0 0.01 -1.94 6.04c-0.06,0.18 -0.25,0.27 -0.43,0.22 -0.17,-0.06 -0.27,-0.25 -0.21,-0.43l1.93 -6.03 0.01 -0.02 3.01 -9.28 0.57 -5.76c0.01,-0.14 0.11,-0.25 0.22,-0.29 -0.03,-0.06 -0.04,-0.13 -0.04,-0.2l0.49 -4.52zm-1.72 -0.38c0.02,-0.19 0.18,-0.32 0.37,-0.31 0.19,0.02 0.32,0.19 0.3,0.37l-0.49 4.69c0,0.08 -0.04,0.15 -0.09,0.2l-0.62 5.96c0,0.03 0,0.05 -0.01,0.07l-3.03 9.32 -2.07 6.31c-0.06,0.17 -0.25,0.27 -0.42,0.21 -0.18,-0.05 -0.28,-0.25 -0.22,-0.42l2.07 -6.31 3.02 -9.28 0.62 -5.96c0,-0.08 0.04,-0.15 0.09,-0.2l0.48 -4.65zm-1.71 -0.27c0.02,-0.18 0.19,-0.31 0.37,-0.29 0.19,0.03 0.32,0.2 0.29,0.38l-0.59 4.54 0 0.01c0.15,0.05 0.25,0.2 0.23,0.36l-0.62 5.67c-0.01,0.03 -0.01,0.05 -0.02,0.07l-3.02 9.31 -0.01 0.01 -2.26 6.42c-0.06,0.18 -0.25,0.27 -0.43,0.21 -0.17,-0.06 -0.27,-0.26 -0.2,-0.43l2.26 -6.42 3.01 -9.28 0.62 -5.64 0 -0.02c-0.15,-0.05 -0.25,-0.2 -0.23,-0.36l0.6 -4.54zm-1.92 0.07c0.02,-0.18 0.18,-0.32 0.37,-0.3 0.18,0.02 0.32,0.19 0.3,0.37l-0.45 4.16c-0.01,0.07 -0.04,0.14 -0.09,0.19 0.17,0.04 0.29,0.2 0.27,0.37l-0.62 5.68c0,0.02 -0.01,0.04 -0.02,0.07l-3.02 9.31 -0.01 0.02 -1.93 6.08c-0.06,0.18 -0.25,0.27 -0.43,0.22 -0.17,-0.06 -0.27,-0.25 -0.21,-0.42l1.93 -6.09 0.01 -0.02 3.01 -9.28 0.62 -5.64c0.01,-0.08 0.04,-0.14 0.09,-0.19 -0.17,-0.04 -0.29,-0.2 -0.27,-0.37l0.45 -4.16zm-1.84 -0.23c0.02,-0.19 0.19,-0.32 0.37,-0.3 0.19,0.02 0.32,0.19 0.3,0.37l-0.44 3.81c-0.02,0.18 -0.19,0.32 -0.37,0.3 -0.19,-0.02 -0.32,-0.19 -0.3,-0.38l0.44 -3.8zm-1.82 -0.26c0.03,-0.19 0.2,-0.31 0.38,-0.28 0.19,0.03 0.31,0.2 0.28,0.38l-0.58 3.61c-0.03,0.19 -0.2,0.31 -0.38,0.28 -0.19,-0.03 -0.31,-0.2 -0.28,-0.38l0.58 -3.61zm-1.85 -0.28c0.03,-0.18 0.21,-0.31 0.39,-0.27 0.19,0.03 0.31,0.2 0.28,0.39l-0.61 3.54c-0.03,0.19 -0.2,0.31 -0.39,0.28 -0.18,-0.03 -0.3,-0.21 -0.27,-0.39l0.6 -3.55zm-1.89 -0.31c0.04,-0.18 0.21,-0.3 0.4,-0.26 0.18,0.03 0.3,0.21 0.26,0.39l-0.65 3.38c-0.04,0.18 -0.22,0.3 -0.4,0.27 -0.18,-0.04 -0.3,-0.22 -0.27,-0.4l0.66 -3.38zm-1.93 -0.34c0.04,-0.18 0.22,-0.29 0.4,-0.25 0.18,0.04 0.3,0.22 0.26,0.4l-0.7 3.04c-0.05,0.18 -0.23,0.3 -0.41,0.26 -0.18,-0.05 -0.29,-0.23 -0.25,-0.41l0.7 -3.04zm-1.84 -0.33c0.04,-0.19 0.22,-0.3 0.4,-0.27 0.18,0.04 0.3,0.22 0.26,0.4l-0.57 2.75c-0.04,0.18 -0.22,0.3 -0.4,0.26 -0.18,-0.03 -0.3,-0.21 -0.26,-0.39l0.57 -2.75zm-1.86 -0.39c0.04,-0.18 0.22,-0.29 0.4,-0.25 0.18,0.04 0.3,0.22 0.25,0.4l-0.62 2.74c-0.02,0.12 -0.12,0.22 -0.24,0.25 0.09,0.07 0.14,0.19 0.12,0.31l-0.89 5.84c-0.01,0.02 -0.01,0.04 -0.02,0.06l-2.97 9.01c0,0.01 -0.01,0.03 -0.02,0.05l-2.49 5.49c-0.08,0.17 -0.28,0.25 -0.45,0.17 -0.17,-0.08 -0.24,-0.28 -0.17,-0.45l2.5 -5.49 2.95 -8.97 0.89 -5.81c0.02,-0.14 0.13,-0.24 0.26,-0.27 -0.1,-0.08 -0.15,-0.21 -0.12,-0.34l0.62 -2.74zm-1.87 -0.43c0.04,-0.18 0.23,-0.29 0.41,-0.24 0.18,0.05 0.29,0.23 0.24,0.41l-0.66 2.46c-0.05,0.18 -0.23,0.28 -0.41,0.24 -0.18,-0.05 -0.29,-0.24 -0.24,-0.42l0.66 -2.45zm-1.74 -0.43c0.04,-0.18 0.23,-0.29 0.41,-0.24 0.18,0.05 0.29,0.23 0.24,0.41l-0.61 2.36c-0.04,0.18 -0.23,0.29 -0.41,0.25 -0.18,-0.05 -0.28,-0.23 -0.24,-0.41l0.61 -2.37zm-1.89 -0.52c0.05,-0.18 0.24,-0.29 0.42,-0.24 0.17,0.05 0.28,0.24 0.23,0.42l-0.53 1.87c-0.05,0.18 -0.24,0.28 -0.42,0.23 -0.17,-0.05 -0.28,-0.23 -0.23,-0.41l0.53 -1.87zm-3.64 -1.25c0.06,-0.17 0.25,-0.27 0.43,-0.21 0.17,0.06 0.27,0.25 0.21,0.43l-0.15 0.43c-0.05,0.17 -0.25,0.27 -0.42,0.21 -0.18,-0.06 -0.27,-0.26 -0.21,-0.43l0.14 -0.43zm3.95 4.5c0.05,-0.18 0.23,-0.3 0.41,-0.26 0.18,0.04 0.29,0.22 0.25,0.4l-1.25 5.61 -0.01 0.04 0 0 -3.14 8.96c-0.01,0.02 -0.02,0.04 -0.03,0.05l0.01 0 -2.99 5.41c-0.09,0.16 -0.29,0.22 -0.46,0.13 -0.16,-0.09 -0.22,-0.29 -0.13,-0.46l2.97 -5.38 3.13 -8.91 1.24 -5.59zm-4.19 -2.26c0.04,-0.18 0.23,-0.29 0.41,-0.24 0.18,0.04 0.28,0.23 0.24,0.41 -0.22,0.86 -0.51,1.84 -0.85,2.83 -0.31,0.94 -0.66,1.89 -1.02,2.77 -0.47,1.13 -0.88,2.21 -1.27,3.25 -0.67,1.79 -1.32,3.5 -2.2,5.25 -0.73,1.47 -1.39,2.59 -2.05,3.7 -0.21,0.35 -0.42,0.71 -0.62,1.05 -0.09,0.16 -0.3,0.21 -0.46,0.12 -0.16,-0.1 -0.21,-0.3 -0.12,-0.46 0.22,-0.38 0.42,-0.72 0.62,-1.06 0.66,-1.11 1.32,-2.23 2.03,-3.65 0.86,-1.71 1.5,-3.4 2.17,-5.19 0.39,-1.05 0.8,-2.14 1.27,-3.27 0.36,-0.87 0.71,-1.8 1.01,-2.72 0.34,-0.99 0.62,-1.96 0.84,-2.79zm-1.44 -1.2c0.06,-0.17 0.25,-0.27 0.42,-0.21 0.18,0.06 0.28,0.25 0.22,0.42l-1.82 5.49 -0.01 0.03 -3.68 8.49 -0.02 0.02 0 0 -2.44 4.49c-0.09,0.16 -0.29,0.22 -0.45,0.13 -0.17,-0.09 -0.23,-0.29 -0.14,-0.46l2.44 -4.47 3.66 -8.46 1.82 -5.47zm59.89 11.65c0,-0.18 0.16,-0.33 0.34,-0.33 0.19,0.01 0.33,0.16 0.33,0.35 -0.03,1.34 -0.06,2.62 -0.08,3.86 -0.13,5.9 -0.23,11.08 -0.91,18.01 -0.02,0.19 -0.19,0.32 -0.37,0.3 -0.19,-0.02 -0.32,-0.18 -0.31,-0.37 0.68,-6.91 0.79,-12.07 0.91,-17.95 0.03,-1.25 0.05,-2.54 0.09,-3.87zm-1.82 -0.07c0,-0.19 0.16,-0.33 0.34,-0.33 0.19,0 0.34,0.15 0.34,0.34 -0.05,4.67 -0.16,8.67 -0.35,12.28 -0.19,3.61 -0.47,6.83 -0.89,9.91 -0.02,0.18 -0.19,0.31 -0.38,0.29 -0.18,-0.03 -0.31,-0.2 -0.29,-0.38 0.42,-3.06 0.7,-6.26 0.89,-9.86 0.19,-3.6 0.29,-7.6 0.34,-12.25zm-7.02 -0.48c0.01,-0.19 0.16,-0.33 0.35,-0.33 0.19,0.01 0.33,0.16 0.33,0.35 -0.13,4.12 -0.29,7.69 -0.67,11.24 -0.38,3.55 -0.97,7.08 -1.96,11.11 -0.04,0.19 -0.22,0.3 -0.4,0.25 -0.19,-0.04 -0.3,-0.22 -0.25,-0.4 0.97,-4 1.56,-7.5 1.94,-11.03 0.38,-3.54 0.54,-7.09 0.66,-11.19zm-1.71 -0.15c0.01,-0.18 0.17,-0.32 0.36,-0.31 0.18,0.01 0.33,0.16 0.31,0.35 -0.04,0.82 -0.09,1.61 -0.13,2.4 -0.38,6.95 -0.71,12.98 -2.88,20.08 -0.05,0.18 -0.24,0.28 -0.42,0.23 -0.18,-0.06 -0.28,-0.24 -0.22,-0.42 2.14,-7.03 2.47,-13.02 2.85,-19.93 0.04,-0.78 0.08,-1.58 0.13,-2.4zm-1.71 -0.06c0.01,-0.19 0.17,-0.33 0.35,-0.32 0.19,0.01 0.33,0.17 0.32,0.35 -0.24,4.54 -0.57,8.62 -1.09,12.3 -0.52,3.69 -1.23,6.97 -2.25,9.91 -0.06,0.18 -0.25,0.27 -0.43,0.21 -0.17,-0.06 -0.27,-0.25 -0.21,-0.43 1.01,-2.89 1.71,-6.13 2.23,-9.78 0.51,-3.66 0.84,-7.72 1.08,-12.24zm-6.56 11.12c0.27,-1.54 0.53,-3.17 0.74,-4.92l0 0 0.58 -6.17c0.02,-0.18 0.19,-0.32 0.37,-0.3 0.19,0.02 0.32,0.18 0.3,0.37l-0.58 6.17 0 0.01 0 0c-0.21,1.74 -0.47,3.39 -0.75,4.96 -0.29,1.58 -0.6,3.07 -0.94,4.48l0 0.02 -1.69 5.98c-0.05,0.18 -0.24,0.29 -0.42,0.24 -0.18,-0.05 -0.28,-0.24 -0.23,-0.42l1.69 -5.98 0 0m0 0c0.34,-1.43 0.65,-2.9 0.93,-4.44m-0.23 -5.45l0 0.01m-3.88 -6.51c0.01,-0.18 0.16,-0.33 0.35,-0.32 0.19,0.01 0.33,0.17 0.32,0.36l-0.33 6.16c0,0.02 0,0.04 0,0.05l0 0.01 -0.01 0.01c-0.4,1.74 -0.79,3.41 -1.18,5.02 -0.4,1.64 -0.77,3.14 -1.12,4.51l-0.01 0.04 -1.8 6.15c-0.05,0.18 -0.24,0.28 -0.42,0.23 -0.18,-0.05 -0.28,-0.24 -0.23,-0.42l1.8 -6.15 0 -0.01c0.38,-1.48 0.75,-2.98 1.12,-4.51 0.38,-1.55 0.77,-3.21 1.18,-5l0.33 -6.13zm-1.68 -0.05c0.01,-0.18 0.17,-0.32 0.35,-0.31 0.19,0.01 0.33,0.17 0.32,0.35l-0.33 5.9c-0.01,0.03 -0.01,0.06 -0.02,0.08 -0.38,1.73 -0.79,3.4 -1.23,5.02 -0.44,1.63 -0.91,3.23 -1.41,4.8l0 0 -1.75 5.87c-0.06,0.18 -0.25,0.28 -0.42,0.23 -0.18,-0.05 -0.28,-0.24 -0.23,-0.42l1.75 -5.88 0 0 0 0c0.5,-1.55 0.97,-3.14 1.41,-4.77 0.44,-1.64 0.85,-3.3 1.22,-4.99l0.34 -5.88zm0.32 6.02c-0.04,0.15 -0.18,0.25 -0.34,0.24m-1.75 -6.65c0.01,-0.19 0.17,-0.33 0.36,-0.32 0.18,0.01 0.33,0.17 0.31,0.36l-0.37 6.18c0,0.03 -0.01,0.05 -0.01,0.08l0 0c-0.52,1.72 -0.93,3.34 -1.33,4.9 -0.39,1.53 -0.76,2.98 -1.21,4.45l0 0 -1.83 6.36c-0.05,0.18 -0.24,0.28 -0.42,0.23 -0.17,-0.05 -0.28,-0.24 -0.23,-0.42l1.84 -6.35 0 -0.02c0.43,-1.4 0.8,-2.88 1.2,-4.41 0.39,-1.56 0.81,-3.18 1.32,-4.9l0.37 -6.14zm-8.08 4.78c-0.05,0.15 -0.2,0.25 -0.36,0.23m-1.46 -0.36c-0.05,0.14 -0.19,0.24 -0.35,0.23m-1.42 -6.29c0.02,-0.19 0.19,-0.32 0.37,-0.3 0.19,0.02 0.32,0.19 0.3,0.37l-0.63 5.66c-0.01,0.03 -0.01,0.06 -0.02,0.08l-3.01 9.15 -1.94 5.93c-0.06,0.18 -0.25,0.27 -0.43,0.22 -0.17,-0.06 -0.27,-0.25 -0.21,-0.43l1.94 -5.93 3 -9.13 0.63 -5.62zm-1.54 -0.53c0.03,-0.19 0.2,-0.32 0.38,-0.29 0.18,0.02 0.31,0.19 0.29,0.37l-0.72 5.66c-0.01,0.03 -0.01,0.05 -0.02,0.07l0.01 0 -3.03 9.26 -0.01 0.03 -2.19 5.89c-0.07,0.17 -0.26,0.26 -0.43,0.2 -0.18,-0.07 -0.27,-0.26 -0.2,-0.44l2.19 -5.88 0 -0.01 3.01 -9.23 0.72 -5.63zm-1.69 -0.4c0.03,-0.18 0.2,-0.31 0.39,-0.28 0.18,0.02 0.31,0.2 0.28,0.38l-0.85 5.65c0,0.01 -0.01,0.03 -0.01,0.05l0 0 0 0 -2.91 9.18c-0.01,0.02 -0.02,0.04 -0.03,0.05l-2.47 6.03c-0.07,0.18 -0.26,0.26 -0.43,0.19 -0.18,-0.07 -0.26,-0.27 -0.19,-0.44l2.47 -6.03 2.91 -9.16 0.84 -5.62zm-1.74 -0.28c0.03,-0.19 0.2,-0.31 0.38,-0.29 0.19,0.03 0.31,0.2 0.29,0.39l-0.81 5.37c-0.01,0.02 -0.01,0.03 -0.01,0.05l-0.01 0.01 -2.89 9.15c-0.01,0.02 -0.01,0.04 -0.02,0.06l-2.66 6.14c-0.07,0.17 -0.27,0.25 -0.44,0.18 -0.17,-0.08 -0.25,-0.27 -0.18,-0.45l2.66 -6.14 2.88 -9.13 0.81 -5.34zm-1.71 -0.38c0.03,-0.18 0.2,-0.31 0.39,-0.28 0.18,0.02 0.31,0.2 0.28,0.38l-0.81 5.35c0,0.03 -0.01,0.05 -0.02,0.08l-2.93 9.1 -0.01 0.04 0 0 -2.62 5.92c-0.08,0.17 -0.28,0.25 -0.45,0.18 -0.17,-0.08 -0.25,-0.28 -0.17,-0.45l2.62 -5.92 2.92 -9.07 0.8 -5.33zm-1.76 -0.57c0.02,-0.18 0.2,-0.31 0.38,-0.28 0.18,0.03 0.31,0.2 0.28,0.38l-0.79 5.46c-0.01,0.02 -0.01,0.05 -0.02,0.07l-2.96 9.05 -0.01 0.03 0 0 -2.43 5.65c-0.07,0.17 -0.27,0.25 -0.44,0.18 -0.17,-0.08 -0.25,-0.28 -0.18,-0.45l2.42 -5.64 2.95 -9.02 0.8 -5.43zm-1.7 -0.62c0.03,-0.18 0.2,-0.31 0.38,-0.29 0.19,0.03 0.32,0.2 0.29,0.38l-0.78 5.55c-0.01,0.02 -0.01,0.04 -0.02,0.05l-2.98 9.1 -0.01 0.03 -2.41 5.77c-0.07,0.17 -0.27,0.25 -0.44,0.18 -0.17,-0.07 -0.25,-0.27 -0.18,-0.44l2.4 -5.76 2.97 -9.06 0.78 -5.51zm-3.12 14.81l0 0.01m-0.1 -15.94c0.02,-0.18 0.2,-0.31 0.38,-0.28 0.18,0.03 0.31,0.2 0.29,0.38l-0.86 5.72c0,0.02 -0.01,0.05 -0.02,0.07l-3.11 9.29c-0.01,0.01 -0.02,0.02 -0.02,0.04l-2.56 5.19c-0.08,0.16 -0.29,0.23 -0.45,0.15 -0.17,-0.08 -0.24,-0.29 -0.16,-0.45l2.55 -5.17 3.11 -9.25 0.85 -5.69zm-1.48 -0.44c0.03,-0.19 0.21,-0.31 0.39,-0.27 0.19,0.03 0.31,0.21 0.27,0.39l-1.06 5.49 -0.02 0.04 -2.95 8.99c-0.01,0.02 -0.02,0.04 -0.03,0.06l-2.9 5.87c-0.09,0.17 -0.29,0.24 -0.46,0.16 -0.16,-0.09 -0.23,-0.29 -0.15,-0.46l2.9 -5.86 2.95 -8.94 1.06 -5.47zm-2.68 -0.87c0.05,-0.18 0.23,-0.29 0.41,-0.24 0.18,0.05 0.29,0.23 0.24,0.41l-1.48 5.61 -0.01 0.03 0 0 -3.11 8.48c-0.01,0.02 -0.01,0.04 -0.03,0.06l-2.86 5.46c-0.09,0.17 -0.3,0.23 -0.46,0.14 -0.16,-0.08 -0.23,-0.29 -0.14,-0.45l2.86 -5.46 3.1 -8.45 1.48 -5.59zm-1.36 -0.88c0.06,-0.18 0.25,-0.28 0.43,-0.22 0.17,0.06 0.27,0.25 0.22,0.42l-1.82 5.68 0 0.01 0 0 -3.29 8.57c0,0.02 -0.01,0.03 -0.02,0.05l-2.79 4.87c-0.09,0.16 -0.3,0.21 -0.46,0.12 -0.16,-0.09 -0.22,-0.3 -0.13,-0.46l2.78 -4.85 3.28 -8.54 0 0 1.8 -5.65zm60.42 9.4c0,-0.18 0.16,-0.33 0.34,-0.33 0.19,0 0.34,0.16 0.33,0.34 -0.06,3.61 -0.08,6.69 -0.1,9.64 -0.02,4.12 -0.05,7.98 -0.2,12.62 0,0.19 -0.16,0.33 -0.34,0.33 -0.19,-0.01 -0.34,-0.16 -0.33,-0.35 0.15,-4.65 0.17,-8.5 0.2,-12.6 0.01,-2.95 0.03,-6.04 0.1,-9.65z"/>
 </g>
</svg>
