<?xml version="1.0" encoding="UTF-8"?>
<!DOCTYPE svg PUBLIC "-//W3C//DTD SVG 1.1//EN" "http://www.w3.org/Graphics/SVG/1.1/DTD/svg11.dtd">
<!-- Creator: CorelDRAW -->
<svg xmlns="http://www.w3.org/2000/svg" xml:space="preserve" width="888px" height="598px" version="1.1" style="shape-rendering:geometricPrecision; text-rendering:geometricPrecision; image-rendering:optimizeQuality; fill-rule:evenodd; clip-rule:evenodd"
viewBox="0 0 888 598.5"
 xmlns:xlink="http://www.w3.org/1999/xlink"
 xmlns:xodm="http://www.corel.com/coreldraw/odm/2003">
 <defs>
  <style type="text/css">
   <![CDATA[
    .str0 {stroke:#ED3237;stroke-width:0.9;stroke-miterlimit:22.9256}
    .fil0 {fill:#FEFEFE}
    .fil1 {fill:#FEFEFE}
    .fil2 {fill:#373435}
   ]]>
  </style>
 </defs>
 <g id="Capa_x0020_1">
  <metadata id="CorelCorpID_0Corel-Layer"/>
  <rect class="fil0 str0" x="0.43" y="1.21" width="887.1" height="597.6"/>
  <g>
   <path class="fil1" d="M248.86 368.46c0.38,17.87 -3.48,27 -5.79,39.96 -1.1,6.14 -2.48,16.03 -2.6,22 -0.02,1.33 -0.45,2.63 -1.53,2.88l-0.37 7.03c-0.09,1.58 -1.92,1.32 -1.86,-0.11l0.47 -6.87c0,0 -1.02,-0.4 -1.17,-1.53 -0.8,-5.98 3.79,-26.27 5.32,-32.96 1.95,-8.53 3.5,-16.69 3.51,-29.82 0,0 0.27,-1.82 1.81,-1.97 1.53,-0.15 2.21,1.39 2.21,1.39zm8.71 0c-0.39,17.87 3.48,27 5.78,39.96 1.1,6.14 2.49,16.03 2.6,22 0.02,1.33 0.45,2.63 1.53,2.88l0.38 7.03c0.08,1.58 1.91,1.32 1.85,-0.11l-0.46 -6.87c0,0 1.01,-0.4 1.16,-1.53 0.8,-5.98 -3.79,-26.27 -5.32,-32.96 -1.95,-8.53 -3.5,-16.69 -3.51,-29.82 0,0 -0.27,-1.82 -1.8,-1.97 -1.53,-0.15 -2.21,1.39 -2.21,1.39z"/>
   <path id="_1" class="fil2" d="M248.86 368.46c0.1,4.75 -0.1,8.87 -0.49,12.62 0.39,-3.75 0.59,-7.87 0.49,-12.62 0,0 -0.68,-1.54 -2.21,-1.39 -1.54,0.15 -1.81,1.97 -1.81,1.97 -0.01,13.13 -1.56,21.29 -3.51,29.82 -1.52,6.64 -6.04,26.65 -5.34,32.81 0,0.01 0,0.01 0,0.02 0.01,0.04 0.01,0.09 0.02,0.13 0.15,1.13 1.17,1.53 1.17,1.53l-0.47 6.87c-0.01,0.2 0.02,0.38 0.08,0.53 -0.06,-0.16 -0.09,-0.33 -0.08,-0.53l0.46 -6.87c-0.03,-0.01 -1.02,-0.42 -1.16,-1.53 -0.4,-2.99 0.55,-9.56 1.79,-16.21 1.23,-6.66 2.77,-13.41 3.53,-16.75 0.97,-4.26 1.85,-8.44 2.48,-13.19 0.63,-4.74 1.02,-10.07 1.03,-16.63 0,0 0.27,-1.82 1.81,-1.97 1.53,-0.15 2.21,1.39 2.21,1.39zm-0.49 12.63c-0.04,0.44 -0.09,0.87 -0.14,1.3 0.05,-0.43 0.1,-0.86 0.14,-1.3zm-0.15 1.31c-0.07,0.64 -0.15,1.27 -0.24,1.89 0.09,-0.62 0.17,-1.25 0.24,-1.89zm-0.24 1.9c-0.7,5.02 -1.71,9.41 -2.73,13.84 -0.76,3.31 -1.54,6.64 -2.18,10.28 -0.61,3.41 -1.31,7.98 -1.83,12.39 -0.41,3.52 -0.72,6.96 -0.76,9.61 -0.02,0.71 -0.15,1.43 -0.44,1.97 -0.24,0.46 -0.6,0.8 -1.1,0.91l-0.37 7.03c-0.03,0.55 -0.27,0.88 -0.57,1.01 -0.12,0.05 -0.25,0.08 -0.38,0.07 -0.13,-0.01 -0.26,-0.05 -0.38,-0.11 -0.16,-0.09 -0.29,-0.23 -0.39,-0.4 0.43,0.79 1.65,0.72 1.72,-0.57l0.37 -7.03c1.08,-0.25 1.51,-1.55 1.53,-2.88 0.12,-5.97 1.5,-15.86 2.6,-22 1.51,-8.51 3.7,-15.36 4.91,-24.12zm-11.13 56.6c-0.01,-0.02 -0.01,-0.03 -0.02,-0.05 0.01,0.02 0.01,0.03 0.02,0.05zm-0.02 -0.05c-0.01,-0.02 -0.02,-0.03 -0.02,-0.05 0,0.02 0.01,0.03 0.02,0.05zm-0.02 -0.05c-0.01,-0.02 -0.02,-0.03 -0.02,-0.05 0,0.02 0.01,0.03 0.02,0.05zm33.62 -9.12l0 0c0.71,-6.16 -3.82,-26.18 -5.34,-32.82 -1.95,-8.53 -3.5,-16.69 -3.51,-29.82 0,0 -0.27,-1.82 -1.8,-1.97 -1.53,-0.15 -2.21,1.39 -2.21,1.39 -0.12,5.31 0.14,9.84 0.63,13.93 -0.49,-4.09 -0.75,-8.62 -0.63,-13.93 0,0 0.68,-1.54 2.21,-1.39 1.53,0.15 1.8,1.97 1.8,1.97 0.01,6.56 0.4,11.89 1.03,16.63 0.63,4.75 1.51,8.93 2.48,13.19 0.76,3.34 2.3,10.09 3.54,16.75 1.23,6.65 2.18,13.22 1.78,16.21 -0.15,1.11 -1.13,1.52 -1.16,1.53l0.46 6.87c0.02,0.53 -0.22,0.9 -0.53,1.08 -0.12,0.06 -0.25,0.1 -0.38,0.11 -0.13,0.01 -0.26,-0.02 -0.38,-0.07 -0.3,-0.13 -0.54,-0.46 -0.57,-1.01l-0.37 -7.03c-0.5,-0.11 -0.86,-0.45 -1.1,-0.91 -0.29,-0.54 -0.42,-1.26 -0.43,-1.97 -0.05,-2.65 -0.36,-6.08 -0.77,-9.61 -0.52,-4.41 -1.22,-8.98 -1.83,-12.39 -0.64,-3.64 -1.41,-6.97 -2.18,-10.28 -1.02,-4.43 -2.03,-8.83 -2.73,-13.84 1.21,8.76 3.4,15.61 4.91,24.12 1.1,6.14 2.49,16.03 2.6,22 0.02,1.33 0.45,2.63 1.53,2.88l0.38 7.03c0.08,1.58 1.91,1.32 1.85,-0.11l-0.46 -6.87c0,0 1.01,-0.4 1.16,-1.53 0.01,-0.04 0.01,-0.09 0.02,-0.14zm-11.99 -47.38c-0.09,-0.63 -0.17,-1.26 -0.24,-1.91 0.07,0.65 0.15,1.28 0.24,1.91z"/>
  </g>
 </g>
</svg>
