<?xml version="1.0" encoding="UTF-8"?>
<!DOCTYPE svg PUBLIC "-//W3C//DTD SVG 1.1//EN" "http://www.w3.org/Graphics/SVG/1.1/DTD/svg11.dtd">
<!-- Creator: CorelDRAW -->
<svg xmlns="http://www.w3.org/2000/svg" xml:space="preserve" width="888px" height="598px" version="1.1" style="shape-rendering:geometricPrecision; text-rendering:geometricPrecision; image-rendering:optimizeQuality; fill-rule:evenodd; clip-rule:evenodd"
viewBox="0 0 888 598.5"
 xmlns:xlink="http://www.w3.org/1999/xlink"
 xmlns:xodm="http://www.corel.com/coreldraw/odm/2003">
 <defs>
  <style type="text/css">
   <![CDATA[
    .str1 {stroke:#373435;stroke-width:0.9;stroke-miterlimit:22.9256}
    .str0 {stroke:#ED3237;stroke-width:0.9;stroke-miterlimit:22.9256}
    .fil0 {fill:#FEFEFE}
    .fil1 {fill:#6B809B}
   ]]>
  </style>
 </defs>
 <g id="Capa_x0020_1">
  <metadata id="CorelCorpID_0Corel-Layer"/>
  <rect class="fil0 str0" x="0.43" y="1.21" width="887.1" height="597.6"/>
  <g id="_2263229051568">
   <path class="fil1 str1" d="M234.74 572.88c-27.19,-1.7 -61.65,-6.9 -87.6,-11.77 -1.03,-0.2 -2.02,-0.4 -2.95,-0.61 -4.34,-0.95 -7.49,-1.98 -9.2,-2.74 -0.51,3.71 -0.83,6.17 -0.83,6.17 0.55,0.73 5.31,2.63 13.15,4.11 25.15,4.73 58.56,9.74 84.92,11.29 1.68,0.1 2.12,-0.11 2.34,-1.55 0.24,-1.59 0.5,-3.21 0.77,-4.88 -0.18,0 -0.38,-0.01 -0.6,-0.02z"/>
   <path class="fil1 str1" d="M272.16 572.88c27.19,-1.7 61.65,-6.9 87.6,-11.77 1.03,-0.2 2.02,-0.4 2.95,-0.61 4.34,-0.95 7.49,-1.98 9.2,-2.74 0.51,3.71 0.83,6.17 0.83,6.17 -0.55,0.73 -5.31,2.63 -13.15,4.11 -25.15,4.73 -58.56,9.74 -84.92,11.29 -1.68,0.1 -2.11,-0.11 -2.34,-1.55 -0.24,-1.59 -0.5,-3.21 -0.77,-4.88 0.18,0 0.38,-0.01 0.6,-0.02z"/>
  </g>
  <g id="_2263229051376">
   <path class="fil1 str1" d="M616.57 572.88c-27.18,-1.7 -61.65,-6.9 -87.59,-11.77 -1.04,-0.2 -2.03,-0.4 -2.96,-0.61 -4.34,-0.95 -7.49,-1.98 -9.2,-2.74 -0.51,3.71 -0.83,6.17 -0.83,6.17 0.55,0.73 5.32,2.63 13.15,4.11 25.15,4.73 58.57,9.74 84.92,11.29 1.68,0.1 2.12,-0.11 2.34,-1.55 0.24,-1.59 0.5,-3.21 0.78,-4.88 -0.19,0 -0.39,-0.01 -0.61,-0.02z"/>
   <path class="fil1 str1" d="M653.99 572.88c27.19,-1.7 61.66,-6.9 87.6,-11.77 1.04,-0.2 2.02,-0.4 2.95,-0.61 4.35,-0.95 7.5,-1.98 9.2,-2.74 0.52,3.71 0.83,6.17 0.83,6.17 -0.55,0.73 -5.31,2.63 -13.15,4.11 -25.15,4.73 -58.56,9.74 -84.92,11.29 -1.67,0.1 -2.11,-0.11 -2.33,-1.55 -0.25,-1.59 -0.51,-3.21 -0.78,-4.88 0.18,0 0.38,-0.01 0.6,-0.02z"/>
  </g>
 </g>
</svg>
