<?xml version="1.0" encoding="UTF-8"?>
<!DOCTYPE svg PUBLIC "-//W3C//DTD SVG 1.1//EN" "http://www.w3.org/Graphics/SVG/1.1/DTD/svg11.dtd">
<!-- Creator: CorelDRAW -->
<svg xmlns="http://www.w3.org/2000/svg" xml:space="preserve" width="888px" height="598px" version="1.1" style="shape-rendering:geometricPrecision; text-rendering:geometricPrecision; image-rendering:optimizeQuality; fill-rule:evenodd; clip-rule:evenodd"
viewBox="0 0 888 598.5"
 xmlns:xlink="http://www.w3.org/1999/xlink"
 xmlns:xodm="http://www.corel.com/coreldraw/odm/2003">
 <defs>
  <style type="text/css">
   <![CDATA[
    .str1 {stroke:#373435;stroke-width:0.9;stroke-miterlimit:22.9256}
    .str0 {stroke:#ED3237;stroke-width:0.9;stroke-miterlimit:22.9256}
    .fil1 {fill:none}
    .fil0 {fill:#FEFEFE}
   ]]>
  </style>
 </defs>
 <g id="Capa_x0020_1">
  <metadata id="CorelCorpID_0Corel-Layer"/>
  <rect class="fil0 str0" x="0.43" y="1.21" width="887.1" height="597.6"/>
  <g id="_2247873426960">
   <g>
    <g>
     <path class="fil1 str1" d="M187.55 112.81c1.54,-5.94 -1.02,-8.81 -6.45,-9.16 3.97,-1.64 14.45,-3.58 21.41,-3.58 1.31,0 6.38,-0.05 6.38,2.04 0,1 -1.87,2.62 -6.79,3.85 -4.85,1.21 -9.53,2.18 -10.78,6.85l-0.09 0.37 -3.77 0 0.09 -0.37zm16.2 6.98l1.69 0 0.27 -1.13 0.32 -1.35 0.27 -1.12 0.06 -0.27c0.23,-0.97 -0.28,-1.76 -1.14,-1.76l-1.88 0 -1.7 0 -0.26 1.12 -0.33 1.35 -0.26 1.13 -0.49 2.03 1.7 0 1.07 -4.51 1.32 0c0.24,0 0.37,0.24 0.31,0.5l-0.95 4.01zm-23.95 -6.76l1.78 0 2 0c1.19,0 1.93,0.96 1.65,2.14 -0.28,1.18 -1.48,2.14 -2.67,2.14l-2 0 -0.59 2.48 -1.78 0 0.59 -2.48 0.32 -1.38 0.4 -1.64 0.3 -1.26zm19.91 5.63l0.32 -1.35 0.27 -1.12 0.06 -0.27c0.23,-0.97 -0.28,-1.76 -1.15,-1.76l-2.77 0 -0.27 1.12 2.22 0c0.24,0 0.37,0.24 0.31,0.5l-0.1 0.41 -1.48 0c-1,0 -2.01,0.81 -2.25,1.8 -0.23,0.99 0.39,1.8 1.39,1.8l1.49 0 1.69 0 0.27 -1.13zm-10.12 0l0.32 -1.35 0.27 -1.12 0.07 -0.27c0.23,-0.97 -0.29,-1.76 -1.15,-1.76l-2.73 0 -0.27 1.12 2.18 0c0.23,0 0.37,0.24 0.3,0.5l-0.09 0.41 -1.49 0c-1,0 -2.01,0.81 -2.25,1.8 -0.23,0.99 0.39,1.8 1.39,1.8l1.49 0 1.69 0 0.27 -1.13zm20.52 -3.38l-1.07 4.51 -1.7 0 0.48 -2.03 0.27 -1.13 0.32 -1.35 0 0 -1.42 0 0.27 -1.12 1.42 0 0.85 0 0.85 0 1.42 0 -0.27 1.12 -1.42 0zm-16.97 -1.12l-1.68 0 -0.27 1.12 -0.32 1.35 -0.27 1.13 -0.06 0.27c-0.23,0.97 0.29,1.76 1.15,1.76l2.52 0 0.27 -1.13 -1.99 0c-0.23,0 -0.37,-0.23 -0.3,-0.5l0.95 -4z"/>
    </g>
   </g>
  </g>
 </g>
</svg>
