<?xml version="1.0" encoding="UTF-8"?>
<!DOCTYPE svg PUBLIC "-//W3C//DTD SVG 1.1//EN" "http://www.w3.org/Graphics/SVG/1.1/DTD/svg11.dtd">
<!-- Creator: CorelDRAW -->
<svg xmlns="http://www.w3.org/2000/svg" xml:space="preserve" width="888px" height="598px" version="1.1" style="shape-rendering:geometricPrecision; text-rendering:geometricPrecision; image-rendering:optimizeQuality; fill-rule:evenodd; clip-rule:evenodd"
viewBox="0 0 888 598.5"
 xmlns:xlink="http://www.w3.org/1999/xlink"
 xmlns:xodm="http://www.corel.com/coreldraw/odm/2003">
 <defs>
  <style type="text/css">
   <![CDATA[
    .str0 {stroke:#ED3237;stroke-width:0.9;stroke-miterlimit:22.9256}
    .str1 {stroke:#252323;stroke-width:0.9;stroke-miterlimit:22.9256}
    .fil0 {fill:#FEFEFE}
    .fil1 {fill:#00A859}
   ]]>
  </style>
 </defs>
 <g id="Capa_x0020_1">
  <metadata id="CorelCorpID_0Corel-Layer"/>
  <rect class="fil0 str0" x="0.43" y="1.21" width="887.1" height="597.6"/>
  <g id="_2242091211920">
   <path class="fil1 str1" d="M296.69 474.36l2.28 -0.03 0.49 31.26 -2.56 2.9 -15.37 0.24 0 -0.07 -0.08 -5.08 13.41 -0.21 -0.14 -9.33 -10.8 0.17 -2.66 -2.81 -0.21 -13.94 2.55 -2.89 13.09 -0.21zm-2.56 20.28l0.13 8.15 -13.41 0.21 0.1 6.33 16.22 -0.25 2.88 -3.27 -0.5 -32.08 -16.22 0.25 -2.88 3.26 0.22 14.4 3 3.17 10.46 -0.17zm-0.22 -14.49l0.12 8.16 -7.66 0.12 -0.12 -8.16 7.66 -0.12zm-8.12 8.88l8.12 -0.12 0.73 -0.02 -0.15 -9.34 -8.84 0.13 0 0.25 0.13 8.51 0.01 0.59z"/>
  </g>
 </g>
</svg>
