<?xml version="1.0" encoding="UTF-8"?>
<!DOCTYPE svg PUBLIC "-//W3C//DTD SVG 1.1//EN" "http://www.w3.org/Graphics/SVG/1.1/DTD/svg11.dtd">
<!-- Creator: CorelDRAW -->
<svg xmlns="http://www.w3.org/2000/svg" xml:space="preserve" width="888px" height="598px" version="1.1" style="shape-rendering:geometricPrecision; text-rendering:geometricPrecision; image-rendering:optimizeQuality; fill-rule:evenodd; clip-rule:evenodd"
viewBox="0 0 888 598.5"
 xmlns:xlink="http://www.w3.org/1999/xlink"
 xmlns:xodm="http://www.corel.com/coreldraw/odm/2003">
 <defs>
  <style type="text/css">
   <![CDATA[
    .str0 {stroke:#ED3237;stroke-width:0.9;stroke-miterlimit:22.9256}
    .fil0 {fill:#FEFEFE}
    .fil1 {fill:#00A859}
   ]]>
  </style>
 </defs>
 <g id="Capa_x0020_1">
  <metadata id="CorelCorpID_0Corel-Layer"/>
  <rect class="fil0 str0" x="0.43" y="1.21" width="887.1" height="597.6"/>
  <path class="fil1" d="M260.23 123.72l2.29 0 0 31.27 -2.61 2.85 -15.36 0 0 -0.07 0 -5.08 13.4 0 0 -9.33 -10.79 0 -2.61 -2.85 0 -13.94 2.6 -2.85 13.08 0zm-2.87 20.24l0 8.14 -13.41 0 0 6.34 16.23 0 2.93 -3.22 0 -32.1 -16.22 0 -2.94 3.22 0 14.4 2.95 3.22 10.46 0zm0 -14.5l0 8.16 -7.66 0 0 -8.16 7.66 0zm-8.25 8.75l8.11 0 0.73 0 0 -9.34 -8.84 0 0 0.24 0 8.52 0 0.58z"/>
 </g>
</svg>
