<?xml version="1.0" encoding="UTF-8"?>
<!DOCTYPE svg PUBLIC "-//W3C//DTD SVG 1.1//EN" "http://www.w3.org/Graphics/SVG/1.1/DTD/svg11.dtd">
<!-- Creator: CorelDRAW -->
<svg xmlns="http://www.w3.org/2000/svg" xml:space="preserve" width="888px" height="598px" version="1.1" style="shape-rendering:geometricPrecision; text-rendering:geometricPrecision; image-rendering:optimizeQuality; fill-rule:evenodd; clip-rule:evenodd"
viewBox="0 0 888 598.5"
 xmlns:xlink="http://www.w3.org/1999/xlink"
 xmlns:xodm="http://www.corel.com/coreldraw/odm/2003">
 <defs>
  <style type="text/css">
   <![CDATA[
    .str0 {stroke:#ED3237;stroke-width:0.9;stroke-miterlimit:22.9256}
    .fil0 {fill:#FEFEFE}
    .fil1 {fill:#373435;fill-opacity:0.250980}
   ]]>
  </style>
 </defs>
 <g id="Capa_x0020_1">
  <metadata id="CorelCorpID_0Corel-Layer"/>
  <rect class="fil0 str0" x="0.43" y="1.21" width="887.1" height="597.6"/>
 </g>
 <g id="Capa_x0020_1_5">
  <metadata id="CorelCorpID_1Corel-Layer"/>
  <path class="fil1" d="M408.05 408.83c-0.07,-2.07 -0.17,-4.13 -0.28,-6.16l0 -13.63c0.21,0 0.42,0 0.63,0 0,6.6 0,13.2 0,19.79l-0.35 0zm-8.11 -134.34c0.03,-0.33 0.1,-0.54 0.21,-0.69l-0.02 -0.27c0.12,-0.33 0.3,-0.51 0.57,-0.63l0.03 0.52c0.13,-0.06 0.29,-0.12 0.46,-0.19 0.33,-0.12 0.71,-0.23 1.12,-0.35l-0.02 -0.28 0.6 -0.06 0.01 0.18c6.6,-1.69 20.99,-3.25 26.67,-3.27 2.03,0.03 2.29,0.25 2.32,0.86 -0.11,0.07 -0.24,0.14 -0.37,0.21l0.75 13.35 -0.27 -4.68 -0.59 0.15 -0.48 -8.55c-0.46,0.2 -0.99,0.39 -1.58,0.57l0.47 8.36 -0.59 0.13 -0.47 -8.32c-0.49,0.14 -1.02,0.28 -1.59,0.41l0.47 8.25 -0.6 0.12 -0.46 -8.24c-0.51,0.11 -1.04,0.22 -1.59,0.32l0.46 8.22 -0.59 0.11 -0.46 -8.22c-0.52,0.1 -1.05,0.19 -1.6,0.27l0.46 8.22 -0.59 0.09 -0.46 -8.21c-0.53,0.08 -1.06,0.16 -1.6,0.23l0.46 8.23 -0.6 0.08 -0.46 -8.23c-0.52,0.07 -1.06,0.14 -1.6,0.2l0.46 8.24 -0.59 0.07 -0.46 -8.24c-0.53,0.07 -1.07,0.12 -1.6,0.18l0.46 8.25 -0.6 0.06 -0.46 -8.25c-0.53,0.06 -1.07,0.11 -1.6,0.16l0.46 8.25 -0.6 0.05 -0.46 -8.25c-0.54,0.05 -1.07,0.09 -1.6,0.14l0.46 8.24 -0.6 0.05 -0.46 -8.25c-0.54,0.04 -1.08,0.08 -1.6,0.11l0.46 8.24 -0.6 0.04 -0.46 -8.24c-0.55,0.04 -1.08,0.07 -1.61,0.1l0.46 8.22 -0.59 0.03 -0.47 -8.22c-0.55,0.02 -1.08,0.05 -1.6,0.07l0.46 8.21 -0.6 0.01 -0.46 -8.2c-0.56,0.02 -1.1,0.03 -1.61,0.04l0.46 8.2 -0.6 0.01 -0.46 -8.2c-0.57,0.01 -1.11,0.01 -1.61,0.01l0.46 8.2 -0.6 0 -0.46 -8.21 -0.25 -0.01zm-12.13 180.1l0.52 0.37c0.04,-0.04 4.47,-4.67 8.04,-11.37l-0.61 -0.24c-3.53,6.63 -7.9,11.2 -7.95,11.24zm1.37 0.77l0.51 0.37c0.04,-0.05 4.48,-4.67 8.05,-11.37l-0.6 -0.24c-3.54,6.62 -7.92,11.2 -7.96,11.24zm1.42 0.8l0.51 0.36c0.06,-0.04 4.47,-4.67 8.05,-11.36l-0.6 -0.25c-3.54,6.63 -7.91,11.2 -7.96,11.25zm1.39 0.77l0.52 0.37c0.04,-0.04 4.46,-4.67 8.05,-11.37l-0.61 -0.24c-3.54,6.63 -7.91,11.2 -7.96,11.24zm1.32 0.75l0.52 0.36c0.05,-0.04 4.47,-4.67 8.05,-11.36l-0.61 -0.25c-3.54,6.63 -7.91,11.2 -7.96,11.25zm1.54 0.85l0.5 0.37c0.05,-0.05 4.47,-4.67 8.05,-11.37l-0.61 -0.25c-3.54,6.63 -7.91,11.2 -7.94,11.25zm1.36 0.77l0.52 0.36c0.04,-0.04 4.46,-4.67 8.04,-11.36l-0.61 -0.25c-3.54,6.63 -7.91,11.2 -7.95,11.25zm1.37 0.76l0.51 0.37c0.05,-0.05 4.47,-4.67 8.04,-11.37l-0.6 -0.23c-3.54,6.62 -7.9,11.19 -7.95,11.23zm1.37 0.77l0.51 0.38c0.05,-0.05 4.47,-4.68 8.05,-11.38l-0.6 -0.24c-3.54,6.62 -7.92,11.2 -7.96,11.24zm1.38 0.77l0.51 0.37c0.04,-0.04 4.46,-4.67 8.04,-11.37l-0.6 -0.25c-3.55,6.63 -7.91,11.21 -7.95,11.25zm1.42 0.8l0.51 0.37c0.05,-0.05 4.47,-4.67 8.05,-11.37l-0.61 -0.25c-3.54,6.63 -7.91,11.2 -7.95,11.25zm1.38 0.78l0.52 0.37c0.04,-0.05 4.46,-4.68 8.04,-11.38l-0.6 -0.24c-3.54,6.63 -7.91,11.2 -7.96,11.25zm1.33 0.74l0.51 0.36c0.05,-0.05 4.47,-4.67 8.04,-11.36l-0.61 -0.25c-3.53,6.62 -7.9,11.2 -7.94,11.25zm1.52 0.85l0.51 0.36c0.05,-0.04 4.48,-4.66 8.04,-11.36l-0.6 -0.25c-3.54,6.63 -7.91,11.2 -7.95,11.25zm1.37 0.76l0.51 0.38c0.05,-0.06 4.47,-4.68 8.05,-11.38l-0.61 -0.24c-3.54,6.63 -7.91,11.2 -7.95,11.24zm1.41 0.79l0.51 0.37c0.05,-0.04 4.46,-4.67 8.05,-11.37l-0.61 -0.24c-3.54,6.62 -7.91,11.2 -7.95,11.24zm1.42 0.8l0.51 0.36c0.05,-0.04 4.47,-4.67 8.05,-11.36l-0.61 -0.24c-3.54,6.62 -7.91,11.19 -7.95,11.24zm12.26 -33.23l-0.16 0 -0.02 0 0.24 0.08 0.01 -0.02 0 -0.01 0.02 -0.05 -0.09 0zm-46.39 37.74c2.23,2.93 6.4,6.06 8.37,6.95 1.86,0.86 7.7,1.97 7.61,1.88l1.35 -1.43 -0.08 1.02 -0.97 1.1 -0.36 0.05c-0.02,-0.01 -3.41,0.16 -7.88,-1.9 -2.15,-0.99 -6.3,-4.11 -8.67,-7.19l0.63 -0.48zm15.96 10.52c0.01,0.01 -0.44,0.77 -1.01,1.8l-0.27 -0.15c0.57,-1.03 1.01,-1.8 1.01,-1.8l0.27 0.15zm-1.58 2.85c-0.33,0.6 -0.66,1.24 -0.96,1.82l-0.28 -0.14c0.3,-0.59 0.63,-1.23 0.96,-1.83l0.28 0.15zm47.69 -52.41c0,0 -5.72,-0.15 -10.2,-1.16l0.14 -1.05c2.22,0.5 4.22,0.86 5.67,1.08 1.44,0.23 4.79,0.14 4.8,0.14l-0.41 0.99zm-5.21 -43.96c-0.17,1.01 -0.33,2.2 -0.45,3.69 -0.02,0.14 -0.04,0.35 -0.06,0.61l0 -4.3 0.51 0zm-23.09 0.38c0.21,0 0.42,0 0.64,0 0,6.59 0,13.19 0,19.79 -0.22,0 -0.43,0 -0.64,0 0,-6.6 0,-13.2 0,-19.79zm2.05 -0.04c0.21,0 0.43,0 0.64,0 0,6.6 0,13.2 0,19.79 -0.21,0 -0.43,0 -0.64,0 0,-6.59 0,-13.19 0,-19.79zm2.05 -0.03c0.22,0 0.43,0 0.64,0 0,6.6 0,13.19 0,19.79 -0.21,0 -0.42,0 -0.64,0 0,-6.6 0,-13.19 0,-19.79zm2.06 -0.04c0.21,0 0.42,0 0.63,0 0,6.6 0,13.2 0,19.79 -0.21,0 -0.42,0 -0.63,0 0,-6.59 0,-13.19 0,-19.79zm2.05 -0.03c0.21,0 0.42,0 0.64,0 0,6.6 0,13.19 0,19.79 -0.22,0 -0.43,0 -0.64,0 0,-6.6 0,-13.19 0,-19.79zm2.05 -0.03c0.21,0 0.43,0 0.64,0 0,6.59 0,13.19 0,19.78 -0.21,0 -0.43,0 -0.64,0 0,-6.59 0,-13.19 0,-19.78zm2.05 -0.04c0.22,0 0.43,0 0.64,0 0,6.6 0,13.19 0,19.79 -0.21,0 -0.42,0 -0.64,0 0,-6.6 0,-13.19 0,-19.79zm2.05 -0.03c0.22,0 0.43,0 0.64,0 0,6.59 0,13.19 0,19.78 -0.21,0 -0.42,0 -0.64,0 0,-6.59 0,-13.19 0,-19.78zm2.06 -0.04c0.21,0 0.42,0 0.64,0 0,6.6 0,13.19 0,19.79 -0.22,0 -0.43,0 -0.64,0 0,-6.6 0,-13.19 0,-19.79zm2.05 -0.03c0.21,0 0.43,0 0.64,0 0,6.59 0,13.19 0,19.79 -0.21,0 -0.43,0 -0.64,0 0,-6.6 0,-13.2 0,-19.79zm2.05 -0.04c0.22,0 0.43,0 0.64,0 0,6.6 0,13.2 0,19.79 -0.21,0 -0.42,0 -0.64,0 0,-6.59 0,-13.19 0,-19.79z"/>
  <path class="fil1" d="M475.86 433.52c0.07,-2.07 0.17,-4.13 0.29,-6.16l0 -13.62c-0.21,0 -0.43,0 -0.64,0 0,6.59 0,13.19 0,19.78l0.35 0zm8.11 -134.34c-0.03,-0.32 -0.1,-0.54 -0.21,-0.69l0.02 -0.26c-0.11,-0.34 -0.3,-0.51 -0.56,-0.63l-0.03 0.51c-0.14,-0.06 -0.29,-0.12 -0.47,-0.19 -0.33,-0.12 -0.7,-0.23 -1.12,-0.35l0.02 -0.27 -0.6 -0.07 -0.01 0.19c-6.6,-1.7 -20.99,-3.25 -26.67,-3.27 -2.03,0.03 -2.28,0.24 -2.32,0.85 0.12,0.07 0.24,0.14 0.38,0.21l-0.75 13.35 0.27 -4.68 0.58 0.15 0.48 -8.55c0.46,0.2 0.99,0.39 1.58,0.57l-0.47 8.36 0.59 0.13 0.47 -8.32c0.5,0.14 1.03,0.28 1.59,0.41l-0.46 8.25 0.59 0.12 0.46 -8.24c0.51,0.11 1.04,0.22 1.6,0.33l-0.47 8.21 0.6 0.11 0.46 -8.22c0.52,0.1 1.05,0.19 1.59,0.28l-0.46 8.21 0.6 0.1 0.46 -8.22c0.52,0.08 1.06,0.16 1.6,0.23l-0.46 8.23 0.59 0.08 0.46 -8.23c0.53,0.07 1.06,0.14 1.6,0.21l-0.46 8.23 0.6 0.08 0.46 -8.25c0.53,0.07 1.06,0.13 1.6,0.18l-0.46 8.25 0.59 0.06 0.46 -8.25c0.54,0.06 1.07,0.11 1.61,0.16l-0.46 8.25 0.59 0.05 0.46 -8.25c0.54,0.05 1.08,0.09 1.61,0.14l-0.46 8.25 0.59 0.04 0.46 -8.25c0.54,0.04 1.08,0.08 1.61,0.12l-0.46 8.24 0.59 0.03 0.47 -8.23c0.54,0.03 1.08,0.06 1.6,0.09l-0.46 8.22 0.6 0.03 0.46 -8.22c0.55,0.03 1.09,0.05 1.61,0.07l-0.46 8.21 0.6 0.02 0.46 -8.21c0.55,0.02 1.09,0.04 1.6,0.05l-0.45 8.19 0.59 0.01 0.46 -8.19c0.58,0 1.12,0 1.62,0l-0.47 8.2 0.6 0 0.47 -8.21 0.24 -0.01zm12.13 180.1l-0.51 0.38c-0.05,-0.05 -4.47,-4.68 -8.05,-11.38l0.61 -0.24c3.54,6.63 7.91,11.2 7.95,11.24zm-1.37 0.77l-0.51 0.38c-0.04,-0.06 -4.47,-4.68 -8.05,-11.38l0.61 -0.24c3.53,6.62 7.91,11.2 7.95,11.24zm-1.42 0.8l-0.51 0.37c-0.05,-0.05 -4.47,-4.67 -8.05,-11.37l0.61 -0.24c3.54,6.62 7.9,11.19 7.95,11.24zm-1.39 0.78l-0.52 0.37c-0.04,-0.05 -4.46,-4.67 -8.04,-11.38l0.61 -0.23c3.54,6.62 7.91,11.19 7.95,11.24zm-1.32 0.74l-0.51 0.36c-0.05,-0.04 -4.47,-4.67 -8.06,-11.36l0.62 -0.24c3.54,6.62 7.91,11.19 7.95,11.24zm-1.53 0.85l-0.51 0.37c-0.05,-0.04 -4.47,-4.67 -8.04,-11.37l0.6 -0.24c3.54,6.62 7.91,11.19 7.95,11.24zm-1.37 0.77l-0.51 0.37c-0.04,-0.05 -4.47,-4.67 -8.04,-11.36l0.6 -0.25c3.54,6.62 7.91,11.19 7.95,11.24zm-1.36 0.76l-0.52 0.37c-0.05,-0.04 -4.46,-4.67 -8.04,-11.36l0.6 -0.24c3.55,6.62 7.91,11.19 7.96,11.23zm-1.38 0.77l-0.51 0.38c-0.04,-0.05 -4.47,-4.67 -8.04,-11.37l0.6 -0.25c3.54,6.63 7.91,11.2 7.95,11.24zm-1.37 0.77l-0.51 0.38c-0.05,-0.05 -4.47,-4.68 -8.05,-11.38l0.61 -0.24c3.54,6.62 7.91,11.2 7.95,11.24zm-1.42 0.8l-0.52 0.37c-0.04,-0.04 -4.46,-4.67 -8.04,-11.37l0.6 -0.25c3.55,6.63 7.91,11.2 7.96,11.25zm-1.39 0.78l-0.51 0.37c-0.05,-0.05 -4.47,-4.68 -8.05,-11.37l0.61 -0.24c3.53,6.62 7.91,11.19 7.95,11.24zm-1.32 0.74l-0.52 0.36c-0.04,-0.04 -4.46,-4.67 -8.04,-11.36l0.61 -0.24c3.54,6.62 7.91,11.19 7.95,11.24zm-1.53 0.85l-0.51 0.37c-0.04,-0.04 -4.47,-4.67 -8.04,-11.37l0.6 -0.24c3.55,6.62 7.91,11.19 7.95,11.24zm-1.36 0.77l-0.52 0.37c-0.04,-0.05 -4.47,-4.67 -8.04,-11.37l0.6 -0.25c3.55,6.63 7.91,11.2 7.96,11.25zm-1.41 0.78l-0.51 0.37c-0.05,-0.04 -4.47,-4.67 -8.05,-11.37l0.6 -0.24c3.55,6.63 7.92,11.2 7.96,11.24zm-1.43 0.8l-0.51 0.37c-0.04,-0.04 -4.46,-4.68 -8.04,-11.37l0.61 -0.24c3.53,6.62 7.9,11.19 7.94,11.24zm-12.26 -33.23l0.17 0.01 0.02 -0.01 -0.25 0.08 -0.01 -0.01 0 -0.01 -0.02 -0.06 0.09 0zm46.4 37.74c-2.24,2.93 -6.41,6.06 -8.38,6.96 -1.85,0.85 -7.7,1.96 -7.6,1.87l-1.35 -1.43 0.08 1.02 0.96 1.1 0.37 0.05c0.01,-0.01 3.4,0.17 7.88,-1.89 2.14,-1 6.3,-4.12 8.67,-7.2l-0.63 -0.48zm-15.97 10.53c0,0 0.44,0.76 1.01,1.8l0.28 -0.16c-0.57,-1.03 -1.02,-1.8 -1.02,-1.8l-0.27 0.16zm1.58 2.84c0.33,0.61 0.66,1.24 0.96,1.82l0.29 -0.14c-0.3,-0.59 -0.64,-1.22 -0.97,-1.83l-0.28 0.15zm-47.69 -52.41c0.01,0 5.72,-0.15 10.2,-1.16l-0.14 -1.05c-2.22,0.5 -4.22,0.86 -5.66,1.09 -1.44,0.23 -4.8,0.13 -4.8,0.13l0.4 0.99zm5.21 -43.96c0.18,1.02 0.33,2.21 0.45,3.69 0.02,0.14 0.05,0.35 0.07,0.62l0 -4.31 -0.52 0zm23.1 0.38c-0.22,0 -0.43,0 -0.64,0 0,6.6 0,13.19 0,19.79 0.21,0 0.42,0 0.64,0 0,-6.6 0,-13.19 0,-19.79zm-2.06 -0.03c-0.21,0 -0.42,0 -0.63,0 0,6.59 0,13.19 0,19.78 0.21,0 0.42,0 0.63,0 0,-6.59 0,-13.19 0,-19.78zm-2.05 -0.04c-0.21,0 -0.42,0 -0.64,0 0,6.6 0,13.19 0,19.79 0.22,0 0.43,0 0.64,0 0,-6.6 0,-13.19 0,-19.79zm-2.05 -0.03c-0.21,0 -0.43,0 -0.64,0 0,6.59 0,13.19 0,19.79 0.21,0 0.43,0 0.64,0 0,-6.6 0,-13.2 0,-19.79zm-2.05 -0.04c-0.22,0 -0.43,0 -0.64,0 0,6.6 0,13.19 0,19.79 0.21,0 0.42,0 0.64,0 0,-6.6 0,-13.19 0,-19.79zm-2.06 -0.03c-0.21,0 -0.42,0 -0.64,0 0,6.59 0,13.19 0,19.79 0.22,0 0.43,0 0.64,0 0,-6.6 0,-13.2 0,-19.79zm-2.05 -0.04c-0.21,0 -0.42,0 -0.64,0 0,6.6 0,13.2 0,19.79 0.22,0 0.43,0 0.64,0 0,-6.59 0,-13.19 0,-19.79zm-2.05 -0.03c-0.21,0 -0.43,0 -0.64,0 0,6.59 0,13.19 0,19.79 0.21,0 0.43,0 0.64,0 0,-6.6 0,-13.2 0,-19.79zm-2.05 -0.04c-0.22,0 -0.43,0 -0.64,0 0,6.6 0,13.2 0,19.79 0.21,0 0.42,0 0.64,0 0,-6.59 0,-13.19 0,-19.79zm-2.06 -0.03c-0.21,0 -0.42,0 -0.63,0 0,6.59 0,13.19 0,19.79 0.21,0 0.42,0 0.63,0 0,-6.6 0,-13.2 0,-19.79zm-2.05 -0.04c-0.21,0 -0.42,0 -0.64,0 0,6.6 0,13.2 0,19.79 0.22,0 0.43,0 0.64,0 0,-6.59 0,-13.19 0,-19.79z"/>
 </g>
</svg>
