<?xml version="1.0" encoding="UTF-8"?>
<!DOCTYPE svg PUBLIC "-//W3C//DTD SVG 1.1//EN" "http://www.w3.org/Graphics/SVG/1.1/DTD/svg11.dtd">
<!-- Creator: CorelDRAW -->
<svg xmlns="http://www.w3.org/2000/svg" xml:space="preserve" width="888px" height="598px" version="1.1" style="shape-rendering:geometricPrecision; text-rendering:geometricPrecision; image-rendering:optimizeQuality; fill-rule:evenodd; clip-rule:evenodd"
viewBox="0 0 888 598.5"
 xmlns:xlink="http://www.w3.org/1999/xlink"
 xmlns:xodm="http://www.corel.com/coreldraw/odm/2003">
 <defs>
  <style type="text/css">
   <![CDATA[
    .str0 {stroke:#ED3237;stroke-width:0.9;stroke-miterlimit:22.9256}
    .fil0 {fill:#FEFEFE}
    .fil2 {fill:#29394A}
    .fil1 {fill:#3E4095}
   ]]>
  </style>
 </defs>
 <g id="Capa_x0020_1">
  <metadata id="CorelCorpID_0Corel-Layer"/>
  <rect class="fil0 str0" x="0.43" y="1.21" width="887.1" height="597.6"/>
  <g>
   <path class="fil1" d="M412.73 466.26c-4.06,6.33 -3.63,8.39 -7.94,11.86 -2.21,1.77 -7.02,6.14 -11.51,7.03 -2.82,0.56 -6.12,2.36 -9.71,0.45 -2.1,-1.11 -3.71,-4.56 -6.23,-6.56 -1.41,-1.12 -1.87,-2.43 -1.85,-3.85 1.1,-10.09 7.28,-10.58 11.87,-18.29 4.99,-6.41 9.06,-11.85 12.9,-18.47 1.91,-3.3 3.54,-6.61 4.86,-9.68 1.93,-4.48 3.17,-10.44 3.02,-16.94 -0.34,-14.06 -1.87,-27.46 -3.2,-37.64 -1.77,-13.57 -3.63,-19.32 -4.65,-33.24 -1.25,-17.2 -0.3,-31.15 0.39,-47.8 0.21,-5.11 -0.71,-16.41 -0.71,-17.18 -0.18,-2.31 0.2,-2.15 1.22,-2.6 5.4,-1.88 22.14,-3.75 28.38,-3.78 2.69,0.04 2.27,0.4 2.34,1.58 0.05,0.37 0.2,3.06 0.23,4.43 0.1,5.08 1.3,15.82 1.93,20.56 2.94,22.03 6.3,20.4 5.2,50.14 -0.19,5.92 -1.7,13.55 -3.1,22.17 -1.14,7.06 -3.15,17.16 -3.71,23.99 -0.17,1.22 -0.56,7.91 -0.62,12.87 -0.03,2.75 0.05,6.66 0.7,9.33 0.41,1.69 1.04,3.27 1.72,4.79 1.72,3.8 3.81,7.23 3.76,11.05 -0.09,6.65 -8.2,13.15 -12.48,17.63 -2.83,2.97 -7.21,10.47 -9.5,13.67 -0.78,1.09 -3.31,4.48 -3.31,4.48z"/>
   <path id="_1" class="fil2" d="M412.73 466.26c-1.48,2.32 -2.37,4.06 -3.1,5.51 -1.28,2.52 -2.11,4.15 -4.84,6.35 -0.26,0.21 -0.57,0.46 -0.9,0.73 -2.45,2.04 -6.65,5.51 -10.61,6.3 -0.63,0.13 -1.29,0.32 -1.97,0.51 -2.35,0.67 -4.96,1.42 -7.74,-0.06 -1.11,-0.59 -2.09,-1.84 -3.14,-3.18 -0.93,-1.18 -1.91,-2.44 -3.09,-3.37 -0.71,-0.56 -1.18,-1.18 -1.46,-1.82 -0.29,-0.65 -0.4,-1.33 -0.39,-2.04 0.68,-6.29 3.34,-8.85 6.36,-11.76 1.82,-1.75 3.78,-3.63 5.5,-6.53 2.5,-3.21 4.77,-6.17 6.89,-9.16 2.12,-2.98 4.1,-6 6.02,-9.31 0.93,-1.61 1.79,-3.21 2.58,-4.78 0.84,-1.68 1.6,-3.32 2.28,-4.9 1,-2.32 1.82,-5.04 2.35,-8.03 0.49,-2.77 0.74,-5.78 0.66,-8.91 -0.16,-7.03 -0.63,-13.9 -1.22,-20.28 -0.59,-6.38 -1.31,-12.27 -1.97,-17.36 -0.69,-5.27 -1.39,-9.37 -2.05,-13.21 -1.04,-6.06 -1.98,-11.52 -2.6,-20.03 -1.07,-14.78 -0.52,-27.17 0.09,-40.94 0.1,-2.25 0.2,-4.53 0.3,-6.86 0.15,-3.84 -0.33,-11.17 -0.57,-14.91 -0.08,-1.23 -0.14,-2.08 -0.14,-2.27 -0.16,-2.05 0.12,-2.16 0.89,-2.47l0.33 -0.13c2.46,-0.86 7.3,-1.72 12.41,-2.4 6.09,-0.8 12.58,-1.37 15.97,-1.38 2.32,0.04 2.33,0.31 2.33,1.14 0,0.13 0,0.28 0.01,0.44 0.03,0.2 0.09,1.06 0.14,2.03 0.04,0.84 0.08,1.76 0.09,2.4 0.04,2.15 0.29,5.31 0.59,8.6 0.42,4.49 0.98,9.23 1.34,11.96 0.97,7.26 1.99,11.96 2.88,16.05 0.58,2.69 1.11,5.13 1.53,7.86 -1.06,-6.89 -2.8,-11.87 -4.41,-23.91 -0.63,-4.74 -1.83,-15.48 -1.93,-20.56 -0.03,-1.37 -0.18,-4.06 -0.23,-4.43 -0.07,-1.18 0.35,-1.54 -2.34,-1.58 -6.24,0.03 -22.98,1.9 -28.38,3.78 -0.02,0.01 -0.04,0.02 -0.06,0.02l-0.17 0.07c-0.85,0.35 -1.16,0.38 -0.99,2.51 0,0.77 0.92,12.07 0.71,17.18 -0.69,16.65 -1.64,30.6 -0.39,47.8 1.02,13.92 2.88,19.67 4.65,33.24 1.33,10.18 2.86,23.58 3.2,37.64 0.15,6.5 -1.09,12.46 -3.02,16.94 -1.32,3.07 -2.95,6.38 -4.86,9.68 -3.84,6.62 -7.91,12.06 -12.9,18.47 -3.83,6.43 -8.77,7.84 -10.93,13.99l0 0c-0.05,0.14 -0.1,0.29 -0.15,0.44l0 0c-0.07,0.21 -0.14,0.44 -0.2,0.66 0,0.02 -0.01,0.03 -0.01,0.05 -0.06,0.22 -0.12,0.45 -0.17,0.69 -0.01,0.01 -0.01,0.03 -0.01,0.04 -0.03,0.15 -0.07,0.3 -0.1,0.46 0,0.01 0,0.02 0,0.03 -0.05,0.25 -0.1,0.51 -0.14,0.77 0,0.01 -0.01,0.03 -0.01,0.04 -0.05,0.36 -0.1,0.73 -0.15,1.12 -0.02,1.42 0.44,2.73 1.85,3.85 2.52,2 4.13,5.45 6.23,6.56 3.59,1.91 6.89,0.11 9.71,-0.45 4.49,-0.89 9.3,-5.26 11.51,-7.03 4.31,-3.47 3.88,-5.53 7.94,-11.86 0,0 2.53,-3.39 3.31,-4.48 2.29,-3.2 6.67,-10.7 9.5,-13.67 3.51,-3.67 9.59,-8.7 11.72,-14.06 0,0 0,0 0,-0.01 0.17,-0.41 0.31,-0.82 0.42,-1.23 0,-0.02 0.01,-0.03 0.01,-0.04 0.02,-0.08 0.04,-0.15 0.06,-0.22 0,-0.02 0,-0.03 0.01,-0.05 0.02,-0.08 0.03,-0.15 0.05,-0.23 0,0 0,0 0,0 0.05,-0.25 0.1,-0.49 0.13,-0.74 0,-0.01 0,-0.02 0,-0.03 0.01,-0.07 0.02,-0.15 0.03,-0.22 0,-0.02 0,-0.04 0.01,-0.05 0,-0.08 0.01,-0.15 0.02,-0.22 0,-0.01 0,-0.03 0,-0.04 0.01,-0.16 0.02,-0.32 0.02,-0.49 0.01,-0.83 -0.08,-1.65 -0.24,-2.45 0.16,0.8 0.25,1.62 0.24,2.45 -0.07,5.48 -5.58,10.85 -9.91,15.08 -0.93,0.91 -1.81,1.76 -2.57,2.56 -1.87,1.96 -4.43,5.93 -6.61,9.3 -1.11,1.72 -2.12,3.28 -2.89,4.36 -0.78,1.09 -3.3,4.47 -3.31,4.48zm25.75 -146.21c0.03,0.2 0.06,0.4 0.08,0.6 -0.02,-0.2 -0.05,-0.4 -0.08,-0.6zm0.09 0.6c0.02,0.19 0.05,0.38 0.08,0.57 -0.03,-0.19 -0.06,-0.38 -0.08,-0.57zm0.08 0.62c0.03,0.2 0.06,0.39 0.08,0.59 -0.02,-0.2 -0.05,-0.39 -0.08,-0.59zm0.09 0.63c0.02,0.19 0.04,0.37 0.07,0.55 -0.03,-0.18 -0.05,-0.36 -0.07,-0.55zm0.08 0.64c0.02,0.19 0.04,0.39 0.06,0.59 -0.02,-0.2 -0.04,-0.4 -0.06,-0.59zm0.07 0.66c0.02,0.18 0.04,0.36 0.06,0.55 -0.02,-0.19 -0.04,-0.37 -0.06,-0.55zm0.07 0.65c0.02,0.21 0.04,0.41 0.06,0.62 -0.02,-0.21 -0.04,-0.41 -0.06,-0.62zm0.07 0.7c0.02,0.18 0.04,0.38 0.05,0.57 -0.01,-0.19 -0.03,-0.39 -0.05,-0.57zm0.06 0.69c0.02,0.21 0.04,0.43 0.06,0.65 -0.02,-0.22 -0.04,-0.44 -0.06,-0.65zm0.06 0.72c0.02,0.2 0.03,0.41 0.05,0.61 -0.02,-0.2 -0.03,-0.41 -0.05,-0.61zm0.05 0.73c0.02,0.23 0.04,0.47 0.05,0.7 -0.01,-0.23 -0.03,-0.47 -0.05,-0.7zm0.05 0.75c0.02,0.22 0.03,0.45 0.04,0.68 -0.01,-0.23 -0.02,-0.46 -0.04,-0.68zm0.05 0.79c0.01,0.25 0.03,0.51 0.04,0.76 -0.01,-0.25 -0.03,-0.51 -0.04,-0.76zm0.04 0.77c0.01,0.26 0.02,0.51 0.03,0.78 -0.01,-0.27 -0.02,-0.52 -0.03,-0.78zm0.04 0.86c0.02,0.55 0.04,1.11 0.05,1.69 -0.01,-0.58 -0.03,-1.14 -0.05,-1.69zm0.05 1.74c0.11,3.91 0.07,8.65 -0.16,14.68 -0.14,4.63 -1.11,10.32 -2.18,16.7 -0.3,1.77 -0.61,3.6 -0.92,5.47 -0.31,1.97 -0.7,4.17 -1.1,6.47 -1.05,5.97 -2.21,12.59 -2.61,17.52 -0.09,0.68 -0.26,3.09 -0.39,5.94 -0.11,2.24 -0.2,4.75 -0.23,6.93 -0.01,1.38 0,3.04 0.1,4.7 0.09,1.65 0.28,3.3 0.6,4.63 0.2,0.85 0.47,1.67 0.76,2.46 0.29,0.8 0.62,1.57 0.97,2.33 0.32,0.72 0.67,1.44 1,2.14 0.55,1.13 1.08,2.25 1.53,3.36 -0.73,-1.8 -1.68,-3.6 -2.54,-5.5 -0.68,-1.52 -1.31,-3.1 -1.72,-4.79 -0.65,-2.67 -0.73,-6.58 -0.7,-9.33 0.06,-4.96 0.45,-11.65 0.62,-12.87 0.56,-6.83 2.57,-16.93 3.71,-23.99 1.4,-8.62 2.91,-16.25 3.1,-22.17 0.23,-6.03 0.27,-10.77 0.16,-14.68zm-2.62 93.37c0.02,0.04 0.04,0.08 0.05,0.12 -0.01,-0.04 -0.03,-0.08 -0.05,-0.12zm0.07 0.16c0.02,0.04 0.03,0.08 0.05,0.13 -0.02,-0.05 -0.03,-0.09 -0.05,-0.13zm0.06 0.17c0.02,0.04 0.04,0.09 0.06,0.14 -0.02,-0.05 -0.04,-0.1 -0.06,-0.14zm0.09 0.22c0.01,0.02 0.02,0.05 0.03,0.07 -0.01,-0.02 -0.02,-0.05 -0.03,-0.07zm0.06 0.16c0.01,0.02 0.01,0.04 0.02,0.06 -0.01,-0.02 -0.01,-0.04 -0.02,-0.06zm0.05 0.15c0.01,0.02 0.02,0.04 0.02,0.06 0,-0.02 -0.01,-0.04 -0.02,-0.06zm0.14 0.39c0.01,0.02 0.01,0.04 0.02,0.05 -0.01,-0.01 -0.01,-0.03 -0.02,-0.05zm0.05 0.15c0,0.02 0.01,0.04 0.02,0.05 -0.01,-0.01 -0.02,-0.03 -0.02,-0.05zm0.05 0.15c0,0.02 0.01,0.04 0.01,0.06 0,-0.02 -0.01,-0.04 -0.01,-0.06zm0.04 0.15c0.01,0.02 0.01,0.03 0.02,0.05 -0.01,-0.02 -0.01,-0.03 -0.02,-0.05zm0.07 0.22c0.01,0.03 0.01,0.05 0.02,0.07 -0.01,-0.02 -0.01,-0.04 -0.02,-0.07zm0.04 0.15c0.01,0.03 0.02,0.06 0.03,0.08 -0.01,-0.02 -0.02,-0.05 -0.03,-0.08zm0.05 0.16c0.01,0.03 0.01,0.06 0.02,0.09 -0.01,-0.03 -0.01,-0.06 -0.02,-0.09zm0.04 0.15c0.02,0.11 0.05,0.21 0.08,0.32 -0.03,-0.11 -0.06,-0.21 -0.08,-0.32zm0.08 0.35c0.01,0.05 0.02,0.09 0.03,0.13 -0.01,-0.04 -0.02,-0.08 -0.03,-0.13zm0.04 0.17c0.01,0.05 0.02,0.09 0.03,0.14 -0.01,-0.05 -0.02,-0.09 -0.03,-0.14z"/>
  </g>
  <g>
   <path class="fil1" d="M471.18 490.95c4.06,6.34 3.63,8.39 7.94,11.86 2.21,1.78 7.02,6.14 11.51,7.03 2.82,0.56 6.12,2.36 9.71,0.45 2.1,-1.11 3.71,-4.56 6.23,-6.55 1.42,-1.13 1.87,-2.44 1.85,-3.86 -1.09,-10.08 -7.27,-10.58 -11.86,-18.29 -5,-6.41 -9.07,-11.84 -12.91,-18.47 -1.9,-3.3 -3.54,-6.61 -4.86,-9.67 -1.93,-4.49 -3.17,-10.44 -3.01,-16.95 0.33,-14.06 1.87,-27.46 3.19,-37.64 1.78,-13.57 3.64,-19.32 4.65,-33.23 1.25,-17.2 0.3,-31.16 -0.39,-47.81 -0.21,-5.11 0.72,-16.41 0.71,-17.18 0.19,-2.31 -0.2,-2.15 -1.22,-2.6 -5.39,-1.87 -22.14,-3.75 -28.38,-3.77 -2.69,0.04 -2.26,0.4 -2.34,1.57 -0.05,0.37 -0.2,3.06 -0.23,4.43 -0.1,5.08 -1.3,15.82 -1.93,20.56 -2.94,22.03 -6.3,20.4 -5.2,50.14 0.19,5.92 1.7,13.55 3.1,22.17 1.14,7.07 3.16,17.16 3.71,23.99 0.17,1.22 0.56,7.91 0.62,12.87 0.03,2.75 -0.05,6.66 -0.7,9.34 -0.41,1.68 -1.04,3.26 -1.72,4.78 -1.72,3.8 -3.81,7.23 -3.76,11.05 0.09,6.65 8.2,13.16 12.48,17.64 2.83,2.96 7.21,10.47 9.5,13.66 0.79,1.1 3.31,4.48 3.31,4.48z"/>
   <path id="_1_0" class="fil2" d="M508.27 498.76c0,-0.01 0,-0.02 -0.01,-0.04 -0.04,-0.26 -0.08,-0.52 -0.13,-0.77 -0.01,-0.01 -0.01,-0.02 -0.01,-0.03 -0.03,-0.15 -0.06,-0.31 -0.1,-0.45 0,-0.02 0,-0.03 -0.01,-0.05 -0.05,-0.23 -0.11,-0.47 -0.17,-0.69 0,-0.02 -0.01,-0.03 -0.01,-0.04 -0.06,-0.23 -0.13,-0.45 -0.2,-0.67l0 0c-0.04,-0.15 -0.09,-0.29 -0.14,-0.44l0 0c-2.17,-6.15 -7.11,-7.56 -10.93,-13.99 -5,-6.41 -9.07,-11.84 -12.91,-18.47 -1.9,-3.3 -3.54,-6.61 -4.86,-9.67 -1.93,-4.49 -3.17,-10.44 -3.01,-16.95 0.33,-14.06 1.87,-27.46 3.19,-37.64 1.78,-13.57 3.64,-19.32 4.65,-33.23 1.25,-17.2 0.3,-31.16 -0.39,-47.81 -0.21,-5.11 0.72,-16.41 0.71,-17.18 0.17,-2.13 -0.14,-2.16 -0.99,-2.5l-0.16 -0.07c-0.02,-0.01 -0.05,-0.02 -0.07,-0.03 -5.39,-1.87 -22.14,-3.75 -28.38,-3.77 -2.69,0.04 -2.26,0.4 -2.34,1.57 -0.05,0.37 -0.2,3.06 -0.23,4.43 -0.1,5.08 -1.3,15.82 -1.93,20.56 -1.61,12.05 -3.34,17.02 -4.4,23.92 0.42,-2.74 0.94,-5.18 1.53,-7.87 0.88,-4.09 1.9,-8.78 2.87,-16.05 0.36,-2.73 0.92,-7.47 1.34,-11.96 0.31,-3.29 0.55,-6.45 0.59,-8.6 0.01,-0.64 0.05,-1.56 0.1,-2.4 0.04,-0.97 0.1,-1.83 0.13,-2.03 0.01,-0.16 0.01,-0.3 0.01,-0.44 0.01,-0.83 0.01,-1.1 2.33,-1.14 3.39,0.02 9.88,0.58 15.97,1.39 5.11,0.67 9.95,1.53 12.41,2.39l0.33 0.13c0.77,0.31 1.06,0.43 0.89,2.47 0,0.19 -0.06,1.04 -0.14,2.28 -0.24,3.74 -0.72,11.07 -0.56,14.9 0.09,2.33 0.19,4.62 0.29,6.86 0.62,13.77 1.17,26.16 0.09,40.95 -0.62,8.5 -1.56,13.96 -2.59,20.02 -0.66,3.85 -1.37,7.94 -2.05,13.21 -0.67,5.09 -1.39,10.99 -1.98,17.37 -0.59,6.37 -1.06,13.24 -1.22,20.27 -0.08,3.13 0.17,6.14 0.67,8.91 0.53,2.99 1.34,5.71 2.34,8.04 0.68,1.57 1.44,3.22 2.28,4.89 0.79,1.57 1.66,3.17 2.58,4.78 1.92,3.31 3.9,6.33 6.02,9.32 2.12,2.98 4.39,5.94 6.89,9.15 1.72,2.9 3.68,4.78 5.5,6.53 3.02,2.91 5.68,5.47 6.36,11.76 0.01,0.71 -0.1,1.39 -0.38,2.04 -0.29,0.64 -0.76,1.26 -1.47,1.82 -1.18,0.93 -2.16,2.19 -3.09,3.37 -1.05,1.34 -2.03,2.59 -3.14,3.18 -2.78,1.48 -5.39,0.74 -7.74,0.06 -0.68,-0.19 -1.34,-0.38 -1.97,-0.51 -3.96,-0.78 -8.16,-4.26 -10.61,-6.29 -0.33,-0.28 -0.64,-0.53 -0.9,-0.74 -2.73,-2.2 -3.56,-3.83 -4.84,-6.35 -0.73,-1.45 -1.62,-3.19 -3.1,-5.51 -0.01,-0.01 -2.53,-3.38 -3.31,-4.48 -0.77,-1.08 -1.78,-2.64 -2.89,-4.36 -2.17,-3.37 -4.73,-7.34 -6.61,-9.3 -0.76,-0.79 -1.64,-1.65 -2.57,-2.56 -4.33,-4.23 -9.84,-9.6 -9.91,-15.08 -0.01,-0.83 0.08,-1.65 0.25,-2.45 -0.17,0.8 -0.26,1.62 -0.25,2.45 0,0.17 0.01,0.33 0.02,0.49 0,0.02 0,0.03 0.01,0.04 0,0.07 0.01,0.15 0.02,0.22 0,0.02 0,0.03 0,0.05 0.01,0.08 0.02,0.15 0.03,0.22 0,0.01 0,0.02 0,0.03 0.03,0.25 0.08,0.5 0.13,0.74 0,0 0,0 0,0.01 0.02,0.07 0.04,0.15 0.05,0.22 0.01,0.02 0.01,0.03 0.02,0.05 0.01,0.07 0.03,0.14 0.05,0.22 0.01,0.01 0.01,0.03 0.01,0.04 0.12,0.41 0.26,0.82 0.42,1.23 0,0.01 0,0.01 0,0.02 2.13,5.35 8.21,10.38 11.72,14.06 2.83,2.96 7.21,10.47 9.5,13.66 0.79,1.1 3.31,4.48 3.31,4.48 4.06,6.34 3.63,8.39 7.94,11.86 2.21,1.78 7.02,6.14 11.51,7.03 2.82,0.56 6.12,2.36 9.71,0.45 2.1,-1.11 3.71,-4.56 6.23,-6.55 1.42,-1.13 1.87,-2.44 1.85,-3.86 -0.04,-0.39 -0.09,-0.76 -0.15,-1.12zm-62.13 -46.05c0.01,-0.05 0.02,-0.1 0.03,-0.15 -0.01,0.05 -0.02,0.1 -0.03,0.15zm0.04 -0.18c0.01,-0.05 0.02,-0.09 0.03,-0.14 -0.01,0.05 -0.02,0.09 -0.03,0.14zm0.04 -0.17c0.02,-0.11 0.05,-0.21 0.07,-0.32 -0.02,0.11 -0.05,0.21 -0.07,0.32zm0.09 -0.38c0.01,-0.03 0.02,-0.06 0.03,-0.09 -0.01,0.03 -0.02,0.06 -0.03,0.09zm0.05 -0.16c0,-0.03 0.01,-0.06 0.02,-0.08 -0.01,0.02 -0.02,0.05 -0.02,0.08zm0.04 -0.16c0.01,-0.03 0.01,-0.05 0.02,-0.08 -0.01,0.03 -0.01,0.05 -0.02,0.08zm0.07 -0.25c0.01,-0.02 0.01,-0.03 0.02,-0.05 -0.01,0.02 -0.01,0.03 -0.02,0.05zm0.05 -0.14c0,-0.02 0.01,-0.04 0.01,-0.06 0,0.02 -0.01,0.04 -0.01,0.06zm0.05 -0.15c0,-0.02 0.01,-0.04 0.01,-0.06 0,0.02 -0.01,0.04 -0.01,0.06zm0.05 -0.16c0,-0.01 0.01,-0.03 0.01,-0.05 0,0.02 -0.01,0.04 -0.01,0.05zm0.13 -0.38c0,-0.02 0.01,-0.04 0.02,-0.06 -0.01,0.02 -0.02,0.04 -0.02,0.06zm0.05 -0.15c0.01,-0.02 0.02,-0.04 0.02,-0.06 0,0.02 -0.01,0.04 -0.02,0.06zm0.05 -0.15c0.01,-0.02 0.02,-0.05 0.03,-0.07 -0.01,0.02 -0.02,0.05 -0.03,0.07zm0.06 -0.15c0.02,-0.05 0.04,-0.09 0.06,-0.14 -0.02,0.05 -0.04,0.09 -0.06,0.14zm0.07 -0.18c0.02,-0.04 0.03,-0.08 0.05,-0.12 -0.02,0.04 -0.03,0.08 -0.05,0.12zm0.07 -0.17c0.02,-0.04 0.03,-0.08 0.05,-0.12 -0.02,0.04 -0.03,0.08 -0.05,0.12zm0.06 -0.15c0.45,-1.12 0.99,-2.23 1.53,-3.37 0.34,-0.7 0.68,-1.41 1.01,-2.14 0.34,-0.75 0.67,-1.53 0.96,-2.33 0.3,-0.79 0.56,-1.61 0.76,-2.45 0.32,-1.34 0.51,-2.99 0.6,-4.64 0.1,-1.66 0.11,-3.32 0.1,-4.7 -0.03,-2.17 -0.12,-4.69 -0.22,-6.93 -0.14,-2.85 -0.31,-5.26 -0.4,-5.94 -0.4,-4.92 -1.56,-11.55 -2.6,-17.51 -0.41,-2.31 -0.8,-4.51 -1.11,-6.48 -0.3,-1.87 -0.61,-3.7 -0.91,-5.47 -1.08,-6.38 -2.04,-12.06 -2.19,-16.7 -0.22,-6.03 -0.26,-10.77 -0.16,-14.68 -0.1,3.91 -0.06,8.65 0.16,14.68 0.19,5.92 1.7,13.55 3.1,22.17 1.14,7.07 3.16,17.16 3.71,23.99 0.17,1.22 0.56,7.91 0.62,12.87 0.03,2.75 -0.05,6.66 -0.7,9.34 -0.41,1.68 -1.04,3.26 -1.72,4.78 -0.86,1.9 -1.81,3.7 -2.54,5.51zm-2.63 -93.39c0.02,-0.58 0.03,-1.14 0.06,-1.68 -0.03,0.54 -0.04,1.1 -0.06,1.68zm0.06 -1.77c0.01,-0.26 0.02,-0.52 0.03,-0.78 -0.01,0.26 -0.02,0.52 -0.03,0.78zm0.03 -0.79c0.02,-0.25 0.03,-0.5 0.04,-0.75 -0.01,0.25 -0.02,0.5 -0.04,0.75zm0.05 -0.87c0.01,-0.23 0.02,-0.45 0.04,-0.68 -0.02,0.23 -0.03,0.45 -0.04,0.68zm0.04 -0.73c0.02,-0.23 0.03,-0.47 0.05,-0.69 -0.02,0.22 -0.03,0.46 -0.05,0.69zm0.06 -0.82c0.01,-0.2 0.03,-0.41 0.04,-0.61 -0.01,0.2 -0.03,0.41 -0.04,0.61zm0.05 -0.68c0.01,-0.22 0.03,-0.44 0.05,-0.65 -0.02,0.21 -0.04,0.43 -0.05,0.65zm0.06 -0.77c0.02,-0.19 0.03,-0.38 0.05,-0.57 -0.02,0.19 -0.03,0.38 -0.05,0.57zm0.06 -0.64c0.02,-0.21 0.04,-0.42 0.06,-0.62 -0.02,0.2 -0.04,0.41 -0.06,0.62zm0.07 -0.73c0.02,-0.18 0.04,-0.37 0.06,-0.55 -0.02,0.18 -0.04,0.37 -0.06,0.55zm0.07 -0.61c0.02,-0.21 0.04,-0.4 0.07,-0.6 -0.03,0.2 -0.05,0.39 -0.07,0.6zm0.08 -0.68c0.02,-0.19 0.04,-0.37 0.07,-0.55 -0.03,0.18 -0.05,0.36 -0.07,0.55zm0.07 -0.6c0.03,-0.19 0.05,-0.39 0.08,-0.58 -0.03,0.19 -0.05,0.39 -0.08,0.58zm0.09 -0.63c0.02,-0.19 0.05,-0.38 0.08,-0.57 -0.03,0.19 -0.06,0.38 -0.08,0.57zm0.08 -0.58c0.03,-0.2 0.06,-0.4 0.09,-0.59 -0.03,0.19 -0.06,0.39 -0.09,0.59z"/>
  </g>
 </g>
</svg>
