<?xml version="1.0" encoding="UTF-8"?>
<!DOCTYPE svg PUBLIC "-//W3C//DTD SVG 1.1//EN" "http://www.w3.org/Graphics/SVG/1.1/DTD/svg11.dtd">
<!-- Creator: CorelDRAW -->
<svg xmlns="http://www.w3.org/2000/svg" xml:space="preserve" width="888px" height="598px" version="1.1" style="shape-rendering:geometricPrecision; text-rendering:geometricPrecision; image-rendering:optimizeQuality; fill-rule:evenodd; clip-rule:evenodd"
viewBox="0 0 888 598.5"
 xmlns:xlink="http://www.w3.org/1999/xlink"
 xmlns:xodm="http://www.corel.com/coreldraw/odm/2003">
 <defs>
  <style type="text/css">
   <![CDATA[
    .str0 {stroke:#ED3237;stroke-width:0.9;stroke-miterlimit:22.9256}
    .fil0 {fill:#FEFEFE}
    .fil1 {fill:#6B809B}
   ]]>
  </style>
 </defs>
 <g id="Capa_x0020_1">
  <metadata id="CorelCorpID_0Corel-Layer"/>
  <rect class="fil0 str0" x="0.43" y="1.21" width="887.1" height="597.6"/>
 </g>
 <g id="Capa_x0020_1_17">
  <metadata id="CorelCorpID_1Corel-Layer"/>
  <path class="fil1" d="M408.05 463.74c-3.82,4.27 -6.57,9.16 -11.1,12.16l3.31 5.68c1.88,-1.34 3.49,-2.75 4.53,-3.59 4.31,-3.46 3.88,-5.52 7.94,-11.85 0,0 2.53,-3.39 3.31,-4.49 2.29,-3.19 6.67,-10.69 9.5,-13.66 4.28,-4.48 12.39,-10.98 12.48,-17.63 0.06,-3.82 -2.04,-7.25 -3.75,-11.05 -0.69,-1.52 -1.32,-3.1 -1.73,-4.79 -0.64,-2.67 -0.73,-6.58 -0.7,-9.33 0.01,-0.3 0.01,-0.62 0.02,-0.93 -2.93,8.95 -0.54,12.85 1.16,23.75 0.47,3.02 -4.02,8.59 -4.02,8.59 -2.66,3.36 -8.46,6.68 -10.53,11.03 -3.11,6.54 -6.5,11.71 -10.42,16.11zm-22.96 15.99l-0.14 -0.09 2.2 -2.73c-0.45,-0.22 -0.93,-0.48 -1.42,-0.79l-2.09 2.59 -0.14 -0.11 -0.14 -0.11 2.07 -2.56c-0.43,-0.28 -0.86,-0.59 -1.31,-0.93l-1.94 2.4 -0.11 -0.11 -0.14 -0.14 1.91 -2.37c-0.27,-0.21 -0.54,-0.43 -0.81,-0.66 -0.15,-0.13 -0.28,-0.25 -0.41,-0.38l-1.74 2.15 -0.09 -0.12 -0.12 -0.17 1.7 -2.11c-0.41,-0.42 -0.74,-0.85 -1.02,-1.3l-1.6 1.98 -0.07 -0.12 -0.11 -0.21 1.59 -1.98c-0.3,-0.57 -0.52,-1.16 -0.64,-1.76l-1.72 2.14 -0.05 -0.13c-0.03,-0.07 -0.07,-0.15 -0.1,-0.24l1.79 -2.23c-0.12,-0.92 -0.04,-1.87 0.21,-2.82l-2.62 3.25c-0.04,-0.13 -0.08,-0.27 -0.12,-0.41l3.05 -3.78c0.18,-0.48 0.41,-0.96 0.68,-1.43 0.31,-0.55 0.44,-1 0.45,-1.37 -3.11,3.01 -5.9,5.53 -6.59,11.99 -0.03,1.42 0.43,2.73 1.84,3.85 2.52,2 4.13,5.45 6.23,6.56 3.59,1.91 6.89,0.11 9.71,-0.45 1.6,-0.32 3.23,-1.07 4.77,-1.99l-3.1 -5.89 -3.91 4.85 -0.25 -0.05 -0.13 -0.03 3.87 -4.81c-0.52,0.2 -1.55,0.55 -2.64,0.72l-2.94 3.64 -0.22 -0.07 -0.13 -0.04 2.79 -3.48c-0.18,0.02 -0.36,0.03 -0.55,0.03 -0.42,0 -0.89,-0.05 -1.4,-0.17l-2.42 3.01 -0.19 -0.09 -0.13 -0.06 2.37 -2.95c-0.5,-0.14 -1.03,-0.33 -1.59,-0.58l-2.23 2.76 -0.16 -0.1zm90.78 8.7c3.81,4.27 6.56,9.16 11.09,12.16l-3.31 5.69c-1.88,-1.35 -3.49,-2.76 -4.53,-3.59 -4.3,-3.47 -3.88,-5.52 -7.94,-11.86 0,0 -2.52,-3.38 -3.3,-4.48 -2.3,-3.19 -6.68,-10.7 -9.51,-13.66 -4.28,-4.48 -12.39,-10.99 -12.48,-17.64 -0.05,-3.82 2.04,-7.25 3.76,-11.05 0.69,-1.52 1.32,-3.1 1.72,-4.78 0.65,-2.68 0.73,-6.59 0.7,-9.34 0,-0.3 -0.01,-0.61 -0.01,-0.93 2.92,8.96 0.54,12.85 -1.17,23.75 -0.47,3.02 4.03,8.59 4.03,8.59 2.65,3.36 8.46,6.68 10.53,11.04 3.1,6.53 6.49,11.71 10.42,16.1zm22.96 15.99l0.13 -0.09 -2.2 -2.73c0.46,-0.22 0.94,-0.48 1.43,-0.79l2.09 2.6 0.14 -0.11 0.13 -0.11 -2.06 -2.57c0.42,-0.27 0.86,-0.58 1.31,-0.93l1.94 2.41 0.11 -0.12 0.13 -0.14 -1.9 -2.36c0.26,-0.21 0.53,-0.43 0.8,-0.67 0.15,-0.12 0.29,-0.25 0.42,-0.38l1.73 2.15 0.09 -0.12 0.13 -0.17 -1.7 -2.11c0.4,-0.42 0.74,-0.85 1.01,-1.3l1.6 1.99 0.07 -0.13 0.11 -0.2 -1.59 -1.98c0.31,-0.57 0.52,-1.16 0.65,-1.76l1.72 2.13 0.05 -0.13c0.03,-0.07 0.06,-0.15 0.1,-0.24l-1.8 -2.22c0.13,-0.93 0.05,-1.88 -0.21,-2.83l2.62 3.25c0.04,-0.13 0.08,-0.27 0.12,-0.41l-3.04 -3.77c-0.19,-0.49 -0.42,-0.97 -0.68,-1.44 -0.31,-0.55 -0.45,-1 -0.46,-1.37 3.12,3.01 5.9,5.53 6.6,11.99 0.02,1.42 -0.43,2.73 -1.85,3.86 -2.52,1.99 -4.13,5.44 -6.23,6.55 -3.59,1.91 -6.89,0.11 -9.71,-0.45 -1.59,-0.31 -3.22,-1.07 -4.77,-1.99l3.1 -5.89 3.91 4.85 0.25 -0.05 0.14 -0.03 -3.87 -4.8c0.51,0.19 1.55,0.55 2.63,0.71l2.94 3.64 0.22 -0.07 0.14 -0.04 -2.8 -3.47c0.18,0.01 0.37,0.02 0.55,0.02 0.42,0 0.89,-0.05 1.4,-0.16l2.42 3 0.19 -0.09 0.14 -0.06 -2.38 -2.95c0.5,-0.13 1.03,-0.33 1.6,-0.58l2.22 2.76 0.17 -0.1z"/>
 </g>
</svg>
