<?xml version="1.0" encoding="UTF-8"?>
<!DOCTYPE svg PUBLIC "-//W3C//DTD SVG 1.1//EN" "http://www.w3.org/Graphics/SVG/1.1/DTD/svg11.dtd">
<!-- Creator: CorelDRAW -->
<svg xmlns="http://www.w3.org/2000/svg" xml:space="preserve" width="888px" height="598px" version="1.1" style="shape-rendering:geometricPrecision; text-rendering:geometricPrecision; image-rendering:optimizeQuality; fill-rule:evenodd; clip-rule:evenodd"
viewBox="0 0 888 598.5"
 xmlns:xlink="http://www.w3.org/1999/xlink"
 xmlns:xodm="http://www.corel.com/coreldraw/odm/2003">
 <defs>
  <style type="text/css">
   <![CDATA[
    .str0 {stroke:#ED3237;stroke-width:0.9;stroke-miterlimit:22.9256}
    .fil0 {fill:#FEFEFE}
    .fil1 {fill:#6B809B}
   ]]>
  </style>
 </defs>
 <g id="Capa_x0020_1">
  <metadata id="CorelCorpID_0Corel-Layer"/>
  <rect class="fil0 str0" x="0.43" y="1.21" width="887.1" height="597.6"/>
 </g>
 <g id="Capa_x0020_1_9">
  <metadata id="CorelCorpID_1Corel-Layer"/>
  <path class="fil1" d="M432.01 279.19l0.26 4.68 -0.26 -4.68zm-32.03 -3.36c-0.01,0.77 0.91,12.07 0.7,17.18 -0.23,5.47 -0.48,10.65 -0.68,15.76 13.16,0.36 23.17,-5.4 34.75,-8.1 -0.23,-1.43 -0.45,-2.97 -0.68,-4.65 -0.63,-4.74 -1.82,-15.48 -1.93,-20.57 -0.03,-1.36 -0.18,-4.05 -0.23,-4.42 -0.02,-0.29 0,-0.53 -0.02,-0.72 -0.11,0.07 -0.24,0.14 -0.37,0.21l0.48 8.67 -0.59 0.15 -0.48 -8.55c-0.46,0.2 -0.99,0.39 -1.58,0.57l0.47 8.36 -0.59 0.13 -0.47 -8.32c-0.49,0.14 -1.02,0.28 -1.59,0.41l0.47 8.25 -0.6 0.12 -0.46 -8.24c-0.51,0.11 -1.04,0.22 -1.59,0.32l0.46 8.22 -0.59 0.11 -0.46 -8.22c-0.52,0.1 -1.05,0.19 -1.6,0.27l0.46 8.22 -0.59 0.09 -0.46 -8.21c-0.53,0.08 -1.06,0.16 -1.6,0.23l0.46 8.23 -0.6 0.08 -0.46 -8.23c-0.52,0.07 -1.06,0.14 -1.6,0.2l0.46 8.24 -0.59 0.07 -0.46 -8.24c-0.53,0.07 -1.07,0.12 -1.6,0.18l0.46 8.25 -0.6 0.06 -0.46 -8.25c-0.53,0.06 -1.07,0.11 -1.6,0.16l0.46 8.25 -0.6 0.05 -0.46 -8.25c-0.54,0.05 -1.07,0.09 -1.6,0.14l0.46 8.24 -0.6 0.05 -0.46 -8.25c-0.54,0.04 -1.08,0.08 -1.6,0.11l0.46 8.24 -0.6 0.04 -0.46 -8.24c-0.55,0.04 -1.08,0.07 -1.61,0.1l0.46 8.22 -0.59 0.03 -0.47 -8.22c-0.55,0.02 -1.08,0.05 -1.6,0.07l0.46 8.21 -0.6 0.01 -0.46 -8.2c-0.56,0.02 -1.1,0.03 -1.61,0.04l0.46 8.2 -0.6 0.01 -0.46 -8.2c-0.57,0.01 -1.11,0.01 -1.61,0.01l0.46 8.2 -0.6 0 -0.46 -8.21 -0.25 -0.01c-0.02,0.32 -0.01,0.75 0.04,1.34z"/>
  <path class="fil1" d="M451.92 303.88l-0.27 4.68 0.27 -4.68zm31.32 13.82c-0.22,-5.11 0.71,-16.41 0.7,-17.18 0.05,-0.59 0.06,-1.02 0.03,-1.34l-0.24 0.01 -0.47 8.21 -0.6 0 0.47 -8.2c-0.5,0 -1.04,0 -1.62,0l-0.46 8.19 -0.59 -0.01 0.45 -8.19c-0.51,-0.01 -1.05,-0.03 -1.6,-0.05l-0.46 8.21 -0.6 -0.02 0.46 -8.21c-0.52,-0.02 -1.06,-0.04 -1.61,-0.07l-0.46 8.22 -0.6 -0.03 0.46 -8.22c-0.52,-0.03 -1.06,-0.06 -1.6,-0.09l-0.47 8.23 -0.59 -0.03 0.46 -8.24c-0.53,-0.04 -1.07,-0.08 -1.61,-0.12l-0.46 8.25 -0.59 -0.04 0.46 -8.25c-0.53,-0.05 -1.07,-0.09 -1.61,-0.14l-0.46 8.25 -0.59 -0.05 0.46 -8.25c-0.54,-0.05 -1.07,-0.1 -1.61,-0.16l-0.46 8.25 -0.59 -0.06 0.46 -8.25c-0.54,-0.05 -1.07,-0.11 -1.6,-0.18l-0.46 8.25 -0.6 -0.08 0.46 -8.23c-0.54,-0.07 -1.07,-0.14 -1.6,-0.21l-0.46 8.23 -0.59 -0.08 0.46 -8.23c-0.54,-0.07 -1.08,-0.15 -1.6,-0.23l-0.46 8.22 -0.6 -0.1 0.46 -8.21c-0.54,-0.09 -1.07,-0.18 -1.59,-0.28l-0.46 8.22 -0.6 -0.11 0.47 -8.21c-0.56,-0.11 -1.09,-0.22 -1.6,-0.33l-0.46 8.24 -0.59 -0.12 0.46 -8.25c-0.56,-0.13 -1.09,-0.27 -1.59,-0.41l-0.47 8.32 -0.59 -0.13 0.47 -8.36c-0.59,-0.18 -1.12,-0.37 -1.58,-0.57l-0.48 8.55 -0.59 -0.15 0.49 -8.67c-0.14,-0.07 -0.26,-0.14 -0.38,-0.21 -0.01,0.2 0,0.43 -0.02,0.72 -0.05,0.37 -0.2,3.06 -0.23,4.43 -0.1,5.08 -1.3,15.82 -1.93,20.56 -0.31,2.29 -0.62,4.33 -0.93,6.17 11.7,2.16 22.11,7.23 35,6.66 -0.19,-5.13 -0.45,-10.34 -0.67,-15.84z"/>
 </g>
</svg>
