<?xml version="1.0" encoding="UTF-8"?>
<!DOCTYPE svg PUBLIC "-//W3C//DTD SVG 1.1//EN" "http://www.w3.org/Graphics/SVG/1.1/DTD/svg11.dtd">
<!-- Creator: CorelDRAW -->
<svg xmlns="http://www.w3.org/2000/svg" xml:space="preserve" width="888px" height="598px" version="1.1" style="shape-rendering:geometricPrecision; text-rendering:geometricPrecision; image-rendering:optimizeQuality; fill-rule:evenodd; clip-rule:evenodd"
viewBox="0 0 888 598.5"
 xmlns:xlink="http://www.w3.org/1999/xlink"
 xmlns:xodm="http://www.corel.com/coreldraw/odm/2003">
 <defs>
  <style type="text/css">
   <![CDATA[
    .str0 {stroke:#ED3237;stroke-width:0.9;stroke-miterlimit:22.9256}
    .fil0 {fill:#FEFEFE}
    .fil1 {fill:#373435}
   ]]>
  </style>
     <mask id="id0">
  <radialGradient id="id1" gradientUnits="userSpaceOnUse" cx="355.27" cy="479.83" r="0" fx="355.27" fy="479.83">
   <stop offset="0" style="stop-opacity:1; stop-color:white"/>
   <stop offset="1" style="stop-opacity:0; stop-color:white"/>
  </radialGradient>
      <rect style="fill:url(#id1)" x="355.27" y="479.83" width="79.75" height="14.48"/>
     </mask>
     <mask id="id2">
  <radialGradient id="id3" gradientUnits="userSpaceOnUse" cx="355.27" cy="479.82" r="0" fx="355.27" fy="479.82">
   <stop offset="0" style="stop-opacity:1; stop-color:white"/>
   <stop offset="1" style="stop-opacity:0; stop-color:white"/>
  </radialGradient>
      <rect style="fill:url(#id3)" x="355.27" y="479.82" width="79.75" height="14.49"/>
     </mask>
     <mask id="id4">
  <radialGradient id="id5" gradientUnits="userSpaceOnUse" cx="448.9" cy="504.52" r="0" fx="448.9" fy="504.52">
   <stop offset="0" style="stop-opacity:1; stop-color:white"/>
   <stop offset="1" style="stop-opacity:0; stop-color:white"/>
  </radialGradient>
      <rect style="fill:url(#id5)" x="448.9" y="504.52" width="79.75" height="14.49"/>
     </mask>
     <mask id="id6">
  <radialGradient id="id7" gradientUnits="userSpaceOnUse" cx="448.9" cy="504.52" r="0" fx="448.9" fy="504.52">
   <stop offset="0" style="stop-opacity:1; stop-color:white"/>
   <stop offset="1" style="stop-opacity:0; stop-color:white"/>
  </radialGradient>
      <rect style="fill:url(#id7)" x="448.9" y="504.52" width="79.75" height="14.49"/>
     </mask>
 </defs>
 <g id="Capa_x0020_1">
  <metadata id="CorelCorpID_0Corel-Layer"/>
  <rect class="fil0 str0" x="0.43" y="1.21" width="887.1" height="597.6"/>
 </g>
 <g id="Capa_x0020_1_6">
  <metadata id="CorelCorpID_1Corel-Layer"/>
  <g id="_2588357178848">
   <g>
    <path class="fil1" style="mask:url(#id0)" d="M395.14 479.83c22.02,0 39.88,3.24 39.88,7.24 0,4 -17.86,7.24 -39.88,7.24 -22.02,0 -39.87,-3.24 -39.87,-7.24 0,-4 17.85,-7.24 39.87,-7.24z"/>
    <path id="_1" class="fil1" style="mask:url(#id2)" d="M395.14 479.82c11.01,0 20.98,0.82 28.2,2.13 7.21,1.31 11.68,3.12 11.68,5.12 0,2 -4.47,3.81 -11.68,5.12 -7.22,1.31 -17.19,2.12 -28.2,2.12 -11.01,0 -20.98,-0.81 -28.19,-2.12 -7.22,-1.31 -11.68,-3.12 -11.68,-5.12 0,-2 4.46,-3.81 11.68,-5.12 7.21,-1.31 17.18,-2.13 28.19,-2.13zm-29.19 2.31l0 0.01c-0.21,0.04 -0.42,0.08 -0.62,0.12 -0.02,0 -0.03,0.01 -0.05,0.01 -0.19,0.04 -0.37,0.08 -0.56,0.12 -0.03,0 -0.05,0.01 -0.08,0.01 -0.17,0.04 -0.35,0.08 -0.52,0.12 -0.03,0.01 -0.07,0.01 -0.1,0.02 -0.16,0.04 -0.32,0.08 -0.48,0.11 -0.04,0.01 -0.08,0.02 -0.12,0.03 -0.15,0.04 -0.3,0.07 -0.45,0.11 -0.04,0.01 -0.08,0.02 -0.13,0.03 -0.14,0.04 -0.28,0.07 -0.42,0.11 -0.05,0.01 -0.09,0.02 -0.13,0.04 -0.14,0.03 -0.28,0.07 -0.41,0.1 -0.04,0.02 -0.09,0.03 -0.13,0.04 -0.13,0.04 -0.26,0.07 -0.39,0.11 -0.04,0.01 -0.09,0.03 -0.13,0.04 -0.13,0.03 -0.25,0.07 -0.37,0.11 -0.04,0.01 -0.09,0.03 -0.13,0.04 -0.12,0.04 -0.24,0.07 -0.35,0.11 -0.04,0.01 -0.09,0.03 -0.13,0.04 -0.11,0.04 -0.22,0.07 -0.33,0.11 -0.04,0.02 -0.09,0.03 -0.13,0.05 -0.1,0.03 -0.21,0.07 -0.31,0.11 -0.04,0.01 -0.09,0.03 -0.13,0.04 -0.1,0.04 -0.2,0.08 -0.29,0.12 -0.05,0.01 -0.09,0.03 -0.13,0.04 -0.09,0.04 -0.18,0.08 -0.27,0.12 -0.04,0.01 -0.08,0.03 -0.12,0.04 -0.09,0.04 -0.18,0.08 -0.26,0.12 -0.04,0.01 -0.08,0.03 -0.12,0.05 -0.08,0.03 -0.16,0.07 -0.24,0.11 -0.04,0.02 -0.08,0.04 -0.12,0.05 -0.07,0.04 -0.15,0.08 -0.22,0.11 -0.04,0.02 -0.07,0.04 -0.11,0.06 -0.07,0.04 -0.14,0.07 -0.2,0.11 -0.04,0.02 -0.08,0.04 -0.11,0.06 -0.07,0.04 -0.13,0.07 -0.19,0.11 -0.03,0.02 -0.07,0.04 -0.1,0.06 -0.06,0.04 -0.11,0.07 -0.17,0.11 -0.03,0.02 -0.07,0.04 -0.1,0.07 -0.05,0.03 -0.1,0.07 -0.14,0.1 -0.04,0.02 -0.07,0.05 -0.11,0.08 -0.04,0.03 -0.08,0.06 -0.12,0.09 -0.03,0.03 -0.06,0.06 -0.1,0.08 -0.03,0.03 -0.07,0.07 -0.1,0.1 -0.03,0.02 -0.06,0.05 -0.09,0.08 -0.03,0.03 -0.06,0.06 -0.09,0.09 -0.03,0.03 -0.06,0.06 -0.08,0.09 -0.03,0.03 -0.05,0.06 -0.07,0.09 -0.03,0.03 -0.06,0.06 -0.08,0.1 -0.02,0.02 -0.04,0.05 -0.06,0.08 -0.02,0.03 -0.04,0.07 -0.06,0.1 -0.02,0.03 -0.03,0.05 -0.04,0.08 -0.02,0.03 -0.04,0.07 -0.06,0.11 -0.01,0.02 -0.02,0.04 -0.03,0.07 -0.01,0.04 -0.03,0.07 -0.04,0.11 -0.01,0.02 -0.01,0.05 -0.02,0.07 -0.01,0.04 -0.01,0.08 -0.02,0.12 -0.01,0.02 -0.01,0.04 -0.01,0.07 -0.01,0.04 -0.01,0.08 -0.01,0.12 0,0.01 0,0.02 0,0.03 0,0.01 0,0.02 0,0.03 0,0.04 0,0.08 0.01,0.12 0,0.03 0,0.05 0.01,0.07 0.01,0.04 0.01,0.08 0.02,0.12 0.01,0.02 0.01,0.04 0.02,0.07 0.01,0.04 0.03,0.07 0.04,0.11 0.01,0.03 0.02,0.05 0.03,0.07 0.02,0.04 0.04,0.08 0.06,0.11 0.01,0.03 0.02,0.05 0.04,0.08 0.02,0.03 0.04,0.07 0.06,0.1 0.02,0.03 0.04,0.06 0.06,0.08 0.02,0.04 0.05,0.07 0.08,0.1 0.02,0.03 0.04,0.06 0.07,0.09 0.02,0.03 0.05,0.06 0.08,0.09 0.03,0.03 0.06,0.06 0.09,0.09 0.03,0.03 0.06,0.06 0.09,0.08 0.03,0.03 0.07,0.07 0.1,0.1 0.04,0.02 0.07,0.05 0.1,0.08 0.04,0.03 0.08,0.06 0.12,0.09 0.04,0.03 0.07,0.05 0.11,0.08 0.04,0.03 0.09,0.07 0.14,0.1 0.03,0.02 0.07,0.05 0.1,0.07 0.06,0.04 0.11,0.07 0.17,0.1 0.03,0.03 0.07,0.05 0.1,0.07 0.06,0.04 0.12,0.07 0.19,0.11 0.03,0.02 0.07,0.04 0.11,0.06 0.06,0.04 0.13,0.07 0.2,0.11 0.04,0.02 0.07,0.04 0.11,0.06 0.07,0.03 0.15,0.07 0.22,0.11 0.04,0.01 0.08,0.03 0.12,0.05 0.08,0.04 0.16,0.07 0.24,0.11 0.04,0.02 0.08,0.04 0.12,0.05 0.08,0.04 0.17,0.08 0.26,0.12 0.04,0.01 0.08,0.03 0.12,0.04 0.09,0.04 0.18,0.08 0.27,0.12 0.04,0.01 0.08,0.03 0.13,0.04 0.09,0.04 0.19,0.08 0.29,0.12 0.04,0.01 0.09,0.03 0.13,0.04 0.1,0.04 0.21,0.08 0.31,0.11 0.04,0.02 0.09,0.03 0.13,0.05 0.11,0.03 0.22,0.07 0.33,0.11 0.04,0.01 0.09,0.03 0.13,0.04 0.11,0.04 0.23,0.07 0.35,0.11 0.04,0.01 0.09,0.03 0.13,0.04 0.12,0.04 0.24,0.07 0.37,0.11 0.04,0.01 0.09,0.03 0.13,0.04 0.13,0.04 0.26,0.07 0.39,0.11 0.04,0.01 0.09,0.02 0.13,0.04 0.13,0.03 0.27,0.07 0.41,0.1 0.04,0.02 0.08,0.03 0.13,0.04 0.14,0.04 0.28,0.07 0.42,0.11 0.05,0.01 0.09,0.02 0.13,0.03 0.15,0.04 0.3,0.07 0.45,0.11 0.04,0.01 0.08,0.02 0.12,0.03 0.16,0.03 0.32,0.07 0.48,0.11 0.03,0.01 0.07,0.01 0.1,0.02 0.17,0.04 0.35,0.08 0.52,0.12 0.03,0 0.05,0.01 0.08,0.01 0.19,0.04 0.37,0.08 0.56,0.12 0.02,0 0.03,0.01 0.05,0.01 0.2,0.04 0.41,0.08 0.62,0.12l0 0c7.28,1.42 17.67,2.31 29.19,2.31 11.87,0 22.52,-0.94 29.82,-2.43l0.03 -0.01c0.2,-0.04 0.39,-0.08 0.58,-0.12 0.02,0 0.04,-0.01 0.06,-0.01 0.18,-0.04 0.36,-0.08 0.54,-0.12 0.03,-0.01 0.06,-0.01 0.08,-0.02 0.17,-0.04 0.34,-0.08 0.5,-0.12 0.04,0 0.07,-0.01 0.1,-0.02 0.16,-0.04 0.32,-0.07 0.47,-0.11 0.04,-0.01 0.08,-0.02 0.11,-0.03 0.15,-0.04 0.3,-0.07 0.44,-0.11 0.04,-0.01 0.08,-0.02 0.12,-0.03 0.14,-0.04 0.28,-0.08 0.42,-0.12 0.04,-0.01 0.08,-0.02 0.12,-0.03 0.14,-0.04 0.27,-0.07 0.4,-0.11 0.04,-0.01 0.08,-0.03 0.12,-0.04 0.13,-0.04 0.25,-0.07 0.38,-0.11 0.04,-0.01 0.08,-0.03 0.12,-0.04 0.12,-0.04 0.24,-0.07 0.36,-0.11 0.04,-0.01 0.08,-0.03 0.12,-0.04 0.12,-0.04 0.23,-0.08 0.34,-0.11 0.04,-0.02 0.08,-0.03 0.12,-0.05 0.11,-0.03 0.21,-0.07 0.32,-0.11 0.04,-0.01 0.08,-0.03 0.12,-0.04 0.1,-0.04 0.2,-0.08 0.3,-0.12 0.04,-0.01 0.08,-0.03 0.12,-0.04 0.09,-0.04 0.19,-0.08 0.28,-0.12 0.04,-0.01 0.08,-0.03 0.12,-0.04 0.09,-0.04 0.17,-0.08 0.26,-0.12 0.04,-0.01 0.08,-0.03 0.11,-0.05 0.09,-0.04 0.17,-0.07 0.25,-0.11 0.04,-0.02 0.07,-0.04 0.11,-0.05 0.08,-0.04 0.15,-0.08 0.22,-0.11 0.04,-0.02 0.08,-0.04 0.11,-0.06 0.07,-0.04 0.14,-0.07 0.21,-0.11 0.04,-0.02 0.07,-0.04 0.11,-0.06 0.06,-0.04 0.12,-0.07 0.18,-0.11 0.04,-0.02 0.07,-0.04 0.11,-0.07 0.05,-0.03 0.11,-0.06 0.16,-0.1 0.04,-0.02 0.07,-0.05 0.1,-0.07 0.05,-0.03 0.1,-0.07 0.15,-0.1 0.03,-0.03 0.07,-0.05 0.1,-0.08 0.04,-0.03 0.08,-0.06 0.12,-0.09 0.04,-0.03 0.07,-0.06 0.1,-0.08 0.04,-0.03 0.07,-0.07 0.1,-0.1 0.04,-0.02 0.07,-0.05 0.1,-0.08 0.03,-0.03 0.06,-0.06 0.08,-0.09 0.03,-0.03 0.06,-0.06 0.09,-0.09 0.02,-0.03 0.05,-0.06 0.07,-0.09 0.03,-0.03 0.05,-0.06 0.07,-0.1 0.02,-0.02 0.04,-0.05 0.06,-0.08 0.02,-0.03 0.05,-0.07 0.07,-0.1 0.01,-0.03 0.03,-0.05 0.04,-0.08 0.02,-0.03 0.04,-0.07 0.05,-0.11 0.01,-0.02 0.02,-0.04 0.03,-0.07 0.02,-0.04 0.03,-0.07 0.04,-0.11 0.01,-0.03 0.02,-0.05 0.02,-0.07 0.01,-0.04 0.02,-0.08 0.03,-0.12 0,-0.02 0,-0.04 0.01,-0.07 0,-0.04 0,-0.08 0,-0.12 0,-0.01 0.01,-0.02 0.01,-0.03 0,-0.01 -0.01,-0.02 -0.01,-0.03 0,-0.04 0,-0.08 0,-0.12 -0.01,-0.03 -0.01,-0.05 -0.01,-0.07 -0.01,-0.04 -0.02,-0.08 -0.03,-0.12 0,-0.02 -0.01,-0.05 -0.02,-0.07 -0.01,-0.04 -0.02,-0.07 -0.04,-0.11 -0.01,-0.03 -0.02,-0.05 -0.03,-0.07 -0.01,-0.04 -0.03,-0.08 -0.05,-0.11 -0.01,-0.03 -0.03,-0.05 -0.04,-0.08 -0.02,-0.03 -0.05,-0.07 -0.07,-0.1 -0.02,-0.03 -0.04,-0.06 -0.06,-0.08 -0.02,-0.04 -0.04,-0.07 -0.07,-0.1 -0.02,-0.03 -0.05,-0.06 -0.07,-0.09 -0.03,-0.03 -0.06,-0.06 -0.09,-0.09 -0.02,-0.03 -0.05,-0.06 -0.08,-0.09 -0.03,-0.03 -0.06,-0.06 -0.1,-0.08 -0.03,-0.03 -0.06,-0.07 -0.1,-0.1 -0.03,-0.02 -0.06,-0.05 -0.1,-0.08 -0.04,-0.03 -0.08,-0.06 -0.12,-0.09 -0.03,-0.03 -0.07,-0.06 -0.1,-0.08 -0.05,-0.03 -0.1,-0.07 -0.15,-0.1 -0.03,-0.03 -0.06,-0.05 -0.1,-0.07 -0.05,-0.04 -0.11,-0.07 -0.16,-0.11 -0.04,-0.02 -0.07,-0.04 -0.11,-0.06 -0.06,-0.04 -0.12,-0.07 -0.18,-0.11 -0.04,-0.02 -0.07,-0.04 -0.11,-0.06 -0.07,-0.04 -0.14,-0.07 -0.21,-0.11 -0.03,-0.02 -0.07,-0.04 -0.11,-0.06 -0.07,-0.03 -0.14,-0.07 -0.22,-0.11 -0.04,-0.01 -0.07,-0.03 -0.11,-0.05 -0.08,-0.04 -0.16,-0.08 -0.25,-0.11 -0.03,-0.02 -0.07,-0.04 -0.11,-0.05 -0.09,-0.04 -0.17,-0.08 -0.26,-0.12 -0.04,-0.01 -0.08,-0.03 -0.12,-0.04 -0.09,-0.04 -0.19,-0.08 -0.28,-0.12 -0.04,-0.01 -0.08,-0.03 -0.12,-0.04 -0.1,-0.04 -0.2,-0.08 -0.3,-0.12 -0.04,-0.01 -0.08,-0.03 -0.12,-0.04 -0.11,-0.04 -0.21,-0.08 -0.32,-0.11 -0.04,-0.02 -0.08,-0.03 -0.12,-0.05 -0.11,-0.03 -0.22,-0.07 -0.34,-0.11 -0.04,-0.01 -0.08,-0.03 -0.12,-0.04 -0.12,-0.04 -0.24,-0.08 -0.36,-0.11 -0.04,-0.01 -0.08,-0.03 -0.12,-0.04 -0.13,-0.04 -0.25,-0.08 -0.38,-0.11 -0.04,-0.01 -0.08,-0.03 -0.12,-0.04 -0.13,-0.04 -0.26,-0.07 -0.4,-0.11 -0.04,-0.01 -0.08,-0.02 -0.12,-0.04 -0.14,-0.03 -0.28,-0.07 -0.42,-0.11 -0.04,-0.01 -0.08,-0.02 -0.12,-0.03 -0.14,-0.04 -0.29,-0.07 -0.44,-0.11 -0.03,-0.01 -0.07,-0.02 -0.11,-0.03 -0.15,-0.04 -0.31,-0.07 -0.47,-0.11 -0.03,-0.01 -0.06,-0.02 -0.1,-0.03 -0.16,-0.03 -0.33,-0.07 -0.5,-0.11 -0.02,-0.01 -0.05,-0.01 -0.08,-0.02 -0.18,-0.04 -0.36,-0.08 -0.54,-0.12 -0.02,0 -0.04,-0.01 -0.06,-0.01 -0.19,-0.04 -0.38,-0.08 -0.58,-0.12 -0.01,-0.01 -0.02,-0.01 -0.03,-0.01 -7.3,-1.49 -17.95,-2.43 -29.82,-2.43 -11.52,0 -21.91,0.89 -29.19,2.3z"/>
   </g>
  </g>
  <g id="_2588357177696">
   <g>
    <path class="fil1" style="mask:url(#id4)" d="M488.77 504.52c-22.02,0 -39.87,3.24 -39.87,7.24 0,4 17.85,7.25 39.87,7.25 22.02,0 39.88,-3.25 39.88,-7.25 0,-4 -17.86,-7.24 -39.88,-7.24z"/>
    <path id="_1_7" class="fil1" style="mask:url(#id6)" d="M458.95 506.95l-0.02 0.01c-0.2,0.04 -0.4,0.08 -0.59,0.12 -0.02,0.01 -0.04,0.01 -0.06,0.01 -0.18,0.04 -0.36,0.08 -0.54,0.12 -0.02,0.01 -0.05,0.01 -0.08,0.02 -0.17,0.04 -0.34,0.08 -0.5,0.12 -0.03,0 -0.07,0.01 -0.1,0.02 -0.16,0.04 -0.31,0.08 -0.47,0.11 -0.03,0.01 -0.07,0.02 -0.11,0.03 -0.15,0.04 -0.29,0.08 -0.44,0.11 -0.04,0.01 -0.08,0.03 -0.12,0.04 -0.14,0.03 -0.28,0.07 -0.41,0.11 -0.05,0.01 -0.09,0.02 -0.13,0.03 -0.13,0.04 -0.26,0.08 -0.39,0.11 -0.04,0.02 -0.09,0.03 -0.13,0.04 -0.12,0.04 -0.25,0.07 -0.37,0.11 -0.04,0.01 -0.09,0.03 -0.13,0.04 -0.12,0.04 -0.24,0.07 -0.35,0.11 -0.04,0.02 -0.08,0.03 -0.13,0.04 -0.11,0.04 -0.22,0.08 -0.33,0.12 -0.04,0.01 -0.09,0.02 -0.13,0.04 -0.1,0.04 -0.21,0.07 -0.31,0.11 -0.04,0.01 -0.08,0.03 -0.12,0.04 -0.11,0.04 -0.21,0.08 -0.31,0.12 -0.04,0.01 -0.08,0.03 -0.11,0.04 -0.1,0.04 -0.19,0.08 -0.29,0.12 -0.04,0.01 -0.07,0.03 -0.11,0.05 -0.09,0.03 -0.18,0.07 -0.27,0.11 -0.03,0.02 -0.07,0.03 -0.11,0.05 -0.08,0.04 -0.16,0.07 -0.24,0.11 -0.04,0.02 -0.08,0.04 -0.12,0.06 -0.07,0.03 -0.15,0.07 -0.22,0.11 -0.04,0.02 -0.07,0.03 -0.11,0.05 -0.07,0.04 -0.14,0.08 -0.2,0.11 -0.04,0.02 -0.08,0.04 -0.11,0.06 -0.07,0.04 -0.13,0.08 -0.19,0.11 -0.03,0.02 -0.07,0.04 -0.1,0.07 -0.06,0.03 -0.11,0.07 -0.17,0.1 -0.03,0.02 -0.07,0.05 -0.1,0.07 -0.05,0.03 -0.1,0.07 -0.14,0.1 -0.04,0.03 -0.07,0.05 -0.11,0.08 -0.04,0.03 -0.08,0.06 -0.12,0.09 -0.03,0.03 -0.06,0.06 -0.1,0.08 -0.03,0.04 -0.07,0.07 -0.1,0.1 -0.03,0.03 -0.06,0.06 -0.09,0.08 -0.03,0.03 -0.06,0.06 -0.09,0.09 -0.03,0.03 -0.06,0.07 -0.08,0.1 -0.03,0.02 -0.05,0.05 -0.07,0.08 -0.03,0.03 -0.06,0.07 -0.08,0.1 -0.02,0.03 -0.04,0.05 -0.06,0.08 -0.02,0.03 -0.04,0.07 -0.06,0.1 -0.02,0.03 -0.03,0.05 -0.04,0.08 -0.02,0.04 -0.04,0.07 -0.06,0.11 -0.01,0.02 -0.02,0.05 -0.03,0.07 -0.01,0.04 -0.03,0.08 -0.04,0.11 -0.01,0.03 -0.01,0.05 -0.02,0.07 -0.01,0.04 -0.01,0.08 -0.02,0.12 -0.01,0.02 -0.01,0.05 -0.01,0.07 -0.01,0.04 -0.01,0.08 -0.01,0.12 0,0.01 0,0.02 0,0.03 0,0.01 0,0.02 0,0.04 0,0.03 0,0.08 0.01,0.11 0,0.03 0,0.05 0.01,0.07 0.01,0.04 0.01,0.08 0.02,0.12 0.01,0.02 0.01,0.05 0.02,0.07 0.01,0.04 0.03,0.07 0.04,0.11 0.01,0.03 0.02,0.05 0.03,0.08 0.02,0.03 0.04,0.07 0.06,0.1 0.01,0.03 0.02,0.06 0.04,0.08 0.02,0.04 0.04,0.07 0.06,0.11 0.02,0.02 0.04,0.05 0.06,0.08 0.02,0.03 0.05,0.06 0.08,0.09 0.02,0.03 0.04,0.06 0.07,0.09 0.02,0.03 0.05,0.06 0.08,0.09 0.03,0.03 0.06,0.06 0.09,0.09 0.03,0.03 0.06,0.06 0.09,0.09 0.03,0.03 0.07,0.06 0.1,0.09 0.04,0.03 0.07,0.05 0.1,0.08 0.04,0.03 0.08,0.06 0.12,0.1 0.04,0.02 0.07,0.05 0.11,0.07 0.04,0.04 0.09,0.07 0.14,0.1 0.03,0.03 0.07,0.05 0.1,0.07 0.06,0.04 0.11,0.07 0.17,0.11 0.03,0.02 0.07,0.04 0.1,0.06 0.06,0.04 0.12,0.07 0.19,0.11 0.03,0.02 0.07,0.04 0.11,0.06 0.06,0.04 0.13,0.07 0.2,0.11 0.04,0.02 0.07,0.04 0.11,0.06 0.07,0.03 0.15,0.07 0.22,0.11 0.04,0.02 0.08,0.03 0.12,0.05 0.08,0.04 0.16,0.08 0.24,0.11 0.04,0.02 0.08,0.04 0.11,0.05 0.09,0.04 0.18,0.08 0.27,0.12 0.04,0.01 0.07,0.03 0.11,0.05 0.1,0.03 0.19,0.07 0.29,0.11 0.03,0.02 0.07,0.03 0.11,0.05 0.1,0.03 0.2,0.07 0.31,0.11 0.04,0.01 0.08,0.03 0.12,0.04 0.1,0.04 0.21,0.08 0.31,0.12 0.04,0.01 0.09,0.02 0.13,0.04 0.11,0.04 0.22,0.07 0.33,0.11 0.05,0.01 0.09,0.03 0.13,0.04 0.11,0.04 0.23,0.08 0.35,0.11 0.04,0.02 0.09,0.03 0.13,0.04 0.12,0.04 0.25,0.08 0.37,0.11 0.04,0.02 0.09,0.03 0.13,0.04 0.13,0.04 0.26,0.07 0.39,0.11 0.04,0.01 0.08,0.02 0.13,0.04 0.13,0.03 0.27,0.07 0.41,0.11 0.04,0.01 0.08,0.02 0.12,0.03 0.15,0.04 0.29,0.07 0.44,0.11 0.04,0.01 0.08,0.02 0.11,0.03 0.16,0.04 0.31,0.08 0.47,0.11 0.03,0.01 0.07,0.02 0.1,0.03 0.16,0.04 0.33,0.07 0.5,0.11 0.03,0.01 0.06,0.01 0.08,0.02 0.18,0.04 0.36,0.08 0.54,0.12 0.02,0 0.04,0.01 0.06,0.01 0.19,0.04 0.39,0.08 0.59,0.12l0.02 0.01c7.3,1.49 17.96,2.44 29.82,2.44 11.53,0 21.91,-0.89 29.19,-2.31l0.01 0c0.2,-0.05 0.41,-0.09 0.61,-0.13 0.02,0 0.03,0 0.05,-0.01 0.19,-0.04 0.38,-0.08 0.56,-0.12 0.03,0 0.06,-0.01 0.08,-0.01 0.18,-0.04 0.35,-0.08 0.52,-0.12 0.04,0 0.07,-0.01 0.1,-0.02 0.17,-0.04 0.33,-0.07 0.49,-0.11 0.03,-0.01 0.07,-0.02 0.11,-0.03 0.16,-0.04 0.31,-0.07 0.46,-0.11 0.04,-0.01 0.08,-0.02 0.12,-0.03 0.14,-0.04 0.29,-0.07 0.43,-0.11 0.04,-0.01 0.09,-0.02 0.13,-0.03 0.14,-0.04 0.27,-0.08 0.4,-0.11 0.05,-0.02 0.09,-0.03 0.14,-0.04 0.13,-0.04 0.26,-0.07 0.38,-0.11 0.05,-0.01 0.09,-0.02 0.14,-0.04 0.12,-0.03 0.24,-0.07 0.36,-0.11 0.05,-0.01 0.09,-0.02 0.13,-0.04 0.12,-0.03 0.24,-0.07 0.35,-0.11 0.05,-0.01 0.09,-0.03 0.13,-0.04 0.12,-0.04 0.23,-0.07 0.33,-0.11 0.05,-0.02 0.09,-0.03 0.13,-0.04 0.11,-0.04 0.21,-0.08 0.32,-0.12 0.04,-0.01 0.08,-0.03 0.12,-0.04 0.1,-0.04 0.2,-0.08 0.3,-0.11 0.04,-0.02 0.08,-0.03 0.12,-0.05 0.09,-0.04 0.19,-0.08 0.28,-0.11 0.04,-0.02 0.08,-0.04 0.12,-0.05 0.09,-0.04 0.17,-0.08 0.26,-0.11 0.04,-0.02 0.08,-0.04 0.11,-0.06 0.09,-0.03 0.17,-0.07 0.25,-0.11 0.03,-0.02 0.07,-0.03 0.11,-0.05 0.08,-0.04 0.15,-0.08 0.22,-0.11 0.04,-0.02 0.08,-0.04 0.12,-0.06 0.06,-0.04 0.13,-0.07 0.2,-0.11 0.03,-0.02 0.07,-0.04 0.11,-0.06 0.06,-0.04 0.12,-0.07 0.18,-0.11 0.04,-0.02 0.07,-0.04 0.11,-0.06 0.05,-0.04 0.11,-0.07 0.16,-0.11 0.04,-0.02 0.07,-0.04 0.11,-0.07 0.04,-0.03 0.09,-0.06 0.14,-0.1 0.03,-0.02 0.07,-0.05 0.1,-0.07 0.04,-0.04 0.08,-0.07 0.12,-0.1 0.04,-0.03 0.07,-0.05 0.1,-0.08 0.04,-0.03 0.07,-0.06 0.1,-0.09 0.04,-0.03 0.07,-0.06 0.1,-0.09 0.03,-0.03 0.06,-0.06 0.08,-0.09 0.03,-0.03 0.06,-0.06 0.09,-0.09 0.02,-0.03 0.05,-0.06 0.07,-0.09 0.03,-0.03 0.05,-0.06 0.07,-0.1 0.02,-0.02 0.04,-0.05 0.06,-0.07 0.02,-0.04 0.05,-0.07 0.07,-0.11 0.01,-0.02 0.03,-0.05 0.04,-0.08 0.02,-0.03 0.04,-0.07 0.05,-0.1 0.01,-0.03 0.02,-0.05 0.03,-0.08 0.02,-0.04 0.03,-0.07 0.04,-0.11 0.01,-0.02 0.02,-0.05 0.02,-0.07 0.01,-0.04 0.02,-0.08 0.03,-0.12 0,-0.02 0,-0.04 0.01,-0.07 0,-0.03 0,-0.08 0,-0.11 0,-0.02 0.01,-0.03 0.01,-0.04 0,-0.01 -0.01,-0.02 -0.01,-0.03 0,-0.04 0,-0.08 0,-0.12 -0.01,-0.02 -0.01,-0.05 -0.01,-0.07 -0.01,-0.04 -0.02,-0.08 -0.03,-0.12 0,-0.02 -0.01,-0.04 -0.02,-0.07 -0.01,-0.03 -0.02,-0.07 -0.04,-0.11 -0.01,-0.02 -0.02,-0.05 -0.03,-0.07 -0.01,-0.04 -0.03,-0.07 -0.05,-0.11 -0.01,-0.03 -0.03,-0.05 -0.04,-0.08 -0.02,-0.03 -0.05,-0.07 -0.07,-0.1 -0.02,-0.03 -0.04,-0.05 -0.06,-0.08 -0.02,-0.03 -0.04,-0.07 -0.07,-0.1 -0.02,-0.03 -0.05,-0.06 -0.07,-0.08 -0.03,-0.03 -0.06,-0.07 -0.09,-0.1 -0.02,-0.03 -0.05,-0.06 -0.08,-0.09 -0.03,-0.02 -0.06,-0.05 -0.1,-0.08 -0.03,-0.03 -0.06,-0.06 -0.1,-0.1 -0.03,-0.02 -0.06,-0.05 -0.1,-0.08 -0.04,-0.03 -0.08,-0.06 -0.12,-0.09 -0.03,-0.03 -0.07,-0.05 -0.1,-0.08 -0.05,-0.03 -0.1,-0.07 -0.14,-0.1 -0.04,-0.02 -0.07,-0.05 -0.11,-0.07 -0.05,-0.03 -0.11,-0.07 -0.16,-0.1 -0.04,-0.03 -0.07,-0.05 -0.11,-0.07 -0.06,-0.03 -0.12,-0.07 -0.18,-0.11 -0.04,-0.02 -0.08,-0.04 -0.11,-0.06 -0.07,-0.03 -0.14,-0.07 -0.2,-0.11 -0.04,-0.01 -0.08,-0.03 -0.12,-0.05 -0.07,-0.04 -0.14,-0.08 -0.22,-0.11 -0.04,-0.02 -0.08,-0.04 -0.11,-0.06 -0.08,-0.04 -0.16,-0.07 -0.25,-0.11 -0.03,-0.02 -0.07,-0.03 -0.11,-0.05 -0.09,-0.04 -0.17,-0.08 -0.26,-0.11 -0.04,-0.02 -0.08,-0.04 -0.12,-0.05 -0.09,-0.04 -0.19,-0.08 -0.28,-0.12 -0.04,-0.01 -0.08,-0.03 -0.12,-0.04 -0.1,-0.04 -0.2,-0.08 -0.3,-0.11 -0.04,-0.02 -0.08,-0.04 -0.12,-0.05 -0.11,-0.04 -0.21,-0.07 -0.32,-0.11 -0.04,-0.02 -0.08,-0.03 -0.13,-0.05 -0.1,-0.03 -0.21,-0.07 -0.33,-0.11 -0.04,-0.01 -0.08,-0.02 -0.13,-0.04 -0.11,-0.04 -0.23,-0.07 -0.35,-0.11 -0.04,-0.01 -0.08,-0.03 -0.13,-0.04 -0.12,-0.04 -0.24,-0.07 -0.36,-0.11 -0.05,-0.01 -0.09,-0.02 -0.14,-0.04 -0.12,-0.03 -0.25,-0.07 -0.38,-0.11 -0.05,-0.01 -0.09,-0.02 -0.14,-0.03 -0.13,-0.04 -0.26,-0.08 -0.4,-0.11 -0.04,-0.01 -0.09,-0.03 -0.13,-0.04 -0.14,-0.03 -0.29,-0.07 -0.43,-0.11 -0.04,-0.01 -0.08,-0.02 -0.12,-0.03 -0.15,-0.03 -0.3,-0.07 -0.46,-0.11 -0.04,-0.01 -0.08,-0.02 -0.11,-0.02 -0.16,-0.04 -0.32,-0.08 -0.49,-0.12 -0.03,0 -0.06,-0.01 -0.1,-0.02 -0.17,-0.04 -0.34,-0.08 -0.52,-0.11 -0.02,-0.01 -0.05,-0.01 -0.08,-0.02 -0.18,-0.04 -0.37,-0.08 -0.56,-0.12 -0.02,0 -0.03,-0.01 -0.05,-0.01 -0.2,-0.04 -0.41,-0.08 -0.61,-0.12l-0.01 0c-7.28,-1.42 -17.66,-2.31 -29.19,-2.31 -11.86,0 -22.51,0.94 -29.82,2.43zm1.63 -0.31c7.21,-1.31 17.18,-2.12 28.19,-2.12 11.01,0 20.98,0.81 28.2,2.12 7.21,1.31 11.68,3.12 11.68,5.12 0,2 -4.47,3.82 -11.68,5.13 -7.22,1.31 -17.19,2.12 -28.2,2.12 -11.01,0 -20.98,-0.81 -28.19,-2.12 -7.22,-1.31 -11.68,-3.13 -11.68,-5.13 0,-2 4.46,-3.81 11.68,-5.12z"/>
   </g>
  </g>
 </g>
</svg>
