<?xml version="1.0" encoding="UTF-8"?>
<!DOCTYPE svg PUBLIC "-//W3C//DTD SVG 1.1//EN" "http://www.w3.org/Graphics/SVG/1.1/DTD/svg11.dtd">
<!-- Creator: CorelDRAW -->
<svg xmlns="http://www.w3.org/2000/svg" xml:space="preserve" width="888px" height="598px" version="1.1" style="shape-rendering:geometricPrecision; text-rendering:geometricPrecision; image-rendering:optimizeQuality; fill-rule:evenodd; clip-rule:evenodd"
viewBox="0 0 888 598.5"
 xmlns:xlink="http://www.w3.org/1999/xlink"
 xmlns:xodm="http://www.corel.com/coreldraw/odm/2003">
 <defs>
  <style type="text/css">
   <![CDATA[
    .fil0 {fill:#373435}
    .fil1 {fill:#373435;fill-rule:nonzero}
   ]]>
  </style>
     <mask id="id0">
  <radialGradient id="id1" gradientUnits="userSpaceOnUse" cx="355.26" cy="433.31" r="0" fx="355.26" fy="433.31">
   <stop offset="0" style="stop-opacity:1; stop-color:white"/>
   <stop offset="1" style="stop-opacity:0; stop-color:white"/>
  </radialGradient>
      <rect style="fill:url(#id1)" x="355.26" y="433.31" width="79.75" height="14.49"/>
     </mask>
     <mask id="id2">
  <radialGradient id="id3" gradientUnits="userSpaceOnUse" cx="354.91" cy="432.96" r="0" fx="354.91" fy="432.96">
   <stop offset="0" style="stop-opacity:1; stop-color:white"/>
   <stop offset="1" style="stop-opacity:0; stop-color:white"/>
  </radialGradient>
      <rect style="fill:url(#id3)" x="354.91" y="432.96" width="80.45" height="15.2"/>
     </mask>
     <mask id="id4">
  <radialGradient id="id5" gradientUnits="userSpaceOnUse" cx="448.89" cy="458" r="0" fx="448.89" fy="458">
   <stop offset="0" style="stop-opacity:1; stop-color:white"/>
   <stop offset="1" style="stop-opacity:0; stop-color:white"/>
  </radialGradient>
      <rect style="fill:url(#id5)" x="448.89" y="458" width="79.75" height="14.49"/>
     </mask>
     <mask id="id6">
  <radialGradient id="id7" gradientUnits="userSpaceOnUse" cx="448.54" cy="457.65" r="0" fx="448.54" fy="457.65">
   <stop offset="0" style="stop-opacity:1; stop-color:white"/>
   <stop offset="1" style="stop-opacity:0; stop-color:white"/>
  </radialGradient>
      <rect style="fill:url(#id7)" x="448.54" y="457.65" width="80.45" height="15.2"/>
     </mask>
 </defs>
 <g id="Capa_x0020_1">
  <metadata id="CorelCorpID_0Corel-Layer"/>
  <g id="_2263007965520">
   <g>
    <path class="fil0" style="mask:url(#id0)" d="M395.14 433.31c22.02,0 39.87,3.25 39.87,7.25 0,4 -17.85,7.24 -39.87,7.24 -22.02,0 -39.88,-3.24 -39.88,-7.24 0,-4 17.86,-7.25 39.88,-7.25z"/>
    <path id="_1" class="fil1" style="mask:url(#id2)" d="M435.36 440.56l-0.7 0 0 0 -0.04 -0.28 -0.12 -0.29 -0.22 -0.31 -0.31 -0.32 -0.41 -0.32 -0.52 -0.33 -0.6 -0.33 -0.7 -0.32 -0.78 -0.31 -0.87 -0.31 -0.95 -0.3 -1.03 -0.29 -1.1 -0.28 -1.18 -0.27 -1.24 -0.27 -1.32 -0.25 -1.38 -0.23 -1.44 -0.23 -1.5 -0.22 -1.56 -0.2 -1.61 -0.19 -1.67 -0.17 -1.72 -0.16 -1.76 -0.14 -1.8 -0.13 -1.85 -0.12 -1.89 -0.09 -1.93 -0.09 -1.96 -0.06 -1.99 -0.04 -2.02 -0.03 -2.05 -0.01 0 -0.71 2.05 0.01 2.03 0.03 2 0.04 1.97 0.07 1.93 0.08 1.9 0.09 1.85 0.12 1.82 0.13 1.77 0.14 1.72 0.16 1.67 0.18 1.62 0.19 1.57 0.2 1.51 0.22 1.46 0.22 1.39 0.24 1.32 0.26 1.26 0.26 1.19 0.28 1.12 0.28 1.05 0.3 0.97 0.31 0.89 0.31 0.82 0.33 0.73 0.34 0.65 0.35 0.56 0.36 0.48 0.37 0.38 0.39 0.29 0.42 0.19 0.45 0.06 0.47 0 0zm-40.22 7.6l0 -0.71 0 0 2.05 -0.01 2.02 -0.03 1.99 -0.05 1.96 -0.06 1.93 -0.08 1.89 -0.1 1.85 -0.11 1.8 -0.13 1.76 -0.15 1.72 -0.16 1.67 -0.17 1.61 -0.19 1.56 -0.2 1.5 -0.21 1.44 -0.23 1.38 -0.24 1.32 -0.25 1.24 -0.26 1.18 -0.27 1.1 -0.29 1.03 -0.29 0.95 -0.3 0.87 -0.3 0.78 -0.32 0.7 -0.32 0.6 -0.33 0.52 -0.32 0.41 -0.33 0.31 -0.32 0.22 -0.31 0.12 -0.29 0.04 -0.27 0.7 0 -0.06 0.47 -0.19 0.44 -0.29 0.42 -0.38 0.39 -0.48 0.38 -0.56 0.36 -0.65 0.35 -0.73 0.33 -0.82 0.33 -0.89 0.32 -0.97 0.3 -1.05 0.3 -1.12 0.29 -1.19 0.27 -1.26 0.27 -1.32 0.25 -1.39 0.24 -1.46 0.23 -1.51 0.21 -1.57 0.21 -1.62 0.19 -1.67 0.17 -1.72 0.16 -1.77 0.15 -1.82 0.13 -1.85 0.11 -1.9 0.1 -1.93 0.08 -1.97 0.06 -2 0.05 -2.03 0.03 -2.05 0.01 0 0zm-40.23 -7.6l0.71 0 0 0 0.04 0.27 0.12 0.29 0.21 0.31 0.32 0.32 0.41 0.33 0.51 0.32 0.61 0.33 0.7 0.32 0.78 0.32 0.87 0.3 0.95 0.3 1.02 0.29 1.11 0.29 1.18 0.27 1.24 0.26 1.32 0.25 1.37 0.24 1.45 0.23 1.5 0.21 1.56 0.2 1.61 0.19 1.67 0.17 1.71 0.16 1.76 0.15 1.81 0.13 1.85 0.11 1.89 0.1 1.93 0.08 1.96 0.06 1.99 0.05 2.02 0.03 2.05 0.01 0 0.71 -2.06 -0.01 -2.02 -0.03 -2 -0.05 -1.97 -0.06 -1.93 -0.08 -1.9 -0.1 -1.86 -0.11 -1.81 -0.13 -1.77 -0.15 -1.72 -0.16 -1.67 -0.17 -1.63 -0.19 -1.57 -0.21 -1.51 -0.21 -1.45 -0.23 -1.39 -0.24 -1.33 -0.25 -1.26 -0.27 -1.19 -0.27 -1.12 -0.29 -1.04 -0.3 -0.97 -0.3 -0.9 -0.32 -0.81 -0.33 -0.73 -0.33 -0.65 -0.35 -0.56 -0.36 -0.48 -0.38 -0.38 -0.39 -0.3 -0.42 -0.18 -0.44 -0.07 -0.47 0 0zm40.23 -7.6l0 0.71 0 0 -2.05 0.01 -2.02 0.03 -1.99 0.04 -1.96 0.06 -1.93 0.09 -1.89 0.09 -1.85 0.12 -1.81 0.13 -1.76 0.14 -1.71 0.16 -1.67 0.17 -1.61 0.19 -1.56 0.2 -1.5 0.22 -1.45 0.23 -1.37 0.23 -1.32 0.25 -1.24 0.27 -1.18 0.27 -1.11 0.28 -1.02 0.29 -0.95 0.3 -0.87 0.31 -0.78 0.31 -0.7 0.32 -0.61 0.33 -0.51 0.33 -0.41 0.32 -0.32 0.32 -0.21 0.31 -0.12 0.29 -0.04 0.28 -0.71 0 0.07 -0.47 0.18 -0.45 0.3 -0.42 0.38 -0.39 0.48 -0.37 0.56 -0.36 0.65 -0.35 0.73 -0.34 0.81 -0.33 0.9 -0.31 0.97 -0.31 1.04 -0.3 1.12 -0.28 1.19 -0.28 1.26 -0.26 1.33 -0.26 1.39 -0.24 1.45 -0.22 1.51 -0.22 1.57 -0.2 1.63 -0.19 1.67 -0.18 1.72 -0.16 1.77 -0.14 1.81 -0.13 1.86 -0.12 1.9 -0.09 1.93 -0.08 1.97 -0.07 2 -0.04 2.02 -0.03 2.06 -0.01 0 0z"/>
   </g>
  </g>
  <g id="_2263007967536">
   <g>
    <path class="fil0" style="mask:url(#id4)" d="M488.77 458c-22.02,0 -39.88,3.25 -39.88,7.25 0,4 17.86,7.24 39.88,7.24 22.02,0 39.87,-3.24 39.87,-7.24 0,-4 -17.85,-7.25 -39.87,-7.25z"/>
    <path id="_1_0" class="fil1" style="mask:url(#id6)" d="M448.54 465.25l0 0 0.07 -0.47 0.18 -0.45 0.3 -0.41 0.38 -0.4 0.48 -0.37 0.56 -0.36 0.65 -0.35 0.73 -0.34 0.81 -0.32 0.9 -0.32 0.97 -0.31 1.04 -0.29 1.12 -0.29 1.19 -0.28 1.26 -0.26 1.33 -0.25 1.39 -0.24 1.45 -0.23 1.51 -0.22 1.57 -0.2 1.62 -0.19 1.68 -0.17 1.72 -0.16 1.77 -0.15 1.81 -0.13 1.86 -0.11 1.9 -0.1 1.93 -0.08 1.97 -0.07 1.99 -0.04 2.03 -0.03 2.06 -0.01 0 0.71 -2.05 0.01 -2.02 0.03 -1.99 0.04 -1.96 0.07 -1.93 0.08 -1.89 0.1 -1.85 0.11 -1.81 0.13 -1.76 0.14 -1.71 0.16 -1.67 0.18 -1.61 0.18 -1.56 0.21 -1.5 0.21 -1.45 0.23 -1.37 0.24 -1.32 0.25 -1.24 0.26 -1.18 0.27 -1.1 0.28 -1.03 0.29 -0.95 0.3 -0.87 0.31 -0.78 0.32 -0.7 0.32 -0.61 0.32 -0.51 0.33 -0.41 0.32 -0.32 0.32 -0.21 0.31 -0.12 0.29 -0.04 0.28 0 0 -0.71 0zm40.23 7.6l0 0 -2.06 -0.01 -2.03 -0.03 -1.99 -0.05 -1.97 -0.06 -1.93 -0.08 -1.9 -0.1 -1.86 -0.11 -1.81 -0.13 -1.77 -0.15 -1.72 -0.16 -1.68 -0.17 -1.62 -0.19 -1.57 -0.2 -1.51 -0.22 -1.45 -0.23 -1.39 -0.24 -1.33 -0.25 -1.26 -0.27 -1.19 -0.27 -1.12 -0.29 -1.04 -0.29 -0.97 -0.31 -0.9 -0.32 -0.81 -0.33 -0.73 -0.33 -0.65 -0.35 -0.56 -0.36 -0.48 -0.38 -0.38 -0.39 -0.3 -0.42 -0.18 -0.44 -0.07 -0.47 0.71 0 0.04 0.28 0.12 0.29 0.21 0.3 0.32 0.32 0.41 0.33 0.51 0.33 0.61 0.32 0.7 0.32 0.78 0.32 0.87 0.3 0.95 0.3 1.03 0.3 1.1 0.28 1.18 0.27 1.24 0.26 1.32 0.25 1.37 0.24 1.45 0.23 1.5 0.21 1.56 0.2 1.61 0.19 1.67 0.18 1.71 0.16 1.76 0.14 1.81 0.13 1.85 0.11 1.89 0.1 1.93 0.08 1.96 0.06 1.99 0.05 2.02 0.03 2.05 0.01 0 0 0 0.71zm40.22 -7.6l0 0 -0.06 0.47 -0.19 0.44 -0.29 0.42 -0.38 0.39 -0.48 0.38 -0.56 0.36 -0.65 0.35 -0.73 0.33 -0.82 0.33 -0.89 0.32 -0.97 0.31 -1.05 0.29 -1.12 0.29 -1.19 0.27 -1.26 0.27 -1.32 0.25 -1.39 0.24 -1.46 0.23 -1.51 0.22 -1.56 0.2 -1.63 0.19 -1.67 0.17 -1.72 0.16 -1.77 0.15 -1.82 0.13 -1.85 0.11 -1.9 0.1 -1.93 0.08 -1.97 0.06 -2 0.05 -2.03 0.03 -2.05 0.01 0 -0.71 2.05 -0.01 2.02 -0.03 1.99 -0.05 1.96 -0.06 1.93 -0.08 1.89 -0.1 1.85 -0.11 1.8 -0.13 1.76 -0.14 1.72 -0.16 1.67 -0.18 1.61 -0.19 1.56 -0.2 1.5 -0.21 1.44 -0.23 1.38 -0.24 1.32 -0.25 1.24 -0.26 1.18 -0.27 1.1 -0.28 1.03 -0.3 0.95 -0.3 0.87 -0.3 0.78 -0.32 0.7 -0.32 0.6 -0.32 0.52 -0.33 0.41 -0.33 0.32 -0.32 0.21 -0.3 0.12 -0.29 0.04 -0.28 0 0 0.7 0zm-40.22 -7.6l0 0 2.05 0.01 2.03 0.03 2 0.04 1.97 0.07 1.93 0.08 1.9 0.1 1.85 0.11 1.82 0.13 1.77 0.15 1.72 0.16 1.67 0.17 1.63 0.19 1.56 0.2 1.51 0.22 1.46 0.23 1.39 0.24 1.32 0.25 1.26 0.26 1.19 0.28 1.12 0.29 1.05 0.29 0.97 0.31 0.89 0.32 0.82 0.32 0.73 0.34 0.65 0.35 0.56 0.36 0.48 0.37 0.38 0.4 0.29 0.41 0.19 0.45 0.06 0.47 -0.7 0 -0.04 -0.28 -0.12 -0.29 -0.21 -0.31 -0.32 -0.32 -0.41 -0.32 -0.52 -0.33 -0.6 -0.32 -0.7 -0.32 -0.78 -0.32 -0.87 -0.31 -0.95 -0.3 -1.03 -0.29 -1.1 -0.28 -1.18 -0.27 -1.24 -0.26 -1.32 -0.25 -1.38 -0.24 -1.44 -0.23 -1.5 -0.21 -1.56 -0.21 -1.61 -0.18 -1.67 -0.18 -1.72 -0.16 -1.76 -0.14 -1.8 -0.13 -1.85 -0.11 -1.89 -0.1 -1.93 -0.08 -1.96 -0.07 -1.99 -0.04 -2.02 -0.03 -2.05 -0.01 0 0 0 -0.71z"/>
   </g>
  </g>
 </g>
</svg>
