<?xml version="1.0" encoding="UTF-8"?>
<!DOCTYPE svg PUBLIC "-//W3C//DTD SVG 1.1//EN" "http://www.w3.org/Graphics/SVG/1.1/DTD/svg11.dtd">
<!-- Creator: CorelDRAW -->
<svg xmlns="http://www.w3.org/2000/svg" xml:space="preserve" width="888px" height="598px" version="1.1" style="shape-rendering:geometricPrecision; text-rendering:geometricPrecision; image-rendering:optimizeQuality; fill-rule:evenodd; clip-rule:evenodd"
viewBox="0 0 888 598.5"
 xmlns:xlink="http://www.w3.org/1999/xlink"
 xmlns:xodm="http://www.corel.com/coreldraw/odm/2003">
 <defs>
  <style type="text/css">
   <![CDATA[
    .fil0 {fill:#9AACB8}
   ]]>
  </style>
 </defs>
 <g id="Capa_x0020_1">
  <metadata id="CorelCorpID_0Corel-Layer"/>
  <path class="fil0" d="M385.09 433.22l-0.14 -0.09 2.2 -2.73c-0.46,-0.22 -0.93,-0.49 -1.43,-0.79l-2.09 2.59 -0.13 -0.11 -0.14 -0.11 2.07 -2.56c-0.43,-0.28 -0.87,-0.59 -1.32,-0.93l-1.94 2.4 -0.11 -0.12 -0.13 -0.13 1.91 -2.37c-0.27,-0.21 -0.54,-0.43 -0.81,-0.66 -0.15,-0.13 -0.29,-0.25 -0.42,-0.38l-1.73 2.15 -0.09 -0.12 -0.13 -0.17 1.7 -2.11c-0.4,-0.42 -0.74,-0.86 -1.01,-1.3l-1.6 1.98 -0.07 -0.12 -0.11 -0.21 1.59 -1.98c-0.31,-0.57 -0.52,-1.16 -0.65,-1.76l-1.71 2.14 -0.06 -0.13c-0.03,-0.07 -0.06,-0.16 -0.1,-0.24l1.8 -2.23c-0.13,-0.93 -0.05,-1.88 0.21,-2.82l-2.62 3.25c-0.04,-0.14 -0.08,-0.27 -0.12,-0.41l3.04 -3.78c0.19,-0.48 0.42,-0.96 0.68,-1.43 0.31,-0.55 0.45,-1 0.46,-1.37 -3.12,3 -5.9,5.53 -6.6,11.98 -0.02,1.42 0.43,2.73 1.85,3.86 2.52,2 4.13,5.44 6.23,6.56 3.59,1.91 6.89,0.11 9.71,-0.45 1.59,-0.32 3.22,-1.07 4.77,-1.99l-3.1 -5.9 -3.91 4.86 -0.25 -0.06 -0.14 -0.02 3.87 -4.81c-0.51,0.2 -1.55,0.55 -2.63,0.71l-2.94 3.65 -0.22 -0.07 -0.14 -0.05 2.8 -3.47c-0.18,0.02 -0.37,0.03 -0.55,0.03 -0.42,0 -0.89,-0.06 -1.4,-0.17l-2.42 3 -0.19 -0.08 -0.14 -0.07 2.38 -2.94c-0.5,-0.14 -1.03,-0.33 -1.6,-0.59l-2.22 2.77 -0.16 -0.1zm22.95 -15.99c-3.81,4.27 -6.56,9.16 -11.09,12.15l3.31 5.69c1.88,-1.35 3.49,-2.75 4.53,-3.59 4.31,-3.46 3.88,-5.52 7.94,-11.86 0,0 2.52,-3.38 3.3,-4.48 2.3,-3.19 6.68,-10.69 9.51,-13.66 4.28,-4.48 12.39,-10.98 12.48,-17.63 0.05,-3.82 -2.04,-7.25 -3.76,-11.05 -0.68,-1.52 -1.31,-3.1 -1.72,-4.79 -0.65,-2.67 -0.73,-6.58 -0.7,-9.33 0,-0.31 0.01,-0.62 0.02,-0.94 -2.93,8.96 -0.54,12.85 1.16,23.76 0.47,3.01 -4.03,8.58 -4.03,8.58 -2.65,3.37 -8.46,6.69 -10.53,11.04 -3.1,6.54 -6.49,11.71 -10.42,16.11z"/>
  <path class="fil0" d="M498.82 457.91l0.14 -0.09 -2.2 -2.73c0.46,-0.22 0.93,-0.48 1.43,-0.79l2.08 2.59 0.14 -0.11 0.14 -0.11 -2.07 -2.56c0.43,-0.28 0.87,-0.59 1.32,-0.93l1.93 2.4 0.11 -0.11 0.14 -0.14 -1.91 -2.37c0.27,-0.21 0.54,-0.43 0.81,-0.66 0.15,-0.13 0.28,-0.25 0.42,-0.38l1.73 2.15 0.09 -0.12 0.12 -0.17 -1.7 -2.11c0.41,-0.42 0.74,-0.85 1.02,-1.3l1.6 1.98 0.07 -0.12 0.11 -0.21 -1.59 -1.98c0.31,-0.57 0.52,-1.16 0.64,-1.76l1.72 2.14 0.05 -0.13c0.03,-0.07 0.07,-0.16 0.1,-0.24l-1.79 -2.23c0.12,-0.92 0.04,-1.87 -0.21,-2.82l2.62 3.25c0.04,-0.13 0.08,-0.27 0.12,-0.41l-3.04 -3.78c-0.19,-0.48 -0.42,-0.96 -0.69,-1.43 -0.31,-0.55 -0.44,-1 -0.45,-1.37 3.11,3.01 5.9,5.53 6.6,11.98 0.02,1.43 -0.44,2.74 -1.85,3.86 -2.52,2 -4.13,5.45 -6.23,6.56 -3.59,1.91 -6.89,0.11 -9.71,-0.45 -1.59,-0.32 -3.23,-1.07 -4.77,-1.99l3.1 -5.9 3.91 4.86 0.25 -0.05 0.13 -0.03 -3.87 -4.81c0.52,0.2 1.55,0.55 2.64,0.72l2.94 3.64 0.22 -0.07 0.13 -0.05 -2.79 -3.47c0.18,0.02 0.37,0.03 0.55,0.03 0.42,0 0.89,-0.05 1.4,-0.17l2.42 3.01 0.19 -0.09 0.13 -0.06 -2.37 -2.95c0.5,-0.14 1.03,-0.33 1.59,-0.58l2.23 2.76 0.16 -0.1zm-22.95 -15.99c3.81,4.27 6.56,9.16 11.09,12.16l-3.31 5.68c-1.88,-1.35 -3.49,-2.75 -4.53,-3.59 -4.31,-3.46 -3.88,-5.52 -7.94,-11.85 0,0 -2.53,-3.39 -3.31,-4.49 -2.29,-3.19 -6.67,-10.69 -9.5,-13.66 -4.28,-4.48 -12.39,-10.98 -12.48,-17.63 -0.05,-3.82 2.04,-7.25 3.75,-11.05 0.69,-1.52 1.32,-3.1 1.73,-4.79 0.65,-2.67 0.73,-6.58 0.7,-9.33 -0.01,-0.3 -0.01,-0.62 -0.02,-0.94 2.93,8.96 0.54,12.85 -1.16,23.76 -0.47,3.02 4.02,8.59 4.02,8.59 2.66,3.36 8.47,6.68 10.54,11.03 3.1,6.54 6.49,11.71 10.42,16.11z"/>
 </g>
</svg>
