<?xml version="1.0" encoding="UTF-8"?>
<!DOCTYPE svg PUBLIC "-//W3C//DTD SVG 1.1//EN" "http://www.w3.org/Graphics/SVG/1.1/DTD/svg11.dtd">
<!-- Creator: CorelDRAW -->
<svg xmlns="http://www.w3.org/2000/svg" xml:space="preserve" width="888px" height="598px" version="1.1" style="shape-rendering:geometricPrecision; text-rendering:geometricPrecision; image-rendering:optimizeQuality; fill-rule:evenodd; clip-rule:evenodd"
viewBox="0 0 888 598.5"
 xmlns:xlink="http://www.w3.org/1999/xlink"
 xmlns:xodm="http://www.corel.com/coreldraw/odm/2003">
 <defs>
  <style type="text/css">
   <![CDATA[
    .str1 {stroke:#29394A;stroke-width:0.9;stroke-miterlimit:22.9256}
    .str0 {stroke:#29394A;stroke-width:0.9;stroke-miterlimit:22.9256}
    .fil0 {fill:none}
   ]]>
  </style>
 </defs>
 <g id="Capa_x0020_1">
  <metadata id="CorelCorpID_0Corel-Layer"/>
  <path class="fil0 str0" d="M412.73 419.62c-4.06,6.34 -3.63,8.4 -7.94,11.86 -2.21,1.78 -7.02,6.14 -11.51,7.04 -2.82,0.56 -6.12,2.36 -9.71,0.45 -2.1,-1.12 -3.71,-4.56 -6.23,-6.56 -1.42,-1.13 -1.87,-2.44 -1.85,-3.86 1.09,-10.08 7.27,-10.58 11.86,-18.29 5,-6.41 9.07,-11.84 12.91,-18.47 1.9,-3.29 3.54,-6.61 4.86,-9.67 1.93,-4.49 3.17,-10.44 3.01,-16.95 -0.33,-14.05 -1.87,-27.46 -3.19,-37.63 -1.78,-13.57 -3.64,-19.33 -4.65,-33.24 -1.25,-17.2 -0.3,-31.15 0.39,-47.81 0.21,-5.1 -0.72,-16.4 -0.71,-17.18 -0.19,-2.31 0.2,-2.15 1.22,-2.6 5.39,-1.87 22.14,-3.75 28.38,-3.77 2.69,0.04 2.26,0.4 2.34,1.58 0.05,0.36 0.2,3.05 0.23,4.42 0.1,5.09 1.3,15.83 1.93,20.56 2.94,22.03 6.3,20.4 5.2,50.14 -0.19,5.93 -1.7,13.56 -3.1,22.18 -1.14,7.06 -3.16,17.16 -3.71,23.98 -0.17,1.23 -0.56,7.92 -0.62,12.88 -0.03,2.75 0.05,6.66 0.7,9.33 0.41,1.69 1.04,3.27 1.72,4.79 1.72,3.8 3.81,7.23 3.76,11.05 -0.09,6.65 -8.2,13.15 -12.48,17.63 -2.83,2.97 -7.21,10.47 -9.51,13.66 -0.78,1.1 -3.3,4.48 -3.3,4.48z"/>
  <path class="fil0 str1" d="M471.18 444.32c4.06,6.33 3.63,8.39 7.94,11.85 2.21,1.78 7.02,6.15 11.51,7.04 2.82,0.56 6.12,2.36 9.71,0.45 2.1,-1.11 3.71,-4.56 6.23,-6.56 1.41,-1.12 1.87,-2.43 1.85,-3.86 -1.1,-10.08 -7.28,-10.57 -11.87,-18.28 -4.99,-6.41 -9.06,-11.85 -12.9,-18.47 -1.91,-3.3 -3.54,-6.61 -4.86,-9.68 -1.93,-4.48 -3.17,-10.44 -3.02,-16.94 0.34,-14.06 1.87,-27.47 3.2,-37.64 1.77,-13.57 3.63,-19.33 4.65,-33.24 1.25,-17.2 0.3,-31.15 -0.39,-47.8 -0.21,-5.11 0.71,-16.41 0.7,-17.18 0.19,-2.31 -0.19,-2.16 -1.21,-2.6 -5.4,-1.88 -22.14,-3.75 -28.38,-3.78 -2.69,0.04 -2.27,0.4 -2.34,1.58 -0.05,0.37 -0.2,3.06 -0.23,4.42 -0.1,5.09 -1.3,15.83 -1.93,20.57 -2.94,22.03 -6.3,20.4 -5.2,50.14 0.19,5.92 1.7,13.55 3.1,22.17 1.14,7.06 3.15,17.16 3.71,23.99 0.17,1.22 0.56,7.91 0.62,12.87 0.03,2.75 -0.05,6.66 -0.7,9.33 -0.41,1.69 -1.04,3.27 -1.73,4.79 -1.71,3.8 -3.8,7.23 -3.75,11.05 0.09,6.65 8.2,13.15 12.48,17.63 2.83,2.97 7.21,10.47 9.5,13.66 0.78,1.1 3.31,4.49 3.31,4.49z"/>
 </g>
</svg>
