<?xml version="1.0" encoding="UTF-8"?>
<!DOCTYPE svg PUBLIC "-//W3C//DTD SVG 1.1//EN" "http://www.w3.org/Graphics/SVG/1.1/DTD/svg11.dtd">
<!-- Creator: CorelDRAW -->
<svg xmlns="http://www.w3.org/2000/svg" xml:space="preserve" width="888px" height="598px" version="1.1" style="shape-rendering:geometricPrecision; text-rendering:geometricPrecision; image-rendering:optimizeQuality; fill-rule:evenodd; clip-rule:evenodd"
viewBox="0 0 888 598.5"
 xmlns:xlink="http://www.w3.org/1999/xlink"
 xmlns:xodm="http://www.corel.com/coreldraw/odm/2003">
 <defs>
  <style type="text/css">
   <![CDATA[
    .str0 {stroke:#ED3237;stroke-width:0.9;stroke-miterlimit:22.9256}
    .fil0 {fill:#FEFEFE}
    .fil1 {fill:#ED3237}
   ]]>
  </style>
 </defs>
 <g id="Capa_x0020_1">
  <metadata id="CorelCorpID_0Corel-Layer"/>
  <rect class="fil0 str0" x="0.43" y="1.21" width="887.1" height="597.6"/>
  <path class="fil1" d="M399.92 288.02l39.24 -8.56c-0.13,-1.7 -0.3,-3.24 -0.49,-4.67l-38.93 8.04c0.04,1.7 0.1,3.43 0.18,5.19zm39.43 -5.38l-39.29 8.12c0.07,1.17 0.14,2.35 0.23,3.54 0.16,2.17 0.34,4.14 0.53,5.97l38.65 -8.86c0.04,-3.39 -0.01,-6.26 -0.12,-8.77z"/>
  <path class="fil1" d="M483.95 313.46l-39.28 -8.12c-0.17,2.57 -0.25,5.52 -0.25,9.08l38.83 8.9c0.13,-1.36 0.25,-2.79 0.37,-4.33 0.13,-1.88 0.25,-3.72 0.33,-5.53zm-39.02 -11.39l39.14 8.53c0.07,-1.82 0.11,-3.61 0.13,-5.38l-38.63 -7.99c-0.24,1.5 -0.46,3.08 -0.64,4.84z"/>
 </g>
</svg>
