<?xml version="1.0" encoding="UTF-8"?>
<!DOCTYPE svg PUBLIC "-//W3C//DTD SVG 1.1//EN" "http://www.w3.org/Graphics/SVG/1.1/DTD/svg11.dtd">
<!-- Creator: CorelDRAW -->
<svg xmlns="http://www.w3.org/2000/svg" xml:space="preserve" width="888px" height="598px" version="1.1" style="shape-rendering:geometricPrecision; text-rendering:geometricPrecision; image-rendering:optimizeQuality; fill-rule:evenodd; clip-rule:evenodd"
viewBox="0 0 888 598.5"
 xmlns:xlink="http://www.w3.org/1999/xlink"
 xmlns:xodm="http://www.corel.com/coreldraw/odm/2003">
 <defs>
  <style type="text/css">
   <![CDATA[
    .str0 {stroke:#ED3237;stroke-width:0.9;stroke-miterlimit:22.9256}
    .fil0 {fill:#FEFEFE}
    .fil1 {fill:#6B809B}
   ]]>
  </style>
 </defs>
 <g id="Capa_x0020_1">
  <metadata id="CorelCorpID_0Corel-Layer"/>
  <rect class="fil0 str0" x="0.43" y="1.21" width="887.1" height="597.6"/>
  <path class="fil1" d="M432 232.68l0.27 4.68 -0.27 -4.68zm-32.03 -3.37c-0.01,0.78 0.92,12.08 0.71,17.18 -0.23,5.48 -0.49,10.66 -0.68,15.76 13.16,0.37 23.17,-5.39 34.75,-8.09 -0.23,-1.43 -0.46,-2.98 -0.68,-4.66 -0.63,-4.73 -1.83,-15.47 -1.93,-20.56 -0.03,-1.37 -0.18,-4.06 -0.23,-4.42 -0.02,-0.29 -0.01,-0.53 -0.02,-0.73 -0.12,0.07 -0.24,0.14 -0.38,0.21l0.48 8.68 -0.58 0.15 -0.48 -8.55c-0.46,0.19 -0.99,0.38 -1.58,0.56l0.47 8.36 -0.59 0.14 -0.47 -8.32c-0.5,0.14 -1.03,0.27 -1.59,0.4l0.46 8.26 -0.59 0.11 -0.46 -8.23c-0.51,0.11 -1.04,0.22 -1.59,0.32l0.46 8.22 -0.6 0.11 -0.46 -8.22c-0.52,0.09 -1.05,0.18 -1.59,0.27l0.46 8.22 -0.6 0.09 -0.46 -8.22c-0.52,0.08 -1.06,0.16 -1.6,0.24l0.46 8.22 -0.59 0.09 -0.46 -8.23c-0.53,0.07 -1.06,0.14 -1.6,0.2l0.46 8.24 -0.59 0.07 -0.47 -8.24c-0.53,0.06 -1.06,0.12 -1.6,0.18l0.46 8.24 -0.59 0.07 -0.46 -8.25c-0.54,0.05 -1.07,0.11 -1.61,0.15l0.47 8.26 -0.6 0.05 -0.46 -8.25c-0.54,0.05 -1.07,0.09 -1.61,0.13l0.47 8.25 -0.6 0.04 -0.46 -8.24c-0.54,0.04 -1.08,0.08 -1.61,0.11l0.46 8.24 -0.59 0.04 -0.46 -8.24c-0.55,0.04 -1.09,0.07 -1.61,0.09l0.46 8.23 -0.6 0.02 -0.46 -8.22c-0.55,0.03 -1.09,0.06 -1.61,0.08l0.46 8.2 -0.59 0.02 -0.47 -8.2c-0.55,0.02 -1.09,0.03 -1.6,0.04l0.46 8.2 -0.6 0.01 -0.46 -8.2c-0.58,0.01 -1.12,0.01 -1.61,0l0.46 8.21 -0.6 0 -0.46 -8.22 -0.25 0c-0.03,0.32 -0.02,0.75 0.03,1.33z"/>
  <path class="fil1" d="M451.91 257.37l-0.27 4.68 0.27 -4.68zm31.32 13.82c-0.21,-5.11 0.71,-16.41 0.7,-17.18 0.05,-0.59 0.06,-1.02 0.04,-1.34l-0.25 0.01 -0.46 8.21 -0.6 0 0.46 -8.2c-0.5,0 -1.03,0 -1.61,-0.01l-0.46 8.2 -0.6 -0.01 0.46 -8.2c-0.51,-0.01 -1.05,-0.02 -1.61,-0.04l-0.46 8.2 -0.6 -0.02 0.46 -8.2c-0.52,-0.02 -1.05,-0.05 -1.6,-0.07l-0.46 8.22 -0.6 -0.03 0.46 -8.22c-0.53,-0.03 -1.06,-0.06 -1.61,-0.1l-0.46 8.24 -0.6 -0.04 0.47 -8.24c-0.53,-0.03 -1.07,-0.07 -1.61,-0.11l-0.46 8.25 -0.6 -0.05 0.46 -8.25c-0.53,-0.04 -1.06,-0.08 -1.6,-0.13l-0.46 8.25 -0.6 -0.05 0.46 -8.25c-0.53,-0.05 -1.07,-0.1 -1.6,-0.16l-0.46 8.25 -0.6 -0.06 0.47 -8.25c-0.54,-0.06 -1.08,-0.12 -1.61,-0.18l-0.46 8.24 -0.59 -0.07 0.46 -8.24c-0.54,-0.06 -1.07,-0.13 -1.6,-0.2l-0.46 8.23 -0.6 -0.09 0.46 -8.22c-0.54,-0.08 -1.07,-0.15 -1.6,-0.23l-0.46 8.21 -0.59 -0.09 0.46 -8.22c-0.54,-0.08 -1.08,-0.17 -1.6,-0.27l-0.46 8.22 -0.59 -0.11 0.46 -8.22c-0.55,-0.1 -1.08,-0.21 -1.59,-0.32l-0.46 8.24 -0.6 -0.12 0.47 -8.25c-0.57,-0.14 -1.1,-0.27 -1.59,-0.41l-0.47 8.32 -0.59 -0.14 0.47 -8.35c-0.59,-0.19 -1.12,-0.38 -1.58,-0.57l-0.48 8.55 -0.59 -0.15 0.49 -8.67c-0.14,-0.07 -0.27,-0.14 -0.38,-0.21 -0.02,0.19 0,0.43 -0.02,0.72 -0.05,0.37 -0.2,3.06 -0.23,4.42 -0.1,5.09 -1.3,15.83 -1.93,20.57 -0.31,2.29 -0.62,4.32 -0.93,6.17 11.69,2.16 22.11,7.23 35,6.66 -0.19,-5.13 -0.45,-10.34 -0.68,-15.84z"/>
 </g>
</svg>
