<?xml version="1.0" encoding="UTF-8"?>
<!DOCTYPE svg PUBLIC "-//W3C//DTD SVG 1.1//EN" "http://www.w3.org/Graphics/SVG/1.1/DTD/svg11.dtd">
<!-- Creator: CorelDRAW -->
<svg xmlns="http://www.w3.org/2000/svg" xml:space="preserve" width="888px" height="598px" version="1.1" style="shape-rendering:geometricPrecision; text-rendering:geometricPrecision; image-rendering:optimizeQuality; fill-rule:evenodd; clip-rule:evenodd"
viewBox="0 0 888 598.5"
 xmlns:xlink="http://www.w3.org/1999/xlink"
 xmlns:xodm="http://www.corel.com/coreldraw/odm/2003">
 <defs>
  <style type="text/css">
   <![CDATA[
    .str0 {stroke:#ED3237;stroke-width:0.9;stroke-miterlimit:22.9256}
    .str1 {stroke:#252323;stroke-width:0.9;stroke-miterlimit:22.9256}
    .fil1 {fill:none}
    .fil0 {fill:#FEFEFE}
   ]]>
  </style>
 </defs>
 <g id="Capa_x0020_1">
  <metadata id="CorelCorpID_0Corel-Layer"/>
  <rect class="fil0 str0" x="0.43" y="1.21" width="887.1" height="597.6"/>
  <path class="fil1 str1" d="M722.59 52.92c-11.19,21.99 -2.28,70.46 3.42,83.8 0.07,-0.12 0.16,-0.23 0.25,-0.31 0.27,-0.55 0.64,-0.91 1.15,-0.89 8.44,-1.21 56.13,6.28 57.86,5.91 1,-1.23 2.14,-3.21 3.76,-6.51 6.08,-11.79 12.74,-29.1 15.36,-38.77 -24.32,-13.55 -55.45,-31.83 -81.8,-43.23z"/>
  <g id="_1987148376784">
   <path class="fil0 str1" d="M548.36 52.98c-26.32,11.4 -57.39,29.64 -81.68,43.17 2.63,9.67 9.29,26.98 15.37,38.77 1.62,3.3 2.75,5.28 3.76,6.51 1.73,0.37 49.42,-7.12 57.86,-5.91 0.59,-0.02 0.99,0.46 1.27,1.16 5.69,-13.38 14.56,-61.71 3.42,-83.7z"/>
  </g>
  <g id="_1987148376592">
   <g>
    <path class="fil1 str1" d="M162.84 136.45c5.69,-13.38 14.56,-61.71 3.42,-83.7 -26.32,11.4 -57.38,29.64 -81.67,43.18 2.62,9.66 9.28,26.97 15.36,38.77 1.62,3.29 2.76,5.27 3.76,6.51 1.73,0.37 49.42,-7.13 57.87,-5.92 0.58,-0.02 0.98,0.46 1.26,1.16z"/>
    <path class="fil1 str1" d="M340.5 52.7c-11.2,21.99 -2.29,70.46 3.41,83.79 0.08,-0.12 0.16,-0.22 0.25,-0.31 0.27,-0.55 0.64,-0.91 1.15,-0.89 8.44,-1.21 56.13,6.29 57.86,5.92 1.01,-1.24 2.14,-3.22 3.76,-6.51 6.08,-11.8 12.75,-29.11 15.37,-38.77 -24.33,-13.56 -55.45,-31.83 -81.8,-43.23z"/>
   </g>
  </g>
 </g>
</svg>
