<?xml version="1.0" encoding="UTF-8"?>
<!DOCTYPE svg PUBLIC "-//W3C//DTD SVG 1.1//EN" "http://www.w3.org/Graphics/SVG/1.1/DTD/svg11.dtd">
<!-- Creator: CorelDRAW -->
<svg xmlns="http://www.w3.org/2000/svg" xml:space="preserve" width="888px" height="598px" version="1.1" style="shape-rendering:geometricPrecision; text-rendering:geometricPrecision; image-rendering:optimizeQuality; fill-rule:evenodd; clip-rule:evenodd"
viewBox="0 0 888 598.5"
 xmlns:xlink="http://www.w3.org/1999/xlink"
 xmlns:xodm="http://www.corel.com/coreldraw/odm/2003">
 <defs>
  <style type="text/css">
   <![CDATA[
    .str0 {stroke:#ED3237;stroke-width:0.9;stroke-miterlimit:22.9256}
    .str1 {stroke:#252323;stroke-width:0.9;stroke-miterlimit:22.9256}
    .fil0 {fill:none}
    .fil1 {fill:#6B809B}
   ]]>
  </style>
 </defs>
 <g id="Capa_x0020_1">
  <metadata id="CorelCorpID_0Corel-Layer"/>
  <rect class="fil0 str0" x="0.43" y="1.21" width="887.1" height="597.6"/>
  <path class="fil1 str1" d="M157.7 344.02c1.21,-19.42 2.44,-40.36 4.08,-62.26 3.33,-44.5 5.03,-93.03 1.76,-140.6 -0.07,-1.05 -0.14,-3.32 -0.7,-4.71 5.69,-13.38 14.56,-61.71 3.42,-83.7l0.26 -0.11c15.03,-5.59 40.74,-11.53 58.28,-21.81 0.25,0.07 0.5,0.14 0.75,0.21l0.05 0.02 0.05 0.01 0 0 0.05 0.01 0.05 0.02c0.22,0.06 0.44,0.12 0.66,0.18l0.05 0.01 0.11 0.03 0.05 0.01 0.05 0.02 0.05 0.01 0.41 0.11 0.05 0.01 0.05 0.01 0.06 0.02 0.25 0.06 0.06 0.01 0.05 0.02 0.05 0.01 0.05 0.01 0.05 0.02 0.11 0.02 0.05 0.02 0.05 0.01 0.05 0.01 0 0c7.78,1.91 16.59,2.93 25.45,3.04 8.86,-0.11 17.66,-1.13 25.44,-3.04l0 0 0.05 -0.01 0.05 -0.01 0.06 -0.02 0.1 -0.02 0.05 -0.02 0.05 -0.01 0.06 -0.01 0.05 -0.02 0.05 -0.01 0.26 -0.06 0.05 -0.02 0.05 -0.01 0.05 -0.01 0.41 -0.11 0.05 -0.01 0.06 -0.02 0.05 -0.01 0.1 -0.03 0.05 -0.01c0.22,-0.06 0.44,-0.12 0.66,-0.18l0.05 -0.02 0.05 -0.01 0.01 0 0.04 -0.01 0.05 -0.02c0.26,-0.07 0.51,-0.14 0.76,-0.21 17.53,10.28 43.12,16.22 58.14,21.81l0.14 0.06c-11.2,21.99 -2.29,70.46 3.41,83.79 0.08,-0.12 0.16,-0.22 0.25,-0.31 -0.66,1.34 -0.73,3.86 -0.82,4.98 -3.27,47.57 -1.56,96.1 1.77,140.6 1.64,21.9 2.86,42.84 4.07,62.26 -6.31,7.21 -185.16,7.21 -191.48,0z"/>
  <path class="fil1 str1" d="M539.8 344.24c1.21,-19.41 2.43,-40.36 4.07,-62.25 3.33,-44.5 5.04,-93.03 1.77,-140.61 -0.08,-1.05 -0.15,-3.32 -0.7,-4.7 5.69,-13.38 14.56,-61.71 3.42,-83.7l0.26 -0.11c15.03,-5.59 40.74,-11.54 58.27,-21.82 0.25,0.08 0.51,0.15 0.76,0.22l0.05 0.01 0.04 0.02 0.01 0 0.05 0.01 0.05 0.02c0.22,0.06 0.44,0.12 0.66,0.17l0.05 0.02 0.1 0.03 0.05 0.01 0.06 0.01 0.05 0.02 0.41 0.1 0.05 0.02 0.05 0.01 0.05 0.01 0.26 0.07 0.05 0.01 0.05 0.01 0.06 0.02 0.05 0.01 0.05 0.01 0.1 0.03 0.06 0.01 0.05 0.01 0.05 0.02 0 0c7.78,1.91 16.58,2.92 25.44,3.04 8.86,-0.12 17.67,-1.13 25.45,-3.04l0 0 0.05 -0.02 0.05 -0.01 0.05 -0.01 0.11 -0.03 0.05 -0.01 0.05 -0.01 0.05 -0.02 0.05 -0.01 0.06 -0.01 0.25 -0.07 0.06 -0.01 0.05 -0.01 0.05 -0.02 0.41 -0.1 0.05 -0.02 0.05 -0.01 0.05 -0.01 0.1 -0.03 0.06 -0.02c0.22,-0.05 0.44,-0.11 0.66,-0.17l0.05 -0.02 0.05 -0.01 0 0 0.05 -0.02 0.05 -0.01c0.25,-0.07 0.5,-0.14 0.75,-0.22 17.54,10.28 43.12,16.23 58.15,21.82l0.13 0.05c-11.19,21.99 -2.28,70.46 3.42,83.8 0.07,-0.12 0.16,-0.23 0.25,-0.31 -0.66,1.34 -0.74,3.85 -0.82,4.97 -3.27,47.58 -1.57,96.11 1.76,140.61 1.64,21.89 2.87,42.84 4.08,62.25 -6.32,7.22 -185.17,7.22 -191.48,0z"/>
 </g>
</svg>
