<?xml version="1.0" encoding="UTF-8"?>
<!DOCTYPE svg PUBLIC "-//W3C//DTD SVG 1.1//EN" "http://www.w3.org/Graphics/SVG/1.1/DTD/svg11.dtd">
<!-- Creator: CorelDRAW -->
<svg xmlns="http://www.w3.org/2000/svg" xml:space="preserve" width="888px" height="598px" version="1.1" style="shape-rendering:geometricPrecision; text-rendering:geometricPrecision; image-rendering:optimizeQuality; fill-rule:evenodd; clip-rule:evenodd"
viewBox="0 0 888 598.5"
 xmlns:xlink="http://www.w3.org/1999/xlink"
 xmlns:xodm="http://www.corel.com/coreldraw/odm/2003">
 <defs>
  <style type="text/css">
   <![CDATA[
    .str0 {stroke:#ED3237;stroke-width:0.9;stroke-miterlimit:22.9256}
    .str4 {stroke:#ED3237;stroke-width:0.9;stroke-linecap:round;stroke-linejoin:round;stroke-miterlimit:22.9256}
    .str1 {stroke:#ED3237;stroke-width:0.9;stroke-linecap:round;stroke-linejoin:round;stroke-miterlimit:22.9256}
    .str3 {stroke:#ED3237;stroke-width:0.9;stroke-linecap:round;stroke-linejoin:round;stroke-miterlimit:22.9256}
    .str2 {stroke:#ED3237;stroke-width:0.9;stroke-linecap:round;stroke-linejoin:round;stroke-miterlimit:22.9256}
    .fil1 {fill:none}
    .fil0 {fill:#FEFEFE}
   ]]>
  </style>
 </defs>
 <g id="Capa_x0020_1">
  <metadata id="CorelCorpID_0Corel-Layer"/>
  <rect class="fil0 str0" x="0.43" y="1.21" width="887.1" height="597.6"/>
  <path class="fil1 str1" d="M24.85 162.12l-12.67 -26.88c47.17,-26.28 103.82,-60.73 153.72,-82.28 14.23,12.94 7.86,60.21 -3.47,82.82 -23.33,-3.39 -123.36,21.66 -137.58,26.34z"/>
  <g id="_1987187068176">
   <path class="fil1 str2" d="M864.43 162.12l12.67 -26.88c-47.17,-26.28 -103.82,-60.73 -153.72,-82.28 -14.23,12.94 -7.86,60.21 3.47,82.82 23.33,-3.39 123.37,21.66 137.58,26.34z"/>
  </g>
  <path class="fil1 str3" d="M407.3 162.12l-12.67 -26.88c47.17,-26.28 103.82,-60.73 153.71,-82.28 14.23,12.94 7.87,60.21 -3.47,82.82 -23.33,-3.39 -123.36,21.66 -137.57,26.34z"/>
  <path class="fil1 str4" d="M481.98 162.12l9.46 -20.07c-15.74,3.08 -32.39,6.82 -46.8,10.28 18.04,4.33 32.56,8.21 37.34,9.79zm-37.34 -55.27c-34.37,-19.54 -70.53,-39.57 -103.7,-53.89 -14.23,12.94 -7.86,60.21 3.47,82.82 9.2,-1.34 30.34,1.75 53.43,6.27l-3.21 -6.81c15.81,-8.81 32.68,-18.54 50.01,-28.39z"/>
 </g>
</svg>
